<svg xmlns="http://www.w3.org/2000/svg" width="230.276" height="404.282" viewBox="0 0 230.276 404.282">
  <g id="decorative_brush" data-name="decorative brush" transform="translate(-5.425 5.648) rotate(-3)">
    <path id="Fill_1" data-name="Fill 1" d="M57.557,102.862h0a4.471,4.471,0,0,1-1.818-.427l-.947-.236-.018,0-.4-.1-1.5-.646-.086-.037-.081-.035-1.53-.658q-.359-.538-.716-1.076l-.182-.275c-.134-.146-.278-.289-.418-.427A5.954,5.954,0,0,1,49,97.948,4.215,4.215,0,0,0,47.1,96.1c-1.655-.781-3.6-1.989-3.918-4.424a4.051,4.051,0,0,0-.351-.245c-.268-.174-.546-.355-.539-.523.059-1.67-1.035-2.593-2.093-3.486l-.229-.194-.5,1.387-.944,2.606-.369.444-.405.488-.13.435c-.039.15-.075.3-.111.451-.076.32-.155.651-.264.965-.536,1.525-.837,2.146-1.668,2.146a6.859,6.859,0,0,1-1.941-.479,5.727,5.727,0,0,0-.479-.392,2.052,2.052,0,0,1-.823-.9,6.13,6.13,0,0,0-2.63-3.219,12.678,12.678,0,0,1-1.484-1.256.113.113,0,0,0-.084-.025,1.032,1.032,0,0,0-.193.03,1.467,1.467,0,0,1-.153.027c-.371.152-.758.358-1.132.558a5.277,5.277,0,0,1-2.214.813,1.6,1.6,0,0,1-.279-.024,5.475,5.475,0,0,1-2.579-1.944c-.174-.189-.339-.368-.505-.54l-.047-.049a21.421,21.421,0,0,1-3.1-3.725,16.07,16.07,0,0,1-1.225-2.81c-.209-.576-.424-1.172-.674-1.737a4.749,4.749,0,0,0-.75-1.075c-.1-.12-.205-.244-.3-.367-.183-.234-.379-.467-.569-.693-1.094-1.3-2.226-2.652-1.455-4.686a4.979,4.979,0,0,0-.638-.63c-.657-.577-1.336-1.173-.693-2.326.068-.122.288-.163.5-.2a2.573,2.573,0,0,0,.283-.063c1.246-2.832.786-4.606-1.824-7.032A6.122,6.122,0,0,1,8.7,59.844c-.069-.413-.474-.755-.9-1.117a5.942,5.942,0,0,1-.613-.567,5.558,5.558,0,0,1-.463-.644c-.292-.448-.568-.872-.915-.928a1.012,1.012,0,0,0-.163-.013,3.147,3.147,0,0,0-1.285.446,7.06,7.06,0,0,1-.715.33,1.691,1.691,0,0,1-.451.077c-.069.005-.14.011-.209.02l-.385.126-.972.32C.088,57.3-.315,56.356.23,54.636c.033-.283.067-.566.1-.848l3.159-3.613c-.282-1.011.3-1.582.858-2.134A3.39,3.39,0,0,0,5.161,47c.143-.253.274-.524.4-.786a5.818,5.818,0,0,1,1-1.612c1.489-1.5,1.676-2.428.873-4.342a2.737,2.737,0,0,1-.464-3.146l.008.006.008.006c.058-.262.106-.533.153-.794a8.928,8.928,0,0,1,.452-1.8,6.214,6.214,0,0,1,.878-1.377c.144-.188.293-.381.428-.576.471-1.148,1.435-1.282,2.366-1.412a4.272,4.272,0,0,0,1.5-.395c.326-.182.665-.355.993-.522l.45-.231c-.094-.109-.2-.216-.295-.32a4.136,4.136,0,0,1-.611-.752,4.148,4.148,0,0,1-.344-.9c-.04-.138-.082-.28-.129-.417q.059-1.06.12-2.122v-.024l.007-.13-.055-.193q-.422-1.483-.843-2.966,0-.674,0-1.346-.081-.413-.159-.827c-.119-.627-.242-1.271-.38-1.9q-.037-.169-.073-.339a10.512,10.512,0,0,0-.473-1.732,9.781,9.781,0,0,1,.306-8.735,14.005,14.005,0,0,0,.781-1.866c.1-.284.21-.578.323-.863l.192-.36.295-.553c.085-.226.159-.464.231-.694A5.667,5.667,0,0,1,13.718,1.5,4.38,4.38,0,0,1,17.13,0a3.366,3.366,0,0,1,1.058.156,1.122,1.122,0,0,1,.486.945,20.51,20.51,0,0,0,.7,6.769,30.734,30.734,0,0,1,.743,4.443c1.459,1.569,1.414,3.477,1.371,5.321-.011.448-.022.911-.011,1.361a5.171,5.171,0,0,0,.517.526,1.9,1.9,0,0,1,.866,1.763c.073.16.158.32.24.475a4.139,4.139,0,0,1,.436,1.038c.244,1.146.46,2.318.669,3.451.135.733.275,1.49.421,2.233.058.294.234.871.376.875,1.2.032,1.3.738,1.408,1.555.021.155.042.315.072.473.234,1.244.583,2.488.92,3.691.142.508.289,1.032.426,1.549a1.35,1.35,0,0,1,.416.709c.141.4.286.82.818.82a1.452,1.452,0,0,0,.329-.043q.083.405.162.81l.081.4.2.095c-.522.945.014,1.616.607,2.148a.3.3,0,0,0,.19.044c.244,0,.578-.1.6-.178a2.825,2.825,0,0,1,.431-.869,1.751,1.751,0,0,0,.33-1.837l-.127-.294C31.24,37,30.6,35.521,31.3,33.786c.144-.352-.136-.884-.407-1.4a6.948,6.948,0,0,1-.34-.708l-.083-.133c-.426-.682-.865-1.385-.01-2.129.021-.1.042-.21.063-.315l.028-.14-.232-.891q-.174-.668-.347-1.337c-.038-.443-.066-.9-.093-1.334a23.413,23.413,0,0,0-.319-3.037,23.618,23.618,0,0,0-.847-2.938c-.141-.42-.286-.852-.418-1.28q.225-1.133.449-2.265-.254-.348-.51-.7l-.007-.01c-.394-.536-.8-1.091-1.193-1.644-1-1.417-.713-2.926.822-4.249C29.513,7.858,31.225,6.5,32.7,5.33a2.157,2.157,0,0,1,1.32-.549c.737,0,1.468.555,2.3,1.746a14.571,14.571,0,0,1,2.2,4.422,10.037,10.037,0,0,0,1.9,4.135,4.3,4.3,0,0,1,.985,3.29,11.273,11.273,0,0,0,.52,3.283c.122.47.248.956.345,1.433l.525,1.065.79,1.6c1.437.865,1.783,2.323,2.118,3.734.044.185.089.374.135.559a14.3,14.3,0,0,0,.514,1.547c.156.417.318.848.443,1.281a26.92,26.92,0,0,0,2.3,5.14A28.9,28.9,0,0,1,51.3,42.845,28.144,28.144,0,0,0,53.314,47.3c.337.643.685,1.307,1,1.968v.459c.219,2,1.428,3.3,2.708,4.679.269.29.548.589.813.892a2.754,2.754,0,0,1,.944,2.149c-.1.624-.628,1.194-1.656,1.793l-.448.344L53.056,62.4l-1,1.305c.123.319.251.643.375.955.29.73.589,1.485.844,2.242.392,1.166.726,2.354,1.091,3.674a1.71,1.71,0,0,1,.018.493c-.01.186-.019.346.04.369,1.291.514,1.532,1.614,1.764,2.677a5.028,5.028,0,0,0,.669,1.858,17.357,17.357,0,0,1,1.849,3.9c.121.32.244.647.369.965a2.926,2.926,0,0,1,.157.964,2.533,2.533,0,0,0,.535,1.67,32.565,32.565,0,0,1,2.775,4.271c.475.822.966,1.671,1.487,2.478a1.619,1.619,0,0,1-.1,2.205,21.956,21.956,0,0,0-4.268,8.929A1.937,1.937,0,0,1,57.557,102.862Zm-32.49-36.9h0l.2.24.181.218a8.663,8.663,0,0,1,2.488.643c-.729-.287-1.474-.571-2.194-.846l-.673-.257c-.15-.125-.3-.259-.442-.377-.177-.152-.357-.307-.536-.456.249.213.528.474.934.874l.015-.014.029-.027ZM19.913,28.55h0a1.569,1.569,0,0,1,.333.342l.057.067.019-.029a.345.345,0,0,0,.021-.033,2.029,2.029,0,0,1,.779-.133,4.217,4.217,0,0,1,.652.056c-.364-.073-.736-.137-1.1-.2l-.572-.1a3.839,3.839,0,0,1-.3-.317,1.75,1.75,0,0,0-.529-.478,2.38,2.38,0,0,1,.7.716c.107.138.229.293.364.456-.065-.007-.171-.112-.264-.206A.635.635,0,0,0,19.913,28.55Z" transform="translate(0 103.684)" fill="#f9c8c4"/>
    <path id="Fill_3" data-name="Fill 3" d="M36.444,126.91a4.924,4.924,0,0,1-3.086-1.477c-.614-.7-1.266-1.377-1.9-2.037-.522-.546-1.062-1.111-1.578-1.681a.848.848,0,0,1-.115-.525,2.491,2.491,0,0,0-.017-.272l-.908-1.813-.445-.889c-.184-.342-.366-.692-.542-1.031-.4-.77-.811-1.564-1.275-2.308a9.067,9.067,0,0,0-.8-1.038,6.162,6.162,0,0,1-1.032-1.482A23.468,23.468,0,0,1,23.4,107.9a4.741,4.741,0,0,1-.075-.738c-.038-.763-.073-1.484-1.187-1.687q.064-.3.129-.61t.129-.612l-.283-.593-.15-.314c-.174-.308-.366-.614-.553-.91a5.779,5.779,0,0,1-1.27-3.83c.028-.246-.172-.5-.383-.773a1.843,1.843,0,0,1-.422-.744,6.555,6.555,0,0,1-.031-1.31,4.2,4.2,0,0,0-.158-1.746A31.307,31.307,0,0,1,18,90.269a22.025,22.025,0,0,0-1.873-5.276,1.1,1.1,0,0,1,.023-.708,3.245,3.245,0,0,0,.069-.36c-.12-.447-.225-.91-.327-1.358a15.551,15.551,0,0,0-.941-3.115,3.2,3.2,0,0,1-.085-2.744,20.767,20.767,0,0,0-.659-2.129,9.393,9.393,0,0,1-.773-4.873,3.7,3.7,0,0,1-.938-2.991,5.1,5.1,0,0,0-.338-2.187c0-.3,0-.6,0-.907q-.469-1.959-.94-3.917l-.466-1.942.027-1.127.027-1.127-.577-1.822-.182-.235-.017-.022-.2-.253a1.216,1.216,0,0,1-.906-.3,1.67,1.67,0,0,1-.26-1.236,2.294,2.294,0,0,0-.055-.771A6.255,6.255,0,0,1,8.443,48.5a10.3,10.3,0,0,0,0-1.646C8.334,45.83,8.139,44.8,7.95,43.8c-.128-.675-.26-1.372-.365-2.062a4.379,4.379,0,0,1,.02-1.066c.016-.162.033-.33.041-.493l-.9-1.822q-.118-.393-.237-.785l0-.008c-.206-.68-.42-1.382-.615-2.077l-.018-.063a1.523,1.523,0,0,1-.088-.809,6.14,6.14,0,0,0-.409-3.907,6.782,6.782,0,0,1-.519-3.458,3,3,0,0,1-.75-2.621,3.159,3.159,0,0,0-.257-1.787,6.344,6.344,0,0,1-.736-3.675,10.531,10.531,0,0,0-.106-1.989A1.429,1.429,0,0,1,1.943,16.7a1.5,1.5,0,0,1,.042-1.2,1.98,1.98,0,0,0,.124-1.025A5.932,5.932,0,0,0,.9,10.42,3.973,3.973,0,0,1,.146,7.029,6.628,6.628,0,0,0,.559,4.115a6.946,6.946,0,0,1,.26-2.451A7.6,7.6,0,0,1,1.376.515C1.47.347,1.566.174,1.655,0h1.9L4.01.91l.87,1.783.937,1.816a2.745,2.745,0,0,0,.585.056c.269,0,.545-.026.813-.052s.546-.052.809-.052a1.706,1.706,0,0,1,1.72.988A4.756,4.756,0,0,0,10.819,6.71c.761.709,1.548,1.442,1.189,2.783l.287,1.122.287,1.122.389.459.389.459c.087.346.414.556.73.759.493.317,1,.644.616,1.5A17.21,17.21,0,0,0,16.713,21.2c.312.666.635,1.355.921,2.042.1.233.513.336.916.436a4.973,4.973,0,0,1,.544.156l.152-.792c-1.035-1.029-.925-2.282-.818-3.495.031-.354.063-.72.066-1.073,0-.181.391-.364.768-.54.175-.082.356-.167.5-.25.408-.206.817-.429,1.213-.644A19.169,19.169,0,0,1,23.809,15.7a2.37,2.37,0,0,1,.775-.136,2.2,2.2,0,0,1,1.989,1.4c.256.547.508,1.108.751,1.65.331.739.673,1.5,1.03,2.238a2.052,2.052,0,0,0,.465.555c.087.082.176.167.255.254.4.448.841.885,1.264,1.307,1.507,1.507,3.065,3.065,3.443,5.42.033.2.484.449.784.484,1.251.146,1.587.879,1.955,1.979a23.71,23.71,0,0,0,1.731,3.681c.307.567.624,1.152.913,1.738a4,4,0,0,1,.261.807c.032.128.064.259.1.385l.2.6q.193.593.386,1.184c.323.61.677,1.222,1.019,1.813a25.217,25.217,0,0,1,2.032,4.059c1.236,3.48,2.375,7.06,3.477,10.522.533,1.674,1.083,3.4,1.637,5.1a7,7,0,0,0,.485,1.066c.082.156.166.317.244.478a.822.822,0,0,1,.093.393c1.063.173,1.205.928,1.342,1.659a2.818,2.818,0,0,0,.369,1.11L50.392,67.5l-.039.192q.265,1.339.532,2.677l.046.23.32,1.606c-.03.139-.064.284-.095.411a2.685,2.685,0,0,0,.3,2.644c.392.451.229.6-.094.908-.063.06-.135.127-.209.2-2.012,2.071-2.207,3.935-.613,5.868a2.773,2.773,0,0,1,.323,1.682,7.967,7.967,0,0,0,.033.864c1.04.918.939,2.106.842,3.255-.012.136-.023.271-.033.407.1.562.17,1.149.237,1.718a11.837,11.837,0,0,0,.845,3.729,8.448,8.448,0,0,1,.638,3.523,9.776,9.776,0,0,0,.368,2.8,1.818,1.818,0,0,1-.526,1.821,3.166,3.166,0,0,0-.535.869l-.692.862-.03.038L50.9,105.187q-.136.438-.273.876l-.007.022q-.134.427-.266.853-.265.837-.528,1.674l-.3.956a4.079,4.079,0,0,1-1.635.322,4.18,4.18,0,0,1-3.278-1.4c-.121-.159-.256-.444-.193-.564.712-1.368.032-2.325-.624-3.251a6.181,6.181,0,0,1-.762-1.276c-.728-1.877-1.558-3.891-2.537-6.155-.272-.629-.578-1.258-.873-1.865-.38-.782-.773-1.589-1.1-2.407a10.2,10.2,0,0,1-.479-1.862c-.053-.279-.109-.568-.173-.848l-.122-.441-.422-.875c-.141-.252-.288-.507-.43-.753-.321-.556-.653-1.131-.937-1.717-.173-.359-.377-.533-.623-.533a1.262,1.262,0,0,0-.68.293c-.139-.006-.28-.008-.417-.01a6.813,6.813,0,0,1-.933-.057,10.823,10.823,0,0,1-1.077-.242c-.152-.04-.309-.081-.463-.118.019.145.031.295.043.439a4.037,4.037,0,0,0,.15.936c.2.617.464,1.241.719,1.845a10.576,10.576,0,0,1,1.087,3.836,6.127,6.127,0,0,0,1.224,3.29,7.419,7.419,0,0,1,1.057,2.2c.147.167.306.331.46.49a3.018,3.018,0,0,1,1.218,2.677v.914q.514,1.794,1.03,3.587c.089.125.194.248.3.367a2.232,2.232,0,0,1,.522.819c.262,1.015.495,2.055.721,3.061.207.924.421,1.875.656,2.807a5.775,5.775,0,0,0,.489,1.168c.094.186.191.377.275.567a.2.2,0,0,1-.049.177.365.365,0,0,1-.136.071c-.022.008-.044.016-.065.025a.5.5,0,0,0,0,.409c.9,1.051.258,1.849-.359,2.62l-.009.011-.116.146a.937.937,0,0,1-.1.4l-.177.312-.6,1.06q-.914,2.035-1.824,4.072l-.011.025a9.127,9.127,0,0,0-.267.873,3.115,3.115,0,0,1-.811,1.692A1.226,1.226,0,0,1,36.444,126.91ZM24.911,102.9a.22.22,0,0,0-.162.042.221.221,0,0,1,.161-.04c.053,0,.117,0,.191.01.056,0,.119.009.186.012a.092.092,0,0,1,.01-.014l.005-.006c.048-.015.1-.034.157-.054a2.4,2.4,0,0,1,.754-.174.8.8,0,0,1,.244.035.809.809,0,0,0-.251-.036,2.743,2.743,0,0,0-.637.11c-.107.027-.217.055-.323.075l.023.019a.385.385,0,0,0,.032.025,1.08,1.08,0,0,1-.123.006c-.046,0-.091,0-.134,0h-.008C24.988,102.905,24.947,102.9,24.911,102.9ZM41.081,53.965a1.358,1.358,0,0,0-.231.8,5.49,5.49,0,0,1-.083.564l.187.179-.355.3a1.858,1.858,0,0,1,.729,1.057.533.533,0,0,1-.044.4c.155-.234,0-.7-.149-1.143a5.86,5.86,0,0,1-.181-.614,2.337,2.337,0,0,0,.019-.685C40.953,54.482,40.932,54.127,41.081,53.965ZM23,54.657h0l.047.03.05.033a6.731,6.731,0,0,1,1.616,2.142l-.9-1.8c.1-.065.229-.133.355-.2.263-.137.534-.279.543-.4-.01.116-.265.234-.728.234a3.569,3.569,0,0,1-.479-.035l.118.113.1.091a.93.93,0,0,1-.121.172c-.208-.128-.385-.242-.5-.315l-.006-.006-.032-.02ZM35.6,52.815l-.034.06c.044.15.083.3.12.452a4.6,4.6,0,0,0,.363,1.066l0,.009,0-.009a2.407,2.407,0,0,1-.181-1.518l-.029-.007Z" transform="translate(54.039)" fill="#f9c8c4"/>
    <path id="Fill_5" data-name="Fill 5" d="M34.337,86.72h0a2.3,2.3,0,0,1-1.472-.813,3.97,3.97,0,0,0-2.831-1.433,4.4,4.4,0,0,0-1.458.279,1.168,1.168,0,0,1-.387.061,4.72,4.72,0,0,1-1.625-.475,9.63,9.63,0,0,0-.978-.368,1.822,1.822,0,0,1-1.75-2.027,3.287,3.287,0,0,0-.314-1.087c-.067-.162-.136-.329-.192-.494a2.911,2.911,0,0,1-1.048-2.511,5.275,5.275,0,0,0-.235-1.463,1.781,1.781,0,0,1-.042-.665c.015-.275.029-.535-.1-.629-1.444-1.071-1.6-2.588-1.756-4.056a10.186,10.186,0,0,0-.371-2.109,13.448,13.448,0,0,0-1.106-1.781c-.29-.429-.565-.834-.685-1.048l-.037-.065a8.6,8.6,0,0,1-1.263-3.119c-.106-1.038-.565-1.053-1.2-1.073-.079,0-.161-.005-.245-.01-.131-.007-.269-.011-.422-.011-.231,0-.465.008-.692.016H14.1c-.238.009-.483.018-.724.018a3.717,3.717,0,0,1-2.6-.829c-.1-.084-.193-.154-.283-.221a1.737,1.737,0,0,1-.706-.856c-.693-1.752-1.486-3.5-2.253-5.184-.367-.807-.746-1.642-1.11-2.467a1.566,1.566,0,0,1-.087-.56c0-.088-.007-.18-.016-.267q-.181-.542-.363-1.083l-.092-.274,0-.033-.125-2.657L5.572,47.1l0-.007q-.141-.282-.28-.565a3.125,3.125,0,0,0-.295-.185c-.225-.13-.457-.265-.488-.434-.263-1.441-.483-2.913-.695-4.338q-.1-.684-.205-1.366c-.108-.468-.22-.943-.329-1.4-.268-1.134-.544-2.3-.778-3.459a12.763,12.763,0,0,1-.187-1.628c-.018-.247-.036-.5-.06-.749l-.22-.947,0-.007c-.247-1.063-.5-2.163-.751-3.244-.083-.362-.165-.731-.245-1.087q-.063-.285-.127-.57-.231-2.03-.46-4.062L0,18.076q.19-.891.379-1.781c0-.072-.005-.145-.01-.217a1.449,1.449,0,0,1,.015-.455c.039-.15.074-.309.108-.462a3.1,3.1,0,0,1,.516-1.356.373.373,0,0,1,.284-.082,3.711,3.711,0,0,1,1.254.325,6.4,6.4,0,0,0,2.688.478c.331,0,.668-.011.995-.022h.007c.331-.011.672-.023,1.007-.023a7.907,7.907,0,0,1,1.66.148,1.627,1.627,0,0,0,.326.046c.4,0,.534-.358,1.108-1.862l.053-.14.187-.388.008-.016.241-.5a8.658,8.658,0,0,0,2.564-2.825,4.072,4.072,0,0,1,.754-.85,2.1,2.1,0,0,0,.934-2.172,3.625,3.625,0,0,1,1.106-.459c1.437-.362,2.9-.713,4.316-1.053l1.511-.363c0-.14,0-.282,0-.42a5.829,5.829,0,0,1,.033-.931C22.322.73,22.8,0,23.807,0a5.783,5.783,0,0,1,1.846.442c.234.014.47.02.7.026a4.044,4.044,0,0,1,3.49,1.309,3.415,3.415,0,0,1,.744,1.886c.021.135.043.274.07.416-.022.005-.042.009-.063.012q.03,0,.062-.011.2.344.387.687l.005.009.381.678a20.874,20.874,0,0,1,3.61,8.128v1.346l1.025,2.236.259,1.36q.259,1.36.516,2.72c.207.867.412,1.75.611,2.6.458,1.969.93,4,1.458,5.988a19.6,19.6,0,0,1,.486,4.342,27.473,27.473,0,0,0,.228,3.076c.024.157.034.319.044.475,0,.065.008.129.013.192a3.154,3.154,0,0,1,.53,2.786,6.806,6.806,0,0,0-.083,1.305,26.058,26.058,0,0,0,.442,2.613,16.583,16.583,0,0,1,.489,4.311A29.42,29.42,0,0,0,41.715,56a11.312,11.312,0,0,1-.358,4.69c-.157.707-.319,1.439-.409,2.17l-.849-.183-.022,0-1.507.3-.753.151a4.013,4.013,0,0,0-.371.17,1.74,1.74,0,0,1-.71.242.588.588,0,0,1-.077,0,3.664,3.664,0,0,0-.46-.036c-.257,0-.414.053-.495.166-.113.158-.089.439.082.939a11.97,11.97,0,0,1,.451,2.145c.046.314.094.638.152.954v.92a1.427,1.427,0,0,0,1.464.912,7.126,7.126,0,0,0,.742-.054l.1-.011.921-.314,1.35-.461c.124.039.253.074.378.108a4.24,4.24,0,0,1,.816.281c.107.055.219.106.328.155.407.186.792.361.876.7.068.275-.074.632-.432,1.093a7.609,7.609,0,0,0-1.025,2.162,13.966,13.966,0,0,1-.52,1.327c-.076.161-.314.25-.544.335a2.945,2.945,0,0,0-.309.128L40,75.827a8.127,8.127,0,0,1-.4,3.135,6.473,6.473,0,0,1-1.822,2.66,6.884,6.884,0,0,0-1.491,2.625c-.08.2-.162.411-.245.609C35.512,86.128,34.971,86.72,34.337,86.72ZM6.769,34.984C7.1,36.1,7.9,36.312,8.831,36.552l.115.03a2.9,2.9,0,0,0,1.412.385,2.619,2.619,0,0,1,1.888.743,2.837,2.837,0,0,0-1.518-.787A3.223,3.223,0,0,1,9.5,36.392a.649.649,0,0,1-.329.126c-.147,0-.327-.284-.437-.526a2.472,2.472,0,0,1-.637.093A1.321,1.321,0,0,1,6.769,34.984Zm7.812-9.214h0l.338.192.287.164c-.5-.38-.576-.558-.583-.616a.059.059,0,0,1,.008-.045.748.748,0,0,0-.174.175l-.064.075.091.053.078.046.008-.018.011-.025Zm5.012-14.338c.058.114.118.228.181.337l.268.306-.268-.306C19.711,11.659,19.651,11.545,19.593,11.432Zm2.754-3.885h0a1.788,1.788,0,0,0,.353.387c.081.074.164.149.232.225.008.21.015.421.022.631.012.363.024.737.043,1.1a11.151,11.151,0,0,1,.141-1.775c-.017-.037-.039-.077-.061-.116-.054-.1-.111-.2-.085-.264.031-.087.067-.176.1-.257l.024-.052a.822.822,0,0,1-.508.245A.316.316,0,0,1,22.347,7.546Z" transform="translate(147.854 36.974)" fill="#f9c8c4"/>
    <path id="Fill_7" data-name="Fill 7" d="M24.643,71.622a.4.4,0,0,1-.211-.047c-.327-.219-.667-.436-.995-.645a10.6,10.6,0,0,1-4.131-3.822,45.02,45.02,0,0,1-2.47-6.261c-.235-.7-.479-1.418-.73-2.122-.069-.195-.129-.4-.187-.6a2.741,2.741,0,0,0-1.631-2.167c-.327-.124-.5-.664-.673-1.187a6.689,6.689,0,0,0-.251-.689c-.6-.579-1.13-1.3-.444-2.257q-.774-1.548-1.551-3.1l-.007-.014,0-.005Q11,48,10.642,47.279l-.01-.02-.423-.842q0-.675,0-1.351C8.781,44.5,8.7,43.292,8.623,42.124a8.956,8.956,0,0,0-.1-.963,23.831,23.831,0,0,0-2.186-6.994c-1.282-2.483-2.736-5.3-2.908-8.5a4.622,4.622,0,0,0-.666-1.831,7.271,7.271,0,0,1-.589-1.328,12.357,12.357,0,0,1-.342-1.991c-.046-.4-.094-.813-.165-1.214a3.079,3.079,0,0,0-.44-1.307C.082,16.491-.48,15.153.507,13.507a2.356,2.356,0,0,0,.262-1.263c-.029-.759.193-1,.988-1.069a1.839,1.839,0,0,0,1.455-.609,1.953,1.953,0,0,0,.029-1.66c-.6-2.051-.156-3,1.878-4.071C6.291,4.22,7.5,3.626,8.671,3.051c.525-.258,1.066-.524,1.6-.789l.681-.456c.9-.6,1.822-1.222,2.752-1.8A.073.073,0,0,1,13.741,0a1.04,1.04,0,0,1,.388.208c.081.056.165.114.238.154l.911.067.4.03A1.026,1.026,0,0,1,16.358.1c.372,0,.627.374.852.7.047.069.091.133.135.193a4.088,4.088,0,0,1,.424.827c.278.658.54,1.28,1.329,1.28a2.577,2.577,0,0,0,.948-.221.1.1,0,0,1,.036-.007c.352,0,1.423,1.6,1.88,2.278A3.624,3.624,0,0,1,22.4,6.55c.015.085.029.168.045.25.306,1.628,1.27,2.354,3.127,2.354.134,0,.276,0,.422-.011.078,0,.157-.006.234-.006a4.678,4.678,0,0,1,4.224,2.945c1.345,3.083,2.77,4.933,6.072,5.267.659.066,1.255.854,1.832,1.615a11.013,11.013,0,0,0,.858,1.044,4.962,4.962,0,0,0,.558.464c.089.067.181.136.269.207.232-.279.429-.415.6-.415.233,0,.392.253.546.5a2.142,2.142,0,0,0,.258.357l.626.047.675.051a2.518,2.518,0,0,1,.29-.018,1.006,1.006,0,0,1,.791.285,1.259,1.259,0,0,1,.2,1.011c.074.091.154.181.23.267a3.84,3.84,0,0,1,.461.593c.485.838.757,1.455.613,1.937s-.675.821-1.548,1.257c-.676.339-1.346.718-1.994,1.084-.589.333-1.2.678-1.811.991a10.513,10.513,0,0,1-2.4.98c-.85.19-1.265.293-1.407.555s-.013.651.28,1.44a9.068,9.068,0,0,1,.456,1.5c.256,1.394-.431,1.632-1.772,1.963a9.33,9.33,0,0,0-2.683,1.354c-.423.273-.86.555-1.3.795a.1.1,0,0,1-.049.011.836.836,0,0,1-.321-.139,2.085,2.085,0,0,0-.2-.105l-.307.3,0,0q-.311.3-.621.6a1.535,1.535,0,0,0-.259-.024.658.658,0,0,0-.694.44.83.83,0,0,0,.123.8,3.727,3.727,0,0,1,1.2,2.638,5.388,5.388,0,0,0,.5,1.8,7.348,7.348,0,0,1,.53,1.367c.067.213.135.432.211.643.053.148.136.325.216.5.172.368.35.748.243.865a1.724,1.724,0,0,0-.569,1.2,2.079,2.079,0,0,0,.879,1.293,3.98,3.98,0,0,1,.626.654,10.177,10.177,0,0,1,1.993,5.337l.169.673.008.03.176.7c1.1,1.446.663,2.932.243,4.369-.066.225-.134.457-.194.684-.029.115-.062.179-.1.2-2.141.828-3.581,2.537-4.974,4.19l-.013.015a21.046,21.046,0,0,1-1.482,1.53c-.358.346-.729.7-1.073,1.072-.419.447-.827.916-1.222,1.37-.376.431-.763.876-1.157,1.3A.588.588,0,0,1,24.643,71.622ZM13.4,54.111h0q.45.281.9.565l.469.3a2.434,2.434,0,0,0,1.588.657,2.288,2.288,0,0,0,1.565-.675,1.91,1.91,0,0,1-1.273.591,1.6,1.6,0,0,1-1.312-.836c-.049.035-.1.069-.154.1-.069.044-.14.09-.2.137-.02-.063-.048-.129-.074-.192a.823.823,0,0,1-.1-.419.074.074,0,0,1,0-.012.076.076,0,0,0,0-.013,1.21,1.21,0,0,1-.532.132A1.657,1.657,0,0,1,13.4,54.111ZM26.1,29.978c-.027.887.109,1.814,1.308,1.986a1.709,1.709,0,0,1-.152.482,2.428,2.428,0,0,0,.448-.535l-.075-.047a2.132,2.132,0,0,0-.2-.115c.16-.167.326-.34.522-.548a3.117,3.117,0,0,1-.9.164.9.9,0,0,1-.681-.24A1.59,1.59,0,0,1,26.1,29.978Zm10.554-5.686h0c.247.279.5.566.739.843l.005.006.116.133-.116-.133-.006-.007C37.148,24.858,36.9,24.572,36.651,24.292ZM21.667,10.763h0c.14.05.283.106.421.16.12.047.239.093.358.138l-.323-.124-.034-.013C21.95,10.87,21.807,10.814,21.667,10.763Z" transform="translate(147.441 335.286)" fill="#f9c8c4"/>
    <path id="Fill_10" data-name="Fill 10" d="M47.01,50.49h0c-.085-.013-.191-.018-.293-.022-.218-.01-.444-.021-.476-.106-.285-.722-.532-1.474-.77-2.2-.092-.281-.187-.57-.283-.852-.59-1.745-.973-2.474-1.816-2.474A6.539,6.539,0,0,0,41,45.65a4.127,4.127,0,0,0-.513.308c-.074.05-.151.1-.227.149l-.645.161-1.162.29-1.416.416q-1.521.447-3.042.893a3.231,3.231,0,0,1-.868.172,1.3,1.3,0,0,1-1.1-.679c-.2-.29-.811-.3-1.4-.312a7.336,7.336,0,0,1-.778-.041l-2.7.329-2.4,0h-1.2c-.1,0-.2-.006-.3-.006-.231,0-.465.009-.692.017h-.032c-.238.009-.483.019-.723.019a3.717,3.717,0,0,1-2.512-.778l-.15-.119a2.3,2.3,0,0,1-1.05-1.44,10.825,10.825,0,0,0-.869-2.188c-.145-.3-.3-.611-.43-.919l-.223-.405q-.352-.638-.7-1.274c-1.95-.672-2.243-2.385-2.525-4.043-.034-.2-.076-.4-.117-.6-.022-.106-.044-.212-.065-.318a1.3,1.3,0,0,0-.15-.009.418.418,0,0,1-.277-.062c-.179-.186-.37-.37-.554-.549-1.067-1.034-2.171-2.1-1.635-3.943a6.6,6.6,0,0,0-1.38-3.485,14.327,14.327,0,0,1-.873-1.487c-.211-.319-.455-.634-.69-.94A6.874,6.874,0,0,1,6.3,22.631c-.436-1.539-1.505-1.675-2.637-1.82l-.155-.02-.031,0c-1.038-.135-1.559-.2-1.772-.5s-.118-.807.093-1.847c.19-.929.46-1.858.722-2.756.116-.4.236-.808.347-1.215l-1-1.291c-.037-.026-.086-.053-.133-.079-.1-.055-.2-.111-.2-.16a9.7,9.7,0,0,0-.778-3.78A15.984,15.984,0,0,1,.1,6.931c-.153-.79-.128-1.218.085-1.477S.832,5.08,1.664,5.08l.236,0c.3.071.6.141.9.21.9.206,1.822.42,2.718.684.126.037.193.281.258.518a3.092,3.092,0,0,0,.1.316l.74.855.021.024C7.305,8.461,8,9.26,8.684,10.041c.084.094.3.314.457.314h.017a.559.559,0,0,0,.372-.41c-.01-.472-.051-.951-.091-1.414-.022-.256-.045-.52-.062-.781C9.231,5.582,9.066,3.125,10.444.927c.4-.632.79-.927,1.24-.927A1.836,1.836,0,0,1,12.74.44L13.857.5l1.12.063.882,0h.016l.594.14h.006l.771.181a7.152,7.152,0,0,1,.876-.056c2.968,0,4.7,2.016,6.136,4.195a7.94,7.94,0,0,0,1.112,1.358,1.09,1.09,0,0,0,.658.255.393.393,0,0,0,.162-.029,13.765,13.765,0,0,1,5.131-.927c.709-.036,1.442-.073,2.156-.157,1.494.478,2.019,1.49,1.814,3.492l1.082,1.153,1.082,1.153c.171.41.34.828.5,1.233l0,.006c.44,1.086.894,2.208,1.42,3.272a1.977,1.977,0,0,0,.836.691,5.259,5.259,0,0,1,.457.282q.121.813.24,1.625l.148,1.005a3.414,3.414,0,0,0,.525.96,1.976,1.976,0,0,1,.5,1.873,4.36,4.36,0,0,1,1.971,2.788,6.593,6.593,0,0,0,.969,1.979,2.011,2.011,0,0,0,.365.3c.124.088.231.164.217.2-.4.89.136,1.314.655,1.724.394.311.8.632.782,1.154,1.2.22,1.366,1.088,1.526,1.928a4.258,4.258,0,0,0,.3,1.059q.6,1.365,1.211,2.728l.026.047q1.374,2.5,2.746,4.994l.833,1.737c.184.246.382.49.574.726a9.742,9.742,0,0,1,1.177,1.672,2.748,2.748,0,0,1,.259,2.443,3.06,3.06,0,0,1-2.244,1.463c-.508.115-1.027.216-1.529.313-.262.051-.533.1-.8.158l-.812.158-3.3.644ZM14.586,28.434a1.828,1.828,0,0,1,1.233.537,3.857,3.857,0,0,0-2.648-.96c-.312-.207-.626-.422-.93-.63-.549-.376-1.115-.763-1.685-1.118.911.572,1.854,1.269,3.316,2.36A1.465,1.465,0,0,1,14.586,28.434Zm-1.308-.178a3.169,3.169,0,0,1,.612.405l0-.007,0-.007A3.16,3.16,0,0,0,13.278,28.256ZM6.963,16.943h0c.064.144.139.288.211.427.045.087.091.175.134.263a2.76,2.76,0,0,0,1.336.525.766.766,0,0,0,.684-.394.593.593,0,0,1-.5.316,1.373,1.373,0,0,1-.919-.579l-.057.035a1.357,1.357,0,0,1-.126.073.071.071,0,0,1-.03.006.56.56,0,0,1-.229-.111,1.537,1.537,0,0,0-.136-.082c.055-.069.11-.14.162-.209l.049-.064a.686.686,0,0,1-.181.026A.442.442,0,0,1,6.963,16.943Z" transform="translate(131.448 153.368)" fill="#f9c8c4"/>
    <path id="Fill_12" data-name="Fill 12" d="M28.708,70.74h0a9.77,9.77,0,0,1-2.693-.518,12.946,12.946,0,0,0-2.035-.476c-.746-.089-1.464-.855-2.1-1.531-.108-.115-.21-.224-.312-.33-1.049-1.086-.614-2.23.015-3.506.087-.178.245-.566.173-.625-.324-.27-.671-.525-1.006-.773a14.9,14.9,0,0,1-1.421-1.14c-1.142-1.081-2.322-2.2-2.161-4.024q-.047-.426-.092-.852v-.009c-.22-.433-.438-.871-.65-1.3-.511-1.026-1.04-2.087-1.6-3.108a10.7,10.7,0,0,0-.937-1.348c-.151-.2-.307-.4-.454-.6-1.372-1.352-2.513-2.626-2.581-4.532.506-2.915-.984-5.223-2.425-7.454L8.4,38.569l-.127-.194a3.145,3.145,0,0,1-.63-1.365,12.623,12.623,0,0,0-1.393-4.286,17.733,17.733,0,0,1-1.158-2.94c-.133-.506-.26-1.022-.383-1.521v-.005q-.083-.337-.166-.672-.52-1.44-1.036-2.88L3.093,23.57c-.137-.323-.286-.648-.429-.963a18.229,18.229,0,0,1-.874-2.156c-.179-.582-.384-1.168-.583-1.736A14.477,14.477,0,0,1,.029,12.7l2.752-.955,2.533-.879c.292-.811.6-1.631.908-2.424.694-1.818,1.411-3.7,1.925-5.6C8.672.906,9.543,0,10.887,0a5.4,5.4,0,0,1,2.074.512,4.664,4.664,0,0,1,3.2,2.981c.1.246.329.588.482.588h.087c1.295,0,1.562.892,1.82,1.755a5.034,5.034,0,0,0,.316.866A8.59,8.59,0,0,1,19.5,8.645c.071.293.144.6.229.887a.856.856,0,0,1,.094.4l.03.021c.778.541,1.582,1.1,1.23,2.277l.452.92.225.673.225.673c.275.226.545.475.805.716a8.114,8.114,0,0,0,1.931,1.461,7.135,7.135,0,0,0,.716.275c.92.316,1.714.589,1.44,2.079-.048.257.266.584.569.9a5.3,5.3,0,0,1,.393.439,5.162,5.162,0,0,1,.145.548c.094.414.191.841.448,1a1.16,1.16,0,0,1,.511,1.448,2.632,2.632,0,0,0-.063.586l.716.571.02.016c.716.57,1.457,1.16,2.175,1.752l.045.037c.222.182.527.43.507.615-.211,1.94.913,3.226,2,4.471.293.336.6.682.863,1.032A6.76,6.76,0,0,1,36.3,34.993c.057.214.116.433.18.649a10.307,10.307,0,0,1,.294,1.59c.031.234.063.477.1.714l0,.005.005.01q.223.455.445.911v1.339a1.845,1.845,0,0,1-1.605.906,5.454,5.454,0,0,1-1.416-.268c-.162-.045-.329-.092-.493-.133.16.579.318,1.15.48,1.732.691.6.952.961.9,1.232-.045.229-.313.412-.9.612q.1.459.2.918v.011c.213.977.434,1.988.663,2.98.044.187.177.535.275.536a1.245,1.245,0,0,1,.964.3,1.314,1.314,0,0,1,.109,1.042,1.527,1.527,0,0,0,.045.944q-.066,1.135-.13,2.272a5.443,5.443,0,0,0,.15.587,1.961,1.961,0,0,1,.121,1.176c-.355.893-.759,1.784-1.15,2.646A26.431,26.431,0,0,0,33.3,64.03a2.346,2.346,0,0,1-.59.988c-.121.146-.247.3-.35.449.04.145.082.291.125.438a3.825,3.825,0,0,0,.163.385c.132.283.268.575.177.729-.072.12-.149.239-.223.353-.434.668-.844,1.3-.186,2.144-.47.345-.933.686-1.284.944l-.968.032A4.262,4.262,0,0,1,28.708,70.74Zm-5.135-7.251h0c.367.316.728.658,1.077.989,1.306,1.237,2.656,2.517,4.628,2.8l.391,1.415.469,1.7a13.448,13.448,0,0,1-.559-3.2l-.031.02c-.021.013-.041.026-.059.041-.02-.063-.047-.128-.073-.191a.837.837,0,0,1-.1-.42.6.6,0,0,1,.044-.135v0a4.728,4.728,0,0,1-.544.032c-1.913,0-3.2-1.189-4.451-2.338C24.1,63.964,23.839,63.72,23.572,63.489ZM29.8,37.977a1.394,1.394,0,0,0,.235.6c.052.091.105.185.147.277.287.672.676.817.952.821-.316-.034-.5-.327-.508-.821h-.445c.062-.029.123-.061.183-.091l.06-.031C30.014,38.487,29.8,38.231,29.8,37.977ZM22.932,26.21h0c.075.127.15.264.229.416C23.088,26.487,23.014,26.35,22.932,26.21Zm-1.6-1.163a1.88,1.88,0,0,1,1.571,1.118,6.455,6.455,0,0,0-3.84-2.831c.184.206.367.381.528.535a3.767,3.767,0,0,1,.489.525.756.756,0,0,1,.135.278.734.734,0,0,1-.013.539l.014.034c.011.026.021.049.036.081A2.617,2.617,0,0,1,21.335,25.047Z" transform="translate(182.111 245.831)" fill="#f9c8c4"/>
    <path id="Fill_14" data-name="Fill 14" d="M24.211,65.131h0a3.01,3.01,0,0,1-2.311-1.9c-.684-1.611-1.426-3.229-2.144-4.793l-.006-.013c-.306-.666-.622-1.356-.929-2.035l-.9-1.806-.9-1.806q-.224-.45-.451-.9l-1.579-2.26-.126-.181-1.453-2.079a19.86,19.86,0,0,0-3-6.6,4.865,4.865,0,0,1-.658-2.022,10.039,10.039,0,0,1-.026-1.455A10.143,10.143,0,0,0,9.7,35.837a1.106,1.106,0,0,1,.17-.88c.238-.268.674-.27,1.135-.273h.05c.061-1.157.876-1.39,1.664-1.614.191-.055.389-.111.573-.18q.03-.346.059-.691l.053-.62c-.013-.149-.023-.3-.032-.442-.081-1.184-.157-2.3-1.461-3.178a1.888,1.888,0,0,1-.571-1.046c-.2-.641-.434-1.367-1.293-1.584-.062-.016-.111-.086-.159-.155s-.1-.139-.158-.15a4.892,4.892,0,0,1-3.772-2.41,7.593,7.593,0,0,1-.5-4.451,1.917,1.917,0,0,0-.1-.7c-.029-.109-.059-.221-.079-.331V14.888c-.208-.627-.415-1.265-.615-1.883-.474-1.461-.964-2.972-1.5-4.437C2.75,7.424,2.258,6.283,1.781,5.18c-.216-.5-.439-1.017-.653-1.528C.541,3.6.2,3.46.068,3.215A1.02,1.02,0,0,1,.2,2.272,2.233,2.233,0,0,1,.25.368,1.04,1.04,0,0,1,1.133,0a2.911,2.911,0,0,1,.712.1A9.015,9.015,0,0,1,2.81.428,5.445,5.445,0,0,0,4.323.845c1.192.082,1.741.338,1.849,1.636.064.772.3,1.086.81,1.086a3.921,3.921,0,0,0,1.19-.277,4.647,4.647,0,0,1,1.5-.175h.348c.177,0,.386,0,.589-.014l1.862.034a4,4,0,0,1,.689-.06,7.52,7.52,0,0,1,3.3,1.052l.017.009q.416.631.829,1.262l.01.015a2.692,2.692,0,0,1,1.552,2.375,1.973,1.973,0,0,0,1.588,1.858,4.931,4.931,0,0,1,3.182,4.324q.329.612.656,1.225l.008.014c.544,1.018,1.106,2.071,1.676,3.1.373.669.776,1.337,1.167,1.983l0,.007c.18.3.367.607.548.912l1.084.26c.787.189,1.6.384,2.4.574.449.105.906.208,1.348.307l.674.152c.129-.01.253-.015.369-.015a1.843,1.843,0,0,1,1.4.463,1.815,1.815,0,0,1,.385,1.409v.152c0,.1,0,.2,0,.3a4.7,4.7,0,0,0,.17,1.507,3.719,3.719,0,0,1,0,2.32.577.577,0,0,0-.006.543.748.748,0,0,0,.616.219,2.561,2.561,0,0,0,.787-.134,4.972,4.972,0,0,1,1.779-.33,9,9,0,0,1,3.971,1.23,2.237,2.237,0,0,1-.094,3.206c-.3.241-.605.5-.9.749A12.8,12.8,0,0,1,39.6,35.688c-1.264.694-1.186,1.5-.625,2.655q.211.32.42.64l.158.242A9.221,9.221,0,0,1,42.582,45.1l-.414-.22-.414-.22-.1-.05c-.38-.2-.773-.4-1.164-.588a5.69,5.69,0,0,1,1.022.69l.015-.016.011-.012c.017.028.034.054.05.08l.023.035.112.178.131.209c0-.019,0-.037,0-.055,0-.035,0-.07,0-.113a.262.262,0,0,1,.218-.106,1.24,1.24,0,0,1,.5.186l.226,1.365.224,1.364-.448,1.786q.5.881.994,1.761l.02.035c1.349,1.032,1.13,2.421.918,3.765-.027.171-.055.349-.078.519-.06.45-1.126.972-1.788,1.092a28.981,28.981,0,0,1-3.19.333c-.434.029-.882.059-1.321.1a.912.912,0,0,1-.391.1l-.805.29-.007,0-.145.052h-.054l-.846.007a2.525,2.525,0,0,1-.72.118c-.993,0-1.408-.828-1.809-1.628-.083-.165-.167-.333-.255-.492a1.911,1.911,0,0,0-1.708-.887,1.937,1.937,0,0,0-1.6.743,1.115,1.115,0,0,0-.147.4c-.015.066-.031.135-.051.2.974.231,1.149.957,1.334,1.725a2.492,2.492,0,0,0,.833,1.6,3,3,0,0,1,.977,2.226A3.748,3.748,0,0,1,32,64.493a2.443,2.443,0,0,1-1.629.432q-.12,0-.24,0c-.56,0-1.127-.047-1.675-.093s-1.122-.093-1.687-.093a6.728,6.728,0,0,0-2.236.339A1,1,0,0,1,24.211,65.131Zm5.363-26.337h0L32.73,41.5c-.428,1.168.267,1.692.939,2.2a3.376,3.376,0,0,1,.876.835,3.333,3.333,0,0,0-.691-.723,2.342,2.342,0,0,1-1.014-2.593,1.168,1.168,0,0,1-.39-.559.135.135,0,0,1,.022-.1l.01,0a.07.07,0,0,0,.006-.02.06.06,0,0,1,.01-.028.139.139,0,0,0-.02.033l-.006.012A6.824,6.824,0,0,1,29.574,38.794ZM15.437,35.919a1.821,1.821,0,0,1,.6.169c.049.148.093.308.136.462.176.629.358,1.279.848,1.279a1.593,1.593,0,0,0,.933-.491,1.534,1.534,0,0,1-.892.472c-.542,0-.7-.84-.847-1.938a.908.908,0,0,1-.153-.236.274.274,0,0,1-.014-.146.112.112,0,0,1,0-.017c-.136.08-.264.139-.377.192-.272.127-.469.218-.511.469A.245.245,0,0,1,15.437,35.919Z" transform="translate(98.354 210.707)" fill="#f9c8c4"/>
    <path id="Fill_16" data-name="Fill 16" d="M40.087,102.22a1.247,1.247,0,0,1-.917-.456,7.366,7.366,0,0,1-5.414-1.95,5.55,5.55,0,0,1-1.4-4.273l-1.762-1.763-.016-.016c-1.191-.981-.825-2.123-.348-3.209q-.539-.617-1.08-1.231c-.994-1.131-2.021-2.3-3.009-3.47a2.714,2.714,0,0,1-.4-.77c-.049-.124-.1-.251-.155-.372l-3.569-5.839c-.036-.027-.082-.059-.129-.092-.12-.084-.2-.14-.192-.151a4.209,4.209,0,0,1,.328-.467c.234-.3.454-.592.385-.775-.129-.341-.254-.695-.376-1.037a13.549,13.549,0,0,0-1.909-3.972,6.966,6.966,0,0,1-1.744-4.8c-2.621-2.13-3.73-4.429-3.489-7.234q-.147-.6-.3-1.205l-.15-.608v-.113c0-.115,0-.227,0-.34l-.563-1.02-.32-.581-.016-.03-.582-1.055L11.71,53.024l-.431-.817q-.9-2.255-1.8-4.51c-.1-.387-.19-.782-.281-1.164-.216-.91-.439-1.849-.711-2.758-.178-.6-.418-1.187-.65-1.757-.136-.335-.277-.681-.4-1.026a3.338,3.338,0,0,1-.258-1.034c-.014-.63.006-1.27.026-1.89.008-.247.016-.494.022-.741l-.452-2.259-.015-.03a4.707,4.707,0,0,1-.7-3.512A1.9,1.9,0,0,0,5.2,29.13c-.385-.255-.466-.983-.545-1.687a8.623,8.623,0,0,0-.138-.936l-.451-1.817q-.21-.294-.423-.585c-.365-.5-.74-1.018-1.081-1.545-.168-.26-.454-.8-.334-.969,1.218-1.753.258-2.953-.671-4.113A9.348,9.348,0,0,1,.8,16.447,4.882,4.882,0,0,1,.225,14.3,6.838,6.838,0,0,0,0,12.97q.479-1.053.958-2.108l.3-.658a1.2,1.2,0,0,0,.078-.119c.052-.087.106-.177.18-.2,2.942-.955,3.3-1.344,3.776-4.162A2.579,2.579,0,0,1,7.574,3.889L9.831,2.536l.256-.169,1.066-.7a10.184,10.184,0,0,0,.828-.641A3.411,3.411,0,0,1,13.829,0a7.559,7.559,0,0,1,3.376,1.285l.147.084A9.383,9.383,0,0,1,18.7,2.377a5.274,5.274,0,0,0,2.065,1.281,2.038,2.038,0,0,1,1.847,1.7,2.087,2.087,0,0,0,.814.892,5.831,5.831,0,0,1,.46.377c.041,0,.088,0,.144,0s.143,0,.214,0h.024c.077,0,.157-.006.232-.006.176,0,.368.014.451.118.663.832,1.288,1.718,1.891,2.575.213.3.433.615.653.921.188.173.374.358.554.536a8.964,8.964,0,0,0,1.3,1.132c1.482.985,2.8,2.044,2.691,4.172a.424.424,0,0,0,.149.268,2.231,2.231,0,0,0,1.243.64l.05,0c.1-.01.195-.015.285-.015,1.19,0,1.455.847,1.736,1.744l.049.155c.082.26.144.531.2.794a7.185,7.185,0,0,0,.3,1.068c.112.279.545.746.692.746a.049.049,0,0,0,.02,0,2.1,2.1,0,0,1,.808-.2c.933,0,.969,1.1.988,1.694,0,.084.005.156.01.213a8.724,8.724,0,0,0,1.486,3.757,12.676,12.676,0,0,1,1.178,2.346,15.705,15.705,0,0,1,.5,2.136c.06.319.121.648.19.969q-.062,1.121-.125,2.24a3.247,3.247,0,0,1-2.059,2.282c-1.807.816-3.541,1.782-5.145,2.7a5.675,5.675,0,0,0-1.491,1.413c-.137.17-.036.636.089.906.346.744.727,1.489,1.1,2.209q.215.42.428.84.67.9,1.338,1.795l-.008,0,.487,1.263.006.015L37.8,51.316c.324.347.66.695.985,1.031A33.668,33.668,0,0,1,41.258,55.1a1.829,1.829,0,0,1,.171,1.163,4.22,4.22,0,0,0,.013.794c.12.786-.293.892-.772,1.016a3.329,3.329,0,0,0-.412.126,6.461,6.461,0,0,0-1.386.86c-.189.14-.383.284-.578.416l-.348.35-.522.525a5.336,5.336,0,0,0-.518.51,2.074,2.074,0,0,1-1.508.891,1.734,1.734,0,0,1-.26-.02c-.032.266-.063.534-.093.794l-.006.049-1.674.932c-.909,1.89.72,3.478,1.241,3.92a28.012,28.012,0,0,1,6.463,7.123h.026a1.15,1.15,0,0,1,.88.309,1.886,1.886,0,0,1,.259,1.412c0,.051-.008.1-.01.146-.12,1.916,1.06,2.906,2.2,3.862.313.262.636.534.931.821a3.178,3.178,0,0,1,1.094,3.163.483.483,0,0,0,.005.413,4.473,4.473,0,0,0,.46.985c.5.887,1.021,1.8-.5,2.683a.908.908,0,0,1-.094.41,34.774,34.774,0,0,1-1.861,4.492l-.124.263a18.837,18.837,0,0,0-1.21,4.2c-.127.615-.259,1.251-.413,1.865-.166.224-.329.458-.486.685a10.658,10.658,0,0,1-1.21,1.536A1.342,1.342,0,0,1,40.087,102.22ZM19.326,68h0a6.489,6.489,0,0,0,.486.45l.1.083-.095-.082A6.21,6.21,0,0,1,19.326,68Z" transform="translate(55.818 270.374)" fill="#f9c8c4"/>
    <path id="Fill_18" data-name="Fill 18" d="M.251.219C.165.136.084.073,0,0,.1.15.19.268.251.219" transform="translate(139.967 255.506)" fill="#f9c8c4"/>
  </g>
</svg>
