<svg id="Isolation_Mode" data-name="Isolation Mode" xmlns="http://www.w3.org/2000/svg" viewBox="0 0 434.22 176.57"><defs><style>.cls-1{fill:#fff;}.cls-2{fill:#92d6d4;}.cls-3{fill:#169699;}.cls-4{fill:#c1e5e5;}</style></defs><title>Vector Smart Object</title><path id="Fill_2486" data-name="Fill 2486" class="cls-1" d="M1064.9,212.43l-68.45,2.34a2.47,2.47,0,0,0-2.38,2.55h0l1.12,32.86a2.47,2.47,0,0,0,2.55,2.39h0l68.45-2.34a2.48,2.48,0,0,0,2.38-2.56l-1.13-32.87a2.46,2.46,0,0,0-2.55-2.38h0" transform="translate(-885.2 -107.72)"/><path id="Fill_2488" data-name="Fill 2488" class="cls-2" d="M1039.25,228.63l-17.54.6a1.38,1.38,0,0,1-1.41-1.32h0l-.08-2.3a1.37,1.37,0,0,1,1.32-1.42h0l17.53-.6a1.37,1.37,0,0,1,1.42,1.32h0l.08,2.3a1.36,1.36,0,0,1-1.32,1.41h0" transform="translate(-885.2 -107.72)"/><path id="Fill_2490" data-name="Fill 2490" class="cls-3" d="M1052.08,238.42l-30,1a1.36,1.36,0,0,1-1.41-1.32l-.08-2.3a1.36,1.36,0,0,1,1.32-1.41h0l30-1a1.36,1.36,0,0,1,1.41,1.32h0l.08,2.3a1.36,1.36,0,0,1-1.32,1.41h0" transform="translate(-885.2 -107.72)"/><path id="Fill_2494" data-name="Fill 2494" class="cls-1" d="M1125.67,112.38l-61.36-4.65a2.22,2.22,0,0,0-2.38,2h0l-2.23,29.46a2.22,2.22,0,0,0,2,2.38l61.36,4.66a2.22,2.22,0,0,0,2.39-2.05h0l2.23-29.47a2.23,2.23,0,0,0-2-2.38h0" transform="translate(-885.2 -107.72)"/><path id="Fill_2496" data-name="Fill 2496" class="cls-2" d="M1114.58,125.34l-29-2.2a1.38,1.38,0,0,1-1.26-1.47l.14-1.78a1.38,1.38,0,0,1,1.47-1.27h0l29,2.2a1.37,1.37,0,0,1,1.26,1.47l-.14,1.79a1.37,1.37,0,0,1-1.47,1.26" transform="translate(-885.2 -107.72)"/><path id="Fill_2498" data-name="Fill 2498" class="cls-3" d="M1102.33,133.63l-17.44-1.32a1.37,1.37,0,0,1-1.26-1.47h0l.14-1.79a1.36,1.36,0,0,1,1.46-1.26h0l17.43,1.32a1.37,1.37,0,0,1,1.26,1.47l-.13,1.79a1.37,1.37,0,0,1-1.47,1.26" transform="translate(-885.2 -107.72)"/><path id="Fill_2502" data-name="Fill 2502" class="cls-4" d="M950.89,190.48l-36.76,16.65a1.45,1.45,0,0,0-.72,1.93l8,17.65a1.45,1.45,0,0,0,1.92.73h0l36.76-16.65a1.47,1.47,0,0,0,.73-1.93h0l-8-17.65a1.47,1.47,0,0,0-1.93-.73h0" transform="translate(-885.2 -107.72)"/><path id="Fill_2504" data-name="Fill 2504" class="cls-4" d="M1062.35,163.79,1022,162.67a1.45,1.45,0,0,0-1.5,1.41h0l-.53,19.37a1.45,1.45,0,0,0,1.41,1.5h0l40.33,1.12a1.46,1.46,0,0,0,1.5-1.41h0l.54-19.37a1.47,1.47,0,0,0-1.41-1.5h0" transform="translate(-885.2 -107.72)"/><path id="Fill_2504-2" data-name="Fill 2504" class="cls-4" d="M1171.63,175.49l-40.33-1.12a1.44,1.44,0,0,0-1.5,1.41h0l-.54,19.37a1.46,1.46,0,0,0,1.42,1.5h0l40.33,1.12a1.44,1.44,0,0,0,1.5-1.41h0l.54-19.37a1.44,1.44,0,0,0-1.41-1.5h0" transform="translate(-885.2 -107.72)"/><path id="Fill_2504-3" data-name="Fill 2504" class="cls-4" d="M1276.64,236.81,1238,225.13a1.46,1.46,0,0,0-1.82,1h0l-5.61,18.55a1.46,1.46,0,0,0,1,1.82h0l38.62,11.68a1.46,1.46,0,0,0,1.82-1h0l5.61-18.55a1.46,1.46,0,0,0-1-1.82h0" transform="translate(-885.2 -107.72)"/><path id="Fill_2506" data-name="Fill 2506" class="cls-1" d="M971.84,116.78l-83.73,3a3,3,0,0,0-2.91,3.12l1.43,40.21a3,3,0,0,0,3.13,2.92h0l32.38-1.15,19-.68L973.48,163a3,3,0,0,0,2.92-3.12h0L975,119.7a3,3,0,0,0-3.12-2.92h0" transform="translate(-885.2 -107.72)"/><path id="Fill_2508" data-name="Fill 2508" class="cls-2" d="M950.14,136.3l-31.4,1.11a1.37,1.37,0,0,1-1.42-1.32h0l-.12-3.42a1.37,1.37,0,0,1,1.32-1.42h0l31.4-1.11a1.37,1.37,0,0,1,1.42,1.32l.12,3.42a1.37,1.37,0,0,1-1.32,1.42" transform="translate(-885.2 -107.72)"/><path id="Fill_2510" data-name="Fill 2510" class="cls-3" d="M964.63,148.31l-45.45,1.61a1.37,1.37,0,0,1-1.42-1.32l-.12-3.42a1.37,1.37,0,0,1,1.32-1.42h0l45.46-1.61a1.36,1.36,0,0,1,1.41,1.31h0l.12,3.42a1.37,1.37,0,0,1-1.32,1.42" transform="translate(-885.2 -107.72)"/><path id="Fill_2514" data-name="Fill 2514" class="cls-2" d="M1008.78,134.36a3.28,3.28,0,1,1-3.28-3.28,3.27,3.27,0,0,1,3.28,3.28" transform="translate(-885.2 -107.72)"/><path id="Fill_2516" data-name="Fill 2516" class="cls-2" d="M895.15,187.4a3.28,3.28,0,1,1-3.27-3.27,3.27,3.27,0,0,1,3.27,3.27h0" transform="translate(-885.2 -107.72)"/><path id="Fill_2518" data-name="Fill 2518" class="cls-2" d="M955.8,255.63a3.28,3.28,0,1,1-3.28-3.27,3.28,3.28,0,0,1,3.28,3.27h0" transform="translate(-885.2 -107.72)"/><path id="Fill_2520" data-name="Fill 2520" class="cls-2" d="M1078,281a3.28,3.28,0,1,1-3.28-3.28A3.27,3.27,0,0,1,1078,281" transform="translate(-885.2 -107.72)"/><path id="Fill_2520-2" data-name="Fill 2520" class="cls-2" d="M1210.92,215.7a3.28,3.28,0,1,1-3.27-3.28,3.27,3.27,0,0,1,3.27,3.28" transform="translate(-885.2 -107.72)"/><path id="Fill_2522" data-name="Fill 2522" class="cls-2" d="M1097,209.15a3.28,3.28,0,1,1-3.27-3.28,3.26,3.26,0,0,1,3.27,3.28h0" transform="translate(-885.2 -107.72)"/><path id="Fill_2522-2" data-name="Fill 2522" class="cls-2" d="M1110.88,166a3.28,3.28,0,1,1-3.27-3.28,3.27,3.27,0,0,1,3.27,3.28h0" transform="translate(-885.2 -107.72)"/><path id="Fill_2522-3" data-name="Fill 2522" class="cls-2" d="M1163.44,144.67a3.28,3.28,0,1,1-3.28-3.28,3.27,3.27,0,0,1,3.28,3.28h0" transform="translate(-885.2 -107.72)"/><path class="cls-1" d="M1069,128.83l2.61-.82a1,1,0,0,0,.36-.41.21.21,0,0,0-.16-.33l-1.77-.17a4.58,4.58,0,0,1-1.1-.39c-.28-.15-.36-.32-.15-.56a8.66,8.66,0,0,0,2.08-4.19,2.92,2.92,0,0,1,5.68-.52,4.1,4.1,0,0,1,.18,1.44,9.5,9.5,0,0,0,1,4.15.49.49,0,0,1-.22.66,1.37,1.37,0,0,1-.86.06l-1.78-.17a.2.2,0,0,0-.15.34,3.08,3.08,0,0,0,.26.22l2,1.47a1.78,1.78,0,0,1,.63.76,7.3,7.3,0,0,1-9.27-1.05A1.93,1.93,0,0,1,1069,128.83Z" transform="translate(-885.2 -107.72)"/><path class="cls-3" d="M1074.31,117a7.3,7.3,0,0,0-6,12.3,1.89,1.89,0,0,1,.68-.47l2.61-.82a1,1,0,0,0,.36-.41.21.21,0,0,0-.16-.33l-1.77-.17a4.58,4.58,0,0,1-1.1-.39c-.28-.15-.36-.32-.15-.56a8.57,8.57,0,0,0,2.08-4.19,2.92,2.92,0,0,1,5.68-.52,4.1,4.1,0,0,1,.18,1.44,9.5,9.5,0,0,0,1,4.15.49.49,0,0,1-.22.66,1.37,1.37,0,0,1-.86.06l-1.78-.17a.2.2,0,0,0-.15.34,3.08,3.08,0,0,0,.26.22l2,1.47a1.83,1.83,0,0,1,.63.75l0,0a7.3,7.3,0,0,0-3.26-13.38Z" transform="translate(-885.2 -107.72)"/><path id="Fill_2494-2" data-name="Fill 2494" class="cls-1" d="M1317,162.47l-99.28-41.21a3.88,3.88,0,0,0-5.06,2.09h0L1192.9,171a3.89,3.89,0,0,0,2.09,5.07l99.28,41.21a3.88,3.88,0,0,0,5.07-2.09h0l19.78-47.67a3.88,3.88,0,0,0-2.09-5.07h0" transform="translate(-885.2 -107.72)"/><path id="Fill_2496-2" data-name="Fill 2496" class="cls-2" d="M1291.56,177.91l-46.92-19.47a2.39,2.39,0,0,1-1.29-3.12l1.2-2.89a2.39,2.39,0,0,1,3.12-1.3h0l46.91,19.48a2.39,2.39,0,0,1,1.3,3.12l-1.21,2.89a2.39,2.39,0,0,1-3.12,1.3" transform="translate(-885.2 -107.72)"/><path id="Fill_2498-2" data-name="Fill 2498" class="cls-3" d="M1266.7,185l-28.21-11.71a2.39,2.39,0,0,1-1.3-3.12h0l1.21-2.89a2.39,2.39,0,0,1,3.12-1.3h0l28.21,11.72a2.38,2.38,0,0,1,1.29,3.12l-1.2,2.89a2.38,2.38,0,0,1-3.12,1.29" transform="translate(-885.2 -107.72)"/><path class="cls-1" d="M1214,158.82l4.77.06a1.85,1.85,0,0,0,.84-.48.38.38,0,0,0-.09-.63l-2.84-1.26a7.75,7.75,0,0,1-1.62-1.24c-.38-.4-.42-.74,0-1,1.38-.83,4.39-2.9,5.74-5.8,0,0,2.1-4.47,6.57-2.54a5,5,0,0,1,3.15,4.77,7.08,7.08,0,0,1-.5,2.48,16.51,16.51,0,0,0-.58,7.44.87.87,0,0,1-.73,1,2.45,2.45,0,0,1-1.46-.37l-2.86-1.26a.35.35,0,0,0-.43.48,5,5,0,0,0,.3.51l2.44,3.5a3.11,3.11,0,0,1,.64,1.61,12.75,12.75,0,0,1-14.81-6.8A3.18,3.18,0,0,1,1214,158.82Z" transform="translate(-885.2 -107.72)"/><path class="cls-3" d="M1229.28,142.1a12.75,12.75,0,0,0-16.68,17.13,3.16,3.16,0,0,1,1.38-.41l4.77.06a1.85,1.85,0,0,0,.84-.48.38.38,0,0,0-.09-.63l-2.84-1.26a7.75,7.75,0,0,1-1.62-1.24c-.38-.4-.42-.74,0-1,1.38-.83,4.39-2.9,5.75-5.8,0,0,2.09-4.47,6.56-2.54a5,5,0,0,1,3.15,4.77,7.08,7.08,0,0,1-.5,2.48,16.51,16.51,0,0,0-.58,7.44.86.86,0,0,1-.73,1,2.45,2.45,0,0,1-1.46-.37l-2.86-1.26a.35.35,0,0,0-.43.48,5,5,0,0,0,.3.51l2.44,3.5a3.07,3.07,0,0,1,.64,1.6.08.08,0,0,0,0,0,12.75,12.75,0,0,0,1.89-24Z" transform="translate(-885.2 -107.72)"/><path class="cls-1" d="M1004.58,237.72l2.58-1.15a1,1,0,0,0,.32-.46.22.22,0,0,0-.2-.32l-1.83,0a4.88,4.88,0,0,1-1.18-.27c-.3-.13-.4-.29-.22-.56a8.87,8.87,0,0,0,1.65-4.53,3,3,0,0,1,5.76-1.2,4.34,4.34,0,0,1,.35,1.46,9.65,9.65,0,0,0,1.52,4.13.51.51,0,0,1-.15.71,1.44,1.44,0,0,1-.88.16l-1.84,0a.2.2,0,0,0-.11.36,1.92,1.92,0,0,0,.29.2l2.17,1.28a1.82,1.82,0,0,1,.73.7,7.5,7.5,0,0,1-9.61,0A1.7,1.7,0,0,1,1004.58,237.72Z" transform="translate(-885.2 -107.72)"/><path class="cls-3" d="M1008.67,225a7.52,7.52,0,0,0-4.73,13.29,1.79,1.79,0,0,1,.64-.55l2.58-1.15a1.07,1.07,0,0,0,.33-.46.23.23,0,0,0-.21-.32l-1.83,0a4.88,4.88,0,0,1-1.18-.27c-.3-.13-.4-.29-.22-.56a8.87,8.87,0,0,0,1.65-4.53,3,3,0,0,1,5.76-1.2,4.34,4.34,0,0,1,.35,1.46,9.78,9.78,0,0,0,1.52,4.13.51.51,0,0,1-.15.71,1.44,1.44,0,0,1-.88.16l-1.84,0a.2.2,0,0,0-.11.36,1.92,1.92,0,0,0,.29.2l2.17,1.28a1.76,1.76,0,0,1,.73.7,0,0,0,0,1,0,0,7.52,7.52,0,0,0-4.89-13.33Z" transform="translate(-885.2 -107.72)"/><path class="cls-1" d="M897.76,149.1l-3.42,2.14a3.93,3.93,0,0,0-.55.44,11.86,11.86,0,0,0,15.24-.89,3.25,3.25,0,0,0-.65-.38l-3.91-1.66a1.45,1.45,0,0,1-.87-1.24l-.1-1.49c.1-.13.22-.29.34-.48a8.92,8.92,0,0,0,1-2.45,1.18,1.18,0,0,0,.77-1.19l-.09-1.58a1.22,1.22,0,0,0-.45-.86l-.14-2.29s.25-3.6-4.59-3.31-4.14,3.84-4.14,3.84l.14,2.3a1.18,1.18,0,0,0-.35.9l.1,1.59a1.21,1.21,0,0,0,.61,1,7.85,7.85,0,0,0,1.62,2.88l.09,1.45A1.46,1.46,0,0,1,897.76,149.1Z" transform="translate(-885.2 -107.72)"/><path class="cls-3" d="M900.36,130.27a11.88,11.88,0,0,0-6.56,21.41,3.34,3.34,0,0,1,.54-.44l3.42-2.14a1.46,1.46,0,0,0,.68-1.32l-.09-1.45a7.85,7.85,0,0,1-1.62-2.88,1.21,1.21,0,0,1-.61-1l-.1-1.59a1.21,1.21,0,0,1,.35-.91l-.14-2.29s-.69-3.54,4.14-3.84,4.59,3.31,4.59,3.31l.14,2.29a1.26,1.26,0,0,1,.45.86l.09,1.58a1.19,1.19,0,0,1-.77,1.19,8.48,8.48,0,0,1-1,2.44,3.76,3.76,0,0,1-.33.49l.09,1.48a1.48,1.48,0,0,0,.88,1.25l3.91,1.66a3.25,3.25,0,0,1,.65.38,11.88,11.88,0,0,0-8.67-20.52Z" transform="translate(-885.2 -107.72)"/><path id="Fill_2506-2" data-name="Fill 2506" class="cls-1" d="M1193.83,227.4l-67.3-8.41a2.46,2.46,0,0,0-2.74,2.12l-4,32.33a2.46,2.46,0,0,0,2.13,2.73h0l26,3.25,15.24,1.91,26,3.25a2.45,2.45,0,0,0,2.74-2.12h0l4-32.32a2.45,2.45,0,0,0-2.12-2.74h0" transform="translate(-885.2 -107.72)"/><path id="Fill_2508-2" data-name="Fill 2508" class="cls-2" d="M1174,240.21l-25.25-3.16a1.12,1.12,0,0,1-1-1.24h0l.35-2.75a1.1,1.1,0,0,1,1.23-1h0l25.25,3.15a1.12,1.12,0,0,1,1,1.24l-.35,2.75a1.1,1.1,0,0,1-1.23,1" transform="translate(-885.2 -107.72)"/><path id="Fill_2510-2" data-name="Fill 2510" class="cls-3" d="M1184,251.67l-36.53-4.57a1.1,1.1,0,0,1-1-1.23l.34-2.75a1.11,1.11,0,0,1,1.24-1h0l36.53,4.57a1.1,1.1,0,0,1,1,1.23h0l-.34,2.75a1.11,1.11,0,0,1-1.24,1" transform="translate(-885.2 -107.72)"/><path class="cls-1" d="M1130.45,243.69l-3,1.27a3,3,0,0,0-.49.28,9.59,9.59,0,0,0,12.29,1.25,2.52,2.52,0,0,0-.47-.38l-2.91-1.84a1.17,1.17,0,0,1-.54-1.1l.12-1.2a3.89,3.89,0,0,0,.33-.35,7.33,7.33,0,0,0,1.14-1.82,1,1,0,0,0,.77-.85l.13-1.28a1,1,0,0,0-.25-.74l.18-1.85s.67-2.85-3.23-3.23-3.81,2.53-3.81,2.53l-.19,1.85a1,1,0,0,0-.39.68l-.12,1.28a.94.94,0,0,0,.36.85,6.31,6.31,0,0,0,.92,2.51l-.12,1.17A1.17,1.17,0,0,1,1130.45,243.69Z" transform="translate(-885.2 -107.72)"/><path class="cls-3" d="M1135,229a9.62,9.62,0,0,0-8,16.27,2.87,2.87,0,0,1,.48-.28l3-1.27a1.17,1.17,0,0,0,.71-1l.12-1.17a6.31,6.31,0,0,1-.92-2.51.94.94,0,0,1-.36-.85l.12-1.28a1,1,0,0,1,.39-.68l.19-1.85s-.1-2.92,3.81-2.53,3.23,3.23,3.23,3.23l-.18,1.85a1,1,0,0,1,.25.74l-.13,1.28a1,1,0,0,1-.77.85,7.33,7.33,0,0,1-1.14,1.82,3.89,3.89,0,0,1-.33.35l-.12,1.2a1.17,1.17,0,0,0,.54,1.1l2.91,1.84a2.52,2.52,0,0,1,.47.38A9.62,9.62,0,0,0,1135,229Z" transform="translate(-885.2 -107.72)"/></svg>