<svg xmlns="http://www.w3.org/2000/svg" xmlns:xlink="http://www.w3.org/1999/xlink" width="27.998" height="27.999" viewBox="0 0 27.998 27.999">
  <defs>
    <clipPath id="clip-path">
      <path id="Clip_2" data-name="Clip 2" d="M0,0H28V27.829H0Z" transform="translate(0.002 0.001)" fill="none"/>
    </clipPath>
  </defs>
  <g id="f_logo_RGB-Blue_1024" transform="translate(-0.002 -0.001)">
    <g id="Group_3" data-name="Group 3">
      <path id="Clip_2-2" data-name="Clip 2" d="M0,0H28V27.829H0Z" transform="translate(0.002 0.001)" fill="none"/>
      <g id="Group_3-2" data-name="Group 3" clip-path="url(#clip-path)">
        <path id="Fill_1" data-name="Fill 1" d="M28,14A14,14,0,1,0,11.813,27.83V18.047H8.258V14h3.555V10.916c0-3.509,2.09-5.447,5.288-5.447a21.529,21.529,0,0,1,3.134.273V9.188H18.469a2.023,2.023,0,0,0-2.282,2.186V14H20.07l-.621,4.047H16.188V27.83A14,14,0,0,0,28,14" fill="#1877f2"/>
      </g>
    </g>
    <path id="Fill_4" data-name="Fill 4" d="M11.192,12.578l.621-4.047H7.93V5.905a2.023,2.023,0,0,1,2.282-2.186h1.765V.273A21.529,21.529,0,0,0,8.843,0c-3.2,0-5.288,1.938-5.288,5.447V8.531H0v4.047H3.555v9.783a14.153,14.153,0,0,0,4.375,0V12.578h3.262" transform="translate(8.258 5.469)" fill="#fff"/>
  </g>
</svg>
