<svg xmlns="http://www.w3.org/2000/svg" width="46" height="46" viewBox="0 0 46 46">
  <g id="Group_5" data-name="Group 5" transform="translate(-3576 -341)">
    <circle id="Ellipse_1" data-name="Ellipse 1" cx="23" cy="23" r="23" transform="translate(3576 341)" fill="#fff"/>
    <g id="Vector_Smart_Object" data-name="Vector Smart Object">
      <path id="Color_Overlay" data-name="Color Overlay" d="M3588,366a13,13,0,0,1,26,0,13.844,13.844,0,0,1-1.846,6.875l1.82,5.457a.508.508,0,0,1-.643.643l-5.457-1.819A13.839,13.839,0,0,1,3601,379,13.221,13.221,0,0,1,3588,366Zm13,11.984A12.144,12.144,0,0,1,3589.016,366,12.144,12.144,0,0,0,3601,377.984Zm6.971-1.868,4.718,1.574-4.718-1.574a.516.516,0,0,0-.161-.025A.516.516,0,0,1,3607.971,376.116Zm-9-3.514h4.063v-1.017h-.507a.508.508,0,0,1-.508-.507v-6.6h-3.048v1.016h.509a.508.508,0,0,1,.507.507v5.079a.508.508,0,0,1-.507.507h-.509Zm4.571-2.032a.508.508,0,0,1,.508.508.508.508,0,0,0-.508-.508h0Zm-3.555-10.157A1.016,1.016,0,1,0,3601,359.4,1.016,1.016,0,0,0,3599.984,360.414Zm3.047,0a2.031,2.031,0,0,0-4.062,0,2.031,2.031,0,0,1,4.063,0Z" fill="#fbdedc"/>
    </g>
    <g id="Vector_Smart_Object-2" data-name="Vector Smart Object" transform="translate(3586 350)">
      <path id="Path_9" data-name="Path 9" d="M15.539,17.57h-.508v-6.6a.508.508,0,0,0-.508-.508H10.461a.508.508,0,0,0-.508.508V13a.508.508,0,0,0,.508.508h.508V17.57h-.508a.508.508,0,0,0-.508.508v2.031a.508.508,0,0,0,.508.508h5.078a.508.508,0,0,0,.508-.508V18.078A.508.508,0,0,0,15.539,17.57ZM15.031,19.6H10.969V18.586h.508a.508.508,0,0,0,.508-.508V13a.508.508,0,0,0-.508-.508h-.508V11.477h3.047v6.6a.508.508,0,0,0,.508.508h.508Z"/>
      <path id="Path_10" data-name="Path 10" d="M13,9.445a2.031,2.031,0,1,0-2.031-2.031A2.034,2.034,0,0,0,13,9.445ZM13,6.4a1.016,1.016,0,1,1-1.016,1.016A1.017,1.017,0,0,1,13,6.4Z"/>
      <path id="Path_11" data-name="Path 11" d="M0,13A13.22,13.22,0,0,0,13,26a13.844,13.844,0,0,0,6.875-1.845l5.457,1.819a.508.508,0,0,0,.642-.642l-1.819-5.457A13.848,13.848,0,0,0,26,13,13.221,13.221,0,0,0,13,0,13.22,13.22,0,0,0,0,13Zm1.016,0A12.145,12.145,0,0,1,13,1.016,12.145,12.145,0,0,1,24.984,13a12.7,12.7,0,0,1-1.815,6.538.507.507,0,0,0-.053.432l1.573,4.718-4.718-1.573a.508.508,0,0,0-.432.053A12.7,12.7,0,0,1,13,24.984,12.145,12.145,0,0,1,1.016,13Z"/>
    </g>
  </g>
</svg>
