<svg width="16" height="14" viewBox="0 0 16 14" fill="none" xmlns="http://www.w3.org/2000/svg">
<path d="M5.64771 4.5175C5.64771 4.5175 2.88271 4.82375 1.03821 5.0285C0.871959 5.04862 0.724959 5.15975 0.669834 5.32862C0.614709 5.4975 0.669834 5.67337 0.792334 5.7845C2.16258 7.03487 4.22146 8.90737 4.22146 8.90737C4.21971 8.90737 3.65621 11.6312 3.28171 13.4486C3.25021 13.6131 3.30971 13.7872 3.45321 13.8914C3.59583 13.9955 3.77958 13.9972 3.92396 13.9159C5.53746 12.9989 7.95421 11.6199 7.95421 11.6199C7.95421 11.6199 10.3718 12.9989 11.9827 13.9167C12.1297 13.9972 12.3135 13.9955 12.4561 13.8914C12.5996 13.7872 12.6591 13.6131 12.6267 13.4495C12.2522 11.6312 11.6896 8.90737 11.6896 8.90737C11.6896 8.90737 13.7485 7.03487 15.1187 5.78712C15.2412 5.6725 15.2955 5.49662 15.2412 5.32862C15.187 5.16062 15.04 5.0495 14.8737 5.03025C13.0292 4.82375 10.2633 4.5175 10.2633 4.5175C10.2633 4.5175 9.11708 1.98175 8.35321 0.291247C8.28146 0.139872 8.13096 0.0339966 7.95421 0.0339966C7.77746 0.0339966 7.62608 0.140747 7.55783 0.291247C6.79308 1.98175 5.64771 4.5175 5.64771 4.5175Z" fill="black"/>
</svg>
