<svg xmlns="http://www.w3.org/2000/svg" xmlns:xlink="http://www.w3.org/1999/xlink" width="555" height="400" viewBox="0 0 555 400">
  <defs>
    <clipPath id="clip-path">
      <path id="Clip_8" data-name="Clip 8" d="M0,0H145.143V194.641H0Z" transform="translate(0.981 0.55)" fill="none"/>
    </clipPath>
    <clipPath id="clip-path-2">
      <path id="Clip_18" data-name="Clip 18" d="M1.863,45.238a20.349,20.349,0,0,0,16.93-3.123h0A17.122,17.122,0,0,1,17,34.5h0A17.228,17.228,0,0,1,34.227,17.268h0c.411,0,.812.033,1.218.062h0l9.3-15.7A34.475,34.475,0,0,0,34.227,0h0C10.145,0-5.588,23.817,1.863,45.238" transform="translate(0.035 0.808)" fill="none"/>
    </clipPath>
    <linearGradient id="linear-gradient" x1="0.603" y1="-0.019" x2="0.244" y2="1.234" gradientUnits="objectBoundingBox">
      <stop offset="0" stop-color="#3a0e3b"/>
      <stop offset="1" stop-color="#7e3669"/>
    </linearGradient>
  </defs>
  <g id="Group_3" data-name="Group 3" transform="translate(-855 -2265)">
    <rect id="Rectangle_Copy_2" data-name="Rectangle Copy 2" width="555" height="400" rx="200" transform="translate(855 2265)" fill="#eaf3f3"/>
    <g id="Group_26" data-name="Group 26" transform="translate(1018 2342)">
      <g id="Group_16" data-name="Group 16" transform="translate(0 0.965)">
        <path id="Fill_1" data-name="Fill 1" d="M174,6.433c0,3.553-38.952,6.433-87,6.433S0,9.986,0,6.433,38.952,0,87,0s87,2.88,87,6.433" transform="translate(36.551 189.518)" fill="#c1dede"/>
        <path id="Fill_3" data-name="Fill 3" d="M19.075,50h0a5.271,5.271,0,0,1-4.537-2.52L2.736,28.2A18.13,18.13,0,0,1,2.374,9.649,18.9,18.9,0,0,1,9.065,2.723,19.483,19.483,0,0,1,28.91,2.709,18.906,18.906,0,0,1,35.6,9.6a18.134,18.134,0,0,1-.282,18.5L23.627,47.455A5.266,5.266,0,0,1,19.075,50ZM19.5,11A8.5,8.5,0,1,0,28,19.5,8.509,8.509,0,0,0,19.5,11Z" transform="translate(209 153.035)" fill="#e0bfde"/>
        <path id="Fill_5" data-name="Fill 5" d="M19.074,50h0a5.274,5.274,0,0,1-4.538-2.52L2.736,28.2A18.13,18.13,0,0,1,2.374,9.649,18.9,18.9,0,0,1,9.065,2.723,19.483,19.483,0,0,1,28.91,2.709,18.906,18.906,0,0,1,35.6,9.6a18.134,18.134,0,0,1-.282,18.5L23.627,47.455A5.266,5.266,0,0,1,19.074,50ZM18.5,10A8.5,8.5,0,1,0,27,18.5,8.51,8.51,0,0,0,18.5,10Z" transform="translate(0 148.035)" fill="#a85e9d"/>
        <g id="Group_9" data-name="Group 9" transform="translate(50)">
          <path id="Clip_8-2" data-name="Clip 8" d="M0,0H145.143V194.641H0Z" transform="translate(0.981 0.55)" fill="none"/>
          <g id="Group_9-2" data-name="Group 9" clip-path="url(#clip-path)">
            <path id="Fill_7" data-name="Fill 7" d="M72.573,0h0C16.239,0-18.549,61.462,10.45,109.758l45.074,75.074a20.216,20.216,0,0,0,34.721-.1L134.9,109.411C163.538,61.111,128.724,0,72.573,0" transform="translate(0.981 0.55)" fill="#7e3669"/>
          </g>
        </g>
        <path id="Fill_10" data-name="Fill 10" d="M99.888,49.944A49.944,49.944,0,1,1,49.944,0,49.944,49.944,0,0,1,99.888,49.944" transform="translate(73.609 23.177)" fill="#eaf3f3"/>
        <path id="Fill_10-2" data-name="Fill 10" d="M88,44A44,44,0,1,1,44,0,44,44,0,0,1,88,44" transform="translate(79.553 29.121)" fill="#ffc200"/>
        <path id="Fill_12" data-name="Fill 12" d="M27.973,11.547S39.7-5.461,51.313,1.806c11.1,6.947,1.744,29.539-20.229,46.954a5.826,5.826,0,0,1-6.666.365C17.236,44.717,1.556,33.111.08,15.1-1.469-3.76,19.956-3.142,27.973,11.547" transform="translate(95 51.035)" fill="#7e3669"/>
        <path id="Fill_14" data-name="Fill 14" d="M34.359,91.8h0a9.46,9.46,0,0,1-8.174-4.625L4.928,51.764A34.754,34.754,0,0,1,1.171,43,33.4,33.4,0,0,1,0,34.068,34.587,34.587,0,0,1,16.517,4.886a33.4,33.4,0,0,1,8.262-3.6,35.236,35.236,0,0,1,18.869-.007,33.409,33.409,0,0,1,8.244,3.576A34.582,34.582,0,0,1,68.45,33.927a33.411,33.411,0,0,1-1.128,8.915,34.752,34.752,0,0,1-3.7,8.757L42.562,87.125A9.453,9.453,0,0,1,34.359,91.8ZM34.227,17.27A17.226,17.226,0,1,0,51.454,34.5,17.246,17.246,0,0,0,34.227,17.27Z" transform="translate(129.25 136.952)" fill="#ffc200"/>
      </g>
      <g id="Group_19" data-name="Group 19" transform="translate(116.667 149.45)">
        <path id="Clip_18-2" data-name="Clip 18" d="M1.863,45.238a20.349,20.349,0,0,0,16.93-3.123h0A17.122,17.122,0,0,1,17,34.5h0A17.228,17.228,0,0,1,34.227,17.268h0c.411,0,.812.033,1.218.062h0l9.3-15.7A34.475,34.475,0,0,0,34.227,0h0C10.145,0-5.588,23.817,1.863,45.238" transform="translate(0.035 0.808)" fill="none"/>
        <g id="Group_19-2" data-name="Group 19" clip-path="url(#clip-path-2)">
          <path id="Fill_17" data-name="Fill 17" d="M1.863,45.238a20.349,20.349,0,0,0,16.93-3.123h0A17.122,17.122,0,0,1,17,34.5h0A17.228,17.228,0,0,1,34.227,17.268h0c.411,0,.812.033,1.218.062h0l9.3-15.7A34.475,34.475,0,0,0,34.227,0h0C10.145,0-5.588,23.817,1.863,45.238" transform="translate(0.035 0.808)" fill="url(#linear-gradient)"/>
        </g>
      </g>
      <g id="Group_25" data-name="Group 25" transform="translate(47.515 137.329)">
        <path id="Fill_20" data-name="Fill 20" d="M11.977,48.333l5.606-9.456a17.132,17.132,0,0,1,12.5-21.086L40.308.544A35.111,35.111,0,0,0,34.227,0C7.658,0-8.748,28.986,4.928,51.764L6.5,54.386a20.214,20.214,0,0,0,5.474-6.053" transform="translate(81.735 0.588)" fill="#ff943f"/>
        <g id="Group_24" data-name="Group 24" transform="translate(0 4.182)">
          <path id="Fill_22" data-name="Fill 22" d="M28.11,76a7.72,7.72,0,0,1-6.687-3.831L4.032,42.856A28.952,28.952,0,0,1,.943,35.543,27.964,27.964,0,0,1,0,28.09,28.752,28.752,0,0,1,3.78,14.162,28.324,28.324,0,0,1,13.609,3.985a27.159,27.159,0,0,1,6.718-2.933A28.5,28.5,0,0,1,35.65,1.046a27.166,27.166,0,0,1,6.7,2.918,28.323,28.323,0,0,1,9.827,10.13A28.752,28.752,0,0,1,56,27.975a27.972,27.972,0,0,1-.906,7.438,28.95,28.95,0,0,1-3.042,7.308L34.82,72.131A7.717,7.717,0,0,1,28.11,76ZM28,14A14.272,14.272,0,0,0,14,28.5,14.272,14.272,0,0,0,28,43,14.273,14.273,0,0,0,42,28.5,14.273,14.273,0,0,0,28,14Z" transform="translate(0.485 0.489)" fill="#169699"/>
        </g>
      </g>
    </g>
  </g>
</svg>
