<svg xmlns="http://www.w3.org/2000/svg" xmlns:xlink="http://www.w3.org/1999/xlink" width="826.621" height="632.289" viewBox="0 0 826.621 632.289">
  <defs>
    <clipPath id="clip-path">
      <path id="Clip_10" data-name="Clip 10" d="M4.384.7C7.225,13.885,0,24.352,0,24.352H0l23.164,14.8L43.8,26.084,35.067,0Z" transform="translate(0.27 0.173)" fill="none"/>
    </clipPath>
    <linearGradient id="linear-gradient" x1="0.485" y1="0.422" x2="0.757" y2="0.282" gradientUnits="objectBoundingBox">
      <stop offset="0" stop-color="#aa3f3d"/>
      <stop offset="1" stop-color="#95333d"/>
    </linearGradient>
    <clipPath id="clip-path-2">
      <path id="Clip_42" data-name="Clip 42" d="M25.878,1.138c-4.542,3.714-6.811,12.209-11.97,13.035h0C8.748,15-.04,16.857.785,23.667h0c.826,6.81-3.344,15.682,1.956,20.638h0c5.3,4.955-5.1,16.285,10.41,26.072h0A18.416,18.416,0,0,0,17.8,72.787h0L26.978,29.17,66.605,57.579s3.712-11.141,6.6-14.237h0c2.889-3.1,2.476-9.356-1.239-15.547h0c-3.714-6.191.619-15-9.906-16.648h0C51.537,9.5,55.871.828,45.346,2.479h0A22.123,22.123,0,0,1,34.379,1.373h0A19.189,19.189,0,0,0,28.965,0h0a4.665,4.665,0,0,0-3.087,1.138" transform="translate(0.341 0.29)" fill="none"/>
    </clipPath>
    <linearGradient id="linear-gradient-2" x1="0.375" y1="0.474" x2="0.763" y2="0.7" xlink:href="#linear-gradient"/>
    <clipPath id="clip-path-3">
      <path id="Clip_62" data-name="Clip 62" d="M12.908.22c4.3,8.4-1.1,12.381-5.527,14.793h0c-2.634,1.437,4.232,8.255,4.025,17.646h0c-.035,1.614-.935,1.9-1.825,1.778h0A3.231,3.231,0,0,1,7.273,32.82h0C5.89,30.452,2.188,24.994.364,30.766h0c-2.27,7.183,6.811,12.778,6.811,12.778h0s.1-.326,2.682,11.506h0c2.095,9.61,14.959,14.52,22.315,16.559h0a15.26,15.26,0,0,0,12.1-1.645h0c21.8-13.5,10.572-60.317,10.572-60.317h0c-2.476-3.508-8.874-.825-8.874-.825h0C31.8,14.528,16.309,2.663,13.13.035h0A.141.141,0,0,0,13.037,0h0a.15.15,0,0,0-.13.22" transform="translate(0.506 0.549)" fill="none"/>
    </clipPath>
    <linearGradient id="linear-gradient-3" x1="0.227" y1="0.383" x2="1.113" y2="0.685" gradientUnits="objectBoundingBox">
      <stop offset="0" stop-color="#ffcaaf"/>
      <stop offset="1" stop-color="#f9a789"/>
    </linearGradient>
    <clipPath id="clip-path-4">
      <path id="Clip_67" data-name="Clip 67" d="M0,9.267H20.329L17.575,0Z" transform="translate(0.095 0.549)" fill="none"/>
    </clipPath>
    <linearGradient id="linear-gradient-4" x1="0" y1="0.5" x2="1" y2="0.5" xlink:href="#linear-gradient-3"/>
    <clipPath id="clip-path-5">
      <path id="Clip_75" data-name="Clip 75" d="M23.254,1.245C4.044,5.545.346,27.525.346,27.525h0C-1.89,49.367,7.047,60.441,17.3,72.352h0c10.062,11.685,1.488,25.032-2.293,30.536h0a31.48,31.48,0,0,0-4.461,9.3h0c-8.907,31.855,39.344,33.853,39.344,33.853h0a44.141,44.141,0,0,1-4.135-5.031h0q-.7-1-1.316-2h0q-.612-1-1.138-1.992h0q-.264-.5-.505-.991h0a33.27,33.27,0,0,1-1.622-3.915h0a31.471,31.471,0,0,1-1.64-8.385h0q-.05-.888-.052-1.755h0a33.068,33.068,0,0,1,.255-4.167h0q.1-.8.232-1.567h0q.131-.769.291-1.5h0q.159-.737.341-1.438h0c.06-.234.123-.464.187-.692h0a35.087,35.087,0,0,1,4.531-10.074h0A46.175,46.175,0,0,0,52.64,71.769h0q-.117-1.055-.287-2.136h0a51.147,51.147,0,0,0-3.2-11.375h0a43.858,43.858,0,0,1-.784-31.2h0c.371-1.1.768-2.148,1.181-3.146h0a53.193,53.193,0,0,1,2.561-5.332h0q.32-.58.632-1.116h0c.416-.714.819-1.366,1.2-1.952h0a36.079,36.079,0,0,1,2.627-3.642h0S51.278,0,33.744,0h0A48.057,48.057,0,0,0,23.254,1.245" transform="translate(0.183 0.321)" fill="none"/>
    </clipPath>
    <linearGradient id="linear-gradient-5" x1="0.882" y1="-0.01" x2="0.663" y2="0.291" gradientUnits="objectBoundingBox">
      <stop offset="0" stop-color="#ff933f"/>
      <stop offset="1" stop-color="#ef7524"/>
    </linearGradient>
    <clipPath id="clip-path-6">
      <path id="Clip_78" data-name="Clip 78" d="M23.254,1.219C3.883,4.724.346,27.5.346,27.5h0C-1.89,49.34,7.047,60.414,17.3,72.326h0c10.062,11.685,1.488,25.032-2.294,30.536h0a31.462,31.462,0,0,0-4.46,9.3h0c-8.907,31.855,39.344,33.853,39.344,33.853h0S19.987,130.41,29.351,104.2h0c9.364-26.21,3.173-32.659-12.511-49.118h0c-9.147-9.6-11.822-21.868-9.18-32.734h0C11.286,7.434,28.214-2.3,43.215.956h0S40.861,0,35.4,0h0A68.623,68.623,0,0,0,23.254,1.219" transform="translate(0.234 0.347)" fill="none"/>
    </clipPath>
    <linearGradient id="linear-gradient-6" x1="0.441" y1="0.831" x2="0.606" y2="0.206" xlink:href="#linear-gradient-5"/>
    <clipPath id="clip-path-7">
      <path id="Clip_81" data-name="Clip 81" d="M.473,4.114C.442,2.779.353,1.407.2,0h0C.353,1.407.442,2.779.473,4.114" transform="translate(0.475 0.479)" fill="none"/>
    </clipPath>
    <linearGradient id="linear-gradient-7" x1="-6.267" y1="12.647" x2="6.067" y2="-9.493" xlink:href="#linear-gradient-5"/>
    <clipPath id="clip-path-8">
      <path id="Clip_89" data-name="Clip 89" d="M3.873,15.914C2.842,23.962.261,26.438.261,26.438h0S-3.866,66.27,20.694,78.859h0C44.652,91.14,50.039,58.679,33.457,32.424h0A24.606,24.606,0,0,1,29.8,17.714h0L4.81,0a129.972,129.972,0,0,1-.937,15.914" transform="translate(0.367 0.152)" fill="none"/>
    </clipPath>
    <linearGradient id="linear-gradient-8" x1="0.315" y1="0.597" x2="0.705" y2="0.35" xlink:href="#linear-gradient-3"/>
    <clipPath id="clip-path-9">
      <path id="Clip_92" data-name="Clip 92" d="M0,5.079,13.484,33.742s8.376-9.636,11.184-17.124h0C27.475,9.13,24.276.6,16.341.039h0C15.962.013,15.584,0,15.2,0h0C7.624,0,0,5.079,0,5.079" transform="translate(0.238 0.624)" fill="none"/>
    </clipPath>
    <linearGradient id="linear-gradient-9" x1="0.396" y1="-0.065" x2="0.718" y2="0.792" xlink:href="#linear-gradient-5"/>
    <clipPath id="clip-path-10">
      <path id="Clip_95" data-name="Clip 95" d="M3.872,15.914C2.84,23.962.26,26.438.26,26.438h0A85.2,85.2,0,0,0,.484,42.321h0a29.438,29.438,0,0,1,2.393-4.3h0A46.174,46.174,0,0,0,10.194,7.269h0q-.117-1.055-.286-2.136h0c-.09-.574-.2-1.155-.311-1.739h0L4.808,0a130.048,130.048,0,0,1-.936,15.914" transform="translate(0.368 0.152)" fill="none"/>
    </clipPath>
    <linearGradient id="linear-gradient-10" x1="1.715" y1="0.803" x2="0.731" y2="0.593" xlink:href="#linear-gradient-3"/>
    <clipPath id="clip-path-11">
      <path id="Clip_121" data-name="Clip 121" d="M1.738,70.179c3.688,11.677,43.9,73.135,48.472,80.109h0l7.722.655S13.2,69.135,11.649,64.109h0C10.1,59.082,15.3,6.77,15.3,6.77h0A123.456,123.456,0,0,0,1.738,0h0s-3.911,57.8,0,70.179" transform="translate(0.019 0.27)" fill="none"/>
    </clipPath>
    <linearGradient id="linear-gradient-11" x1="0.574" y1="0.845" x2="0.161" y2="0.071" xlink:href="#linear-gradient-3"/>
    <clipPath id="clip-path-12">
      <path id="Clip_187" data-name="Clip 187" d="M21.864,5.546c-2.683,1.832-1.238,4.36-1.238,8.581h0c0,4.221-6.4,6.511-9.287,7.68h0c-2.889,1.17-2.889,9.133-2.889,9.133h0S-2.168,25.417.4,32.7h0a10.033,10.033,0,0,0,8.341,6.83h0C9.154,45,23.721,72.439,40.851,68.931h0C57.98,65.422,60.148,38.8,60.148,38.8h0C62,37.355,71.189,30.854,66.029,26.623h0c-2.855-2.341-6.6,3.577-6.6,3.577h0c1.032-4.678-2.683-2.958-2.476-8.447h0c.074-1.979-.757-3.868-3.783-4h0c-3.136-.143-5.058-.745-5.738-3.457h0c-.672-2.683-2.587-4.111-7.059-4.041h0c-1.48.023-2.352-1.043-3.354-2.11h0C35.9,6.958,34.629,5.776,32.183,6.078h0C27.836,6.616,24.959,0,24.959,0h0s-.412,3.715-3.1,5.546" transform="translate(0.141 0.587)" fill="none"/>
    </clipPath>
    <linearGradient id="linear-gradient-12" x1="0.694" y1="0.435" x2="0.237" y2="0.575" gradientUnits="objectBoundingBox">
      <stop offset="0" stop-color="#aa3f3d"/>
      <stop offset="1" stop-color="#bf5750"/>
    </linearGradient>
    <clipPath id="clip-path-13">
      <path id="Clip_237" data-name="Clip 237" d="M16.653.082C13.462.329,8.859.323,6.513,2.066h0C2.5,5.049-1.75,10.954.744,12.073h0a2.688,2.688,0,0,0,2.076-.141h0c.561-.2,1.055-.41,1.426-.233h0c.788.376-.2,2.1,1.616,2.838h0a1.972,1.972,0,0,0,2.286-.579h0c.488-.429.938-.858,1.586-.718h0c1.773.383,0,1.93,2.265,2.234h0a2.367,2.367,0,0,0,1.456-.275h0a2.244,2.244,0,0,1,1.409-.274h0c1.317.191.868,1.632,1.911,1.739h0c2.348.242,2.713-2.5,4.748-4.108h0c1.507-1.189,2.966-2.31,4.1-2.258h0c2.27.1,2.27,1.135,2.27,1.135h0V34.856S40.958,48.922,46.087,57.728h0S56.375,46.86,55.962,35.441h0s-19.4-16.991-22.908-23.8h0C29.779,5.28,27.593,0,18.661,0h0c-.634,0-1.3.027-2.008.082" transform="translate(0.207 0.432)" fill="none"/>
    </clipPath>
    <linearGradient id="linear-gradient-13" x1="0.423" y1="0.244" x2="0.777" y2="0.982" xlink:href="#linear-gradient"/>
  </defs>
  <g id="Group_267" data-name="Group 267" transform="translate(0 -0.868)">
    <path id="Fill_1" data-name="Fill 1" d="M0,560.127H51.126V0H0Z" transform="translate(691 72.029)" fill="#c1e5e5"/>
    <g id="Group_8" data-name="Group 8" transform="translate(470.946 150.62)">
      <path id="Fill_2" data-name="Fill 2" d="M139.287,32.56s.23,75.529-14.017,147.968h-95.4S8.866,80.084.817,32.56,46.839,7.075,46.839,7.075L128.979,0Z" transform="translate(17.783 301.048)" fill="#169699"/>
      <path id="Fill_4" data-name="Fill 4" d="M58.9,3.931s-2.752,29.777,5.778,43.33-7.726,43.546-6.2,60.057,7.3,50.614,7.3,50.614H27.825S.838,36.736.013,20.018,37.712,0,37.712,0,48.449,3.967,58.9,3.931" transform="translate(19.826 323.644)" fill="#165e63"/>
      <path id="Fill_6" data-name="Fill 6" d="M79.557,110.734s6.855,2.637,8.618-2.542,6.833-1.211,8.6-6.061,8.6-1.543,7.053-11.9,6.393-2.866,5.291-16.092,7.935-10.8,1.984-23.365,2.866-10.8-2.865-18.956.881-8.818-9.479-15.871S95.407,4.482,79.557,4.262s-12.433-9.479-24.185,0c-9.2,7.421-10.212.045-21.583,1.215-7.494.771-3.721,9.7-16.3,14.107s-4.843,10.968-10.573,16.7-9.592,9.166-4.649,16.586c2.719,4.081,3.747,5.217,1.764,12.2S8.66,73.66,7.558,83.875,17.417,89.127,18.079,95.3s1.322,7.274,6.612,9.258,7.275,4.441,8.817,6.849,11.683-1.118,11.683-1.118" transform="translate(0.238 0.423)" fill="#3a0f3b"/>
    </g>
    <g id="Group_11" data-name="Group 11" transform="translate(511.101 246.993)">
      <path id="Clip_10-2" data-name="Clip 10" d="M4.384.7C7.225,13.885,0,24.352,0,24.352H0l23.164,14.8L43.8,26.084,35.067,0Z" transform="translate(0.27 0.173)" fill="none"/>
      <g id="Group_11-2" data-name="Group 11" clip-path="url(#clip-path)">
        <path id="Fill_9" data-name="Fill 9" d="M4.384.7C7.225,13.885,0,24.352,0,24.352H0l23.164,14.8L43.8,26.084,35.067,0Z" transform="translate(0.27 0.173)" fill="url(#linear-gradient)"/>
      </g>
    </g>
    <g id="Group_40" data-name="Group 40" transform="translate(346.463 178.059)">
      <path id="Fill_12" data-name="Fill 12" d="M48.88,88.294s6.306-20.638,0-50.563a136.809,136.809,0,0,1-2.48-32.8C41.321,2.978-6.81-14.437.817,30.59,2.046,37.853,3.58,46.2,5.294,55.122a23.312,23.312,0,0,0,6.942,5.93C33.287,72.815,42.8,74.673,48.88,88.294" transform="translate(142.266 275.578)" fill="#165e63"/>
      <path id="Fill_14" data-name="Fill 14" d="M25.464,0,5.349,1.733c-.014.228-.024.455-.041.682C2.832,35.78,13.976,38.256,12.737,51.878S0,79.119,0,79.119,19.932,71.77,34.918,61.907c.891-18.132.855-29.348.855-29.348Z" transform="translate(245.78 273.608)" fill="#165e63"/>
      <path id="Fill_16" data-name="Fill 16" d="M5.5,95.867s30.819,13.866,75.122,0S51.182,0,51.182,0L0,48.155Z" transform="translate(169.361 198.105)" fill="#ff943f"/>
      <path id="Fill_18" data-name="Fill 18" d="M75.872.011s-3.765,16.857-17.63,17.654S36.8,3.21,36.8,3.21,7.611,13.853,3.484,20.141L1.72,180.354s-8.554,37.086,12.5,48.849,30.567,13.621,36.644,27.242c0,0,6.306-20.638,0-50.563S51.734,145,51.734,145l33.792-39.625s27.752,29.856,25.275,63.22,8.668,35.841,7.43,49.462S105.493,245.3,105.493,245.3s49.266-18.161,51.123-35.7-10.525-67.692-19.193-93.7.62-58.818.62-58.818l40.221,15.731a48.088,48.088,0,0,0-25.981-33.067c-17.833-8.917-16.1-28.15-36.529-34.2A144.639,144.639,0,0,0,75.872.011" transform="translate(130.106 87.02)" fill="#92d6d4"/>
      <path id="Fill_20" data-name="Fill 20" d="M76.54,87.045V2.959A2.958,2.958,0,0,0,73.581,0H3.385L1.718,151.489A82.029,82.029,0,0,0,.245,174.11H50.286c-5.277-28.989,1.446-57.974,1.446-57.974Z" transform="translate(130.289 115.885)" fill="#73bfbb"/>
      <path id="Fill_22" data-name="Fill 22" d="M2.022,78.815H25.317a2.958,2.958,0,0,0,2.958-2.958V0L2.84,23.931C1.3,32.143-2.227,55.477,2.022,78.815" transform="translate(178.354 211.18)" fill="#ef7625"/>
      <path id="Stroke_24" data-name="Stroke 24" d="M0,0C5.813,11.171,10.772,25.417,9.663,40.367,7.186,73.732,18.33,76.208,17.092,89.83S4.355,117.071,4.355,117.071" transform="translate(231.226 215.249)" fill="none" stroke="#165e63" stroke-linecap="round" stroke-miterlimit="10" stroke-width="2"/>
      <path id="Stroke_26" data-name="Stroke 26" d="M2.592,111.445s6.306-20.638,0-50.563S3.468,0,3.468,0" transform="translate(178.354 232.02)" fill="none" stroke="#165e63" stroke-linecap="round" stroke-miterlimit="10" stroke-width="2"/>
      <path id="Fill_28" data-name="Fill 28" d="M71.407,70.064C69.756,59.332,70.168,0,70.168,0H0S18.976,75.43,17.95,81.207s-2.688,16.924,0,23.528,4.338,75.792,4.338,75.792H71.407s1.651-99.733,0-110.464" transform="translate(22.971 273.608)" fill="#3a0f3b"/>
      <path id="Fill_30" data-name="Fill 30" d="M8.307,4.2,23.09,0,46.435,7.5,44.371,58.467,12.589,46.091,0,14.309Z" transform="translate(6.667 31.764)" fill="#e0f2f2"/>
      <path id="Fill_32" data-name="Fill 32" d="M13.186,0,26.153,38.911,23.812,56.838H6.614L0,36.022,4.825,0Z" transform="translate(24.061 42.659)" fill="#169699"/>
      <path id="Fill_34" data-name="Fill 34" d="M15.114,4.823S17.38,12.4,8.093,11.886.056,4.25.056,4.25,3.5.6,5.7.054s8.6,3.279,9.419,4.77" transform="translate(24.061 31.71)" fill="#169699"/>
      <path id="Fill_36" data-name="Fill 36" d="M2.765,0A8.5,8.5,0,0,0,.4,8.828c1.651,5.5,12.575,37.149,12.575,37.149S26.767,28.915,29.2,28.64,48.691,39.922,48.691,39.922,47.177,10.882,45.664,8.69L44.151,6.5Z" transform="translate(0.559 3.124)" fill="#fff"/>
      <path id="Fill_38" data-name="Fill 38" d="M0,2.818s8.042,26.576,26.433,28.64c0,0,17.205-13.778,14.953-22.142-.168-.624-.444-4.915-.845-5.471C34.781-4.159,0,2.818,0,2.818" transform="translate(3.323 0.306)" fill="#f9a78a"/>
    </g>
    <g id="Group_43" data-name="Group 43" transform="translate(329.732 100.425)">
      <path id="Clip_42-2" data-name="Clip 42" d="M25.878,1.138c-4.542,3.714-6.811,12.209-11.97,13.035h0C8.748,15-.04,16.857.785,23.667h0c.826,6.81-3.344,15.682,1.956,20.638h0c5.3,4.955-5.1,16.285,10.41,26.072h0A18.416,18.416,0,0,0,17.8,72.787h0L26.978,29.17,66.605,57.579s3.712-11.141,6.6-14.237h0c2.889-3.1,2.476-9.356-1.239-15.547h0c-3.714-6.191.619-15-9.906-16.648h0C51.537,9.5,55.871.828,45.346,2.479h0A22.123,22.123,0,0,1,34.379,1.373h0A19.189,19.189,0,0,0,28.965,0h0a4.665,4.665,0,0,0-3.087,1.138" transform="translate(0.341 0.29)" fill="none"/>
      <g id="Group_43-2" data-name="Group 43" clip-path="url(#clip-path-2)">
        <path id="Fill_41" data-name="Fill 41" d="M25.878,1.138c-4.542,3.714-6.811,12.209-11.97,13.035h0C8.748,15-.04,16.857.785,23.667h0c.826,6.81-3.344,15.682,1.956,20.638h0c5.3,4.955-5.1,16.285,10.41,26.072h0A18.416,18.416,0,0,0,17.8,72.787h0L26.978,29.17,66.605,57.579s3.712-11.141,6.6-14.237h0c2.889-3.1,2.476-9.356-1.239-15.547h0c-3.714-6.191.619-15-9.906-16.648h0C51.537,9.5,55.871.828,45.346,2.479h0A22.123,22.123,0,0,1,34.379,1.373h0A19.189,19.189,0,0,0,28.965,0h0a4.665,4.665,0,0,0-3.087,1.138" transform="translate(0.341 0.29)" fill="url(#linear-gradient-2)"/>
      </g>
    </g>
    <g id="Group_60" data-name="Group 60" transform="translate(0 100.635)">
      <path id="Fill_44" data-name="Fill 44" d="M13.059,46.782c-8.1-13.621,3.027-13.385,2.5-20.225-.688-8.909,3.509-9.081,8.669-9.906S31.656,7.331,36.2,3.616A4.687,4.687,0,0,1,38.849,2.5c-6.107-.951-9.5-4.2-12.972-1.358-4.541,3.714-6.81,12.209-11.97,13.035S-.04,16.857.785,23.668-2.56,39.35,2.74,44.306-2.354,60.591,13.151,70.378A18.422,18.422,0,0,0,17.8,72.787l.812-3.86c-8.169-8.733-2.33-16.729-5.549-22.145" transform="translate(330.072 0.08)" fill="#bf5851"/>
      <path id="Fill_46" data-name="Fill 46" d="M5.887,0S-8.3,40.951,7.366,121.282c13.117,67.279,12.5,108.774,12.5,108.774l51.5-.58c2.473-73.365,12.47-94.849,17.9-138.669C94.63,47.467,109.9,0,109.9,0Z" transform="translate(143.96 300.983)" fill="#7e3669"/>
      <path id="Fill_48" data-name="Fill 48" d="M103.193,6.911C104.5,2.516,105.312,0,105.312,0h-52.8V46.967C48.992,40.52,37.54,19.524,27.038,0H0C16.434,22.066,37.377,47.6,37.377,47.6A60.905,60.905,0,0,0,52.512,63.4v5.15A2.949,2.949,0,0,0,54.169,71.2l-3.606,5.574L54.47,229.765l44.1-.288c1.71-85.1,8.722-113.5,13.787-154.405,3.935-31.781-4.426-55.95-9.167-68.16" transform="translate(153.638 300.983)" fill="#3a0f3b"/>
      <path id="Fill_50" data-name="Fill 50" d="M48.705,0S14.447,18.781,8.668,25.385,0,62.533,0,62.533s29.06,10.861,31.936,12.95l1.032-5a93.889,93.889,0,0,1,5.418,53.762C35,141.635,16.1,187.6,16.1,187.6H88.949L110.206,66.247s5.985-4.54,19.4-13c0,0-4.11-30.776-9.029-34.672C110.413,10.525,79.135.74,79.135.74Z" transform="translate(133.749 113.384)" fill="#169699"/>
      <path id="Fill_54" data-name="Fill 54" d="M0,22.379H41.5V0H0Z" transform="translate(51.051 450.365)" fill="#c1e5e5"/>
      <path id="Fill_54_Copy" data-name="Fill 54 Copy" d="M0,22.379H41.5V0H0Z" transform="translate(0 450.365)" fill="#92d6d4"/>
      <path id="Fill_55" data-name="Fill 55" d="M0,22.38H41.5V0H0Z" transform="translate(27 480.099)" fill="#c1e5e5"/>
      <path id="Fill_56" data-name="Fill 56" d="M0,22.379H41.5V0H0Z" transform="translate(785.118 49.904)" fill="#c1e5e5"/>
      <path id="Fill_57" data-name="Fill 57" d="M0,22.38H41.5V0H0Z" transform="translate(761.067 79.639)" fill="#e0f2f2"/>
      <path id="Fill_58" data-name="Fill 58" d="M34.379,7.38C32.865,5.188,32.6,5.119,32.6,5.119L0,0C.3,1.337,21.93,4.969,22.351,6.9c2.094,9.6-5.622,12.668,1.735,14.709A13.706,13.706,0,0,0,35.5,19.776c.122-.076.415-.305.535-.383-.514-6.01-1.042-11.122-1.658-12.013" transform="translate(358.376 81.858)" fill="#e0f2f2"/>
      <path id="Fill_59" data-name="Fill 59" d="M24,25.62c.17.047.343.074.514.115,4.666-4.758,10.03-11.517,8.709-16.419-.169-.624-.444-4.916-.844-5.471C28.409-1.672,10.653-.072,0,1.455.391,3.15.935,5.576,1.7,9.065,3.79,18.669,16.643,23.579,24,25.62" transform="translate(357.949 77.73)" fill="#e58c70"/>
    </g>
    <g id="Group_63" data-name="Group 63" transform="translate(338.432 122.511)">
      <path id="Clip_62-2" data-name="Clip 62" d="M12.908.22c4.3,8.4-1.1,12.381-5.527,14.793h0c-2.634,1.437,4.232,8.255,4.025,17.646h0c-.035,1.614-.935,1.9-1.825,1.778h0A3.231,3.231,0,0,1,7.273,32.82h0C5.89,30.452,2.188,24.994.364,30.766h0c-2.27,7.183,6.811,12.778,6.811,12.778h0s.1-.326,2.682,11.506h0c2.095,9.61,14.959,14.52,22.315,16.559h0a15.26,15.26,0,0,0,12.1-1.645h0c21.8-13.5,10.572-60.317,10.572-60.317h0c-2.476-3.508-8.874-.825-8.874-.825h0C31.8,14.528,16.309,2.663,13.13.035h0A.141.141,0,0,0,13.037,0h0a.15.15,0,0,0-.13.22" transform="translate(0.506 0.549)" fill="none"/>
      <g id="Group_63-2" data-name="Group 63" clip-path="url(#clip-path-3)">
        <path id="Fill_61" data-name="Fill 61" d="M12.908.22c4.3,8.4-1.1,12.381-5.527,14.793h0c-2.634,1.437,4.232,8.255,4.025,17.646h0c-.035,1.614-.935,1.9-1.825,1.778h0A3.231,3.231,0,0,1,7.273,32.82h0C5.89,30.452,2.188,24.994.364,30.766h0c-2.27,7.183,6.811,12.778,6.811,12.778h0s.1-.326,2.682,11.506h0c2.095,9.61,14.959,14.52,22.315,16.559h0a15.26,15.26,0,0,0,12.1-1.645h0c21.8-13.5,10.572-60.317,10.572-60.317h0c-2.476-3.508-8.874-.825-8.874-.825h0C31.8,14.528,16.309,2.663,13.13.035h0A.141.141,0,0,0,13.037,0h0a.15.15,0,0,0-.13.22" transform="translate(0.506 0.549)" fill="url(#linear-gradient-3)"/>
      </g>
    </g>
    <path id="Fill_64" data-name="Fill 64" d="M21.637,102.6,39.609,0H2.958A2.958,2.958,0,0,0,0,2.958V102.6Z" transform="translate(205.594 299.02)" fill="#165e63"/>
    <g id="Group_68" data-name="Group 68" transform="translate(244.066 267.74)">
      <path id="Clip_67-2" data-name="Clip 67" d="M0,9.267H20.329L17.575,0Z" transform="translate(0.095 0.549)" fill="none"/>
      <g id="Group_68-2" data-name="Group 68" clip-path="url(#clip-path-4)">
        <path id="Fill_66" data-name="Fill 66" d="M0,9.267H20.329L17.575,0Z" transform="translate(0.095 0.549)" fill="url(#linear-gradient-4)"/>
      </g>
    </g>
    <g id="Group_73" data-name="Group 73" transform="translate(149.031 213.53)">
      <path id="Stroke_69" data-name="Stroke 69" d="M14.034,0S15.96,14.585,0,35.5" transform="translate(9.62 211.202)" fill="none" stroke="#3a0f3b" stroke-linecap="round" stroke-miterlimit="10" stroke-width="2"/>
      <path id="Fill_71" data-name="Fill 71" d="M1.1,21.246C-7.809,53.1,40.441,55.1,40.441,55.1a44.33,44.33,0,0,1-4.135-5.031q-.7-1-1.316-2t-1.139-1.992q-.262-.5-.5-.991a33.268,33.268,0,0,1-1.622-3.915,31.492,31.492,0,0,1-1.64-8.384q-.05-.888-.052-1.755a33.18,33.18,0,0,1,.256-4.166q.1-.8.232-1.567t.291-1.5q.16-.737.341-1.438c.06-.234.123-.464.187-.693A35.1,35.1,0,0,1,35.87,11.584,41.269,41.269,0,0,0,41.354,0h-8.1S14.079,10.511,2,18.571a27.793,27.793,0,0,0-.9,2.675" transform="translate(0.239 0.489)" fill="#167f83"/>
    </g>
    <g id="Group_76" data-name="Group 76" transform="translate(128.284 116.487)">
      <path id="Clip_75-2" data-name="Clip 75" d="M23.254,1.245C4.044,5.545.346,27.525.346,27.525h0C-1.89,49.367,7.047,60.441,17.3,72.352h0c10.062,11.685,1.488,25.032-2.293,30.536h0a31.48,31.48,0,0,0-4.461,9.3h0c-8.907,31.855,39.344,33.853,39.344,33.853h0a44.141,44.141,0,0,1-4.135-5.031h0q-.7-1-1.316-2h0q-.612-1-1.138-1.992h0q-.264-.5-.505-.991h0a33.27,33.27,0,0,1-1.622-3.915h0a31.471,31.471,0,0,1-1.64-8.385h0q-.05-.888-.052-1.755h0a33.068,33.068,0,0,1,.255-4.167h0q.1-.8.232-1.567h0q.131-.769.291-1.5h0q.159-.737.341-1.438h0c.06-.234.123-.464.187-.692h0a35.087,35.087,0,0,1,4.531-10.074h0A46.175,46.175,0,0,0,52.64,71.769h0q-.117-1.055-.287-2.136h0a51.147,51.147,0,0,0-3.2-11.375h0a43.858,43.858,0,0,1-.784-31.2h0c.371-1.1.768-2.148,1.181-3.146h0a53.193,53.193,0,0,1,2.561-5.332h0q.32-.58.632-1.116h0c.416-.714.819-1.366,1.2-1.952h0a36.079,36.079,0,0,1,2.627-3.642h0S51.278,0,33.744,0h0A48.057,48.057,0,0,0,23.254,1.245" transform="translate(0.183 0.321)" fill="none"/>
      <g id="Group_76-2" data-name="Group 76" clip-path="url(#clip-path-5)">
        <path id="Fill_74" data-name="Fill 74" d="M23.254,1.245C4.044,5.545.346,27.525.346,27.525h0C-1.89,49.367,7.047,60.441,17.3,72.352h0c10.062,11.685,1.488,25.032-2.293,30.536h0a31.48,31.48,0,0,0-4.461,9.3h0c-8.907,31.855,39.344,33.853,39.344,33.853h0a44.141,44.141,0,0,1-4.135-5.031h0q-.7-1-1.316-2h0q-.612-1-1.138-1.992h0q-.264-.5-.505-.991h0a33.27,33.27,0,0,1-1.622-3.915h0a31.471,31.471,0,0,1-1.64-8.385h0q-.05-.888-.052-1.755h0a33.068,33.068,0,0,1,.255-4.167h0q.1-.8.232-1.567h0q.131-.769.291-1.5h0q.159-.737.341-1.438h0c.06-.234.123-.464.187-.692h0a35.087,35.087,0,0,1,4.531-10.074h0A46.175,46.175,0,0,0,52.64,71.769h0q-.117-1.055-.287-2.136h0a51.147,51.147,0,0,0-3.2-11.375h0a43.858,43.858,0,0,1-.784-31.2h0c.371-1.1.768-2.148,1.181-3.146h0a53.193,53.193,0,0,1,2.561-5.332h0q.32-.58.632-1.116h0c.416-.714.819-1.366,1.2-1.952h0a36.079,36.079,0,0,1,2.627-3.642h0S51.278,0,33.744,0h0A48.057,48.057,0,0,0,23.254,1.245" transform="translate(0.183 0.321)" fill="url(#linear-gradient-5)"/>
      </g>
    </g>
    <g id="Group_79" data-name="Group 79" transform="translate(126.946 116.487)">
      <path id="Clip_78-2" data-name="Clip 78" d="M23.254,1.219C3.883,4.724.346,27.5.346,27.5h0C-1.89,49.34,7.047,60.414,17.3,72.326h0c10.062,11.685,1.488,25.032-2.294,30.536h0a31.462,31.462,0,0,0-4.46,9.3h0c-8.907,31.855,39.344,33.853,39.344,33.853h0S19.987,130.41,29.351,104.2h0c9.364-26.21,3.173-32.659-12.511-49.118h0c-9.147-9.6-11.822-21.868-9.18-32.734h0C11.286,7.434,28.214-2.3,43.215.956h0S40.861,0,35.4,0h0A68.623,68.623,0,0,0,23.254,1.219" transform="translate(0.234 0.347)" fill="none"/>
      <g id="Group_79-2" data-name="Group 79" clip-path="url(#clip-path-6)">
        <path id="Fill_77" data-name="Fill 77" d="M23.254,1.219C3.883,4.724.346,27.5.346,27.5h0C-1.89,49.34,7.047,60.414,17.3,72.326h0c10.062,11.685,1.488,25.032-2.294,30.536h0a31.462,31.462,0,0,0-4.46,9.3h0c-8.907,31.855,39.344,33.853,39.344,33.853h0S19.987,130.41,29.351,104.2h0c9.364-26.21,3.173-32.659-12.511-49.118h0c-9.147-9.6-11.822-21.868-9.18-32.734h0C11.286,7.434,28.214-2.3,43.215.956h0S40.861,0,35.4,0h0A68.623,68.623,0,0,0,23.254,1.219" transform="translate(0.234 0.347)" fill="url(#linear-gradient-6)"/>
      </g>
    </g>
    <g id="Group_82" data-name="Group 82" transform="translate(179.148 188.098)">
      <path id="Clip_81-2" data-name="Clip 81" d="M.473,4.114C.442,2.779.353,1.407.2,0h0C.353,1.407.442,2.779.473,4.114" transform="translate(0.475 0.479)" fill="none"/>
      <g id="Group_82-2" data-name="Group 82" clip-path="url(#clip-path-7)">
        <path id="Fill_80" data-name="Fill 80" d="M.473,4.114C.442,2.779.353,1.407.2,0h0C.353,1.407.442,2.779.473,4.114" transform="translate(0.475 0.479)" fill="url(#linear-gradient-7)"/>
      </g>
    </g>
    <g id="Group_87" data-name="Group 87" transform="translate(166.432 116.487)">
      <path id="Fill_83" data-name="Fill 83" d="M11.278.09a6.982,6.982,0,0,1,3.042.185,3.8,3.8,0,0,1,2.4,4.046c-.378,1.891-14.1,11.351-14.1,11.351S0,15.19,0,13.746,1.308,4.459,11.278.09" transform="translate(2.263 5.982)" fill="#7e3669"/>
      <path id="Fill_85" data-name="Fill 85" d="M62.9,53.3S84.566,30.26,69.071,19.939C55.438,10.858,54.269-2.006,36.549.264c-16,2.05-19.773,9.975-19.773,9.975S2.64,13.541.369,31.909,6.492,59.391,20.224,70.617" transform="translate(0.346 0.477)" fill="#ff943f"/>
    </g>
    <g id="Group_90" data-name="Group 90" transform="translate(181.825 187.429)">
      <path id="Clip_89-2" data-name="Clip 89" d="M3.873,15.914C2.842,23.962.261,26.438.261,26.438h0S-3.866,66.27,20.694,78.859h0C44.652,91.14,50.039,58.679,33.457,32.424h0A24.606,24.606,0,0,1,29.8,17.714h0L4.81,0a129.972,129.972,0,0,1-.937,15.914" transform="translate(0.367 0.152)" fill="none"/>
      <g id="Group_90-2" data-name="Group 90" clip-path="url(#clip-path-8)">
        <path id="Fill_88" data-name="Fill 88" d="M3.873,15.914C2.842,23.962.261,26.438.261,26.438h0S-3.866,66.27,20.694,78.859h0C44.652,91.14,50.039,58.679,33.457,32.424h0A24.606,24.606,0,0,1,29.8,17.714h0L4.81,0a129.972,129.972,0,0,1-.937,15.914" transform="translate(0.367 0.152)" fill="url(#linear-gradient-8)"/>
      </g>
    </g>
    <g id="Group_93" data-name="Group 93" transform="translate(215.957 135.896)">
      <path id="Clip_92-2" data-name="Clip 92" d="M0,5.079,13.484,33.742s8.376-9.636,11.184-17.124h0C27.475,9.13,24.276.6,16.341.039h0C15.962.013,15.584,0,15.2,0h0C7.624,0,0,5.079,0,5.079" transform="translate(0.238 0.624)" fill="none"/>
      <g id="Group_93-2" data-name="Group 93" clip-path="url(#clip-path-9)">
        <path id="Fill_91" data-name="Fill 91" d="M0,5.079,13.484,33.742s8.376-9.636,11.184-17.124h0C27.475,9.13,24.276.6,16.341.039h0C15.962.013,15.584,0,15.2,0h0C7.624,0,0,5.079,0,5.079" transform="translate(0.238 0.624)" fill="url(#linear-gradient-9)"/>
      </g>
    </g>
    <g id="Group_96" data-name="Group 96" transform="translate(181.825 187.429)">
      <path id="Clip_95-2" data-name="Clip 95" d="M3.872,15.914C2.84,23.962.26,26.438.26,26.438h0A85.2,85.2,0,0,0,.484,42.321h0a29.438,29.438,0,0,1,2.393-4.3h0A46.174,46.174,0,0,0,10.194,7.269h0q-.117-1.055-.286-2.136h0c-.09-.574-.2-1.155-.311-1.739h0L4.808,0a130.048,130.048,0,0,1-.936,15.914" transform="translate(0.368 0.152)" fill="none"/>
      <g id="Group_96-2" data-name="Group 96" clip-path="url(#clip-path-10)">
        <path id="Fill_94" data-name="Fill 94" d="M3.872,15.914C2.84,23.962.26,26.438.26,26.438h0A85.2,85.2,0,0,0,.484,42.321h0a29.438,29.438,0,0,1,2.393-4.3h0A46.174,46.174,0,0,0,10.194,7.269h0q-.117-1.055-.286-2.136h0c-.09-.574-.2-1.155-.311-1.739h0L4.808,0a130.048,130.048,0,0,1-.936,15.914" transform="translate(0.368 0.152)" fill="url(#linear-gradient-10)"/>
      </g>
    </g>
    <g id="Group_119" data-name="Group 119" transform="translate(133.638 141.25)">
      <path id="Fill_97" data-name="Fill 97" d="M48.689,25a23.749,23.749,0,0,0-1.408-12.452c-.059-.1-5.5-10.738-12.3-12.552,0,0-1.982,6.717-8.241,9.973C19.5,13.739,13.314,13.379,8.208,26.9c0,0-5.127-7.266-7.557-3.21s2.5,8.917,5.771,12.966l-.633,9.324C18.982,60,28.149,63.794,33.141,64.677a8.026,8.026,0,0,0,6.948-2.15,32.529,32.529,0,0,0,9.765-22.01c.255-5.411-2.176-9.853-1.165-15.514" transform="translate(47.575 0.349)" fill="#ffcab0"/>
      <path id="Stroke_99" data-name="Stroke 99" d="M3.388,0S1.93,5.458,6.275,13.945a2.208,2.208,0,0,1-1.562,3.083A8.4,8.4,0,0,1,0,16.77" transform="translate(83.648 23.153)" fill="none" stroke="#3a0f3b" stroke-linecap="round" stroke-miterlimit="10" stroke-width="2"/>
      <path id="Fill_101" data-name="Fill 101" d="M13.757,3.359S7.748,1.329,0,5.959A5.578,5.578,0,0,1,1.652,3,12.669,12.669,0,0,1,10.107,0c4.613-.093,3.65,3.357,3.65,3.357" transform="translate(66.108 16.214)" fill="#3a0f3b"/>
      <path id="Fill_103" data-name="Fill 103" d="M7.945,3.871A21.57,21.57,0,0,0,.024,2.949s-.581-3.436,4-2.89a24.56,24.56,0,0,1,2.9.422,1.457,1.457,0,0,1,.89.965,5.53,5.53,0,0,1,.2,1.237,5.131,5.131,0,0,1-.074,1.188" transform="translate(89.3 16.165)" fill="#3a0f3b"/>
      <path id="Fill_105" data-name="Fill 105" d="M14.277,0A43.805,43.805,0,0,1,.014.193a10.225,10.225,0,0,0,5.815,9.75C11.652,12.7,14.277,0,14.277,0" transform="translate(76.309 45.681)" fill="#3a0f3b"/>
      <path id="Fill_107" data-name="Fill 107" d="M0,.26C5.191-.574,8.184.635,9.5,3.369c-1.256,1.494-2.848,2.314-4.8,1.389A9.754,9.754,0,0,1,0,.26" transform="translate(77.449 50.868)" fill="#ff5a7e"/>
      <path id="Fill_109" data-name="Fill 109" d="M14.292,0a16.783,16.783,0,0,1-.657,2.453A23.761,23.761,0,0,1,.194,2.545,7.565,7.565,0,0,1,.028.193,43.794,43.794,0,0,0,14.292,0" transform="translate(76.296 45.681)" fill="#fff"/>
      <path id="Fill_111" data-name="Fill 111" d="M3.352,2.786c0,1.539-.75,2.786-1.676,2.786S0,4.325,0,2.786.75,0,1.676,0,3.352,1.248,3.352,2.786" transform="translate(72.687 22.878)" fill="#3a0f3b"/>
      <path id="Fill_113" data-name="Fill 113" d="M3.351,2.786c0,1.539-.75,2.786-1.675,2.786S0,4.325,0,2.786.75,0,1.676,0,3.351,1.248,3.351,2.786" transform="translate(91.327 22.568)" fill="#3a0f3b"/>
      <path id="Fill_115" data-name="Fill 115" d="M35.087,0s15.082,35.093-6.234,36.134C9.129,37.1-.1,12.246,0,3.475,0,3.475,1.094,46.763,30.823,46c30.947-.789,4.264-46,4.264-46" transform="translate(48.753 81.833)" fill="#fff"/>
      <path id="Fill_117" data-name="Fill 117" d="M32.048,11.946s-5.2,52.313-3.648,57.34,46.283,86.833,46.283,86.833l-12,2.735S7.614,92.756,2.194,78.486,3.1,0,3.1,0s12.88,2.658,28.943,11.946" transform="translate(0 136.307)" fill="#ffcab0"/>
    </g>
    <g id="Group_122" data-name="Group 122" transform="translate(150.37 282.464)">
      <path id="Clip_121-2" data-name="Clip 121" d="M1.738,70.179c3.688,11.677,43.9,73.135,48.472,80.109h0l7.722.655S13.2,69.135,11.649,64.109h0C10.1,59.082,15.3,6.77,15.3,6.77h0A123.456,123.456,0,0,0,1.738,0h0s-3.911,57.8,0,70.179" transform="translate(0.019 0.27)" fill="none"/>
      <g id="Group_122-2" data-name="Group 122" clip-path="url(#clip-path-11)">
        <path id="Fill_120" data-name="Fill 120" d="M1.738,70.179c3.688,11.677,43.9,73.135,48.472,80.109h0l7.722.655S13.2,69.135,11.649,64.109h0C10.1,59.082,15.3,6.77,15.3,6.77h0A123.456,123.456,0,0,0,1.738,0h0s-3.911,57.8,0,70.179" transform="translate(0.019 0.27)" fill="url(#linear-gradient-11)"/>
      </g>
    </g>
    <g id="Group_185" data-name="Group 185" transform="translate(188.518 138.573)">
      <path id="Stroke_123" data-name="Stroke 123" d="M0,7.429,18.737,0" transform="translate(15.684 332.389)" fill="none" stroke="#3a0f3b" stroke-linecap="round" stroke-miterlimit="10" stroke-width="2"/>
      <path id="Stroke_125" data-name="Stroke 125" d="M19.05,161.66,15.143,8.668S5.779,4.747,0,0" transform="translate(0.54 331.15)" fill="none" stroke="#3a0f3b" stroke-linecap="round" stroke-miterlimit="10" stroke-width="2"/>
      <path id="Stroke_127" data-name="Stroke 127" d="M14.605,10.869H2.008A2.008,2.008,0,0,1,0,8.862V2.008A2.008,2.008,0,0,1,2.008,0h12.6a2.008,2.008,0,0,1,2.008,2.008V8.862A2.008,2.008,0,0,1,14.605,10.869Z" transform="translate(164.612 7.204)" fill="none" stroke="#fff" stroke-linecap="round" stroke-miterlimit="10" stroke-width="2"/>
      <path id="Stroke_129" data-name="Stroke 129" d="M14.605,10.869H2.008A2.008,2.008,0,0,1,0,8.862V2.008A2.008,2.008,0,0,1,2.008,0h12.6a2.008,2.008,0,0,1,2.008,2.008V8.862A2.008,2.008,0,0,1,14.605,10.869Z" transform="translate(188.655 7.204)" fill="none" stroke="#fff" stroke-linecap="round" stroke-miterlimit="10" stroke-width="2"/>
      <path id="Stroke_131" data-name="Stroke 131" d="M0,.643a11.208,11.208,0,0,1,7.43,0" transform="translate(181.225 11.604)" fill="none" stroke="#fff" stroke-linecap="round" stroke-miterlimit="10" stroke-width="2"/>
      <path id="Fill_133" data-name="Fill 133" d="M3.351,2.786c0,1.539-.75,2.786-1.675,2.786S0,4.325,0,2.786.75,0,1.676,0,3.351,1.248,3.351,2.786" transform="translate(171.243 9.715)" fill="#3a0f3b"/>
      <path id="Fill_135" data-name="Fill 135" d="M3.352,2.786c0,1.539-.75,2.786-1.676,2.786S0,4.325,0,2.786.75,0,1.676,0,3.352,1.248,3.352,2.786" transform="translate(195.286 9.715)" fill="#3a0f3b"/>
      <path id="Stroke_137" data-name="Stroke 137" d="M5.759,0a26.371,26.371,0,0,0,3.13,9.923s2.116,3.508-.155,5.5S1.107,16.845,0,15.685" transform="translate(182.071 13.808)" fill="none" stroke="#3a0f3b" stroke-linecap="round" stroke-miterlimit="10" stroke-width="2"/>
      <path id="Fill_139" data-name="Fill 139" d="M0,3.276A25.305,25.305,0,0,1,13.9.043s1.747,2.408.6,3.508c-1.061,1.017-5.438-.489-11.829.736A2.689,2.689,0,0,1,0,3.276" transform="translate(164.612 0.144)" fill="#aa403d"/>
      <path id="Fill_141" data-name="Fill 141" d="M14.194,3.276A23.286,23.286,0,0,0,.943.043S-.722,2.451.373,3.551c1.011,1.017,5.185-.489,11.279.736a2.505,2.505,0,0,0,2.543-1.011" transform="translate(191.195 0.144)" fill="#aa403d"/>
      <path id="Stroke_143" data-name="Stroke 143" d="M0,0A10.594,10.594,0,0,0,11.922,2.116" transform="translate(175.78 36.459)" fill="none" stroke="#3a0f3b" stroke-linecap="round" stroke-miterlimit="10" stroke-width="2"/>
      <path id="Fill_145" data-name="Fill 145" d="M42.975,0S30.819,5.477,25.04,9.479,0,24.762,0,24.762s33.118,27.325,42.975,58.1H71.661Z" transform="translate(107.445 56.119)" fill="#7e3669"/>
      <path id="Fill_147" data-name="Fill 147" d="M8.378.024s27.545,9.164,42.975,58.1H4.457s.413-9.672-1.032-12.974,3.921-6.6,1.238-12.383S-6.069-.939,8.378.024" transform="translate(99.067 80.857)" fill="#7e3669"/>
      <path id="Fill_149" data-name="Fill 149" d="M73.1,99.143c-6.443-19.328-2.967-42.413-.757-53-9-5.2-17.405-10.707-17.405-10.707s-19.4-16.992-22.907-23.8S26.261-.744,15.626.081-2.645,8.75.863,12.464,19.644,16.9,19.644,16.9s2.683-6.707,4.953-6.6,2.27,1.134,2.27,1.134V34.856S39.929,48.922,45.059,57.729C43.294,59.959,42,61.307,42,61.307S55.176,88.7,73.1,99.162a.152.152,0,0,1-.006-.019" transform="translate(352.379 143.264)" fill="#73bfbb"/>
      <path id="Fill_151" data-name="Fill 151" d="M0,0S35.22,15.179,40.172,16.829s6.6,5.829,4.678,10.757S29.992,67.544,36.045,83.463H1.459L6.7,25.336Z" transform="translate(208.16 55.521)" fill="#3a0f3b"/>
      <path id="Fill_153" data-name="Fill 153" d="M11.79,0s2.381.413,4.445,7.017-1.514,23.183.825,23.905,5.779-10.063,9.356,28.419H2.2s-4.954-10.894,0-29.064S11.79,0,11.79,0" transform="translate(242.004 79.643)" fill="#3a0f3b"/>
      <path id="Stroke_155" data-name="Stroke 155" d="M0,0S5.366,2.579,14.24,2.889" transform="translate(111.572 118.27)" fill="none" stroke="#3a0f3b" stroke-linecap="round" stroke-miterlimit="10" stroke-width="2"/>
      <path id="Stroke_157" data-name="Stroke 157" d="M0,0A65.405,65.405,0,0,0,20.535,7.429" transform="translate(107.445 125.391)" fill="none" stroke="#3a0f3b" stroke-linecap="round" stroke-miterlimit="10" stroke-width="2"/>
      <path id="Fill_159" data-name="Fill 159" d="M2.311,11.077A5.538,5.538,0,0,0,2.311,0,5.543,5.543,0,0,0,1.4.08L0,10.568a5.512,5.512,0,0,0,2.311.509" transform="translate(183.905 92.674)" fill="#165e63"/>
      <path id="Fill_161" data-name="Fill 161" d="M11.077,5.539A5.538,5.538,0,1,1,5.539,0a5.539,5.539,0,0,1,5.538,5.539" transform="translate(188.095 108.247)" fill="#165e63"/>
      <path id="Fill_163" data-name="Fill 163" d="M2.275,0A5.534,5.534,0,0,0,5.538,10.007c.024,0,.046,0,.07,0Z" transform="translate(198.63 99.283)" fill="#165e63"/>
      <path id="Fill_165" data-name="Fill 165" d="M5.538,0a5.538,5.538,0,0,0,0,11.077,5.659,5.659,0,0,0,.711-.05Q6.59,5.381,6.815.153A5.535,5.535,0,0,0,5.538,0" transform="translate(199.984 121.743)" fill="#165e63"/>
      <path id="Fill_167" data-name="Fill 167" d="M4.352,0A5.526,5.526,0,0,0,0,2.12l2.772,8.725A5.538,5.538,0,1,0,4.352,0" transform="translate(185.935 126.517)" fill="#165e63"/>
      <path id="Fill_169" data-name="Fill 169" d="M16.354,0a20.33,20.33,0,0,0,.963,7.973c1.4,4.074,26.435,79.462,30.769,84.649H32.065s-26.08-42.693-29.795-59L9.7,27.845,0,23.512S6.7,4.35,16.354,0" transform="translate(142.529 46.363)" fill="#c181bb"/>
      <path id="Fill_171" data-name="Fill 171" d="M0,0S5.847,26.932,1.651,87.684H9.769S22.977,44.165,20.913,40.038a78.629,78.629,0,0,0-5.778-9.192s7.692-5.4,6-7.937C9.769,5.885,0,0,0,0" transform="translate(204.168 51.3)" fill="#7e3669"/>
      <path id="Fill_173" data-name="Fill 173" d="M7.758,6.463A47.965,47.965,0,0,0,0,0,121.964,121.964,0,0,1,1.683,12.27,22.544,22.544,0,0,0,7.758,6.463" transform="translate(204.237 51.3)" fill="#7e3669"/>
      <path id="Fill_175" data-name="Fill 175" d="M65.991,0H0S.952,46.536,5.842,77.493s0,103.035,0,103.035h56.9s-2.447-38.812-1.689-70.612c0-.933,0-1.7.006-2.28.025-1.6.124-3.638.274-5.953.288-6.355.74-12.223,1.408-17.172.033-.254.067-.512.1-.768.756-8.032,1.535-15.8,1.854-20.133q.133-2.2.24-4.394c.139-3.066.284-7.08.426-11.513.479-18.885-.145-34.187-.145-34.187Z" transform="translate(120.24 313.094)" fill="#7e3669"/>
      <path id="Stroke_177" data-name="Stroke 177" d="M0,0S24.071,6.426,40.809,56.466" transform="translate(109.612 81.779)" fill="none" stroke="#3a0f3b" stroke-linecap="round" stroke-miterlimit="10" stroke-width="2"/>
      <path id="Stroke_179" data-name="Stroke 179" d="M1.635,55.137S-3.015,38.215,3.369,20.643,10.44,0,10.44,0" transform="translate(242.57 83.108)" fill="none" stroke="#7e3669" stroke-linecap="round" stroke-miterlimit="10" stroke-width="2"/>
      <path id="Fill_181" data-name="Fill 181" d="M.426,13.15c6.452-.112,7.129-.116,7.129-.116S30.6,17.162,33.971,11.315c0,0,.169-.415.424-1.134H65.407L65.991,0H0S.105,5.146.426,13.15" transform="translate(120.241 313.094)" fill="#3a0f3b"/>
      <path id="Stroke_183" data-name="Stroke 183" d="M0,0S.825,20.363,2.752,41.276s5.5,35.5,5.778,44.853S3.3,115.848,4.265,129.881s-.4,36.388-.4,36.388" transform="translate(131.023 323.583)" fill="none" stroke="#3a0f3b" stroke-linecap="round" stroke-miterlimit="10" stroke-width="2"/>
    </g>
    <g id="Group_188" data-name="Group 188" transform="translate(494.37 187.429)">
      <path id="Clip_187-2" data-name="Clip 187" d="M21.864,5.546c-2.683,1.832-1.238,4.36-1.238,8.581h0c0,4.221-6.4,6.511-9.287,7.68h0c-2.889,1.17-2.889,9.133-2.889,9.133h0S-2.168,25.417.4,32.7h0a10.033,10.033,0,0,0,8.341,6.83h0C9.154,45,23.721,72.439,40.851,68.931h0C57.98,65.422,60.148,38.8,60.148,38.8h0C62,37.355,71.189,30.854,66.029,26.623h0c-2.855-2.341-6.6,3.577-6.6,3.577h0c1.032-4.678-2.683-2.958-2.476-8.447h0c.074-1.979-.757-3.868-3.783-4h0c-3.136-.143-5.058-.745-5.738-3.457h0c-.672-2.683-2.587-4.111-7.059-4.041h0c-1.48.023-2.352-1.043-3.354-2.11h0C35.9,6.958,34.629,5.776,32.183,6.078h0C27.836,6.616,24.959,0,24.959,0h0s-.412,3.715-3.1,5.546" transform="translate(0.141 0.587)" fill="none"/>
      <g id="Group_188-2" data-name="Group 188" clip-path="url(#clip-path-12)">
        <path id="Fill_186" data-name="Fill 186" d="M21.864,5.546c-2.683,1.832-1.238,4.36-1.238,8.581h0c0,4.221-6.4,6.511-9.287,7.68h0c-2.889,1.17-2.889,9.133-2.889,9.133h0S-2.168,25.417.4,32.7h0a10.033,10.033,0,0,0,8.341,6.83h0C9.154,45,23.721,72.439,40.851,68.931h0C57.98,65.422,60.148,38.8,60.148,38.8h0C62,37.355,71.189,30.854,66.029,26.623h0c-2.855-2.341-6.6,3.577-6.6,3.577h0c1.032-4.678-2.683-2.958-2.476-8.447h0c.074-1.979-.757-3.868-3.783-4h0c-3.136-.143-5.058-.745-5.738-3.457h0c-.672-2.683-2.587-4.111-7.059-4.041h0c-1.48.023-2.352-1.043-3.354-2.11h0C35.9,6.958,34.629,5.776,32.183,6.078h0C27.836,6.616,24.959,0,24.959,0h0s-.412,3.715-3.1,5.546" transform="translate(0.141 0.587)" fill="url(#linear-gradient-12)"/>
      </g>
    </g>
    <g id="Group_235" data-name="Group 235" transform="translate(193.872 183.413)">
      <path id="Stroke_189" data-name="Stroke 189" d="M0,0S2.877,6.616,7.223,6.079C11.875,5.5,12.287,10.3,15.41,10.25c4.471-.068,6.386,1.359,7.059,4.042.68,2.713,2.6,3.315,5.737,3.457" transform="translate(329.985 0.493)" fill="none" stroke="#7e3669" stroke-linecap="round" stroke-miterlimit="10" stroke-width="2"/>
      <path id="Stroke_191" data-name="Stroke 191" d="M0,.825S.825,4.953,7.429,4.4s5.5-4.4,5.5-4.4" transform="translate(328.695 41.269)" fill="none" stroke="#3a0f3b" stroke-linecap="round" stroke-miterlimit="10" stroke-width="2"/>
      <path id="Fill_193" data-name="Fill 193" d="M3.354,2.684c.091,1.536-.585,2.826-1.509,2.88S.1,4.418.008,2.882.592.057,1.517,0,3.263,1.148,3.354,2.684" transform="translate(320.251 33.665)" fill="#3a0f3b"/>
      <path id="Fill_195" data-name="Fill 195" d="M3.353,2.684c.091,1.536-.584,2.826-1.509,2.88S.1,4.418.008,2.882.592.057,1.516,0,3.262,1.148,3.353,2.684" transform="translate(345.694 32.161)" fill="#3a0f3b"/>
      <path id="Fill_197" data-name="Fill 197" d="M8.361.145l.067.048A.822.822,0,0,1,8.1,1.641C6.408,2.021,3.012,3.093,1.3,5.779a.7.7,0,0,1-.9.24.711.711,0,0,1-.3-1.026A11.741,11.741,0,0,1,7.72.017a.845.845,0,0,1,.641.128" transform="translate(315.979 26.107)" fill="#3a0f3b"/>
      <path id="Fill_199" data-name="Fill 199" d="M.2.39.15.456A.822.822,0,0,0,.9,1.737c1.727-.149,5.288-.154,7.729,1.89a.7.7,0,0,0,.926-.043.711.711,0,0,0-.029-1.067A11.74,11.74,0,0,0,.772.075.845.845,0,0,0,.2.39" transform="translate(341.697 25.313)" fill="#3a0f3b"/>
      <path id="Fill_201" data-name="Fill 201" d="M19.815.421S9.477-1.539,0,3c0,0,2.595,8.68,11.66,8.152C20.534,10.637,19.815.421,19.815.421" transform="translate(327.56 52.577)" fill="#3a0f3b"/>
      <path id="Fill_203" data-name="Fill 203" d="M12.36,1.663C2.864-3.321.007,4.486,0,4.506A11.167,11.167,0,0,0,5.7,5.587,7.686,7.686,0,0,0,12.36,1.663" transform="translate(333.556 58.143)" fill="#ff5a7e"/>
      <path id="Fill_205" data-name="Fill 205" d="M17.221.22V1.429a.741.741,0,0,1-.772.739A42.375,42.375,0,0,0,1.713,4.324a.739.739,0,0,1-.865-.3A8.239,8.239,0,0,1,0,2.491S6.272-.877,17.221.22" transform="translate(328.696 52.576)" fill="#fff"/>
      <path id="Fill_207" data-name="Fill 207" d="M12.933,0S36.58,15.507,47.046,19.036s19.821,6.555,21.748,19.213S70.169,66.591,45.4,67.692,0,25.866,0,25.866,12.933,12.383,12.933,0" transform="translate(394.599 123.546)" fill="#92d6d4"/>
      <path id="Stroke_209" data-name="Stroke 209" d="M0,0S23.647,15.507,34.113,19.036" transform="translate(407.531 123.546)" fill="none" stroke="#169699" stroke-linecap="round" stroke-miterlimit="10" stroke-width="2"/>
      <path id="Fill_211" data-name="Fill 211" d="M347.721,0H2.677A2.677,2.677,0,0,0,0,2.677V171.432a2.677,2.677,0,0,0,2.677,2.677H347.721a2.677,2.677,0,0,0,2.677-2.677V2.677A2.677,2.677,0,0,0,347.721,0" transform="translate(29.066 94.144)" fill="#fff"/>
      <path id="Fill_213" data-name="Fill 213" d="M327.566,0H2.677A2.677,2.677,0,0,0,0,2.677V149.969a2.677,2.677,0,0,0,2.677,2.677H327.566a2.677,2.677,0,0,0,2.677-2.677V2.677A2.677,2.677,0,0,0,327.566,0" transform="translate(39.143 104.875)" fill="#e0f2f2"/>
      <path id="Fill_215" data-name="Fill 215" d="M45.572,15.518c0,8.571-10.2,15.518-22.786,15.518S0,24.089,0,15.518,10.2,0,22.786,0,45.572,6.948,45.572,15.518" transform="translate(57.229 116.969)" fill="#fff"/>
      <path id="Fill_217" data-name="Fill 217" d="M9.518,35.153h0l0-3.907A18.208,18.208,0,0,1,0,27.886l1.832-2.695A15.333,15.333,0,0,0,9.51,28.075l-.03-9.131-.618-.079A11.317,11.317,0,0,1,3.068,16.71,6.162,6.162,0,0,1,.8,11.636,7.037,7.037,0,0,1,3.321,6.218,11.15,11.15,0,0,1,9.464,3.83L9.46,0l3.031,0,0,3.808a17.584,17.584,0,0,1,8.6,2.882L19.38,9.444A14.825,14.825,0,0,0,12.5,7l.011,9.031.459.059c3.894.491,8.522,2.133,8.46,7.168A7.159,7.159,0,0,1,18.8,28.813a11.652,11.652,0,0,1-6.26,2.389l0,3.947Zm2.992-15.814.03,8.673c3.447-.457,5.444-2.13,5.478-4.592A3.09,3.09,0,0,0,16.6,20.8,10.069,10.069,0,0,0,12.511,19.339ZM9.468,7.042c-3.244.436-5.2,2.123-5.239,4.511a3.128,3.128,0,0,0,1.257,2.628,8.808,8.808,0,0,0,3.991,1.473Z" transform="translate(58.587 162.305)" fill="#169699"/>
      <path id="Stroke_219" data-name="Stroke 219" d="M9.518,35.153h0l0-3.907A18.208,18.208,0,0,1,0,27.886l1.832-2.695A15.333,15.333,0,0,0,9.51,28.075l-.03-9.131-.618-.079A11.317,11.317,0,0,1,3.068,16.71,6.162,6.162,0,0,1,.8,11.636,7.037,7.037,0,0,1,3.321,6.218,11.15,11.15,0,0,1,9.464,3.83L9.46,0l3.031,0,0,3.808a17.584,17.584,0,0,1,8.6,2.882L19.38,9.444A14.825,14.825,0,0,0,12.5,7l.011,9.031.459.059c3.894.491,8.522,2.133,8.46,7.168A7.159,7.159,0,0,1,18.8,28.813a11.652,11.652,0,0,1-6.26,2.389l0,3.947Zm2.992-15.814.03,8.673c3.447-.457,5.444-2.13,5.478-4.592A3.09,3.09,0,0,0,16.6,20.8,10.069,10.069,0,0,0,12.511,19.339ZM9.468,7.042c-3.244.436-5.2,2.123-5.239,4.511a3.128,3.128,0,0,0,1.257,2.628,8.808,8.808,0,0,0,3.991,1.473Z" transform="translate(58.587 162.305)" fill="none" stroke="#169699" stroke-miterlimit="10" stroke-width="2"/>
      <path id="Fill_221" data-name="Fill 221" d="M126.059,11.347H1.339A1.339,1.339,0,0,1,0,10.009V1.339A1.338,1.338,0,0,1,1.339,0h124.72A1.338,1.338,0,0,1,127.4,1.339v8.67a1.339,1.339,0,0,1-1.339,1.339" transform="translate(92.621 169.318)" fill="#169699"/>
      <path id="Fill_223" data-name="Fill 223" d="M63.648,7.088H1.339A1.339,1.339,0,0,1,0,5.75V1.339A1.339,1.339,0,0,1,1.339,0h62.31a1.339,1.339,0,0,1,1.339,1.339V5.75a1.339,1.339,0,0,1-1.339,1.339" transform="translate(92.62 187.32)" fill="#92d6d4"/>
      <path id="Fill_225" data-name="Fill 225" d="M122.1,5.319H1.339A1.339,1.339,0,0,1,0,3.981V1.339A1.338,1.338,0,0,1,1.339,0H122.1a1.339,1.339,0,0,1,1.339,1.339V3.981A1.339,1.339,0,0,1,122.1,5.319" transform="translate(215.972 229.469)" fill="#92d6d4"/>
      <path id="Stroke_227" data-name="Stroke 227" d="M0,39.449c23.83-2.5,38.986-18.427,44.606-36.928A2,2,0,0,0,44.449.489c-.692-.726-2.042-.519-3.057-.178-7.592,2.552-14.01,8.5-18.624,14.178C20,17.9,17.177,21.453,16.3,25.54s2.069,8.878,6.377,10.948c3.366,1.617,7.7,1.222,11.024-.383a17.989,17.989,0,0,0,5.932-4.773.667.667,0,0,1,1.165.557L40.143,35.3a.669.669,0,0,0,1.021.689L51.7,29.162a.666.666,0,0,1,1.028.49c.224,2.589,1.364,5.458,4.252,5.494,2.476.031,4.207-2.3,6.671-2.468,3.181-.221,5.114,3.061,8.105,4.044a7.73,7.73,0,0,0,6.569-1.2c1.806-1.258,2.789-3.17,4.081-4.777,2.619-3.256,6.238-6.528,7.937-9.762a2.44,2.44,0,0,0-4.229-2.42,30.3,30.3,0,0,0-2.415,5.2c-1.448,3.769-2.46,8.742,1.426,11.034,3.651,2.154,8.457.074,12.723-.879a23.688,23.688,0,0,1,14.664,1.491,33.323,33.323,0,0,0,5.537,2.419c3.82.965,7.834-.36,11.476-1.663" transform="translate(213.777 181.199)" fill="none" stroke="#3a0f3b" stroke-linecap="round" stroke-miterlimit="10" stroke-width="2"/>
      <path id="Fill_229" data-name="Fill 229" d="M14.034,0s7.46,1.539,11.083,3.1,13.17,6.7,16.926,7.767c0,0-2.174,4.72-13.556.453,0,0-.006,2.581,4.555,4.9,1.713.872,6.651.433,10.681,1.179,1.786.331,3.822,2.7,2.127,3.35l-2.374.4c1.035,3.21-4.458,2.259-4.458,2.259.861.569,1.041,2.4-1.438,2.52S24.747,22.5,24.747,22.5,9.081,15,0,.688" transform="translate(0.45 249.401)" fill="#ffcab0"/>
      <path id="Fill_231" data-name="Fill 231" d="M0,6.77A6.072,6.072,0,0,1,3.531,2.777C7.277,1.092,8.379,2.262,16.256.645,25.188-1.188,33.107.9,33.107,6.77Z" transform="translate(31.527 87.374)" fill="#ffcab0"/>
      <path id="Fill_233" data-name="Fill 233" d="M32.829,16.788S35.753,9.6,35.35,3.466c-.3-4.562-4.741-4.141-5.1-.541,0,0-.054-2.925-2.477-2.925-2.505,0-3.629,3.466-3.629,3.466A3.266,3.266,0,0,0,20.721.705c-2.071.03-4.1,7.081-4.1,7.081S17.736.93,14.8,1.32c-1.235.164-2.467.074-2.565,3.945A29.961,29.961,0,0,1,9.6,15.8H.183s-1.14,2.67,2.28,2.61c6.66-.117,7.321-.12,7.321-.12s20.1,3.6,23.045-1.5" transform="translate(120.594 252.259)" fill="#ffcab0"/>
    </g>
    <g id="Group_238" data-name="Group 238" transform="translate(545.233 271.086)">
      <path id="Clip_237-2" data-name="Clip 237" d="M16.653.082C13.462.329,8.859.323,6.513,2.066h0C2.5,5.049-1.75,10.954.744,12.073h0a2.688,2.688,0,0,0,2.076-.141h0c.561-.2,1.055-.41,1.426-.233h0c.788.376-.2,2.1,1.616,2.838h0a1.972,1.972,0,0,0,2.286-.579h0c.488-.429.938-.858,1.586-.718h0c1.773.383,0,1.93,2.265,2.234h0a2.367,2.367,0,0,0,1.456-.275h0a2.244,2.244,0,0,1,1.409-.274h0c1.317.191.868,1.632,1.911,1.739h0c2.348.242,2.713-2.5,4.748-4.108h0c1.507-1.189,2.966-2.31,4.1-2.258h0c2.27.1,2.27,1.135,2.27,1.135h0V34.856S40.958,48.922,46.087,57.728h0S56.375,46.86,55.962,35.441h0s-19.4-16.991-22.908-23.8h0C29.779,5.28,27.593,0,18.661,0h0c-.634,0-1.3.027-2.008.082" transform="translate(0.207 0.432)" fill="none"/>
      <g id="Group_238-2" data-name="Group 238" clip-path="url(#clip-path-13)">
        <path id="Fill_236" data-name="Fill 236" d="M16.653.082C13.462.329,8.859.323,6.513,2.066h0C2.5,5.049-1.75,10.954.744,12.073h0a2.688,2.688,0,0,0,2.076-.141h0c.561-.2,1.055-.41,1.426-.233h0c.788.376-.2,2.1,1.616,2.838h0a1.972,1.972,0,0,0,2.286-.579h0c.488-.429.938-.858,1.586-.718h0c1.773.383,0,1.93,2.265,2.234h0a2.367,2.367,0,0,0,1.456-.275h0a2.244,2.244,0,0,1,1.409-.274h0c1.317.191.868,1.632,1.911,1.739h0c2.348.242,2.713-2.5,4.748-4.108h0c1.507-1.189,2.966-2.31,4.1-2.258h0c2.27.1,2.27,1.135,2.27,1.135h0V34.856S40.958,48.922,46.087,57.728h0S56.375,46.86,55.962,35.441h0s-19.4-16.991-22.908-23.8h0C29.779,5.28,27.593,0,18.661,0h0c-.634,0-1.3.027-2.008.082" transform="translate(0.207 0.432)" fill="url(#linear-gradient-13)"/>
      </g>
    </g>
    <g id="Group_254" data-name="Group 254" transform="translate(247.673 0.705)">
      <path id="Fill_239" data-name="Fill 239" d="M0,53.2H297.135V0H0Z" transform="translate(0.501 0.163)" fill="#92d6d4"/>
      <path id="Fill_241" data-name="Fill 241" d="M15.685,17.733V7.072L11.724,17.733H9.332L5.37,7.072V17.733H0V0H7.417l3.11,8.508L13.638,0h7.417V17.733Z" transform="translate(32.02 17.365)" fill="#e0f2f2"/>
      <path id="Fill_242" data-name="Fill 242" d="M0,17.733H5.37V0H0Z" transform="translate(57.539 17.365)" fill="#e0f2f2"/>
      <path id="Fill_243" data-name="Fill 243" d="M7.95,17.733H0V0H7.922c5.912,0,9.732,3.475,9.732,8.853a8.409,8.409,0,0,1-2.769,6.563A10.344,10.344,0,0,1,7.95,17.733ZM5.37,4.679v8.374H7.922a4.1,4.1,0,0,0,4.28-4.2c0-2.614-1.59-4.174-4.253-4.174Z" transform="translate(67.375 17.365)" fill="#e0f2f2"/>
      <path id="Fill_244" data-name="Fill 244" d="M7.949,17.733H0V0H7.922c5.912,0,9.732,3.475,9.732,8.853a8.409,8.409,0,0,1-2.769,6.563A10.345,10.345,0,0,1,7.949,17.733ZM5.37,4.679v8.374H7.922a4.1,4.1,0,0,0,4.28-4.2c0-2.614-1.59-4.174-4.253-4.174Z" transform="translate(88.535 17.365)" fill="#e0f2f2"/>
      <path id="Fill_245" data-name="Fill 245" d="M0,17.733V0H5.37V13.053H12.1v4.679Z" transform="translate(109.695 17.365)" fill="#e0f2f2"/>
      <path id="Fill_246" data-name="Fill 246" d="M0,17.733V0H13.453V4.679H5.37V6.434h7.9v4.679H5.37v1.941h8.083v4.679Z" transform="translate(125.539 17.365)" fill="#e0f2f2"/>
      <path id="Fill_247" data-name="Fill 247" d="M0,15.5l2.791-3.988A8.262,8.262,0,0,0,8.507,13.8c1.011,0,1.968-.266,1.968-.958,0-1.7-9.89.027-9.89-6.965,0-3,2.5-5.876,7.364-5.876a11.7,11.7,0,0,1,7.524,2.473L12.6,6.274A8.961,8.961,0,0,0,7.391,4.52c-1.063,0-1.355.345-1.355.8,0,1.675,9.863.24,9.863,6.832,0,3.908-2.9,6.168-7.657,6.168A11.685,11.685,0,0,1,0,15.5" transform="translate(149.995 17.099)" fill="#e0f2f2"/>
      <path id="Fill_248" data-name="Fill 248" d="M0,9.172C0,3.7,4.2,0,9.756,0a8.271,8.271,0,0,1,8.055,5.158L13.186,7.312A3.76,3.76,0,0,0,9.756,4.732,4.24,4.24,0,0,0,5.45,9.172a4.24,4.24,0,0,0,4.307,4.44,3.759,3.759,0,0,0,3.429-2.579l4.626,2.127a8.37,8.37,0,0,1-8.055,5.184C4.2,18.344,0,14.623,0,9.172" transform="translate(168.285 17.072)" fill="#e0f2f2"/>
      <path id="Fill_249" data-name="Fill 249" d="M11.724,17.733v-6.78H5.371v6.78H0V0H5.371V6.274h6.353V0h5.371V17.733Z" transform="translate(189.364 17.365)" fill="#e0f2f2"/>
      <path id="Fill_250" data-name="Fill 250" d="M9.7,18.345c-5.623,0-9.7-3.858-9.7-9.173S4.081,0,9.7,0s9.7,3.857,9.7,9.172S15.327,18.345,9.7,18.345Zm0-13.612A4.207,4.207,0,0,0,5.45,9.172,4.208,4.208,0,0,0,9.7,13.613a4.207,4.207,0,0,0,4.253-4.441A4.207,4.207,0,0,0,9.7,4.732Z" transform="translate(209.967 17.072)" fill="#e0f2f2"/>
      <path id="Fill_251" data-name="Fill 251" d="M9.7,18.345c-5.623,0-9.7-3.858-9.7-9.173S4.081,0,9.7,0s9.7,3.857,9.7,9.172S15.327,18.345,9.7,18.345Zm0-13.612A4.207,4.207,0,0,0,5.45,9.172,4.208,4.208,0,0,0,9.7,13.613a4.207,4.207,0,0,0,4.253-4.441A4.207,4.207,0,0,0,9.7,4.732Z" transform="translate(231.924 17.072)" fill="#e0f2f2"/>
      <path id="Fill_252" data-name="Fill 252" d="M0,17.733V0H5.37V13.053H12.1v4.679Z" transform="translate(254.838 17.365)" fill="#e0f2f2"/>
    </g>
    <g id="Group_266" data-name="Group 266" transform="translate(641.3 352.736)">
      <path id="Fill_255" data-name="Fill 255" d="M.953,234.835c3.182,16.612,8.8,32.067,18.172,44.425H162.214A68.191,68.191,0,0,0,176,253.838c17.737-59.122-38.852-58.744-29.139-92.718s23.414-52.179-16.141-89.059C89.652,33.772,119.552,8.37,84.075.551c-21.772-4.8-54.532,22.1-38.907,66.442S7.922,108.142,21.013,154.174-6.648,195.138.953,234.835" transform="translate(0.579 0.199)" fill="#92d6d4"/>
      <g id="Group_259" data-name="Group 259" transform="translate(33.626 92.358)">
        <path id="Combined_Shape" data-name="Combined Shape" d="M42.054,187.98l2.14-37.338L0,103.19l44.774,37.332,4.074-71.092-28-33.836L49.465,58.66,52.826,0,56.94,92.3,98.272,58.982,57.439,103.512,61.2,187.98Z" transform="translate(0.597 0.082)" fill="#e0f2f2"/>
      </g>
    </g>
  </g>
</svg>
