<?xml version="1.0" encoding="UTF-8"?>
<svg width="30px" height="31px" viewBox="0 0 30 31" version="1.1" xmlns="http://www.w3.org/2000/svg" xmlns:xlink="http://www.w3.org/1999/xlink">
    <!-- Generator: Sketch 57.1 (83088) - https://sketch.com -->
    <title>comment-icon</title>
    <desc>Created with Sketch.</desc>
    <g id="Page-1" stroke="none" stroke-width="1" fill="none" fill-rule="evenodd">
        <g id="Notifications" transform="translate(-368.000000, -438.000000)">
            <g id="Group-31" transform="translate(352.000000, 334.000000)">
                <g id="Group-28-Copy" transform="translate(0.000000, 90.000000)">
                    <g id="comment-icon" transform="translate(16.000000, 14.000000)">
                        <g id="Group-3" transform="translate(0.000000, 0.561265)" fill="#FCCBC7">
                            <path d="M30.0001765,14.9994066 C30.0001765,23.2844948 23.2844257,29.9997353 15.0001765,29.9997353 C6.71592719,29.9997353 0.000176470588,23.2844948 0.000176470588,14.9994066 C0.000176470588,6.71497579 6.71592719,-0.000264705882 15.0001765,-0.000264705882 C23.2844257,-0.000264705882 30.0001765,6.71497579 30.0001765,14.9994066" id="Fill-1"></path>
                        </g>
                        <g id="Group-29" transform="translate(8.954206, 9.806912)">
                            <path d="M12.9942353,14.4375 L10.7530588,12.7469118 L3.87423529,12.7469118 C2.77305882,12.7469118 1.88011765,11.8539706 1.88011765,10.7527941 L1.88011765,4.99102941 C1.88011765,3.88985294 2.77305882,2.99691176 3.87423529,2.99691176 L12.0651176,2.99691176 C13.1662941,2.99691176 14.0592353,3.88985294 14.0592353,4.99102941 L14.0592353,13.9063235 C14.0592353,14.4551471 13.4318824,14.7675 12.9942353,14.4375" id="Fill-6" fill="#FEFEFE"></path>
                            <path d="M8.62090583,10.5 L1.99323529,10.5 C0.477910844,10.5 -0.75,9.27133814 -0.75,7.75588235 L-0.75,1.99411765 C-0.75,0.478661859 0.477910844,-0.75 1.99323529,-0.75 L10.1841176,-0.75 C11.6995077,-0.75 12.9282353,0.478727614 12.9282353,1.99411765 L12.9282353,10.9094118 C12.9282353,12.0777618 11.5937435,12.7422246 10.6616914,12.0394272 L8.62090583,10.5 Z M11.4282353,1.99411765 C11.4282353,1.30715474 10.8710806,0.75 10.1841176,0.75 L1.99323529,0.75 C1.30654335,0.75 0.75,1.30688374 0.75,1.99411765 L0.75,7.75588235 C0.75,8.44311626 1.30654335,9 1.99323529,9 L8.87205882,9 C9.03504625,9 9.19359768,9.05309422 9.32371664,9.15124695 L11.4282353,10.73875 L11.4282353,1.99411765 Z" id="Stroke-10" fill="#231F20" fill-rule="nonzero"></path>
                        </g>
                    </g>
                </g>
            </g>
        </g>
    </g>
</svg>