<?xml version="1.0" encoding="UTF-8"?>
<svg width="14px" height="14px" viewBox="0 0 14 14" version="1.1" xmlns="http://www.w3.org/2000/svg" xmlns:xlink="http://www.w3.org/1999/xlink">
    <!-- Generator: Sketch 57.1 (83088) - https://sketch.com -->
    <title>dashboard</title>
    <desc>Created with Sketch.</desc>
    <g id="Page-1" stroke="none" stroke-width="1" fill="none" fill-rule="evenodd">
        <g id="Dashboard" transform="translate(-67.000000, -127.000000)" fill="#3f093d" fill-rule="nonzero">
            <g id="Group-8" transform="translate(27.000000, 80.000000)">
                <g id="Group-18" transform="translate(18.000000, 27.000000)">
                    <g id="Dashboard---off">
                        <g id="Group-12" transform="translate(14.000000, 11.000000)">
                            <g id="Group-3" transform="translate(0.000000, 0.414848)">
                                <g id="dashboard" transform="translate(8.000000, 8.585152)">
                                    <path d="M2,0 L12,0 C13.1045695,0 14,0.8954305 14,2 L14,4 C14,5.1045695 13.1045695,6 12,6 L2,6 C0.8954305,6 0,5.1045695 0,4 L0,2 C0,0.8954305 0.8954305,0 2,0 Z M2,1.5 C1.72385763,1.5 1.5,1.72385763 1.5,2 L1.5,4 C1.5,4.27614237 1.72385763,4.5 2,4.5 L12,4.5 C12.2761424,4.5 12.5,4.27614237 12.5,4 L12.5,2 C12.5,1.72385763 12.2761424,1.5 12,1.5 L2,1.5 Z" id="Rectangle"></path>
                                    <path d="M2,7.58515217 L4,7.58515217 C5.1045695,7.58515217 6,8.48058267 6,9.58515217 L6,11.5851522 C6,12.6897217 5.1045695,13.5851522 4,13.5851522 L2,13.5851522 C0.8954305,13.5851522 0,12.6897217 0,11.5851522 L0,9.58515217 C0,8.48058267 0.8954305,7.58515217 2,7.58515217 Z M2,9.08515217 C1.72385763,9.08515217 1.5,9.3090098 1.5,9.58515217 L1.5,11.5851522 C1.5,11.8612945 1.72385763,12.0851522 2,12.0851522 L4,12.0851522 C4.27614237,12.0851522 4.5,11.8612945 4.5,11.5851522 L4.5,9.58515217 C4.5,9.3090098 4.27614237,9.08515217 4,9.08515217 L2,9.08515217 Z" id="Rectangle-Copy"></path>
                                    <path d="M10,7.58515217 L12,7.58515217 C13.1045695,7.58515217 14,8.48058267 14,9.58515217 L14,11.5851522 C14,12.6897217 13.1045695,13.5851522 12,13.5851522 L10,13.5851522 C8.8954305,13.5851522 8,12.6897217 8,11.5851522 L8,9.58515217 C8,8.48058267 8.8954305,7.58515217 10,7.58515217 Z M10,9.08515217 C9.72385763,9.08515217 9.5,9.3090098 9.5,9.58515217 L9.5,11.5851522 C9.5,11.8612945 9.72385763,12.0851522 10,12.0851522 L12,12.0851522 C12.2761424,12.0851522 12.5,11.8612945 12.5,11.5851522 L12.5,9.58515217 C12.5,9.3090098 12.2761424,9.08515217 12,9.08515217 L10,9.08515217 Z" id="Rectangle-Copy-2"></path>
                                </g>
                            </g>
                        </g>
                    </g>
                </g>
            </g>
        </g>
    </g>
</svg>