<?xml version="1.0" encoding="UTF-8"?>
<svg width="28px" height="28px" viewBox="0 0 28 28" version="1.1" xmlns="http://www.w3.org/2000/svg" xmlns:xlink="http://www.w3.org/1999/xlink">
    <!-- Generator: Sketch 57.1 (83088) - https://sketch.com -->
    <title>google</title>
    <desc>Created with Sketch.</desc>
    <g id="Page-1" stroke="none" stroke-width="1" fill="none" fill-rule="evenodd">
        <g id="Promote" transform="translate(-1028.000000, -447.000000)">
            <g id="Group-30" transform="translate(971.000000, 238.000000)">
                <g id="Group-28" transform="translate(31.000000, 184.000000)">
                    <g id="google" transform="translate(26.000000, 25.000000)">
                        <rect id="Rectangle" x="0" y="0" width="28" height="28"></rect>
                        <path d="M6.03421875,14 C6.03421875,13.0906563 6.18515625,12.2187187 6.454875,11.4010312 L1.7364375,7.798 C0.8168125,9.66503125 0.2988125,11.7689687 0.2988125,14 C0.2988125,16.2292812 0.816375,18.3316875 1.73446875,20.197625 L6.45028125,16.5875937 C6.1831875,15.773625 6.03421875,14.9049688 6.03421875,14" id="Path" fill="#FBBC05"></path>
                        <path d="M14.3187188,5.7273125 C16.29425,5.7273125 18.0785938,6.4273125 19.4805625,7.5726875 L23.5589375,3.5 C21.0737188,1.33634375 17.8874063,0 14.3187188,0 C8.77821875,0 4.01646875,3.168375 1.7364375,7.798 L6.45465625,11.4010313 C7.54184375,8.10096875 10.640875,5.7273125 14.3187188,5.7273125" id="Path" fill="#EA4335"></path>
                        <path d="M14.3187187,22.2726875 C10.6410937,22.2726875 7.5420625,19.8990313 6.454875,16.5989688 L1.7364375,20.2013438 C4.01646875,24.831625 8.77821875,28 14.3187187,28 C17.7382187,28 21.0030625,26.7857188 23.4532812,24.5107188 L18.9745937,21.0483438 C17.710875,21.844375 16.1194687,22.2726875 14.3187187,22.2726875" id="Path" fill="#34A853"></path>
                        <path d="M27.7011875,14 C27.7011875,13.1726875 27.5736562,12.2817187 27.3824688,11.454625 L14.3187188,11.454625 L14.3187188,16.8636563 L21.8384688,16.8636563 C21.4624375,18.7079375 20.439125,20.1256563 18.9745938,21.0483438 L23.4532813,24.5107188 C26.0270937,22.1219688 27.7011875,18.5633438 27.7011875,14" id="Path" fill="#4285F4"></path>
                    </g>
                </g>
            </g>
        </g>
    </g>
</svg>