<?xml version="1.0" encoding="UTF-8"?>
<svg width="30px" height="31px" viewBox="0 0 30 31" version="1.1" xmlns="http://www.w3.org/2000/svg" xmlns:xlink="http://www.w3.org/1999/xlink">
    <!-- Generator: Sketch 57.1 (83088) - https://sketch.com -->
    <title>heart-icon</title>
    <desc>Created with Sketch.</desc>
    <defs>
        <polygon id="path-1" points="0.000130434783 0.237391304 29.7626087 0.237391304 29.7626087 29.9998043 0.000130434783 29.9998043"></polygon>
    </defs>
    <g id="Page-1" stroke="none" stroke-width="1" fill="none" fill-rule="evenodd">
        <g id="Donations" transform="translate(-372.000000, -938.000000)">
            <g id="Group-31" transform="translate(323.000000, 837.000000)">
                <g id="Group-28" transform="translate(29.000000, 87.000000)">
                    <g id="heart-icon" transform="translate(20.000000, 14.000000)">
                        <g id="Group-3" transform="translate(0.000000, 0.414848)">
                            <mask id="mask-2" fill="white">
                                <use xlink:href="#path-1"></use>
                            </mask>
                            <g id="Clip-2"></g>
                            <path d="M29.7627391,15.1185 C29.7627391,23.3378478 23.1001304,29.9998043 14.8814348,29.9998043 C6.66273913,29.9998043 0.000130434783,23.3378478 0.000130434783,15.1185 C0.000130434783,6.89980435 6.66273913,0.237195652 14.8814348,0.237195652 C23.1001304,0.237195652 29.7627391,6.89980435 29.7627391,15.1185" id="Fill-1" fill="#C6E4E4" mask="url(#mask-2)"></path>
                        </g>
                        <path d="M7.69477845,9.51418222 C6.20155636,10.8760491 5.6025572,12.6229682 5.97561289,14.596745 C6.17620309,15.6566203 6.69904383,16.5521205 7.58525475,17.5687582 C8.34833742,18.4444181 9.03053998,19.0537156 10.5861042,20.3294036 L10.6041675,20.344217 C10.7109418,20.4317821 10.7109418,20.4317821 10.8173435,20.5191449 C10.9718521,20.6459953 11.0958171,20.7468688 11.3726536,20.9714676 L11.3749064,20.9732954 C12.7535581,22.0918026 13.3413145,22.6066119 13.9900687,23.3188172 C14.525949,23.9084354 15.3214295,23.861503 15.867972,23.3107456 L17.0098019,22.2394818 C17.3117955,21.955981 17.326787,21.481344 17.0432862,21.1793503 C16.7597854,20.8773566 16.2851483,20.8623652 15.9831547,21.145866 L14.9343051,22.1304883 C14.2809648,21.4338233 13.6456521,20.883987 12.3199568,19.8084435 C12.0431212,19.5838454 11.9206658,19.4842002 11.769338,19.3599614 C11.662307,19.272082 11.662307,19.272082 11.5553419,19.1843604 L11.5372795,19.1695478 C10.046021,17.9465956 9.40608759,17.3750501 8.7160384,16.5831983 C7.98905375,15.7492208 7.59148163,15.0682755 7.4494836,14.3179886 C7.17396487,12.8602639 7.59350991,11.6367042 8.70557029,10.6224691 C10.3466891,9.12572065 12.7025816,9.26233918 14.1977558,10.9364042 L14.2215512,10.963087 C14.2817096,11.0303236 14.2817096,11.0303236 14.3399162,11.095844 C14.6189448,11.4115869 15.1032527,11.4355645 15.4121046,11.148927 C15.5141733,11.0541997 15.8325004,10.7486546 15.8448507,10.736965 C15.979393,10.6096203 16.0828819,10.51696 16.1834503,10.4352778 C18.1420874,8.84216119 21.0356693,9.60586263 22.097478,11.9020309 C22.6970415,13.1998065 22.6012131,14.4301401 21.8109332,15.6586561 C21.3156681,16.4290068 20.6663433,17.136946 19.8191123,17.8629494 C19.5045822,18.1324744 19.4680984,18.6059446 19.7376234,18.9204746 C20.0071483,19.2350047 20.4806185,19.2714886 20.7951486,19.0019636 C21.7453284,18.187742 22.4906333,17.3751584 23.0725648,16.4700042 C24.1377942,14.8140703 24.2759127,13.040776 23.4590691,11.2726903 C21.9955638,8.10785034 17.9729792,7.04617183 15.2373558,9.27127394 C15.1363857,9.35328234 15.0381606,9.43914182 14.9278076,9.54089346 C12.8672461,7.62902044 9.81761982,7.57808864 7.69477845,9.51418222 Z" id="Stroke-4" fill="#231F20" fill-rule="nonzero"></path>
                        <path d="M19.4941304,13.3965652 C18.78,11.850913 16.7836957,11.2483043 15.3828261,12.3876522 C15.221087,12.5187391 15.0756522,12.6700435 14.9126087,12.8213478 C14.8832609,12.7887391 14.8558696,12.758087 14.8278261,12.7267826 C13.8006522,11.5763478 12.1519565,11.4746087 11.0132609,12.5128696 C10.2626087,13.197 9.9573913,14.0585217 10.1478261,15.0661304 C10.26,15.6596087 10.5952174,16.1428696 10.9845652,16.5896087 C11.5297826,17.2150435 12.1747826,17.7315652 12.8126087,18.2552609 C13.4634783,18.7900435 14.133913,19.302 14.703913,19.9274348 C14.8408696,20.0774348 15.0169565,20.0585217 15.1643478,19.9091739 L15.8393478,19.2752609 L18.0567391,17.3787391 C18.528913,16.9743913 18.96,16.5276522 19.2984783,16.0013478 C19.833913,15.1678696 19.9095652,14.2946087 19.4941304,13.3965652" id="Fill-6" fill="#FFFFFF"></path>
                    </g>
                </g>
            </g>
        </g>
    </g>
</svg>