<?xml version="1.0" encoding="UTF-8"?>
<svg width="30px" height="30px" viewBox="0 0 30 30" version="1.1" xmlns="http://www.w3.org/2000/svg" xmlns:xlink="http://www.w3.org/1999/xlink">
    <!-- Generator: Sketch 57.1 (83088) - https://sketch.com -->
    <title>outlook</title>
    <desc>Created with Sketch.</desc>
    <g id="Page-1" stroke="none" stroke-width="1" fill="none" fill-rule="evenodd">
        <g id="Promote" transform="translate(-1028.000000, -533.000000)" fill-rule="nonzero">
            <g id="Group-30" transform="translate(971.000000, 238.000000)">
                <g id="Group-28-Copy" transform="translate(31.000000, 271.000000)">
                    <g id="outlook" transform="translate(26.000000, 24.000000)">
                        <rect id="rect2990-1" fill="#0072C6" x="0" y="0" width="30" height="30" rx="15"></rect>
                        <path d="M16.6831578,5.4 L5.50421052,7.5631578 L5.50421052,22.2568422 L16.6831578,24.6 L16.6831578,5.4 Z M17.3889474,9.4705266 L17.3889474,13.225263 L18.7010526,14.0526318 C18.7356666,14.0627346 18.8101242,14.0634558 18.844737,14.0526318 L24.4942104,10.2442104 C24.4942104,9.7935054 24.0746202,9.4705266 23.8373682,9.4705266 L17.3889474,9.4705266 L17.3889474,9.4705266 Z M11.22,11.6415792 C11.9577144,11.6415792 12.5539152,11.9420106 13.0089474,12.5463156 C13.4647008,13.1506218 13.6926328,13.9481754 13.6926328,14.9368422 C13.6933512,15.9529116 13.4576028,16.7720718 12.985263,17.3936844 C12.5129238,18.015297 11.8963848,18.3268422 11.1363156,18.3268422 C10.395717,18.3268422 9.7934118,18.0258258 9.3268422,17.4236844 C8.8609932,16.8208206 8.6257896,16.0356492 8.6257896,15.0678948 C8.6257896,14.0460558 8.8641126,13.2199344 9.3378948,12.5889474 C9.8116758,11.9579598 10.4390178,11.6415792 11.22,11.6415792 Z M24.4957896,11.7615792 C24.4957896,11.7615792 18.7573638,15.5756136 18.96,15.4515792 C18.96,15.4515792 18.7561134,15.5756136 18.5873682,15.4515792 L17.3889474,14.6289474 L17.3889474,19.7321052 L23.4726312,19.7321052 C24.013479,19.7321052 24.4957896,19.4161536 24.4957896,18.664737 L24.4957896,11.7615792 Z M11.1868422,12.8968422 C10.7786838,12.8968422 10.4543466,13.0886598 10.2142104,13.4715792 C9.9740742,13.8544986 9.8526312,14.3611182 9.8526312,14.9921052 C9.8526312,15.6324672 9.9740742,16.13895 10.2142104,16.5110526 C10.4543466,16.8838764 10.7690118,17.0684208 11.1584208,17.0684208 C11.5600896,17.0684208 11.878596,16.8872694 12.1136838,16.525263 C12.3487722,16.1632566 12.4673682,15.6598932 12.4673682,15.0173682 C12.4673682,14.3474406 12.3533346,13.8270336 12.124737,13.4542104 C11.8961388,13.0821078 11.5834626,12.8968422 11.1868422,12.8968422 L11.1868422,12.8968422 Z" id="rect2989-1" fill="#FFFFFF"></path>
                    </g>
                </g>
            </g>
        </g>
    </g>
</svg>