<?xml version="1.0" encoding="UTF-8"?>
<svg width="14px" height="15px" viewBox="0 0 14 15" version="1.1" xmlns="http://www.w3.org/2000/svg" xmlns:xlink="http://www.w3.org/1999/xlink">
    <!-- Generator: Sketch 57.1 (83088) - https://sketch.com -->
    <title>settings-wheel</title>
    <desc>Created with Sketch.</desc>
    <g id="Page-1" stroke="none" stroke-width="1" fill="none" fill-rule="evenodd">
        <g id="Dashboard" transform="translate(-67.000000, -498.000000)" fill="#3f093d">
            <g id="Group-8" transform="translate(27.000000, 80.000000)">
                <g id="Group-18" transform="translate(18.000000, 27.000000)">
                    <g id="Settings---off" transform="translate(0.000000, 372.000000)">
                        <g id="Group-8" transform="translate(14.000000, 11.000000)">
                            <g id="Group-3" transform="translate(0.000000, 0.414848)">
                                <g id="settings-wheel" transform="translate(9.000000, 8.585152)">
                                    <path d="M3.75843605,12.3800302 C3.95731606,13.1770465 4.7434889,13.7912304 5.56579901,13.7912304 L6.43521437,13.7912304 C7.25752448,13.7912304 8.04369731,13.1770465 8.24271536,12.3794779 L8.56513042,11.0915566 C8.57813361,11.039447 8.62535347,11.0121975 8.6760053,11.0267791 L9.95249004,11.3922357 C10.7443399,11.6182649 11.6704718,11.2444936 12.0803473,10.5309512 L12.5144148,9.77828022 C12.9244583,9.06444767 12.7867927,8.07813463 12.1957186,7.50646452 L11.2408582,6.58378057 C11.2018196,6.54602335 11.2018462,6.49234908 11.2405846,6.45507433 L12.1950981,5.5310474 C12.7859013,4.96113276 12.9245642,3.97435882 12.515055,3.26145408 L12.0785134,2.50599686 C11.667986,1.79391778 10.7430811,1.42028936 9.95269913,1.64632662 L8.67705771,2.0115409 C8.62495419,2.0264133 8.57730367,1.99894258 8.56407734,1.94633336 L8.24263512,0.660561763 C8.04344825,-0.136185706 7.25718969,-0.75 6.43521437,-0.75 L5.56579901,-0.75 C4.7434889,-0.75 3.95731606,-0.135816112 3.75829802,0.661752435 L3.43669458,1.94816591 C3.42358994,2.00028838 3.37558694,2.02801733 3.32338614,2.01311692 L2.04852334,1.64812528 C1.25811058,1.42101199 0.331388899,1.79502131 -0.0789948474,2.50795074 L-0.513401458,3.26121131 C-0.923698261,3.97548493 -0.785542479,4.96218743 -0.193155991,5.53368371 L0.759302869,6.45398871 C0.79789914,6.49141403 0.79789914,6.5472081 0.758362624,6.5855435 L-0.195332346,7.50709968 C-0.786406123,8.08021525 -0.924975987,9.06676297 -0.514321863,9.77906121 L-0.0783693951,10.5334947 C0.330541628,11.245363 1.25667351,11.6191343 2.04795381,11.3932679 L3.32395567,11.0279506 C3.37632886,11.0127783 3.42292877,11.0396434 3.43574492,11.0910044 L3.75843605,12.3800302 Z M2.90878305,9.58655343 L1.63566273,9.95104195 C1.50645809,9.98792242 1.28728855,9.89946927 1.22134947,9.78467751 L0.784807859,9.02922029 C0.717936818,8.91322868 0.750833179,8.67902314 0.847920736,8.58488508 L1.80161571,7.6633289 C2.44984042,7.03479862 2.44984042,6.0038235 1.8025388,5.37618674 L0.848719321,4.45456579 C0.751668763,4.36093735 0.718955423,4.12730012 0.786641786,4.00946656 L1.22070934,3.25679562 C1.28709148,3.14147531 1.50628269,3.05301342 1.63497259,3.08999048 L2.91109506,3.45534287 C3.77881051,3.70302749 4.67188407,3.18714317 4.89166687,2.31293248 L5.21359201,1.02523462 C5.2459971,0.895370926 5.43207602,0.75 5.56579901,0.75 L6.43521437,0.75 C6.56892626,0.75 6.75518135,0.895405142 6.78742137,1.0243652 L7.10910505,2.31109993 C7.32915191,3.18636366 8.22229253,3.70126307 9.08934879,3.45376685 L10.3653507,3.08844959 C10.4938809,3.05169192 10.7126361,3.14006118 10.7793836,3.25583778 L11.2153361,4.01027124 C11.2817533,4.12590028 11.2489097,4.35962666 11.1527393,4.45239707 L10.1989065,5.37576826 C9.54923315,6.00089001 9.54872045,7.03398385 10.1982859,7.66222523 L11.1531463,8.58490918 C11.2494196,8.67802205 11.282095,8.91212694 11.2143716,9.03002498 L10.780304,9.78269591 C10.7137248,9.89859986 10.4945553,9.98705301 10.3647811,9.95000972 L9.08991832,9.58501808 C8.22374517,9.33566437 7.32835034,9.85237646 7.10989423,10.7278434 L6.78747916,12.0157647 C6.75501628,12.1458594 6.56893736,12.2912304 6.43521437,12.2912304 L5.56579901,12.2912304 C5.43207602,12.2912304 5.2459971,12.1458594 5.21367225,12.016317 L4.89098112,10.7272912 C4.67253534,9.85186471 3.77628788,9.33517419 2.90878305,9.58655343 Z" id="Shape" fill-rule="nonzero"></path>
                                    <path d="M6.00050669,4.78178447 C6.96034124,4.78178447 7.73933741,5.55991121 7.73933741,6.52061518 C7.73933741,7.48044974 6.96034124,8.2594459 6.00050669,8.2594459 C5.04067213,8.2594459 4.26167597,7.48044974 4.26167597,6.52061518 C4.26167597,5.55991121 5.04067213,4.78178447 6.00050669,4.78178447 Z" id="Path"></path>
                                </g>
                            </g>
                        </g>
                    </g>
                </g>
            </g>
        </g>
    </g>
</svg>