<?xml version="1.0" encoding="UTF-8"?>
<svg width="10px" height="12px" viewBox="0 0 10 12" version="1.1" xmlns="http://www.w3.org/2000/svg" xmlns:xlink="http://www.w3.org/1999/xlink">
    <!-- Generator: Sketch 57.1 (83088) - https://sketch.com -->
    <title>Fill 26 Copy</title>
    <desc>Created with Sketch.</desc>
    <g id="Page-1" stroke="none" stroke-width="1" fill="none" fill-rule="evenodd">
        <g id="Following" transform="translate(-970.000000, -382.000000)" fill="#00676B">
            <g id="Group-24" transform="translate(352.000000, 226.000000)">
                <g id="Group-30-Copy-3" transform="translate(532.000000, 0.000000)">
                    <g id="Group-29" transform="translate(8.000000, 22.000000)">
                        <g id="Group-28" transform="translate(40.000000, 0.000000)">
                            <g id="Group-14" transform="translate(30.000000, 129.000000)">
                                <g id="Group-27" transform="translate(8.000000, 3.000000)">
                                    <path d="M5.75736459,4.74747513 C5.75736459,4.07468642 6.3046259,3.52732966 6.97741461,3.52732966 C7.65020333,3.52732966 8.19756009,4.07468642 8.19756009,4.74747513 C8.19756009,5.44756486 7.68981844,5.98547128 6.990206,6.02623189 C6.97111438,6.02737738 6.94858627,6.02976384 6.9295901,6.03224575 C6.92348078,6.03310487 6.43196701,6.09629813 5.75736459,5.9981672 L5.75736459,4.74747513 Z M9.3456347,8.13595143 L8.65556807,8.46318181 C7.5014796,9.01053857 6.54756677,8.86735142 5.75564635,8.66536207 L5.75736459,7.53762004 C6.45000859,7.61541839 6.96595964,7.5659711 7.10647397,7.54936139 C8.60125241,7.44846217 9.72488975,6.24864927 9.72488975,4.74747513 C9.72488975,3.23255503 8.49233471,2 6.97741461,2 C5.46249451,2 4.23003494,3.23255503 4.23003494,4.74747513 L4.23003494,5.65881365 C3.32614216,5.49873041 2.05101281,5.43649172 0.701712518,6.01544512 L0,6.31661544 L0.602340633,7.72023139 L1.30414861,7.41896562 C2.35714695,6.96706695 3.32824223,7.0223372 4.23003494,7.21812177 L4.22888944,8.3328815 C3.5363409,8.25527406 3.01991256,8.30453044 2.87930277,8.32123561 C1.38442887,8.42184845 0.260791539,9.62175681 0.260791539,11.1229309 C0.260791539,12.637851 1.49325111,13.8704061 3.00817121,13.8704061 C4.52309132,13.8704061 5.75564635,12.637851 5.75564635,11.1229309 L5.75564635,10.8429523 C5.56740297,10.8052464 5.40541057,10.7672541 5.28599248,10.7370893 L5.19578457,10.7122702 C5.15292388,10.7006243 5.11101777,10.6898375 5.06920712,10.6790508 C5.06529334,10.6779053 5.06281143,10.6771416 5.06281143,10.6771416 C4.75343172,10.5802516 4.47631684,10.5140037 4.22831669,10.4705703 L4.22831669,11.1229309 C4.22831669,11.7957197 3.68095993,12.3430764 3.00817121,12.3430764 C2.3353825,12.3430764 1.78812119,11.7957197 1.78812119,11.1229309 C1.78812119,10.6099391 2.06132229,10.1850551 2.48219706,9.97800645 L2.48086065,9.97781554 C2.48086065,9.97781554 3.19355085,9.45174593 5.06281143,10.0378587 C5.06281143,10.0378587 5.06529334,10.0386223 5.06920712,10.0396724 C5.11101777,10.0504592 5.15292388,10.0613414 5.19578457,10.0729873 L5.28599248,10.0977109 C5.74018213,10.2123561 6.80129441,10.4418374 7.63559824,10.3289104 C8.26963096,10.2429981 8.91311403,10.0101758 9.36844919,9.81553676 L10,9.51598923 L9.3456347,8.13595143 Z" id="Fill-26-Copy"></path>
                                </g>
                            </g>
                        </g>
                    </g>
                </g>
            </g>
        </g>
    </g>
</svg>