<?xml version="1.0" encoding="UTF-8"?>
<svg width="30px" height="30px" viewBox="0 0 30 30" version="1.1" xmlns="http://www.w3.org/2000/svg" xmlns:xlink="http://www.w3.org/1999/xlink">
    <!-- Generator: Sketch 57.1 (83088) - https://sketch.com -->
    <title>yahoo-icon</title>
    <desc>Created with Sketch.</desc>
    <g id="Page-1" stroke="none" stroke-width="1" fill="none" fill-rule="evenodd">
        <g id="Promote" transform="translate(-1026.000000, -621.000000)">
            <g id="Group-30" transform="translate(971.000000, 238.000000)">
                <g id="Group-28-Copy-2" transform="translate(31.000000, 358.000000)">
                    <g id="yahoo-icon" transform="translate(24.000000, 25.000000)">
                        <path d="M15.4536364,0.00181818182 C23.4872727,0.00181818182 29.9990909,6.51454545 29.9990909,14.5472727 C29.9990909,22.5809091 23.4872727,29.0927273 15.4536364,29.0927273 C7.42,29.0927273 0.908181818,22.5809091 0.908181818,14.5472727 C0.908181818,6.51454545 7.42,0.00181818182 15.4536364,0.00181818182 Z" id="Path" fill="#720E9E"></path>
                        <path d="M22.1136364,11.4836364 L22.1290909,11.4809091 L22.6109091,10.9445455 L22.5872727,10.9427273 L22.6381818,10.8627273 L15.8881818,10.8627273 L16.1481818,11.7863636 L17.99,11.7863636 L14.89,14.6545455 C14.2572727,13.7318182 12.7745455,11.6109091 11.74,10.02 L13.6627273,10.02 L13.6627273,9.36545455 L13.6890909,9.17727273 L13.6627273,9.17363636 L13.6627273,9.09727273 L6.36363636,9.09727273 L6.36363636,10.02 L8.64636364,10.02 C9.53272727,10.7518182 13.3754545,15.4172727 13.5154545,15.8627273 C13.5718182,16.28 13.6518182,18.7427273 13.4863636,18.9281818 C13.2872727,19.2145455 11.2081818,19.06 10.8418182,19.0872727 L10.8281818,19.9918182 C11.4972727,20.0118182 13.5045455,19.9909091 14.1818182,19.9909091 C15.5163636,19.9909091 17.8536364,19.9563636 18.1827273,19.9827273 L18.2236364,19.1263636 L15.5372727,19.0863636 C15.4809091,18.6981818 15.4190909,16.2481818 15.4754545,15.9809091 C15.7290909,15.2054545 19.8509091,11.9963636 20.2745455,11.8754545 L20.6736364,11.7854545 L21.9190909,11.7854545 L22.1136364,11.4836364 Z M21.1063636,17.8845455 L22.2736364,17.9736364 L23.6345455,12.9827273 C23.4072727,12.9745455 21.3427273,12.79 21.0745455,12.74 L21.1063636,17.8845455 Z M20.9045455,18.6845455 L20.9109091,19.9036364 L21.5018182,19.9527273 L22.14,19.9972727 L22.3272727,18.8045455 L21.6545455,18.7736364 L20.9045455,18.6845455 L20.9045455,18.6845455 Z" id="Shape" fill="#FFFFFF" fill-rule="nonzero"></path>
                    </g>
                </g>
            </g>
        </g>
    </g>
</svg>