<?xml version="1.0" encoding="UTF-8"?>
<svg width="46px" height="46px" viewBox="0 0 46 46" version="1.1" xmlns="http://www.w3.org/2000/svg" xmlns:xlink="http://www.w3.org/1999/xlink">
    <!-- Generator: Sketch 57.1 (83088) - https://sketch.com -->
    <title>funding-goal</title>
    <desc>Created with Sketch.</desc>
    <defs>
        <polygon id="path-1" points="0.0002 0.364 45.636 0.364 45.636 45.9997 0.0002 45.9997"></polygon>
    </defs>
    <g id="Page-1" stroke="none" stroke-width="1" fill="none" fill-rule="evenodd">
        <g id="Dashboard" transform="translate(-630.000000, -361.000000)">
            <g id="Group-24" transform="translate(323.000000, 330.000000)">
                <g id="Group-27" transform="translate(130.000000, 30.000000)">
                    <g id="Group-14">
                        <g id="Group-9">
                            <g id="funding-goal" transform="translate(177.000000, 0.000000)">
                                <g id="Group-3" transform="translate(0.000000, 0.636100)">
                                    <mask id="mask-2" fill="white">
                                        <use xlink:href="#path-1"></use>
                                    </mask>
                                    <g id="Clip-2"></g>
                                    <path d="M45.6362,23.1817 C45.6362,35.7847 35.4202,45.9997 22.8182,45.9997 C10.2162,45.9997 0.0002,35.7847 0.0002,23.1817 C0.0002,10.5797 10.2162,0.3637 22.8182,0.3637 C35.4202,0.3637 45.6362,10.5797 45.6362,23.1817" id="Fill-1" fill="#C6E4E4" mask="url(#mask-2)"></path>
                                </g>
                                <path d="M12.0682045,14.8839561 C9.8802407,16.8794499 9.00962975,19.4184968 9.55564767,22.3073884 C9.84758568,23.8499258 10.6158699,25.1658115 11.9322461,26.6759234 C13.0828508,27.9962763 14.1176229,28.9204652 16.4856731,30.8624573 L16.5133701,30.885171 C16.6771414,31.0194792 16.6771414,31.0194792 16.8405087,31.1536145 C17.0765236,31.3473807 17.2662007,31.5017259 17.6900822,31.8456232 L17.6935366,31.8484257 C19.823006,33.5760753 20.7343863,34.3743432 21.747147,35.4861563 C22.4043615,36.2092761 23.3607966,36.1528475 24.0469633,35.4613891 L25.8079236,33.8089079 C26.1099173,33.5254071 26.1249087,33.0507701 25.8414079,32.7487764 C25.5579071,32.4467827 25.0832701,32.4317913 24.7812764,32.7152921 L23.0012764,34.3862921 C22.8655639,34.5223835 22.8965107,34.5205577 22.8566186,34.4766653 C21.7757767,33.2901117 20.8263194,32.4584926 18.638587,30.6835739 L18.6351326,30.6807713 C18.2135048,30.3387025 18.0253372,30.1855857 17.7925032,29.994431 C17.6285067,29.8597791 17.6285067,29.8597791 17.4645444,29.7253144 L17.4368484,29.7026015 C15.1331039,27.8133453 14.1406009,26.9269084 13.0630297,25.6903635 C11.9058798,24.3629118 11.2628642,23.2615811 11.0295184,22.0286321 C10.5810374,19.6557925 11.2721942,17.640105 13.0789964,15.992243 C15.7607082,13.5464432 19.6281841,13.7707187 22.0682253,16.5026998 L22.1047213,16.5436242 C22.1967154,16.6464405 22.2417708,16.6968854 22.2876032,16.7487483 C22.5666318,17.0644912 23.0509397,17.0884689 23.3597915,16.8018314 C23.5133522,16.6593157 23.999373,16.1928104 24.0204723,16.1728399 C24.2334849,15.9712227 24.3991099,15.8229282 24.5624416,15.6902691 C27.7727718,13.07905 32.5106648,14.3295194 34.2458606,18.0818918 C35.2231626,20.1972951 35.0649484,22.2285963 33.7798375,24.226343 C32.9973485,25.4434508 31.9761225,26.5568628 30.6495819,27.6935929 C30.3350518,27.9631179 30.298568,28.436588 30.5680929,28.7511181 C30.8376179,29.0656482 31.311088,29.102132 31.6256181,28.8326071 C33.0551076,27.6076587 34.1723137,26.3896025 35.0414691,25.0376911 C36.6015295,22.6125264 36.8020338,20.0382646 35.6074517,17.4525511 C33.4705593,12.8315071 27.6036636,11.2830606 23.6163471,14.5262652 C23.4192006,14.6863887 23.2275438,14.8579912 22.989352,15.0834405 C22.9815881,15.0907891 22.9420978,15.1286177 22.8856196,15.1826871 C19.8773778,12.1375867 15.260974,11.9720568 12.0682045,14.8839561 Z" id="Stroke-4" fill="#231F20" fill-rule="nonzero"></path>
                                <path d="M29.891,20.5414 C28.796,18.1714 25.735,17.2474 23.587,18.9944 C23.339,19.1954 23.116,19.4274 22.866,19.6594 C22.821,19.6094 22.779,19.5624 22.736,19.5144 C21.161,17.7504 18.633,17.5944 16.887,19.1864 C15.736,20.2354 15.268,21.5564 15.56,23.1014 C15.732,24.0114 16.246,24.7524 16.843,25.4374 C17.679,26.3964 18.668,27.1884 19.646,27.9914 C20.644,28.8114 21.672,29.5964 22.546,30.5554 C22.756,30.7854 23.026,30.7564 23.252,30.5274 L24.287,29.5554 L27.687,26.6474 C28.411,26.0274 29.072,25.3424 29.591,24.5354 C30.412,23.2574 30.528,21.9184 29.891,20.5414" id="Fill-6" fill="#FFFFFF"></path>
                            </g>
                        </g>
                    </g>
                </g>
            </g>
        </g>
    </g>
</svg>