<?xml version="1.0" encoding="UTF-8"?>
<svg width="46px" height="46px" viewBox="0 0 46 46" version="1.1" xmlns="http://www.w3.org/2000/svg" xmlns:xlink="http://www.w3.org/1999/xlink">
    <!-- Generator: Sketch 57.1 (83088) - https://sketch.com -->
    <title>post-an-update</title>
    <desc>Created with Sketch.</desc>
    <g id="Page-1" stroke="none" stroke-width="1" fill="none" fill-rule="evenodd">
        <g id="Dashboard" transform="translate(-1289.000000, -361.000000)">
            <g id="Group-26" transform="translate(1002.000000, 330.000000)">
                <g id="Group-28" transform="translate(110.000000, 30.000000)">
                    <g id="Group-14-Copy" transform="translate(53.000000, 0.000000)">
                        <g id="Group-9">
                            <g id="Group-3">
                                <g id="Group-22">
                                    <g id="post-an-update" transform="translate(124.000000, 0.000000)">
                                        <g id="Group-3" transform="translate(0.000000, 0.636100)" fill="#FCCBC7">
                                            <path d="M45.6362,23.1817 C45.6362,35.7847 35.4202,45.9997 22.8182,45.9997 C10.2162,45.9997 0.0002,35.7847 0.0002,23.1817 C0.0002,10.5797 10.2162,0.3647 22.8182,0.3647 C35.4202,0.3647 45.6362,10.5797 45.6362,23.1817" id="Fill-1"></path>
                                        </g>
                                        <path d="M35.0937,32.6528 L31.8817,30.2298 L22.0197,30.2298 C20.4407,30.2298 19.1607,28.9498 19.1607,27.3718 L19.1607,19.1108 C19.1607,17.5328 20.4407,16.2528 22.0197,16.2528 L33.7617,16.2528 C35.3407,16.2528 36.6197,17.5328 36.6197,19.1108 L36.6197,31.8928 C36.6197,32.6788 35.7207,33.1268 35.0937,32.6528" id="Fill-4" fill="#FEFEFE"></path>
                                        <path d="M25.8749,36.477 L23.3349,34.561 L15.5389,34.561 C14.2909,34.561 13.2789,33.549 13.2789,32.301 L13.2789,25.771 C13.2789,24.523 14.2909,23.511 15.5389,23.511 L24.8219,23.511 C26.0699,23.511 27.0819,24.523 27.0819,25.771 L27.0819,35.875 C27.0819,36.497 26.3709,36.851 25.8749,36.477" id="Fill-6" fill="#FEFEFE"></path>
                                        <path d="M19.8878,27.5833 C17.8945864,27.5833 16.2798,25.9685136 16.2798,23.9753 L16.2798,15.7143 C16.2798,13.7218913 17.8947816,12.1073 19.8878,12.1073 L31.6298,12.1073 C33.6228184,12.1073 35.2378,13.7218913 35.2378,15.7143 L35.2378,28.4963 C35.2378,29.9010811 33.6327782,30.7016056 32.5105799,29.856383 L29.4985568,27.5833 L19.8878,27.5833 Z M33.4135873,28.6586446 C33.5467328,28.7589274 33.7378,28.6636303 33.7378,28.4963 L33.7378,15.7143 C33.7378,14.5503996 32.7944724,13.6073 31.6298,13.6073 L19.8878,13.6073 C18.7231276,13.6073 17.7798,14.5503996 17.7798,15.7143 L17.7798,23.9753 C17.7798,25.1400864 18.7230136,26.0833 19.8878,26.0833 L29.7498,26.0833 C29.9128429,26.0833 30.0714452,26.1364303 30.2015873,26.2346446 L33.4135873,28.6586446 Z" id="Stroke-8" fill="#231F20" fill-rule="nonzero"></path>
                                        <path d="M13.4071,31.9145 C11.7449745,31.9145 10.3981,30.5668018 10.3981,28.9045 L10.3981,22.3745 C10.3981,20.7121982 11.7449745,19.3645 13.4071,19.3645 L22.6901,19.3645 C24.3523136,19.3645 25.7001,20.7122864 25.7001,22.3745 L25.7001,32.4785 C25.7001,33.7200843 24.282009,34.4261724 23.2915561,33.679339 L20.951947,31.9145 L13.4071,31.9145 Z M24.2001,32.4785 L24.2001,22.3745 C24.2001,21.5407136 23.5238864,20.8645 22.6901,20.8645 L13.4071,20.8645 C12.573607,20.8645 11.8981,21.5404201 11.8981,22.3745 L11.8981,28.9045 C11.8981,29.7385799 12.573607,30.4145 13.4071,30.4145 L21.2031,30.4145 C21.3660874,30.4145 21.5246389,30.4675942 21.6547578,30.5657469 L24.1947009,32.481704 C24.1970035,32.4834403 24.2001,32.4818985 24.2001,32.4785 Z" id="Stroke-10" fill="#231F20" fill-rule="nonzero"></path>
                                    </g>
                                </g>
                            </g>
                        </g>
                    </g>
                </g>
            </g>
        </g>
    </g>
</svg>