<svg id="Group_201" data-name="Group 201" xmlns="http://www.w3.org/2000/svg" xmlns:xlink="http://www.w3.org/1999/xlink" width="799.864" height="633" viewBox="0 0 799.864 633">
  <defs>
    <clipPath id="clip-path">
      <path id="Clip_82" data-name="Clip 82" d="M.122,26.38C-1.538,50.5,14.232,52.323,20.343,52.866h0c10.4.924,14.431.745,16.446-1.261h0c3.129-3.114,3.7-12.712,3.7-12.712h0c1.809-.775,2.922-.873,2.305-2.294h0c-.6-1.38-3.353-2.895-1.635-7.982h0c1.191-3.529-1.928-12.022-1.928-12.022h0C37.369,5.271,27.663.546,20.862.051h0C20.418.019,19.951,0,19.464,0h0C12.5,0,1.675,3.833.122,26.38" transform="translate(0.391 0.003)" fill="none"/>
    </clipPath>
    <linearGradient id="linear-gradient" x1="0.639" y1="0.824" x2="0.458" y2="0.488" gradientUnits="objectBoundingBox">
      <stop offset="0" stop-color="#ffcaaf"/>
      <stop offset="1" stop-color="#f9a789"/>
    </linearGradient>
    <clipPath id="clip-path-2">
      <path id="Clip_111" data-name="Clip 111" d="M.127,27.732C-1.608,53.091,14.869,55,21.254,55.575h0c10.866.97,15.078.783,17.183-1.326h0C41.7,50.975,42.3,40.886,42.3,40.886h0c1.89-.815,3.053-.917,2.409-2.411h0c-.625-1.451-3.5-3.043-1.709-8.391h0c1.245-3.709-2.014-12.638-2.014-12.638h0C39.043,5.541,28.9.574,21.8.054h0C21.333.019,20.845,0,20.338,0h0C13.065,0,1.749,4.027.127,27.732" transform="translate(0.414 0.233)" fill="none"/>
    </clipPath>
    <linearGradient id="linear-gradient-2" x1="0.639" y1="0.824" x2="0.458" y2="0.488" xlink:href="#linear-gradient"/>
    <clipPath id="clip-path-3">
      <path id="Clip_114" data-name="Clip 114" d="M17.184,2.984C10.322,4.348,5.315,11.1,0,27.992H0a20.017,20.017,0,0,0,2.06.094h0c7.81-.051,15.394.3,21.976,5.334h0A24.438,24.438,0,0,0,32.689,21h0c-.127,10.517-4.508,16.371-4.508,16.371h0A26.163,26.163,0,0,1,34.4,46.085h0a68.1,68.1,0,0,0,13.9-29.241h0A91.082,91.082,0,0,1,53.6,0h0C42.337.32,26.689,1.1,17.184,2.984" transform="translate(0.015 0.403)" fill="none"/>
    </clipPath>
    <linearGradient id="linear-gradient-3" x1="0.023" y1="0.163" x2="0.656" y2="0.431" gradientUnits="objectBoundingBox">
      <stop offset="0" stop-color="#3a0e3b"/>
      <stop offset="1" stop-color="#7e3669"/>
    </linearGradient>
    <clipPath id="clip-path-4">
      <path id="Clip_132" data-name="Clip 132" d="M7.9,5.937C4.511,9.081-2.061,62.252.633,70.517h0c.935,2.871,3.894,2.9,7.354,1.709h0a45.418,45.418,0,0,1-2.159-7.611h0C5.252,59.638,8.967,41.5,12.949,30.346h0a166.684,166.684,0,0,0,5.389-17.8h0l19.645.957L38.921,0S14.3,0,7.9,5.937" transform="translate(0.462 0.401)" fill="none"/>
    </clipPath>
    <linearGradient id="linear-gradient-4" x1="0" y1="0.5" x2="1" y2="0.5" xlink:href="#linear-gradient"/>
    <clipPath id="clip-path-5">
      <path id="Clip_146" data-name="Clip 146" d="M.632,0C.733,5.112.1,10.633,0,16.833H0c9.912.907,18.139,1.356,21.115,1.454h0c5.557.183,10.037-.435,12.98-3.24h0C39.379,12,44.115,6.493,45.675,2.067h0A16.672,16.672,0,0,0,46.189,0H.632Z" transform="translate(0.564 0.444)" fill="none"/>
    </clipPath>
    <linearGradient id="linear-gradient-5" x1="1.216" y1="-0.192" x2="-0.455" y2="1.069" xlink:href="#linear-gradient-3"/>
  </defs>
  <path id="Fill_1" data-name="Fill 1" d="M0,542H124V0H0Z" transform="translate(636 25)" fill="#fff" opacity="0.5"/>
  <path id="Fill_2" data-name="Fill 2" d="M0,542H124V0H0Z" transform="translate(325 25)" fill="#fff" opacity="0.5"/>
  <path id="Fill_3" data-name="Fill 3" d="M0,558H33V0H0Z" transform="translate(296 9)" fill="#c1e5e5"/>
  <path id="Stroke_4" data-name="Stroke 4" d="M30,0,0,30" transform="translate(367 124)" fill="none" stroke="#c1e5e5" stroke-linecap="round" stroke-linejoin="round" stroke-miterlimit="10" stroke-width="3"/>
  <path id="Stroke_5" data-name="Stroke 5" d="M30,0,0,30" transform="translate(367 145)" fill="none" stroke="#c1e5e5" stroke-linecap="round" stroke-linejoin="round" stroke-miterlimit="10" stroke-width="3"/>
  <path id="Stroke_6" data-name="Stroke 6" d="M30,0,0,30" transform="translate(367 166)" fill="none" stroke="#c1e5e5" stroke-linecap="round" stroke-linejoin="round" stroke-miterlimit="10" stroke-width="3"/>
  <path id="Fill_7" data-name="Fill 7" d="M0,12H431V0H0Z" transform="translate(329 53)" fill="#c1e5e5"/>
  <path id="Fill_8" data-name="Fill 8" d="M0,53H479V0H0Z" transform="translate(281)" fill="#c1e5e5"/>
  <path id="Fill_9" data-name="Fill 9" d="M0,12H488V0H0Z" transform="translate(272 555)" fill="#c1e5e5"/>
  <path id="Fill_10" data-name="Fill 10" d="M0,21H39V0H0Z" transform="translate(223 86)" fill="#c1e5e5"/>
  <path id="Fill_11" data-name="Fill 11" d="M0,21H39V0H0Z" transform="translate(203 113)" fill="#92d6d4"/>
  <path id="Fill_12" data-name="Fill 12" d="M0,21H39V0H0Z" transform="translate(176 86)" fill="#c1e5e5"/>
  <path id="Fill_13" data-name="Fill 13" d="M0,21H39V0H0Z" transform="translate(28 566)" fill="#c1e5e5"/>
  <path id="Fill_14" data-name="Fill 14" d="M0,21H39V0H0Z" transform="translate(0 538)" fill="#92d6d4"/>
  <g id="Group_80" data-name="Group 80" transform="translate(59 179)">
    <path id="Fill_18" data-name="Fill 18" d="M23.2,39.712c-4.143-3.984-9.149-13.482-10.691-16.518.852-1.1,1.271-1.75,1.271-1.75S6.782,10.889,0,0V48.443C2.116,52.2,4.756,57.057,7.922,63.2c9.547,18.523,26.16,21.769,29.6,19.287S40,64.345,36.564,56.517s-8.4-12.031-13.367-16.8" transform="translate(578.973 115.169)" fill="#e0f2f2"/>
    <path id="Fill_20" data-name="Fill 20" d="M2.077,157.295c3.246,2.673,11.712,11.358,14,10.1s6.861-8.511,6.676-10.039c0,0,2.234-5.855,2.234-6.811,0-.652-3.444-9.084-5.81-15.946l.04-.013A45.579,45.579,0,0,1,17.08,127c-.572-4.965,3.114-23.052,7.065-34.181A166.962,166.962,0,0,0,29.49,75.059l19.325.946a29.919,29.919,0,0,1-.369,3.348l9.134.655v0c-3.243,7.462-6.411,18.242-10,33.429a254.585,254.585,0,0,0-6.661,65.35,2.71,2.71,0,0,0,.091,1.776c1.739,4.243,5.73,12.618,11.891,17.9,0,.136,0,.274,0,.414,0,.072,0,.147,0,.221.006.329.015.666.029,1.017,0,.056.006.116.008.173.014.317.031.643.052.977,0,.082.009.162.015.244q.037.544.088,1.116c.01.108.019.217.03.326.037.388.077.782.125,1.188.01.088.022.179.033.268q.067.549.148,1.12c.014.1.027.193.041.291.063.428.134.865.21,1.308q.032.189.067.38c.08.452.166.911.261,1.379.02.1.042.205.063.308q.136.652.29,1.323c.022.093.041.184.063.278.006.024.01.047.016.071h0c1.8,7.637,5.549,17.163,13.052,27.646,4.463,6.236,8.245,11.554,11.375,16.256V0C74.14,12.6,61.713,31.912,32.2,28.15a70.957,70.957,0,0,0,7.739,20.3L20.08,51.778A17.085,17.085,0,0,0,6.468,65.253C4.622,74.619,2.542,88.121,3.1,99.308c.955,19.287,1.655,42.519-2.737,51.112,0,0-1.527,4.2,1.718,6.875" transform="translate(312.32 35.784)" fill="#e0f2f2"/>
    <path id="Fill_22" data-name="Fill 22" d="M.276,27.563H.829V0A184.616,184.616,0,0,0,.276,27.563" transform="translate(390.374 374.622)" fill="#e0f2f2"/>
    <path id="Fill_24" data-name="Fill 24" d="M53.394,0S33.186.09,29.3,8.4-6.843,66.588,1.318,72.547,46.4,98.375,46.4,98.375l-3.033-19.06L21.915,61.747,34.991,42.374" transform="translate(0.521 107.525)" fill="#ffcab0"/>
    <path id="Fill_26" data-name="Fill 26" d="M0,101.733s31.247-5.266,51.261-15.018c7.535-3.672,15.95-34.908,19.17-55.427,0,0-6.735-8.029-8.068-15.6A1.391,1.391,0,0,1,64.7,14.466l4.48,4.224L69.127,1.4A1.39,1.39,0,0,1,70.941.068c3,.965,8.864,3.59,10.93,9.748,1.541,4.594-1.536,24.624-1.536,24.624S76.365,84.371,65.122,97.06c-10.036,11.328-29.563,20.372-49.189,27.811" transform="translate(125.515 0.03)" fill="#ffcab0"/>
    <path id="Fill_28" data-name="Fill 28" d="M0,12.144.777,0,21.86,1.165,20.4,17.682l-4.469,4.567Z" transform="translate(61.586 413.776)" fill="#ffcab0"/>
    <path id="Fill_30" data-name="Fill 30" d="M74.931,1.655s-71-5.83-73.515,4.4S.5,32.552.5,32.552s9.524,46.384,11.466,55.323-5.052,82.392-1.943,85.113,29.172,4.761,28.966,1.263S51.222,40.072,51.222,40.072Z" transform="translate(47.672 242.148)" fill="#165e63"/>
    <path id="Fill_32" data-name="Fill 32" d="M7.332,12.315S4.174,13.529.774,5.465,6.279.645,6.279.645L9.227,9.012Z" transform="translate(107.593 335.197)" fill="#165e63"/>
    <path id="Fill_34" data-name="Fill 34" d="M.058,1.73S7.307.9,7.987.031s6.9,17.1,6.9,17.1L6.519,25.049S-.719,17.082.058,1.73" transform="translate(101.556 323.318)" fill="#ffcab0"/>
    <path id="Fill_36" data-name="Fill 36" d="M42.022,2.074,0,0S.668,25.547,15.036,49.357c2.282,3.782,5.684,5.852,7.909,8.127,1.562-16.567,2.681-28.335,2.681-28.335L42.2,2.289c-.061-.071-.122-.145-.182-.214" transform="translate(73.244 253.072)" fill="#104f51"/>
    <path id="Fill_38" data-name="Fill 38" d="M23.484.551s.181.158.487.459c-2.295.458-5.15.784-5.15.784-5.015-1.634-11.858,1-12.9,1.422a4.934,4.934,0,0,0-1.349.327A9.241,9.241,0,0,0,.036,11.057C-.482,16.627,4.7,26.991,5.866,31.137S-.871,63.119,12.6,65.063a5.69,5.69,0,0,0,2.106-.069,29.254,29.254,0,0,0,4.387-.96C20.457,48.432,22.787,23.219,24.959,0a4.579,4.579,0,0,1-1.475.551" transform="translate(68.724 337.245)" fill="#104f51"/>
    <path id="Fill_40" data-name="Fill 40" d="M0,2.008S7.6-1.243,13.04.528c0,0,1.613,13.8,3.761,18.33a9.373,9.373,0,0,0,3.481,3.929,2.8,2.8,0,0,1,1.184,3.257c-.794,2.376-1.838,5.933-1.528,7.422,0,0,2.137,26.379-3.206,28.225A36.625,36.625,0,0,1,8.811,63.74Z" transform="translate(88.575 324.519)" fill="#3a0f3b"/>
    <path id="Fill_42" data-name="Fill 42" d="M4.571.365s7.451-3.389,10.882,10.494c.905,3.665.709,9.939,1.7,16.081C19.821,43.43,22.418,63.3,12.6,61.884-.87,59.941,7.032,32.1,5.866,27.958S-.482,13.449.036,7.879A9.243,9.243,0,0,1,4.571.365" transform="translate(82.794 326.432)" fill="#7e3669"/>
    <path id="Fill_44" data-name="Fill 44" d="M54.536,0,0,7.116S4.194,23.187,27.551,47.283C42.837,63.052,46.788,66.836,47.7,67.569,37.987,72.642,36.436,81.76,31.478,82.65c0,0,10.614,9.223,8.647,23.707,0,0,41.486-20.128,43.04-32.605S67.424,14.688,54.536,0" transform="translate(74.8 241.155)" fill="#169699"/>
    <path id="Fill_46" data-name="Fill 46" d="M110.944,112.389c8.291-24.1-3.878-53.918,1.143-66.486,0,0,19.591-12.334,24.255-14.627,0,0-6.585-24.326-6.4-31.277,0,0-22.836,6.781-37.234,3.154L40.611,8.79S15.578,8.253,8.161,23.558L0,37.16,13.6,45.9,33.349,95.288c4.663,23.319-20.537,73.365,2.7,67.209,43.554-11.537,55.083,2.591,79.566-8.032,9.376-4.068-8.3-31.516-4.671-42.076" transform="translate(17.866 96.792)" fill="#92d6d4"/>
    <path id="Fill_48" data-name="Fill 48" d="M15.51.449,25.355,0a.7.7,0,0,1,.5,1.215c-2.463,2.143-7.17,7.671-14.057,21.8H0S6.96,3.654,15.51.449" transform="translate(38.887 104.356)" fill="#169699"/>
    <path id="Fill_50" data-name="Fill 50" d="M18.761.37c7.37,1.376,7.921,9.54,7.921,9.54H23.088S22.686,4.422,17.3,3.5c-3.959-.68-10.889-.389-13.706,6.413H0C3.855-.208,13.342-.641,18.761.37" transform="translate(55.15 117.462)" fill="#fff"/>
    <path id="Fill_52" data-name="Fill 52" d="M47.074,0H0L14.336,35.852c2.729,13.65-4.77,36.454-6.8,51.787H64.208L74.9,63.349,60.806,0Z" transform="translate(37.352 156.229)" fill="#73bfbb"/>
    <path id="Fill_54" data-name="Fill 54" d="M13.732,87.639S4.842,50.2.762,29.8,10.329,0,10.329,0H72.011l3.4,87.639Z" transform="translate(28.46 135.032)" fill="#165e63"/>
    <path id="Fill_56" data-name="Fill 56" d="M10.33,0h8.161S4.843,9.392,8.923,29.8s12.97,57.843,12.97,57.843H13.732S4.842,50.2.762,29.8,10.33,0,10.33,0" transform="translate(68.248 135.032)" fill="#4d9c9e"/>
    <path id="Fill_58" data-name="Fill 58" d="M10.329,0S-3.319,9.392.762,29.8s12.97,57.843,12.97,57.843l10.687-24.29Z" transform="translate(90.142 135.032)" fill="#169699"/>
    <path id="Stroke_60" data-name="Stroke 60" d="M62.233.348H0" transform="translate(31.127 173.669)" fill="none" stroke="#169699" stroke-miterlimit="10" stroke-width="2"/>
    <path id="Fill_62" data-name="Fill 62" d="M11.68,0H0L2.346,10.9h11.68Z" transform="translate(67.787 168.552)" fill="#fff"/>
    <path id="Fill_64" data-name="Fill 64" d="M10.329,0h8.162S4.843,9.392,8.923,29.8s12.97,57.843,12.97,57.843H13.732S4.842,50.2.762,29.8,10.329,0,10.329,0" transform="translate(40.351 135.032)" fill="#4d9c9e"/>
    <path id="Fill_66" data-name="Fill 66" d="M11.68,0H0L2.347,10.9h11.68Z" transform="translate(39.889 168.552)" fill="#fff"/>
    <path id="Fill_68" data-name="Fill 68" d="M2.117,49.748C11.609,49.376,12.945,36.51,14.34,28.5V28.5a54.292,54.292,0,0,0,.725-7.651C15.177,15.932,15.481,7.309,19.38,0c0,0,2.266,36.45-2.823,45.314l0-.018C10.441,59.136,0,57.09,0,57.09Z" transform="translate(110.573 142.696)" fill="#169699"/>
    <path id="Fill_70" data-name="Fill 70" d="M35.233,1.42S16.742,16.1,13.213,35.594H0S4.3,11.423,20.694,1.383A6.2,6.2,0,0,1,24.367.265C26.212.46,34.175,0,34.175,0s2.116.266,1.058,1.42" transform="translate(83.738 99.438)" fill="#169699"/>
    <path id="Fill_72" data-name="Fill 72" d="M25.382,18.527h7S22.273-1.294,10.226.067s-11.27,15.157-8.55,18.46" transform="translate(54.275 435.473)" fill="#3a0f3b"/>
    <path id="Fill_74" data-name="Fill 74" d="M0,12.438H23.706S20.986.2,10.492,0,0,12.438,0,12.438" transform="translate(55.951 441.561)" fill="#7e3669"/>
    <path id="Fill_76" data-name="Fill 76" d="M0,16.908S2.233,10.2,2.363,6.957,6.378-1.851,11.819.61s8.16,9.729,10.492,7.844,3.721-1.885,3.721-1.885l.943,8.032a8.388,8.388,0,0,1,7.384,4.273c.954,1.526,4.145,11.143,2.331,12.439h-6.8L20.5,22.049l-6.8-4.857" transform="translate(56.762 422.688)" fill="#3a0f3b"/>
    <path id="Fill_78" data-name="Fill 78" d="M27.879,6.34C24.625.218,3.934-3.674,0,5.231L15.506,17.865l13.42-1.713c-1.382-4.975-.611-9-1.046-9.813" transform="translate(72.332 85.948)" fill="#f9a78a"/>
  </g>
  <g id="Group_83" data-name="Group 83" transform="translate(139 221)">
    <path id="Clip_82-2" data-name="Clip 82" d="M.122,26.38C-1.538,50.5,14.232,52.323,20.343,52.866h0c10.4.924,14.431.745,16.446-1.261h0c3.129-3.114,3.7-12.712,3.7-12.712h0c1.809-.775,2.922-.873,2.305-2.294h0c-.6-1.38-3.353-2.895-1.635-7.982h0c1.191-3.529-1.928-12.022-1.928-12.022h0C37.369,5.271,27.663.546,20.862.051h0C20.418.019,19.951,0,19.464,0h0C12.5,0,1.675,3.833.122,26.38" transform="translate(0.391 0.003)" fill="none"/>
    <g id="Group_83-2" data-name="Group 83" clip-path="url(#clip-path)">
      <path id="Fill_81" data-name="Fill 81" d="M.122,26.38C-1.538,50.5,14.232,52.323,20.343,52.866h0c10.4.924,14.431.745,16.446-1.261h0c3.129-3.114,3.7-12.712,3.7-12.712h0c1.809-.775,2.922-.873,2.305-2.294h0c-.6-1.38-3.353-2.895-1.635-7.982h0c1.191-3.529-1.928-12.022-1.928-12.022h0C37.369,5.271,27.663.546,20.862.051h0C20.418.019,19.951,0,19.464,0h0C12.5,0,1.675,3.833.122,26.38" transform="translate(0.391 0.003)" fill="url(#linear-gradient)"/>
    </g>
  </g>
  <g id="Group_109" data-name="Group 109" transform="translate(57 58)">
    <path id="Fill_84" data-name="Fill 84" d="M87.857,79.522c5.6-25.661,18.5-35.339,18.5-35.339s-7.776-1.762-5.377-7.424c1.81-4.27,7.893,1.316,7.893,1.316,2.338-6.3,1.1-8.6,1.1-8.6a49.875,49.875,0,0,0,15.789-1.705c-1.373-13.2-4.045-18.128-10.13-21.639a25.046,25.046,0,0,0-14.124-2.858C80.676-6.637,68.836,8.035,63.471,19.6a64.876,64.876,0,0,1-21.7,26.223,91.439,91.439,0,0,1-25.238,12.17c-21.657,6.672-24.415,52.544,6.088,63.76,24.819,9.126,41.747-2.427,51.9-14.507A64.224,64.224,0,0,0,87.857,79.522" transform="translate(0.12 158.585)" fill="#ff943f"/>
    <path id="Fill_86" data-name="Fill 86" d="M109.825.65s-18.6-5.843-27.347,17.5C74.83,38.563,58.982,71.889,29.2,72.718,4.1,73.416.728,62.232,0,61.555c1.062,13,8.045,26.064,22.476,31.37,24.818,9.125,41.746-2.427,51.9-14.507A64.246,64.246,0,0,0,87.709,50.695c5.6-25.661,18.494-35.338,18.494-35.338s-7.776-1.763-5.377-7.424c1.81-4.27,7.893,1.317,7.893,1.317,2.338-6.3,1.1-8.6,1.1-8.6s.111.01.321.024Z" transform="translate(0.12 187.412)" fill="#ef7625"/>
    <path id="Fill_88" data-name="Fill 88" d="M0,0S16.4,19.126,14.979,37.547c0,0,7.719-16.272-7.361-34.8A31,31,0,0,0,0,0" transform="translate(94.009 159.114)" fill="#7e3669"/>
    <path id="Fill_90" data-name="Fill 90" d="M0,508.2H12.127V0H0Z" transform="translate(381.149 0.107)" fill="#c1e5e5"/>
    <path id="Fill_92" data-name="Fill 92" d="M18.413,0s6.2,12.7,11.162,17.473,9.922,8.974,13.356,16.8,4.389,23.488.955,25.97S23.85,59.483,14.311,40.96,0,15.563,0,15.563Z" transform="translate(529.619 192.681)" fill="#ffcab0"/>
    <path id="Fill_93" data-name="Fill 93" d="M.3,0A62.225,62.225,0,0,1,0,7.69L10.018,9.264,10.494.575Z" transform="translate(444.137 493.724)" fill="#ffcab0"/>
    <path id="Fill_94" data-name="Fill 94" d="M51.99,0S17.377,5.856.466,16.041c0,0-4.445,20.114,14.126,46.085S40.061,98.28,36.358,113.3s-15.914,47.1-9.3,93.441l10.94.7,2.8-31L59.368,49.14Z" transform="translate(416.634 286.855)" fill="#165e63"/>
    <path id="Fill_95" data-name="Fill 95" d="M1.639,4.116S52.52-7.787,68.04,8.89c0,0,2.29,36.665-9.158,62.253S38.846,111.053,37.7,120.6s-6.678,54.8-16.218,69.318L.755,188.177S1.067,152.3.113,143.515,4.5,110.289,6.219,102.078s4.513-34.509,4.513-34.509S11.307,54.084,6.2,43.9A62.514,62.514,0,0,1,1.639,4.116" transform="translate(452.993 283.949)" fill="#169699"/>
    <path id="Fill_96" data-name="Fill 96" d="M16.387.592S4.162-1.322,2.89,1.733C1.853,4.223.225,13.477,0,17.919a2.048,2.048,0,0,0,2.05,2.146h9.869s7.564-9.41,4.466-19.473" transform="translate(437.764 501.414)" fill="#3a0f3b"/>
    <path id="Fill_97" data-name="Fill 97" d="M.219,23.7S-1.631,9.988,5.427,3.484,18.314,1.577,18.314,1.577s7.719,5.062,5.49,19.736L21.575,35.988Z" transform="translate(451.795 463.54)" fill="#3a0f3b"/>
    <path id="Fill_98" data-name="Fill 98" d="M66.54.183c-1.673,5.942-2.9,9.341-2.9,9.341A13.061,13.061,0,0,0,58.3,9.073s-25.236.46-48.2,5.177a70.733,70.733,0,0,0-9.64,4.7S-1.113,26.1,1.548,37.383c3.465,3.844,7.8,6.9,12.995,7.335C29.807,45.991,61.1,41.662,66.95,40.9c4.472-.584,9.234-1.913,10.1-5.119l.145.281S86,22.93,90.726,1.79C83.373,0,74.705-.248,66.54.183" transform="translate(416.635 283.95)" fill="#0e4b4c"/>
    <path id="Fill_99" data-name="Fill 99" d="M36.179,0h-.063c-2.065.01-4.127.074-6.158.181h-.006c-1.673,5.942-2.9,9.34-2.9,9.34a13.074,13.074,0,0,0-5.343-.451s-9.1.168-21.344,1.322A62.7,62.7,0,0,0,5.9,43.742C17.077,42.7,27.271,41.3,30.363,40.9c4.471-.583,9.234-1.913,10.1-5.119l.143.281S49.41,22.93,54.139,1.788A71.3,71.3,0,0,0,39.295.032l-.083,0Q37.7-.005,36.179,0" transform="translate(453.462 283.951)" fill="#167f83"/>
    <path id="Fill_100" data-name="Fill 100" d="M83.419,139.761,10.023,45.8.9,45.142C2.422,36.74,0,12.392,0,12.392S72.1,1.491,84.039.728c12.211-.78,24.423-3.326,31.546,9.66S138.5,47.21,138.5,47.21s-6.805,10.63-21.4,18.077l-7.16-9.676s2.223,19.86,0,30.554-5.19,15.1-3.493,24.315c1.832,9.957,4.325,26.1,3.307,37.682a103.87,103.87,0,0,0-26.332-8.4" transform="translate(411.282 144.675)" fill="#92d6d4"/>
    <path id="Fill_101" data-name="Fill 101" d="M0,10.719S2.421,35.067.9,43.468l9.126.655L32.569,72.987a57.286,57.286,0,0,0,14.652-12.67c7.006-8.341,14.961-17.954,16.164-28.784C65.483,12.629,70.816,5.318,75.146,0,52.238,2.82,0,10.719,0,10.719" transform="translate(411.283 146.348)" fill="#4d9c9e"/>
    <path id="Fill_102" data-name="Fill 102" d="M18.85,59.04c-1.7-9.212,1.272-13.622,3.493-24.315s0-30.554,0-30.554S11.879-6.013,8.113,5.445,0,89.11,0,89.11a106.265,106.265,0,0,1,22.157,7.612C23.175,85.138,20.682,69,18.85,59.04" transform="translate(498.981 196.116)" fill="#73bfbb"/>
    <path id="Fill_103" data-name="Fill 103" d="M9.859,2.438A58.088,58.088,0,0,0,0,31.587l12.3,4.028s2.862-26.6,12.02-34.257h1.4S25.467-.031,24.29,0,11.822,1.287,11.822,1.287A2.807,2.807,0,0,0,9.859,2.438" transform="translate(483.927 143.318)" fill="#3a0f3b"/>
    <path id="Fill_104" data-name="Fill 104" d="M20.066,5.173a17.081,17.081,0,0,0-13.6,13.476C4.619,28.015,2.54,41.517,3.094,52.7c.955,19.287,1.653,42.52-2.734,51.113,0,0-1.527,4.2,1.717,6.875s11.7,11.358,13.992,10.1,6.855-8.511,6.672-10.039c0,0,2.233-5.855,2.233-6.81s-7.378-18.587-7.951-23.552,3.112-23.052,7.06-34.182a166.893,166.893,0,0,0,5.342-17.759l19.478.955L50.934,0Z" transform="translate(363.768 157.068)" fill="#ffcab0"/>
    <path id="Fill_105" data-name="Fill 105" d="M28.239,15.786C25.186,2.546,9.032,0,9.032,0s4.727,19.671,2.519,47.738A245.331,245.331,0,0,1,0,105.6l13.552,26.538S27.731,111.01,29.766,79.184s1.527-50.158-1.527-63.4" transform="translate(476.002 172.79)" fill="#7e3669"/>
    <path id="Fill_106" data-name="Fill 106" d="M.225,118.241A249.466,249.466,0,0,1,6.791,51.113C14.849,16.942,20.8,5.039,30.26,3.183,46.479,0,80.505,0,80.505,0s11.249,42.52-9.032,105.6Z" transform="translate(404.528 172.79)" fill="#c181bb"/>
    <path id="Fill_107" data-name="Fill 107" d="M66.111.082S26.967.794,1.828,9.555A2.732,2.732,0,0,0,.2,13.168C2.77,19.432,10.238,34.717,22.352,35.727,37.617,37,68.909,32.672,74.761,31.908s12.211-2.8,9.667-8.657-8.9-19.1-8.9-19.1S74.22-.683,66.111.082" transform="translate(404.549 277.863)" fill="#3a0f3b"/>
    <path id="Fill_108" data-name="Fill 108" d="M29.168,6.639C25.763.228,4.117-3.847,0,5.477L16.223,18.706l14.039-1.794c-1.446-5.208-.639-9.418-1.094-10.273" transform="translate(457.617 129.26)" fill="#f9a78a"/>
  </g>
  <g id="Group_112" data-name="Group 112" transform="translate(523 141)">
    <path id="Clip_111-2" data-name="Clip 111" d="M.127,27.732C-1.608,53.091,14.869,55,21.254,55.575h0c10.866.97,15.078.783,17.183-1.326h0C41.7,50.975,42.3,40.886,42.3,40.886h0c1.89-.815,3.053-.917,2.409-2.411h0c-.625-1.451-3.5-3.043-1.709-8.391h0c1.245-3.709-2.014-12.638-2.014-12.638h0C39.043,5.541,28.9.574,21.8.054h0C21.333.019,20.845,0,20.338,0h0C13.065,0,1.749,4.027.127,27.732" transform="translate(0.414 0.233)" fill="none"/>
    <g id="Group_112-2" data-name="Group 112" clip-path="url(#clip-path-2)">
      <path id="Fill_110" data-name="Fill 110" d="M.127,27.732C-1.608,53.091,14.869,55,21.254,55.575h0c10.866.97,15.078.783,17.183-1.326h0C41.7,50.975,42.3,40.886,42.3,40.886h0c1.89-.815,3.053-.917,2.409-2.411h0c-.625-1.451-3.5-3.043-1.709-8.391h0c1.245-3.709-2.014-12.638-2.014-12.638h0C39.043,5.541,28.9.574,21.8.054h0C21.333.019,20.845,0,20.338,0h0C13.065,0,1.749,4.027.127,27.732" transform="translate(0.414 0.233)" fill="url(#linear-gradient-2)"/>
    </g>
  </g>
  <g id="Group_115" data-name="Group 115" transform="translate(474 230)">
    <path id="Clip_114-2" data-name="Clip 114" d="M17.184,2.984C10.322,4.348,5.315,11.1,0,27.992H0a20.017,20.017,0,0,0,2.06.094h0c7.81-.051,15.394.3,21.976,5.334h0A24.438,24.438,0,0,0,32.689,21h0c-.127,10.517-4.508,16.371-4.508,16.371h0A26.163,26.163,0,0,1,34.4,46.085h0a68.1,68.1,0,0,0,13.9-29.241h0A91.082,91.082,0,0,1,53.6,0h0C42.337.32,26.689,1.1,17.184,2.984" transform="translate(0.015 0.403)" fill="none"/>
    <g id="Group_115-2" data-name="Group 115" clip-path="url(#clip-path-3)">
      <path id="Fill_113" data-name="Fill 113" d="M17.184,2.984C10.322,4.348,5.315,11.1,0,27.992H0a20.017,20.017,0,0,0,2.06.094h0c7.81-.051,15.394.3,21.976,5.334h0A24.438,24.438,0,0,0,32.689,21h0c-.127,10.517-4.508,16.371-4.508,16.371h0A26.163,26.163,0,0,1,34.4,46.085h0a68.1,68.1,0,0,0,13.9-29.241h0A91.082,91.082,0,0,1,53.6,0h0C42.337.32,26.689,1.1,17.184,2.984" transform="translate(0.015 0.403)" fill="url(#linear-gradient-3)"/>
    </g>
  </g>
  <g id="Group_130" data-name="Group 130" transform="translate(452 136)">
    <path id="Fill_116" data-name="Fill 116" d="M59.163,87.4c-.127,10.442-4.522,16.254-4.522,16.254a25.961,25.961,0,0,1,6.235,8.656A67.332,67.332,0,0,0,74.814,83.277C80.67,56.4,94.141,46.27,94.141,46.27s-8.126-1.846-5.619-7.774c1.892-4.472,8.249,1.378,8.249,1.378,2.443-6.594,7.844-17.033,7.844-17.033A9.95,9.95,0,0,0,116.931,28.7c-1.435-13.821-2.93-18.37-8.38-23.3C99.968-2.371,89.078,3.43,89.078,3.43,71.189-5.1,59.645,3.756,52.987,13.9A29.186,29.186,0,0,0,48.823,24.19c-1.848,9.2-12,40.606-48.823,35.9,0,0,6.578,34.487,28.439,34.348,7.834-.05,15.441.3,22.043,5.3A24.3,24.3,0,0,0,59.163,87.4" transform="translate(0.472 0.626)" fill="#bf5851"/>
    <path id="Fill_118" data-name="Fill 118" d="M2.282,16.719s12.1-8.1,16.3-16.477c0,0,.684-.781.922.46s.935,6.318.935,6.318S14.478,16.719,0,24.4Z" transform="translate(104.051 180.514)" fill="#3a0f3b"/>
    <path id="Fill_120" data-name="Fill 120" d="M6.2,3.507C12.289,2.66,37.2-.576,57.935.09c0,0-2.826,24.957-5.883,38.964,0,0-31.474,1.273-52.052,5.093,0,0,.231-20.523,4.491-39.075A2.045,2.045,0,0,1,6.2,3.507" transform="translate(19.194 150.328)" fill="#7e3669"/>
    <path id="Stroke_122" data-name="Stroke 122" d="M0,3.2S21.7-.73,55.131.121" transform="translate(21.588 158.458)" fill="none" stroke="#c181bb" stroke-miterlimit="10" stroke-width="2"/>
    <path id="Fill_124" data-name="Fill 124" d="M57.935,0c-2.523,19.963-5.883,38.964-5.883,38.964A366.869,366.869,0,0,0,0,44.057l2.394,2.356c19.767-3.056,51.489-5.03,51.489-5.03,3.872-14.134,5.967-38.518,5.967-38.518Z" transform="translate(19.194 150.417)" fill="#3a0f3b"/>
    <path id="Fill_126" data-name="Fill 126" d="M1.457,6.82h0A2.029,2.029,0,0,1,.082,4.3L.907,1.462A2.024,2.024,0,1,1,4.793,2.6L3.966,5.44A2.022,2.022,0,0,1,1.457,6.82" transform="translate(62.015 159.119)" fill="#3a0f3b"/>
    <path id="Fill_128" data-name="Fill 128" d="M8.8,4.557A8.36,8.36,0,0,1,19.3.574c4.378,1.7,10.172,6.594,8.89,20.631-2.013,22.04.362,23.049.181,30.788S23.494,78.408,13.6,78.408-1,62.089.177,53.508s7.381-16.151,6.375-26.75C5.866,19.538,5.964,10.2,8.8,4.557" transform="translate(49.938 395.92)" fill="#7e3669"/>
  </g>
  <g id="Group_133" data-name="Group 133" transform="translate(431 230)">
    <path id="Clip_132-2" data-name="Clip 132" d="M7.9,5.937C4.511,9.081-2.061,62.252.633,70.517h0c.935,2.871,3.894,2.9,7.354,1.709h0a45.418,45.418,0,0,1-2.159-7.611h0C5.252,59.638,8.967,41.5,12.949,30.346h0a166.684,166.684,0,0,0,5.389-17.8h0l19.645.957L38.921,0S14.3,0,7.9,5.937" transform="translate(0.462 0.401)" fill="none"/>
    <g id="Group_133-2" data-name="Group 133" clip-path="url(#clip-path-4)">
      <path id="Fill_131" data-name="Fill 131" d="M7.9,5.937C4.511,9.081-2.061,62.252.633,70.517h0c.935,2.871,3.894,2.9,7.354,1.709h0a45.418,45.418,0,0,1-2.159-7.611h0C5.252,59.638,8.967,41.5,12.949,30.346h0a166.684,166.684,0,0,0,5.389-17.8h0l19.645.957L38.921,0S14.3,0,7.9,5.937" transform="translate(0.462 0.401)" fill="url(#linear-gradient-4)"/>
    </g>
  </g>
  <g id="Group_144" data-name="Group 144" transform="translate(268 151)">
    <path id="Fill_134" data-name="Fill 134" d="M58.657,2.342c-10.4,3.979-15,18.742-20.433,38.622A51.83,51.83,0,0,1,0,78.358a19.472,19.472,0,0,0,5.8.827c7.854-.049,15.48.3,22.1,5.3a24.3,24.3,0,0,0,8.7-12.334C36.472,82.587,32.066,88.4,32.066,88.4a25.957,25.957,0,0,1,6.25,8.656,67.251,67.251,0,0,0,13.973-29.03c5.87-26.87,19.374-37,19.374-37s-8.146-1.846-5.633-7.774c1.9-4.472,8.269,1.378,8.269,1.378,2.448-6.593,7.864-17.032,7.864-17.032s-4.034-12.7-23.507-5.252" transform="translate(208.442 0.55)" fill="#aa403d"/>
    <path id="Fill_136" data-name="Fill 136" d="M0,6.831s5.1,17.923,27.053,11.38c0,0-1.748-18.593-10.637-18.2S0,6.831,0,6.831" transform="translate(28.282 430.267)" fill="#3a0f3b"/>
    <path id="Fill_138" data-name="Fill 138" d="M6.994.794,0,24.246l19.946,8.241,2.462-5L21.5,23.857,26.164,7.144S15.413-2.834,6.994.794" transform="translate(27.099 434.856)" fill="#d36a67"/>
    <path id="Fill_140" data-name="Fill 140" d="M2.94,0S-2.095,15.28,1.013,26.682s9.958,56.379,9.958,56.379,3,23.581,20.8,20.212S49.049,49.891,49.049,49.891L39.315,0Z" transform="translate(0.327 269.277)" fill="#3a0f3b"/>
    <path id="Fill_142" data-name="Fill 142" d="M62.024,0s1.311,77.618-1.539,91.871S27.053,179.2,27.053,179.2,18.5,163,0,167.82c0,0,20.318-69.981,20.318-74.39s.324-29.788-4.857-39.895C3.25,29.715,7.883,13.484,7.624,0" transform="translate(28.282 269.277)" fill="#7e3669"/>
  </g>
  <g id="Group_147" data-name="Group 147" transform="translate(303 420)">
    <path id="Clip_146-2" data-name="Clip 146" d="M.632,0C.733,5.112.1,10.633,0,16.833H0c9.912.907,18.139,1.356,21.115,1.454h0c5.557.183,10.037-.435,12.98-3.24h0C39.379,12,44.115,6.493,45.675,2.067h0A16.672,16.672,0,0,0,46.189,0H.632Z" transform="translate(0.564 0.444)" fill="none"/>
    <g id="Group_147-2" data-name="Group 147" clip-path="url(#clip-path-5)">
      <path id="Fill_145" data-name="Fill 145" d="M.632,0C.733,5.112.1,10.633,0,16.833H0c9.912.907,18.139,1.356,21.115,1.454h0c5.557.183,10.037-.435,12.98-3.24h0C39.379,12,44.115,6.493,45.675,2.067h0A16.672,16.672,0,0,0,46.189,0H.632Z" transform="translate(0.564 0.444)" fill="url(#linear-gradient-5)"/>
    </g>
  </g>
  <g id="Group_200" data-name="Group 200" transform="translate(238 49)">
    <path id="Fill_148" data-name="Fill 148" d="M0,.119S10.657-2.5,13.952,16.775s-10.435.735-10.435.735Z" transform="translate(149.14 235.978)" fill="#ffcab0"/>
    <path id="Fill_150" data-name="Fill 150" d="M105.1,176.729c21.762.583,20.79-11.856,20.79-11.856,2.936-16.652-2.039-19.32.487-31.57s6.217-20.337,4.08-30.614.194-22.973,1.346-22,6.361,15.653,10.053,29.265,25.065,21.389,33.03,3.064-.68-36.736-3.594-41.208-3.109-14-6.412-16.723-10.3-1.166-10.3-1.166c-6.8-28.973-18.6-37.713-18.6-37.713S61.9-4.157,45.449.768,26.7,23.162,11.673,40.014C-.755,53.952-5.166,73.579,7.979,90.606c13.476,17.457,25.163,33.573,25.163,33.573l6.218-35.52c-4.693-9.981-10.716-15.995-9.586-17.888,3.572-5.991,15.912-15.663,15.912-15.663L24.465,165.878s-2.85,10.657,14.9,8.518c8.842-1.066,17.357-4.083,31.152,2.5,10.327,4.928,23.13-.472,34.585-.166" transform="translate(0.02 198.662)" fill="#92d6d4"/>
    <path id="Fill_152" data-name="Fill 152" d="M1.166,34.079,26.9,0l22.75,6s.3,8.121-.343,9.795-4.386,1.734-1.581,7.428c2.22,4.507,1.719,5.439.831,6.514a10.894,10.894,0,0,1-3.469,2.625s-2.036,11.572-5.946,13.644-4.081,2.186-12.63.416a31.781,31.781,0,0,0-.738,6.454S7.772,61.173,0,50.284c0,0,2.008-12.185,1.166-16.2" transform="translate(75.002 144.545)" fill="#d36a67"/>
    <path id="Fill_154" data-name="Fill 154" d="M32.451,55.046c-1.961,2.6-4.1,5.162-7.249,6.614s-6.449.893-9.383-1.626-1.491-.826-5.1-.593S.455,52.715,2.889,47.133,1.254,39.514.165,34.906s3.586-4.2,3.47-10.1S6.5,13.137,9.962,11.209s9.309,1.04,13.231-4.354S29.411,3.9,31.32,3.8,33.733-.886,38.568.153s2.566,3.074,5.914,3.926S47.569.987,53,4.595s2.406,5.24,6.627,5.643,4.612,2.943,5.147,4.441.617,6.483-2.281,12.231c-3.277,6.5-15.628,3.685-15.628,3.685s-2.925,3.945-1.5,6.178c1.7,2.667.441,8.5.441,8.5l-5.775,1.369s-3.37-5.779-7.148-3.512c-2.692,1.616-1.071,4.969,2.1,7.75,1.288,1.13-1.594,2.924-2.533,4.167" transform="translate(65.332 122.3)" fill="#3a0f3b"/>
    <path id="Fill_156" data-name="Fill 156" d="M83.736,12.715C77.926,6.207,69.4,1.817,57.087.474,45.842-.752,36.9.355,30,4.317a57.124,57.124,0,0,0-11.9,9.166l-1.8,9.372c-.8-1.693-1.639-3.269-2.473-4.731-1.051,1.237-1.993,2.407-2.83,3.458-.787.9-1.518,1.809-2.2,2.713L8.8,24.3c-.078.093-.157.2-.238.318A45.421,45.421,0,0,0,2.294,36.091C1.815,37.516.995,40.616,0,44.75c4.784,6.415,8.315,11.245,9.613,13.027L1.48,100.225s-2.849,10.658,14.9,8.519c8.842-1.066,17.358-4.083,31.153,2.5,10.327,4.928,23.13-.472,34.586-.166,1.646.044,3.148.006,4.544-.088a16.52,16.52,0,0,0,1-2.253c1.807-5.226,5.328-43.14,6.819-63.368a44.365,44.365,0,0,0-8.926-30.474q-.86-1.108-1.813-2.18" transform="translate(23.004 264.314)" fill="#73bfbb"/>
    <path id="Fill_158" data-name="Fill 158" d="M65.267,7.465c-5.44-2.722-7.772,2.052-7.772,2.052L30.294,17.9,17.729,2.214C5.747-4.98,4.646,7.659,4.646,7.659A4.1,4.1,0,0,0,.177,10.381C.371,16.02-4.1,40.327,22.133,47.079S71.078,19.326,71.078,19.326c-5.07-1.75-.371-9.139-5.811-11.861" transform="translate(53.647 188.142)" fill="#169699"/>
    <path id="Fill_160" data-name="Fill 160" d="M2.024.191A4.384,4.384,0,0,1,7.076,2.136c2,3.035,17.876,5.574,24.352,2.334S41.79,7.493,41.79,7.493s-9.326,22.254-29.015,17.2S2.024.191,2.024.191" transform="translate(69.352 190.166)" fill="#165e63"/>
    <path id="Fill_162" data-name="Fill 162" d="M85.344,11.764s1.314-2.609,2.609-2.082,8.161,5.033,9.2,6.733-4.275,9.22-9.325,15.053-16.367,17.778-16.16,32c.069,4.756-1.975,20.369.1,41.109L0,91.617S.485,76.58,6.962,63.358s3.493-21.09,1.554-26.3C5.3,28.42,3.063,13.92,4.15,4.428a1.373,1.373,0,0,1,.758-1.072c1.987-1,7.834-3.813,9.358-3.292,1.845.628.76,4.311.76,4.311S17.771,34.716,39.118,35.1,85.344,11.764,85.344,11.764" transform="translate(39.381 195.704)" fill="#165e63"/>
    <path id="Fill_164" data-name="Fill 164" d="M.177,2.756C.371,8.395-4.1,32.7,22.133,39.453S71.078,11.7,71.078,11.7a3.543,3.543,0,0,1-2.422-2.661C51.3,24.717,44.931,30.757,24.076,27.775S4.646.034,4.646.034A4.106,4.106,0,0,0,.177,2.756" transform="translate(53.647 195.767)" fill="#92d6d4"/>
    <path id="Fill_166" data-name="Fill 166" d="M26.643,4.317c-9.453,5.427-15.218,12.52-19,17.265-.787.9-1.518,1.81-2.2,2.713l-.006.008a3.644,3.644,0,0,0-.239.317A49.274,49.274,0,0,0,0,33.433,38.843,38.843,0,0,0,6.215,44.922C17.982,60.163,28.382,74.381,30.834,77.744L53.728.474C42.483-.752,33.544.355,26.643,4.317" transform="translate(1.441 244.346)" fill="#73bfbb"/>
    <path id="Fill_168" data-name="Fill 168" d="M89.342,14.895a44.361,44.361,0,0,1,8.926,30.474c-1.491,20.227-5.011,58.142-6.819,63.367-2.331,6.741-11.695,15.936-19.466,15.677S21.762,114.959,5.44,107.958c7.427,0-5.44-3.716-5.44-14,0-14,7.965-64.207,12.591-69.656,3.655-4.3,9.7-13.381,21.2-19.984C40.7.355,49.636-.752,60.881.475,73.193,1.817,81.72,6.207,87.529,12.715q.956,1.069,1.813,2.18" transform="translate(15.357 239.908)" fill="#3a0f3b"/>
    <path id="Fill_170" data-name="Fill 170" d="M86.557,14.895a44.36,44.36,0,0,1,8.926,30.474c-1.491,20.228-5.012,58.142-6.819,63.368-2.331,6.741-8.031,8.037-15.8,7.777s-51.1-2.949-67.422-9.949c0,0-5.44,0-5.44-14S9.96,33.988,12.241,27.214c1.426-4.234,7.267-16.292,18.77-22.9C37.912.355,46.851-.752,58.1.475c12.313,1.343,20.838,5.732,26.649,12.24q.956,1.069,1.813,2.18" transform="translate(9.204 248.785)" fill="#169699"/>
    <path id="Stroke_172" data-name="Stroke 172" d="M0,27.213c1.426-4.234,7.267-16.292,18.77-22.9C25.671.355,34.61-.752,45.855.475,58.168,1.818,66.693,6.207,72.5,12.715c.636.713,1.24,1.442,1.812,2.18a44.366,44.366,0,0,1,8.927,30.475" transform="translate(21.445 248.785)" fill="none" stroke="#fff" stroke-linecap="round" stroke-miterlimit="10" stroke-width="2"/>
    <path id="Fill_174" data-name="Fill 174" d="M6.292,0s-9.46,35.623-5.181,40.559,30.6,9.236,32.659,5.607S41.6,6.32,41.6,6.32Z" transform="translate(15.408 302.372)" fill="#7e3669"/>
    <path id="Fill_176" data-name="Fill 176" d="M2.915,13.417h0A2.916,2.916,0,0,1,0,10.5V2.917a2.915,2.915,0,1,1,5.83,0V10.5a2.916,2.916,0,0,1-2.914,2.917" transform="translate(86.854 256.676)" fill="#3a0f3b"/>
    <path id="Fill_178" data-name="Fill 178" d="M23.284,6.379C13.375-2.665,3.756.558,3.756.558L0,13.155,19.948,21.4l2.461-5-.907-3.63Z" transform="translate(56.479 547.692)" fill="#fff"/>
    <path id="Fill_180" data-name="Fill 180" d="M25.782,3.113S26.041,8.039,24.1,7.78,16.845-.127,8.166,0,1.819,7.132,1.56,9.336s-3.312,13.222-.1,13.871,18.755,0,26.915,0a75.943,75.943,0,0,0,14.9-1.3c1.166-.26.389-6.482-3.756-7.39s-4.663,1.556-9.2-4.926Z" transform="translate(52.199 557.345)" fill="#92d6d4"/>
    <path id="Fill_182" data-name="Fill 182" d="M43.264,2.9S35.045,4.16,31.937,4.289a54.914,54.914,0,0,1-17.1-2.334C7.585-.248.891-.379.632.529S-1.55,10,2.922,9.994c6.607,0,40.284-.649,42.228-2.2S45,2.639,43.264,2.9" transform="translate(52.003 572.114)" fill="#165e63"/>
    <path id="Fill_184" data-name="Fill 184" d="M1.39,22.27C11.493,25.615,11.472,11.432,11.472,9S6.344,0,6.344,0,.365,1.9.042,7.608,1.39,22.27,1.39,22.27" transform="translate(45.8 438.125)" fill="#d36a67"/>
    <path id="Fill_186" data-name="Fill 186" d="M23.435,12.767S21.265,4.879,16.307.276,0,50.11,0,50.11V65.738a19.823,19.823,0,0,0,10.792-14.7c1.67-10.776,7.055-11.816,8.354-18.17s-2.746-9.327,4.289-20.1" transform="translate(28.709 425.359)" fill="#92d6d4"/>
    <path id="Fill_188" data-name="Fill 188" d="M22.286,6.345S26.37-2.945,34.353.957c4.407,2.154,6.683,10.775,0,23.966s-7.612,19.694-7.8,28.24S20.43,74.529,10.59,72.3-4.819,49.262,5.577,35.328,18.016,12.29,22.286,6.345" transform="translate(8.118 422.305)" fill="#165e63"/>
    <path id="Stroke_190" data-name="Stroke 190" d="M0,0S15.567,3.213,28.488,5.546" transform="translate(23.005 309.063)" fill="none" stroke="#3a0f3b" stroke-linecap="round" stroke-miterlimit="10" stroke-width="2"/>
    <path id="Fill_192" data-name="Fill 192" d="M0,508.525H12.134V0H0Z" transform="translate(398.034 0.107)" fill="#c1e5e5"/>
    <path id="Stroke_194" data-name="Stroke 194" d="M11.917,0A27.14,27.14,0,0,1,0,22.815" transform="translate(87.381 385.736)" fill="none" stroke="#3a0f3b" stroke-linecap="round" stroke-miterlimit="10" stroke-width="2"/>
    <path id="Fill_195" data-name="Fill 195" d="M81.5,300.165s72.806,5.208,90.1-52.481-37.88-57.32-28.41-90.47,22.829-50.914-15.738-86.9C87.41,32.954,116.562,8.168,81.974.538,60.745-4.145,28.8,22.1,44.039,65.37S7.723,105.521,20.487,150.436-6.481,190.407.929,229.14s28.352,71.025,80.57,71.025" transform="translate(386.886 191.442)" fill="#92d6d4"/>
    <path id="Fill_196" data-name="Fill 196" d="M10.5,0l8.167,239H0Z" transform="translate(460.692 281.447)" fill="#e0f2f2"/>
    <path id="Fill_197" data-name="Fill 197" d="M0,34.247,42.456,0,0,46.334Z" transform="translate(473.048 338.999)" fill="#e0f2f2"/>
    <path id="Fill_198" data-name="Fill 198" d="M30.011,24.207,0,0,30.011,36.3Z" transform="translate(440.016 316.178)" fill="#e0f2f2"/>
    <path id="Fill_199" data-name="Fill 199" d="M50.337,42,0,0,50.337,54.091Z" transform="translate(419.689 382.135)" fill="#e0f2f2"/>
  </g>
</svg>
