<?xml version="1.0" encoding="UTF-8"?>
<svg width="19px" height="18px" viewBox="0 0 19 18" version="1.1" xmlns="http://www.w3.org/2000/svg" xmlns:xlink="http://www.w3.org/1999/xlink">
    <!-- Generator: Sketch 57.1 (83088) - https://sketch.com -->
    <title>facebook</title>
    <desc>Created with Sketch.</desc>
    <g id="Page-1" stroke="none" stroke-width="1" fill="none" fill-rule="evenodd">
        <g id="Account---Verification" transform="translate(-382.000000, -483.000000)" fill="#fff">
            <g id="Group-26-Copy" transform="translate(371.000000, 470.000000)">
                <g id="Group-28" transform="translate(0.000000, 2.000000)">
                    <path d="M29.2,20 C29.2,15.0294336 25.1705664,11 20.2,11 C15.2294336,11 11.2,15.0294336 11.2,20 C11.2,24.4921602 14.4911699,28.2154883 18.79375,28.8906641 L18.79375,22.6015625 L16.5085937,22.6015625 L16.5085937,20 L18.79375,20 L18.79375,18.0171875 C18.79375,15.7615625 20.1373867,14.515625 22.1931836,14.515625 C23.1778574,14.515625 24.2078125,14.6914062 24.2078125,14.6914062 L24.2078125,16.90625 L23.0729336,16.90625 C21.9549121,16.90625 21.60625,17.6000059 21.60625,18.3117441 L21.60625,20 L24.1023437,20 L23.7033203,22.6015625 L21.60625,22.6015625 L21.60625,28.8906641 C25.9088301,28.2154883 29.2,24.4921602 29.2,20" id="facebook"></path>
                </g>
            </g>
        </g>
    </g>
</svg>