<?xml version="1.0" encoding="UTF-8"?>
<svg width="155px" height="62px" viewBox="0 0 155 62" version="1.1" xmlns="http://www.w3.org/2000/svg" xmlns:xlink="http://www.w3.org/1999/xlink">
    <!-- Generator: Sketch 56.3 (81716) - https://sketch.com -->
    <title>Group 29</title>
    <desc>Created with Sketch.</desc>
    <g id="Page-1" stroke="none" stroke-width="1" fill="none" fill-rule="evenodd">
        <g id="Landing---Donors" transform="translate(-202.000000, -4768.000000)" fill="#FFFFFF">
            <g id="Group-13" transform="translate(40.000000, 4663.000000)">
                <g id="Group-12" transform="translate(162.000000, 105.000000)">
                    <g id="Group-29">
                        <g id="Group-27" transform="translate(0.000000, 44.000000)">
                            <polygon id="Fill-1" points="13.6354286 4.46440635 8.61549206 4.46440635 8.61549206 17.6390095 5.38831746 17.6390095 5.38831746 4.46440635 0.368634921 4.46440635 0.368634921 1.44548571 13.6354286 1.44548571"></polygon>
                            <path d="M14.6445968,10.9765587 L19.6063746,10.9765587 C19.3287873,9.5424 18.4612317,8.73249524 17.1659937,8.73249524 C15.7432635,8.73249524 14.9105016,9.58862222 14.6445968,10.9765587 M22.6369778,12.0175746 C22.6369778,12.3644952 22.6138667,12.7807492 22.579073,13.0352254 L14.6329143,13.0352254 C14.9567238,14.654527 16.0901841,15.3603048 17.5129143,15.3603048 C18.4845968,15.3603048 19.5372952,14.9671619 20.3466921,14.2844952 L22.1165968,16.2278603 C20.8442159,17.3958603 19.2246603,17.9281778 17.339454,17.9281778 C13.9042794,17.9281778 11.5212952,15.5916698 11.5212952,12.0637968 C11.5212952,8.53592381 13.834946,6.13008254 17.1891048,6.13008254 C20.4162794,6.13008254 22.6252952,8.52449524 22.6369778,12.0175746" id="Fill-2"></path>
                            <path d="M26.7785143,12.0291302 C26.7785143,13.7408762 27.900546,15.1173841 29.6704508,15.1173841 C31.3936254,15.1173841 32.5618794,13.798781 32.5618794,12.0291302 C32.5618794,10.2594794 31.3936254,8.94087619 29.6704508,8.94087619 C27.900546,8.94087619 26.7785143,10.3173841 26.7785143,12.0291302 L26.7785143,12.0291302 Z M35.4187683,17.6390349 L32.469181,17.6390349 L32.469181,16.4011937 C31.740546,17.3035429 30.6533079,17.9283048 29.1150222,17.9283048 C26.0267683,17.9283048 23.6902603,15.3949714 23.6902603,12.0291302 C23.6902603,8.66328889 26.0267683,6.12995556 29.1150222,6.12995556 C30.6533079,6.12995556 31.7291175,6.75471746 32.469181,7.66849524 L32.469181,6.43090794 L35.4187683,6.43090794 L35.4187683,17.6390349 Z" id="Fill-4"></path>
                            <path d="M47.6341841,8.24688254 L45.459454,10.0627556 C44.7770413,9.33412063 44.0484063,8.94072381 43.0652952,8.94072381 C41.5036444,8.94072381 40.2546286,10.1668825 40.2546286,12.0292317 C40.2546286,13.9030095 41.4922159,15.1174857 43.0538667,15.1174857 C44.0252952,15.1174857 44.8580571,14.6778667 45.4942476,13.9840254 L47.6456127,15.8230095 C46.5929143,17.1761524 45.0200889,17.9281524 43.1463111,17.9281524 C39.5722159,17.9281524 37.1778032,15.4296127 37.1778032,12.0292317 C37.1778032,8.6400254 39.5722159,6.13005714 43.1463111,6.13005714 C45.0200889,6.13005714 46.6045968,6.89348571 47.6341841,8.24688254" id="Fill-6"></path>
                            <path d="M52.1230222,7.63380317 C52.9212444,6.52345397 54.1123556,6.13005714 55.3382603,6.13005714 C57.8832762,6.13005714 59.6988952,7.8999619 59.6988952,10.5023746 L59.6988952,17.6391365 L56.6799746,17.6391365 L56.6799746,11.4738032 C56.6799746,9.85450159 55.8705778,8.96383492 54.4940698,8.96383492 C53.1985778,8.96383492 52.1230222,9.80853333 52.1230222,11.4969143 L52.1230222,17.6391365 L49.1038476,17.6391365 L49.1038476,0.971453968 L52.1230222,0.971453968 L52.1230222,7.63380317 Z" id="Fill-8"></path>
                            <path d="M64.4885841,10.9765587 L69.4503619,10.9765587 C69.1727746,9.5424 68.305219,8.73249524 67.009981,8.73249524 C65.5872508,8.73249524 64.7544889,9.58862222 64.4885841,10.9765587 M72.4809651,12.0175746 C72.4809651,12.3644952 72.457854,12.7807492 72.4230603,13.0352254 L64.4766476,13.0352254 C64.8007111,14.654527 65.9341714,15.3603048 67.3569016,15.3603048 C68.3285841,15.3603048 69.3812825,14.9671619 70.1906794,14.2844952 L71.9603302,16.2278603 C70.6879492,17.3958603 69.0686476,17.9281778 67.1834413,17.9281778 C63.7482667,17.9281778 61.3655365,15.5916698 61.3655365,12.0637968 C61.3655365,8.53592381 63.6789333,6.13008254 67.0330921,6.13008254 C70.2602667,6.13008254 72.4695365,8.52449524 72.4809651,12.0175746" id="Fill-10"></path>
                            <path d="M81.8854095,6.37313016 L81.4341079,9.36868571 C80.9370921,9.14900317 80.2196317,9.01033651 79.6065524,9.01033651 C78.2071873,9.01033651 77.2469333,9.86620952 77.2469333,11.5317333 L77.2469333,17.6389079 L74.2282667,17.6389079 L74.2282667,6.43103492 L77.1547429,6.43103492 L77.1547429,7.65693968 C77.8600127,6.60424127 78.9358222,6.13008254 80.3123302,6.13008254 C80.9599492,6.13008254 81.4689016,6.22252698 81.8854095,6.37313016" id="Fill-12"></path>
                            <polygon id="Fill-14" points="93.051581 11.0807111 86.963454 11.0807111 86.963454 17.6389333 83.7362794 17.6389333 83.7362794 1.44566349 94.1030095 1.44566349 94.1030095 4.4183619 86.963454 4.4183619 86.963454 8.1080127 93.051581 8.1080127"></polygon>
                            <path d="M105.994794,12.8619683 C105.994794,16.4012698 103.496254,17.928127 100.69727,17.928127 C97.8863492,17.928127 95.3880635,16.4012698 95.3880635,12.8619683 L95.3880635,6.43098413 L98.4069841,6.43098413 L98.4069841,12.5958095 C98.4069841,14.3888254 99.3900952,15.1174603 100.69727,15.1174603 C101.992508,15.1174603 102.987302,14.3888254 102.987302,12.5958095 L102.987302,6.43098413 L105.994794,6.43098413 L105.994794,12.8619683 Z" id="Fill-16"></path>
                            <path d="M118.9504,10.5023492 L118.9504,17.6391111 L115.931479,17.6391111 L115.931479,11.4737778 C115.931479,9.85447619 115.121829,8.96380952 113.745321,8.96380952 C112.449829,8.96380952 111.374019,9.80850794 111.374019,11.4968889 L111.374019,17.6391111 L108.355098,17.6391111 L108.355098,6.43098413 L111.293257,6.43098413 L111.293257,7.74933333 C112.091225,6.55822222 113.317384,6.13003175 114.589765,6.13003175 C117.134273,6.13003175 118.9504,7.89993651 118.9504,10.5023492" id="Fill-18"></path>
                            <path d="M123.704863,12.0291302 C123.704863,13.7408762 124.826895,15.1173841 126.596546,15.1173841 C128.319975,15.1173841 129.487975,13.798781 129.487975,12.0291302 C129.487975,10.2594794 128.319975,8.94087619 126.596546,8.94087619 C124.826895,8.94087619 123.704863,10.3173841 123.704863,12.0291302 M129.337879,7.5991619 L129.337879,0.983034921 L132.345117,0.983034921 L132.345117,17.6390349 L129.39553,17.6390349 L129.39553,16.4011937 C128.666895,17.3035429 127.579657,17.9283048 126.041371,17.9283048 C122.953117,17.9283048 120.61661,15.3949714 120.61661,12.0291302 C120.61661,8.66328889 122.953117,6.12995556 126.041371,6.12995556 C127.545117,6.12995556 128.609244,6.72017778 129.337879,7.5991619" id="Fill-20"></path>
                            <path d="M137.227175,10.9765587 L142.189206,10.9765587 C141.911619,9.5424 141.044063,8.73249524 139.748571,8.73249524 C138.325841,8.73249524 137.493333,9.58862222 137.227175,10.9765587 M145.21981,12.0175746 C145.21981,12.3644952 145.196444,12.7807492 145.161905,13.0352254 L137.215492,13.0352254 C137.539302,14.654527 138.672762,15.3603048 140.095492,15.3603048 C141.067175,15.3603048 142.119873,14.9671619 142.929524,14.2844952 L144.699175,16.2278603 C143.426794,17.3958603 141.807492,17.9281778 139.922032,17.9281778 C136.486857,17.9281778 134.104127,15.5916698 134.104127,12.0637968 C134.104127,8.53592381 136.417524,6.13008254 139.771937,6.13008254 C142.998857,6.13008254 145.208127,8.52449524 145.21981,12.0175746" id="Fill-22"></path>
                            <path d="M154.624254,6.37313016 L154.173206,9.36868571 C153.675937,9.14900317 152.958476,9.01033651 152.345397,9.01033651 C150.946032,9.01033651 149.985778,9.86620952 149.985778,11.5317333 L149.985778,17.6389079 L146.967111,17.6389079 L146.967111,6.43103492 L149.893587,6.43103492 L149.893587,7.65693968 C150.598857,6.60424127 151.674667,6.13008254 153.051175,6.13008254 C153.698794,6.13008254 154.207746,6.22252698 154.624254,6.37313016" id="Fill-24"></path>
                        </g>
                        <g id="Group-28" transform="translate(0.000000, 0.089651)">
                            <path d="M15.3175873,7.30971429 C15.3175873,5.51974603 16.7735873,4.06349206 18.5635556,4.06349206 C20.3535238,4.06349206 21.8097778,5.51974603 21.8097778,7.30971429 C21.8097778,9.17231746 20.4589206,10.6034286 18.5975873,10.711873 C18.5467937,10.7149206 18.4868571,10.7212698 18.4363175,10.727873 C18.4200635,10.7301587 17.112381,10.8982857 15.3175873,10.6372063 L15.3175873,7.30971429 Z M24.864254,16.3248254 L23.0283175,17.1954286 C19.9578413,18.6516825 17.4199365,18.2707302 15.3130159,17.7333333 L15.3175873,14.7329524 C17.160381,14.9399365 18.5330794,14.808381 18.9069206,14.7641905 C22.8838095,14.495746 25.8732698,11.303619 25.8732698,7.30971429 C25.8732698,3.2792381 22.5940317,0 18.5635556,0 C14.5330794,0 11.2540952,3.2792381 11.2540952,7.30971429 L11.2540952,9.73434921 C8.84926984,9.30844444 5.4567619,9.14285714 1.86692063,10.6831746 L0,11.4844444 L1.60253968,15.2187937 L3.46971429,14.4172698 C6.2712381,13.2149841 8.85485714,13.3620317 11.2540952,13.8829206 L11.2510476,16.8487619 C9.40850794,16.6422857 8.03453968,16.7733333 7.66044444,16.8177778 C3.68330159,17.0854603 0.69384127,20.2778413 0.69384127,24.271746 C0.69384127,28.3022222 3.9728254,31.5814603 8.00330159,31.5814603 C12.0337778,31.5814603 15.3130159,28.3022222 15.3130159,24.271746 L15.3130159,23.5268571 C14.8121905,23.4265397 14.3812063,23.3254603 14.0634921,23.2452063 L13.8234921,23.1791746 C13.7094603,23.1481905 13.5979683,23.1194921 13.4867302,23.0907937 C13.4763175,23.087746 13.4697143,23.0857143 13.4697143,23.0857143 C12.6466032,22.8279365 11.9093333,22.6516825 11.2495238,22.536127 L11.2495238,24.271746 C11.2495238,26.0617143 9.79326984,27.5179683 8.00330159,27.5179683 C6.21333333,27.5179683 4.75733333,26.0617143 4.75733333,24.271746 C4.75733333,22.9069206 5.48419048,21.7765079 6.60393651,21.2256508 L6.60038095,21.2251429 C6.60038095,21.2251429 8.49650794,19.8255238 13.4697143,21.3848889 C13.4697143,21.3848889 13.4763175,21.3869206 13.4867302,21.3897143 C13.5979683,21.4184127 13.7094603,21.4473651 13.8234921,21.4783492 L14.0634921,21.544127 C15.271873,21.8491429 18.0949841,22.4596825 20.3146667,22.1592381 C22.0015238,21.9306667 23.7135238,21.3112381 24.9249524,20.7933968 L26.6052063,19.9964444 L24.864254,16.3248254 Z" id="Fill-26"></path>
                        </g>
                    </g>
                </g>
            </g>
        </g>
    </g>
</svg>