<?xml version="1.0" encoding="UTF-8"?>
<svg width="309px" height="271px" viewBox="0 0 309 271" version="1.1" xmlns="http://www.w3.org/2000/svg" xmlns:xlink="http://www.w3.org/1999/xlink">
    <!-- Generator: Sketch 56.3 (81716) - https://sketch.com -->
    <title>footer-shape</title>
    <desc>Created with Sketch.</desc>
    <g id="Page-1" stroke="none" stroke-width="1" fill="none" fill-rule="evenodd">
        <g id="Landing---Donors" transform="translate(-72.000000, -4944.000000)" fill="#824E6E">
            <g id="Group-13" transform="translate(40.000000, 4663.000000)">
                <g id="Fill-1">
                    <path d="M209.516711,365.712847 C209.516711,344.968766 226.390408,328.092126 247.134489,328.092126 C267.878571,328.092126 284.755211,344.968766 284.755211,365.712847 C284.755211,387.2987 269.100023,403.883958 247.528886,405.14073 C246.940234,405.176049 246.245625,405.24963 245.659917,405.326155 C245.471549,405.352644 230.316714,407.301081 209.516711,404.275412 L209.516711,365.712847 Z M320.153773,470.189671 L298.876962,480.279159 C263.292975,497.1558 233.880999,492.740913 209.463732,486.512979 L209.516711,451.741331 C230.87299,454.140086 246.781298,452.615479 251.113774,452.103352 C297.202248,448.992328 331.847337,411.99852 331.847337,365.712847 C331.847337,319.003345 293.843991,281 247.134489,281 C200.424987,281 162.424585,319.003345 162.424585,365.712847 L162.424585,393.81213 C134.554876,388.876287 95.2388381,386.957283 53.6358884,404.808141 L32,414.09412 L50.571957,457.371783 L72.2107887,448.082862 C104.677866,434.149479 134.619628,435.853625 162.424585,441.890247 L162.389266,476.261612 C141.03593,473.868744 125.112905,475.387465 120.777486,475.902535 C74.6860686,479.004729 40.0409804,516.00148 40.0409804,562.287153 C40.0409804,608.996655 78.0413825,647 124.750885,647 C171.460387,647 145.494966,599.907874 124.750885,599.907874 C104.006803,599.907874 87.133106,583.031234 87.133106,562.287153 C87.133106,546.470085 95.55671,533.369644 108.533534,526.985718 C108.492328,526.979831 130.466691,510.759537 188.101567,528.831141 C189.587912,529.219651 190.880002,529.555182 192.201525,529.91426 L194.982903,530.676563 C208.986924,534.211416 241.704178,541.287008 267.428252,537.805134 C286.977371,535.156202 306.817872,527.977596 320.857212,521.976293 L340.329806,512.74035 L320.153773,470.189671 Z" id="footer-shape"></path>
                </g>
            </g>
        </g>
    </g>
</svg>