<?xml version="1.0" encoding="UTF-8"?>
<svg width="42px" height="42px" viewBox="0 0 42 42" version="1.1" xmlns="http://www.w3.org/2000/svg" xmlns:xlink="http://www.w3.org/1999/xlink">
    <!-- Generator: Sketch 57.1 (83088) - https://sketch.com -->
    <title>heart-circle</title>
    <desc>Created with Sketch.</desc>
    <g id="Page-1" stroke="none" stroke-width="1" fill="none" fill-rule="evenodd">
        <g id="heart-circle" transform="translate(1.000000, 1.000000)" fill-rule="nonzero">
            <path d="M20,40.5 C31.3218374,40.5 40.5,31.3218374 40.5,20 C40.5,8.67816263 31.3218374,-0.5 20,-0.5 C8.67816263,-0.5 -0.5,8.67816263 -0.5,20 C-0.5,31.3218374 8.67816263,40.5 20,40.5 Z M20,39.5 C9.23044738,39.5 0.5,30.7695526 0.5,20 C0.5,9.23044738 9.23044738,0.5 20,0.5 C30.7695526,0.5 39.5,9.23044738 39.5,20 C39.5,30.7695526 30.7695526,39.5 20,39.5 Z" id="Oval-2" fill="#DCDADA"></path>
            <path d="M20,30.329933 C30.3891021,22.166035 29.9980837,19.2633504 29.9980837,16.9993803 C29.9980837,14.7354103 28.1241688,12 24.9987034,12 C21.8732381,12 20,15.3331458 20,15.3331458 C20,15.3331458 18.126788,12 15.0012966,12 C11.8758052,12 10.0019163,14.7354103 10.0019163,16.9993803 C10.0019163,19.2633504 9.6108979,22.166035 20,30.329933 Z" id="Shape" fill="#FF7466"></path>
        </g>
    </g>
</svg>