<?xml version="1.0" encoding="UTF-8"?>
<svg width="13px" height="15px" viewBox="0 0 13 15" version="1.1" xmlns="http://www.w3.org/2000/svg" xmlns:xlink="http://www.w3.org/1999/xlink">
    <!-- Generator: Sketch 57.1 (83088) - https://sketch.com -->
    <title>location-pin</title>
    <desc>Created with Sketch.</desc>
    <g id="Page-1" stroke="none" stroke-width="1" fill="none" fill-rule="evenodd">
        <g id="location-pin" fill="#FFFFFF" fill-rule="nonzero">
            <path d="M6.65685404,12.6568543 L10.656854,12.6568543 C11.7614235,12.6568543 12.656854,11.7614238 12.656854,10.6568543 L12.656854,6.6568543 C12.656854,3.34314586 9.9705625,0.656854301 6.65685404,0.656854301 C3.34314557,0.656854301 0.656854043,3.34314586 0.656854043,6.6568543 C0.656854043,9.97056282 3.34314554,12.6568543 6.65685404,12.6568543 Z M6.65685404,9.6568543 C4.99999979,9.6568543 3.65685404,8.31370856 3.65685404,6.6568543 C3.65685404,5.0000001 4.99999983,3.6568543 6.65685404,3.6568543 C8.31370825,3.6568543 9.65685404,5.00000011 9.65685404,6.6568543 L9.65685404,9.6568543 L6.65685404,9.6568543 Z" id="Oval" transform="translate(6.656854, 6.656854) rotate(45.000000) translate(-6.656854, -6.656854) "></path>
        </g>
    </g>
</svg>