<?xml version="1.0" encoding="UTF-8"?>
<svg width="73px" height="73px" viewBox="0 0 73 73" version="1.1" xmlns="http://www.w3.org/2000/svg" xmlns:xlink="http://www.w3.org/1999/xlink">
    <!-- Generator: Sketch 57.1 (83088) - https://sketch.com -->
    <title>map-location-pin</title>
    <desc>Created with Sketch.</desc>
    <g id="Page-1" stroke="none" stroke-width="1" fill="none" fill-rule="evenodd">
        <g id="Schools---Profile" transform="translate(-942.000000, -3516.000000)" stroke="#FFFFFF">
            <g id="Group-32" transform="translate(240.000000, 613.000000)">
                <g id="Group-7" transform="translate(0.000000, 2689.000000)">
                    <g id="map-location-pin" transform="translate(705.000000, 217.000000)">
                        <circle id="Oval-2" stroke-width="5" fill="#00676B" cx="33.5" cy="33.5" r="33.5"></circle>
                        <path d="M33.7279221,39.7279221 C35.4779221,39.7279221 35.4779221,39.7279221 37.2279221,39.7279221 C38.9779221,39.7279221 38.9779221,39.7279221 40.7279221,39.7279221 C40.7279221,37.9779221 40.7279221,37.9779221 40.7279221,36.2279221 C40.7279221,34.4779221 40.7279221,34.4779221 40.7279221,32.7279221 C40.7279221,28.8619288 37.5939153,25.7279221 33.7279221,25.7279221 C29.8619288,25.7279221 26.7279221,28.8619288 26.7279221,32.7279221 C26.7279221,36.5939153 29.8619288,39.7279221 33.7279221,39.7279221 Z" id="Oval" stroke-width="4" transform="translate(33.727922, 32.727922) rotate(45.000000) translate(-33.727922, -32.727922) "></path>
                    </g>
                </g>
            </g>
        </g>
    </g>
</svg>