<svg id="iconfinder_Acrobat_2529522" xmlns="http://www.w3.org/2000/svg" width="24" height="24" viewBox="0 0 24 24">
  <rect id="Rectangle" width="24" height="24" rx="6" fill="#e6110b"/>
  <path id="path" d="M1.421,15.31C.531,15.31,0,14.865,0,14.12c0-.414.312-1.882,4.325-3.394A34.486,34.486,0,0,0,6.624,5.4a9.125,9.125,0,0,1-.878-3.444C5.747.254,6.586,0,7.086,0A1.49,1.49,0,0,1,8.14.463a2.668,2.668,0,0,1,.569,2.013,11.776,11.776,0,0,1-.72,3.59,10.745,10.745,0,0,0,2.242,3l.007,0a19.594,19.594,0,0,1,2.6-.233c1.327,0,2.879.431,2.885,1.646,0,1.305-1.265,1.305-1.805,1.305A6.32,6.32,0,0,1,9.977,9.967a23.681,23.681,0,0,0-4.1,1.083C5.5,11.76,3.557,15.31,1.421,15.31Zm2.2-3.4C1.189,13,.862,13.879.821,14.044a.238.238,0,0,0,.013.184c.151.177.26.2.329.2.222,0,.54-.195.973-.6A10.932,10.932,0,0,0,3.625,11.911Zm9.112-2.229a13.179,13.179,0,0,0-1.679.108,4.654,4.654,0,0,0,2.476,1.025c.626,0,.675-.417.675-.544C14.208,10.066,13.9,9.681,12.737,9.681ZM7.61,7.142c-.149.415-.673,1.843-1.149,2.805.869-.262,1.8-.5,2.759-.7A13.65,13.65,0,0,1,7.61,7.142ZM7.028.824a.277.277,0,0,0-.252.151C6.433,1.539,6.7,3.151,7,4.116c.341-1.237.592-2.722.265-3.179A.252.252,0,0,0,7.028.824Z" transform="translate(4.138 4.138)" fill="#fff"/>
</svg>
