<?xml version="1.0" encoding="UTF-8"?>
<svg width="14px" height="17px" viewBox="0 0 14 17" version="1.1" xmlns="http://www.w3.org/2000/svg" xmlns:xlink="http://www.w3.org/1999/xlink">
    <!-- Generator: Sketch 57.1 (83088) - https://sketch.com -->
    <title>tf-small-icon</title>
    <desc>Created with Sketch.</desc>
    <g id="Page-1" stroke="none" stroke-width="1" fill="none" fill-rule="evenodd">
        <g id="Landing---Donors" transform="translate(-936.000000, -3680.000000)" fill="#5A2C59">
            <g id="Group-9" transform="translate(40.000000, 3193.000000)">
                <g id="Group-24">
                    <g id="Group-31" transform="translate(880.000000, 65.000000)">
                        <g id="Group-14" transform="translate(8.000000, 415.000000)">
                            <path d="M16.0603104,10.8464652 C16.0603104,9.90456099 16.8264763,9.13826152 17.7683805,9.13826152 C18.7102847,9.13826152 19.4765841,9.90456099 19.4765841,10.8464652 C19.4765841,11.8265908 18.7657458,12.5796598 17.7862884,12.6367246 C17.7595601,12.6383283 17.7280208,12.6416694 17.7014261,12.645144 C17.6928731,12.6463468 17.0047538,12.7348174 16.0603104,12.5974341 L16.0603104,10.8464652 Z M21.0838886,15.590332 L20.1177953,16.0484545 C18.5020714,16.814754 17.1665935,16.614292 16.0579049,16.3315069 L16.0603104,14.7526681 C17.030012,14.8615858 17.7523435,14.7923595 17.9490636,14.7691059 C20.0417534,14.627847 21.6148456,12.948109 21.6148456,10.8464652 C21.6148456,8.72557704 19.8892686,7 17.7683805,7 C15.6474923,7 13.9220489,8.72557704 13.9220489,10.8464652 L13.9220489,12.1223391 C12.656599,11.8982226 10.8714179,11.8110884 8.98239753,12.6216232 L8,13.0432616 L8.84327689,15.0083239 L9.82580805,14.5865519 C11.3000057,13.9538937 12.6595391,14.0312721 13.9220489,14.3053705 L13.9204452,15.8660341 C12.9508773,15.7573837 12.2278776,15.8263426 12.0310239,15.8497299 C9.93820042,15.9905878 8.36510815,17.6704595 8.36510815,19.7721033 C8.36510815,21.8929915 10.0905516,23.6185685 12.2114397,23.6185685 C14.3323278,23.6185685 16.0579049,21.8929915 16.0579049,19.7721033 L16.0579049,19.3801333 C15.7943642,19.3273449 15.5675748,19.2741557 15.4003895,19.231925 L15.2740984,19.1971783 C15.2140934,19.180874 15.1554249,19.1657725 15.09689,19.1506711 C15.0914107,19.1490674 15.087936,19.1479982 15.087936,19.1479982 C14.6548044,19.0123523 14.2668436,18.9196052 13.9196434,18.8587984 L13.9196434,19.7721033 C13.9196434,20.7140075 13.1533439,21.480307 12.2114397,21.480307 C11.2695355,21.480307 10.5033697,20.7140075 10.5033697,19.7721033 C10.5033697,19.0539147 10.8858512,18.4590771 11.4750759,18.169209 L11.4732049,18.1689418 C11.4732049,18.1689418 12.4709712,17.4324443 15.087936,18.2530022 C15.087936,18.2530022 15.0914107,18.2540713 15.09689,18.2555413 C15.1554249,18.2706428 15.2140934,18.2858779 15.2740984,18.3021822 L15.4003895,18.3367953 C16.036255,18.4972985 17.5218122,18.8185723 18.6898375,18.6604746 C19.5774833,18.5401974 20.4783596,18.2142462 21.1158289,17.9417515 L22,17.5223849 L21.0838886,15.590332 Z" id="tf-small-icon"></path>
                        </g>
                    </g>
                </g>
            </g>
        </g>
    </g>
</svg>