<svg id="iconfinder_social_visa_406088" xmlns="http://www.w3.org/2000/svg" width="42.437" height="13.65" viewBox="0 0 42.437 13.65">
  <path id="Path" d="M2.888,0,0,13.3H3.5L6.3,0Z" transform="translate(14.788 0.262)" fill="#3f093d"/>
  <path id="Path-2" data-name="Path" d="M12.6.087,9.012,9.1,7.525,1.4A1.575,1.575,0,0,0,5.95.087H.087L0,.438A15.588,15.588,0,0,1,3.412,1.575c.525.262.613.525.787,1.138L6.912,13.3h3.675L16.188,0H12.6Z" transform="translate(0 0.175)" fill="#3f093d"/>
  <path id="Shape" d="M3.587,13.3H0L5.162.962A1.531,1.531,0,0,1,6.65,0H9.625L12.25,13.3H9.1l-.437-2.012H4.288l-.7,2.012ZM7.262,3.587,5.425,8.575H8.312Z" transform="translate(30.188 0.262)" fill="#3f093d"/>
  <path id="Path-3" data-name="Path" d="M4.988,3.938c0-.437.438-.963,1.487-1.138a6.484,6.484,0,0,1,3.412.612L10.5.613A10.132,10.132,0,0,0,7.262,0C3.85,0,1.487,1.837,1.487,4.375c0,1.925,1.75,2.975,2.975,3.588,1.313.612,1.75,1.05,1.75,1.662,0,.875-1.05,1.313-2.1,1.313a6.53,6.53,0,0,1-3.5-.875L0,12.95a10.418,10.418,0,0,0,3.85.7c3.588,0,5.95-1.75,5.95-4.55C9.8,5.775,4.9,5.512,4.988,3.938Z" transform="translate(20.65)" fill="#3f093d"/>
</svg>
