<?xml version="1.0" encoding="UTF-8"?>
<svg width="16px" height="15px" viewBox="0 0 16 15" version="1.1" xmlns="http://www.w3.org/2000/svg" xmlns:xlink="http://www.w3.org/1999/xlink">
    <!-- Generator: Sketch 57.1 (83088) - https://sketch.com -->
    <title>donations</title>
    <desc>Created with Sketch.</desc>
    <g id="Page-1" stroke="none" stroke-width="1" fill="none" fill-rule="evenodd">
        <g id="Dashboard" transform="translate(-66.000000, -312.000000)" fill="#3f093d" fill-rule="nonzero">
            <g id="Group-8" transform="translate(27.000000, 80.000000)">
                <g id="Group-18" transform="translate(18.000000, 27.000000)">
                    <g id="Donotations---Off" transform="translate(0.000000, 186.000000)">
                        <g id="Group-8" transform="translate(14.000000, 11.000000)">
                            <path d="M8.82786655,9.98550814 C7.53983804,11.1602318 7.02106004,12.6731942 7.34303094,14.3766897 C7.51664135,15.2940096 7.96698981,16.0653481 8.72615042,16.936237 C9.37477756,17.6805558 9.95284788,18.1968493 11.2684424,19.275743 L11.2836605,19.288223 L11.4631773,19.4355309 C11.5936129,19.5426174 11.6981697,19.627698 11.931576,19.8170617 C13.0903699,20.7571972 13.5825432,21.1882863 14.1237874,21.7824665 C14.6238312,22.3326548 15.3717735,22.2885271 15.8770776,21.7793261 L16.8360459,20.8797262 C17.1380396,20.5962254 17.153031,20.1215883 16.8695302,19.8195947 C16.5860294,19.517601 16.1113924,19.5026096 15.8093987,19.7861104 L15.0115592,20.5350934 C14.4837933,19.9824844 13.9448747,19.5188853 12.8785244,18.6537497 C12.6454738,18.4646746 12.5424265,18.3808224 12.4151718,18.2763474 L12.2348349,18.1283664 L12.2196177,18.1158871 C10.9683289,17.0897294 10.4325277,16.6111878 9.85693407,15.9506771 C9.25699973,15.2624483 8.9319199,14.7056649 8.81690165,14.0979333 C8.59246771,12.9104899 8.93179159,11.9208869 9.83865839,11.093795 C11.1724356,9.87735108 13.0818785,9.98807994 14.297984,11.3496869 L14.3180284,11.3721635 C14.3687839,11.4288916 14.3687839,11.4288916 14.4173381,11.4835467 C14.6963667,11.7992896 15.1806746,11.8232672 15.4895265,11.5366297 C15.576387,11.4560168 15.8451854,11.1980116 15.8549515,11.1887679 C15.9663174,11.0833597 16.0514544,11.0071311 16.1334854,10.940505 C17.7224321,9.64808734 20.0712925,10.2680207 20.9342148,12.1340958 C21.4222123,13.1903831 21.3448098,14.1841492 20.7006793,15.185471 C20.2902464,15.823871 19.7507636,16.4120529 19.0450977,17.0167473 C18.7305677,17.2862722 18.6940838,17.7597424 18.9636088,18.0742725 C19.2331337,18.3888025 19.7066039,18.4252864 20.021134,18.1557614 C20.8297486,17.4628488 21.4652117,16.7700226 21.9623108,15.9968191 C22.8813908,14.5680794 23.0010835,13.0313526 22.2958058,11.5047551 C21.031187,8.77000845 17.5533239,7.85209799 15.187391,9.77650118 C15.1254913,9.82677637 15.0649269,9.87860645 15.0011131,9.93569203 C13.2225362,8.35584904 10.6349551,8.33739037 8.82786655,9.98550814 Z" id="donations"></path>
                        </g>
                    </g>
                </g>
            </g>
        </g>
    </g>
</svg>