<?xml version="1.0" encoding="UTF-8"?>
<svg width="16px" height="12px" viewBox="0 0 16 12" version="1.1" xmlns="http://www.w3.org/2000/svg" xmlns:xlink="http://www.w3.org/1999/xlink">
    <!-- Generator: Sketch 57.1 (83088) - https://sketch.com -->
    <title>envelope</title>
    <desc>Created with Sketch.</desc>
    <g id="Page-1" stroke="none" stroke-width="1" fill="none" fill-rule="evenodd">
        <g id="Account---Verification" transform="translate(-383.000000, -340.000000)" fill="#110F11" fill-rule="nonzero">
            <g id="Group-26" transform="translate(370.000000, 325.000000)">
                <g id="back-arrow-copy-5">
                    <g id="envelope" transform="translate(13.000000, 15.000000)">
                        <path d="M1,0 L15,0 C15.5522847,0 16,0.44771525 16,1 L16,11 C16,11.5522847 15.5522847,12 15,12 L1,12 C0.44771525,12 0,11.5522847 0,11 L0,1 C0,0.44771525 0.44771525,0 1,0 Z M2,2 L2,10 L14,10 L14,2 L2,2 Z" id="Rectangle"></path>
                        <path d="M2.00310991,3.41678429 L5.17157288,6.61874542 C6.73367004,8.18084259 9.26632996,8.18084259 10.8284271,6.61874542 L14.0036926,3.40846252 L14.0065765,2.00027466 L12.5945282,2.0009613 L9.41421356,5.20453186 C8.63316498,5.98558044 7.36683502,5.98558044 6.58578644,5.20453186 L3.41732347,2.00257073 C3.4190979,1.99371338 2.01488957,1.99127664 2.00310991,2.00257073 C1.99133025,2.01386482 1.99864197,3.39752197 2.00310991,3.41678429 Z" id="Path-5"></path>
                    </g>
                </g>
            </g>
        </g>
    </g>
</svg>