<?xml version="1.0" encoding="UTF-8"?>
<svg width="148px" height="176px" viewBox="0 0 148 176" version="1.1" xmlns="http://www.w3.org/2000/svg" xmlns:xlink="http://www.w3.org/1999/xlink">
    <!-- Generator: Sketch 57.1 (83088) - https://sketch.com -->
    <title>facebook-watermark</title>
    <desc>Created with Sketch.</desc>
    <g id="Page-1" stroke="none" stroke-width="1" fill="none" fill-rule="evenodd" opacity="0.203520275">
        <g id="Promote" transform="translate(-323.000000, -618.000000)" fill="#FFFFFF">
            <g id="Group-26" transform="translate(294.000000, 238.000000)">
                <g id="Combined-Shape" transform="translate(29.000000, 0.000000)">
                    <path d="M59.5,380 C10.6227637,380 -29,419.639686 -29,468.537798 C-29,512.729572 3.3631709,549.357936 45.671875,556 L45.671875,494.130755 L23.2011719,494.130755 L23.2011719,468.537798 L45.671875,468.537798 L45.671875,449.031814 C45.671875,426.842029 58.8843027,414.585077 79.0996387,414.585077 C88.7822646,414.585077 98.9101562,416.314331 98.9101562,416.314331 L98.9101562,438.10293 L87.7505137,438.10293 C76.7566357,438.10293 73.328125,444.927776 73.328125,451.929525 L73.328125,468.537798 L97.8730469,468.537798 L93.9493164,494.130755 L73.328125,494.130755 L73.328125,556 C115.636829,549.357936 148,512.729572 148,468.537798 C148,419.639686 108.377236,380 59.5,380 Z" id="facebook-watermark"></path>
                </g>
            </g>
        </g>
    </g>
</svg>