<svg xmlns="http://www.w3.org/2000/svg" width="23" height="18" viewBox="0 0 23 18">
  <g id="Group_2" data-name="Group 2" transform="translate(-647 -531)">
    <g id="Group_1" data-name="Group 1">
      <g id="Rectangle_1" data-name="Rectangle 1" transform="translate(647 531)" fill="none" stroke="#00676c" stroke-width="2.2">
        <rect width="18" height="18" rx="5.5" stroke="none"/>
        <rect x="1.1" y="1.1" width="15.8" height="15.8" rx="4.4" fill="none"/>
      </g>
      <g id="Polygon_2" data-name="Polygon 2" transform="translate(655 549) rotate(-90)" fill="none">
        <path d="M8.829.286a.2.2,0,0,1,.343,0L17.818,14.7a.2.2,0,0,1-.171.3H.353a.2.2,0,0,1-.171-.3Z" stroke="none"/>
        <path d="M 8.999997138977051 4.276026725769043 L 3.885613441467285 12.8000020980835 L 14.1143856048584 12.8000020980835 L 8.999997138977051 4.276026725769043 M 9 0.1887292861938477 C 9.066329956054688 0.1887292861938477 9.132659912109375 0.2210969924926758 9.171500205993652 0.2858314514160156 L 17.81826019287109 14.69710159301758 C 17.89823913574219 14.83040142059326 17.80221939086914 15.00000190734863 17.64675903320313 15.00000190734863 L 0.3532390594482422 15.00000190734863 C 0.1977806091308594 15.00000190734863 0.1017608642578125 14.83040142059326 0.1817398071289063 14.69710159301758 L 8.828499794006348 0.2858314514160156 C 8.867340087890625 0.2210969924926758 8.933670043945313 0.1887292861938477 9 0.1887292861938477 Z" stroke="none" fill="#00676c"/>
      </g>
    </g>
  </g>
</svg>
