<?xml version="1.0" encoding="UTF-8"?>
<svg width="16px" height="12px" viewBox="0 0 16 12" version="1.1" xmlns="http://www.w3.org/2000/svg" xmlns:xlink="http://www.w3.org/1999/xlink">
    <!-- Generator: Sketch 57.1 (83088) - https://sketch.com -->
    <title>mail-icon</title>
    <desc>Created with Sketch.</desc>
    <g id="Page-1" stroke="none" stroke-width="1" fill="none" fill-rule="evenodd">
        <g id="Account---Verification" transform="translate(-383.000000, -340.000000)" fill="#110F11" fill-rule="nonzero">
            <g id="Group-26" transform="translate(370.000000, 325.000000)">
                <g id="back-arrow-copy-5">
                    <g id="mail-icon" transform="translate(13.000000, 15.000000)">
                        <path d="M1,0 L15,0 C15.5522847,0 16,0.44771525 16,1 L16,11 C16,11.5522847 15.5522847,12 15,12 L1,12 C0.44771525,12 0,11.5522847 0,11 L0,1 C0,0.44771525 0.44771525,0 1,0 Z M2,2 L2,10 L14,10 L14,2 L2,2 Z" id="Rectangle"></path>
                        <path d="M0.347092438,1.79426498 L5.17157288,6.61874542 C6.73367004,8.18084259 9.26632996,8.18084259 10.8284271,6.61874542 L15.6529076,1.79426498 C16.0434319,1.40374069 16.0434319,0.770575714 15.6529076,0.380051422 C15.2623833,-0.0104728698 14.6292183,-0.0104728698 14.238694,0.380051422 L9.41421356,5.20453186 C8.63316498,5.98558044 7.36683502,5.98558044 6.58578644,5.20453186 L1.761306,0.380051422 C1.37078171,-0.0104728698 0.737616729,-0.0104728698 0.347092438,0.380051422 C-0.0434318542,0.770575714 -0.0434318542,1.40374069 0.347092438,1.79426498 Z" id="Path-5"></path>
                    </g>
                </g>
            </g>
        </g>
    </g>
</svg>