<?xml version="1.0" encoding="UTF-8"?>
<svg width="14px" height="16px" viewBox="0 0 14 16" version="1.1" xmlns="http://www.w3.org/2000/svg" xmlns:xlink="http://www.w3.org/1999/xlink">
    <!-- Generator: Sketch 57.1 (83088) - https://sketch.com -->
    <title>notifications</title>
    <desc>Created with Sketch.</desc>
    <g id="Page-1" stroke="none" stroke-width="1" fill="none" fill-rule="evenodd">
        <g id="Dashboard" transform="translate(-67.000000, -250.000000)" fill="#3f093d">
            <g id="Group-8" transform="translate(27.000000, 80.000000)">
                <g id="Group-18" transform="translate(18.000000, 27.000000)">
                    <g id="Notifications---off" transform="translate(0.000000, 124.000000)">
                        <g id="Group-12" transform="translate(14.000000, 11.000000)">
                            <g id="Group-10" transform="translate(9.000000, 8.000000)">
                                <g id="notifications">
                                    <path d="M6,0 C8.76142375,0 11,2.23857625 11,5 L11,11 L1,11 L1,5 C1,2.23857625 3.23857625,0 6,0 Z M9.5,9.5 L9.5,5 C9.5,3.06700338 7.93299662,1.5 6,1.5 C4.06700338,1.5 2.5,3.06700338 2.5,5 L2.5,9.5 L9.5,9.5 Z" id="Rectangle" fill-rule="nonzero"></path>
                                    <path d="M0,11 L12,11 C12.4142136,11 12.75,10.6642136 12.75,10.25 C12.75,9.83578644 12.4142136,9.5 12,9.5 L0,9.5 C-0.414213562,9.5 -0.75,9.83578644 -0.75,10.25 C-0.75,10.6642136 -0.414213562,11 0,11 Z" id="Line-3" fill-rule="nonzero"></path>
                                    <circle id="Oval" cx="3.5" cy="14" r="1.5"></circle>
                                </g>
                            </g>
                        </g>
                    </g>
                </g>
            </g>
        </g>
    </g>
</svg>