<?xml version="1.0" encoding="UTF-8"?>
<svg width="12px" height="16px" viewBox="0 0 12 16" version="1.1" xmlns="http://www.w3.org/2000/svg" xmlns:xlink="http://www.w3.org/1999/xlink">
    <!-- Generator: Sketch 57.1 (83088) - https://sketch.com -->
    <title>promote</title>
    <desc>Created with Sketch.</desc>
    <g id="Page-1" stroke="none" stroke-width="1" fill="none" fill-rule="evenodd">
        <g id="Dashboard" transform="translate(-68.000000, -372.000000)" fill="#3f093d" fill-rule="nonzero">
            <g id="Group-8" transform="translate(27.000000, 80.000000)">
                <g id="Group-18" transform="translate(18.000000, 27.000000)">
                    <g id="Promote---off" transform="translate(0.000000, 248.000000)">
                        <g id="Group-8" transform="translate(14.000000, 11.000000)">
                            <g id="promote" transform="translate(9.529283, 6.322630)">
                                <path d="M5.69000034,2.06062031 L9.6726087,6.04262996 L9.6726087,8.37949277 L6.22025069,4.92765377 C5.92733532,4.63478243 5.45246131,4.63481828 5.15959017,4.92773385 L0.469629693,9.61840579 C0.329002014,9.7590548 0.25,9.949803 0.25,10.1486957 L0.25,14.8799209 C0.25,15.5480996 1.05785644,15.8827247 1.53033009,15.410251 L5.68996047,11.2506206 L9.89227861,15.4529388 C10.1851718,15.745832 10.6600456,15.745832 10.9529388,15.4529388 C11.245832,15.1600456 11.245832,14.6851718 10.9529388,14.3922786 L6.22029056,9.65963039 C5.92739734,9.36673717 5.45252361,9.36673717 5.15963039,9.65963039 L1.75,13.0692608 L1.75,10.4593225 L5.69004056,6.51868424 L9.89231848,10.7203304 C10.3648084,11.1927493 11.1726087,10.8581119 11.1726087,10.1899605 L11.1726087,5.73193676 C11.1726087,5.53300486 11.0935756,5.34222233 10.9528989,5.20156681 L6.22025069,0.46963005 C5.92735103,0.176774416 5.45250804,0.176792264 5.15963039,0.469669914 L0.469669914,5.15963039 C0.176776695,5.45252361 0.176776695,5.92739734 0.469669914,6.22029056 C0.762563133,6.51318378 1.23743687,6.51318378 1.53033009,6.22029056 L5.69000034,2.06062031 Z" id="Stroke-6"></path>
                            </g>
                        </g>
                    </g>
                </g>
            </g>
        </g>
    </g>
</svg>