<svg xmlns="http://www.w3.org/2000/svg" width="20" height="19.998" viewBox="0 0 20 19.998">
  <path id="Users.svg" d="M59.094,668.273v.437h1.3v-.437a2.263,2.263,0,1,1,4.512,0v.437h1.3v-.437a3.99,3.99,0,0,0-1.042-2.722,3.617,3.617,0,0,0-.77-.635,2.55,2.55,0,0,0,.482-1.5,2.234,2.234,0,1,0-4.454,0,2.55,2.55,0,0,0,.482,1.5,3.617,3.617,0,0,0-.77.635,3.99,3.99,0,0,0-1.04,2.722Zm3.557-5.854a1,1,0,1,1-.926,1A.967.967,0,0,1,62.651,662.419Zm-10.863,5.854v.437h1.3v-.437a2.263,2.263,0,1,1,4.512,0v.437h1.3v-.437a3.99,3.99,0,0,0-1.042-2.722,3.617,3.617,0,0,0-.77-.635,2.549,2.549,0,0,0,.482-1.5,2.234,2.234,0,1,0-4.454,0,2.551,2.551,0,0,0,.482,1.5,3.616,3.616,0,0,0-.77.635,3.989,3.989,0,0,0-1.04,2.722Zm3.557-5.854a1,1,0,1,1-.926,1A.967.967,0,0,1,55.345,662.419Zm12.023,7.92a1.694,1.694,0,0,0-2.418.154l-1.722,1.945a1.773,1.773,0,0,0-1.678-1.3H58.478a1.127,1.127,0,0,1-.716-.422,3.955,3.955,0,0,0-5.4.013l-1.129,1.046a1.676,1.676,0,0,0-1.611-.021l-1.3.681a.633.633,0,0,0-.262.828l3.514,7.4a.573.573,0,0,0,.786.276l1.3-.682a1.864,1.864,0,0,0,.971-1.719H61.55a4.053,4.053,0,0,0,3.28-1.726l2.812-3.946a1.912,1.912,0,0,0-.274-2.527ZM53.134,679.15l-.771.406-2.991-6.294.772-.406a.572.572,0,0,1,.786.275l2.467,5.193a.631.631,0,0,1-.263.826ZM66.7,672.122l-2.812,3.946A2.9,2.9,0,0,1,61.55,677.3H54.22l-2.195-4.62,1.109-1.027a2.825,2.825,0,0,1,3.87,0,2.026,2.026,0,0,0,1.475.716H61.55a.617.617,0,0,1,0,1.232H58.558a.617.617,0,0,0,0,1.233h3.384a1.72,1.72,0,0,0,1.286-.589l2.579-2.913a.566.566,0,0,1,.819-.04.638.638,0,0,1,.074.83Z" transform="translate(-47.997 -661.005)" fill="#fff" fill-rule="evenodd"/>
</svg>
