<?xml version="1.0" encoding="UTF-8"?>
<svg width="18px" height="17px" viewBox="0 0 18 17" version="1.1" xmlns="http://www.w3.org/2000/svg" xmlns:xlink="http://www.w3.org/1999/xlink">
    <!-- Generator: Sketch 57.1 (83088) - https://sketch.com -->
    <title>search</title>
    <desc>Created with Sketch.</desc>
    <g id="Page-1" stroke="none" stroke-width="1" fill="none" fill-rule="evenodd">
        <g id="Inbox" transform="translate(-1373.000000, -32.000000)" fill="#3f093d" fill-rule="nonzero">
            <g id="Group-5">
                <g id="Group-3">
                    <g id="Group-19" transform="translate(1358.000000, 13.000000)">
                        <g id="Group" transform="translate(0.000000, 4.000000)">
                            <g id="Group-2">
                                <g id="search" transform="translate(16.000000, 16.000000)">
                                    <path d="M6.06958474,13.1391695 C9.97400857,13.1391695 13.1391695,9.97400857 13.1391695,6.06958474 C13.1391695,2.1651609 9.97400857,-1 6.06958474,-1 C2.1651609,-1 -1,2.1651609 -1,6.06958474 C-1,9.97400857 2.1651609,13.1391695 6.06958474,13.1391695 Z M6.06958474,11.1391695 C3.2697304,11.1391695 1,8.86943907 1,6.06958474 C1,3.2697304 3.2697304,1 6.06958474,1 C8.86943907,1 11.1391695,3.2697304 11.1391695,6.06958474 C11.1391695,8.86943907 8.86943907,11.1391695 6.06958474,11.1391695 Z" id="Oval-Copy"></path>
                                    <path d="M10.1930055,11.0146264 L14.6834206,15.5050416 C15.0739449,15.8955658 15.7071099,15.8955658 16.0976341,15.5050416 C16.4881584,15.1145173 16.4881584,14.4813523 16.0976341,14.090828 L11.607219,9.60041286 C11.2166947,9.20988857 10.5835297,9.20988857 10.1930055,9.60041286 C9.80248116,9.99093715 9.80248116,10.6241021 10.1930055,11.0146264 Z" id="Line-Copy"></path>
                                </g>
                            </g>
                        </g>
                    </g>
                </g>
            </g>
        </g>
    </g>
</svg>