<?xml version="1.0" encoding="UTF-8"?>
<svg width="16px" height="13px" viewBox="0 0 16 13" version="1.1" xmlns="http://www.w3.org/2000/svg" xmlns:xlink="http://www.w3.org/1999/xlink">
    <!-- Generator: Sketch 57.1 (83088) - https://sketch.com -->
    <title>twitter-bird</title>
    <desc>Created with Sketch.</desc>
    <g id="Page-1" stroke="none" stroke-width="1" fill="none" fill-rule="evenodd">
        <g id="Account---Verification" transform="translate(-383.000000, -632.000000)" fill="#C8C8C8" fill-rule="nonzero">
            <g id="Group-26-Copy-2" transform="translate(371.000000, 616.000000)">
                <g id="back-arrow-copy-4" transform="translate(0.000000, 2.000000)">
                    <path d="M28,15.5391673 C27.4118101,15.8006212 26.7787995,15.9769807 26.1146093,16.055904 C26.7927654,15.6499198 27.3127499,15.0068408 27.5579644,14.2396931 C26.9236547,14.6161216 26.2214644,14.8892678 25.4734791,15.0367213 C24.874896,14.3988389 24.0216796,14 23.0775227,14 C21.2648844,14 19.7952216,15.4696628 19.7952216,17.2826259 C19.7952216,17.5395327 19.8241276,17.7899438 19.8803159,18.0306112 C17.152102,17.8935509 14.7330857,16.5869314 13.1140207,14.6008566 C12.8314557,15.0854394 12.6697115,15.6492702 12.6697115,16.251426 C12.6697115,17.3901305 13.2491322,18.3950226 14.1299555,18.9835373 C13.5921077,18.9663236 13.0857642,18.8185454 12.643079,18.5726813 C12.6427542,18.5863224 12.6427542,18.6002882 12.6427542,18.6142541 C12.6427542,20.204413 13.7743134,21.5308447 15.2761302,21.8328969 C15.0007105,21.907598 14.7106754,21.9478716 14.4112214,21.9478716 C14.19946,21.9478716 13.9938696,21.92741 13.7934758,21.8887603 C14.2114772,23.1927816 15.4235836,24.1421351 16.8597934,24.1684428 C15.7363539,25.0489414 14.3212553,25.5737978 12.7830623,25.5737978 C12.5183606,25.5737978 12.2569068,25.558208 12,25.527678 C13.4530987,26.4594929 15.1783692,27.0025374 17.0319307,27.0025374 C23.0700526,27.0025374 26.3715161,22.000812 26.3715161,17.6629519 C26.3715161,17.520695 26.3685931,17.378763 26.3624221,17.2378052 C27.0035524,16.7759576 27.5602379,16.1975113 28,15.5391673 Z" id="twitter-bird"></path>
                </g>
            </g>
        </g>
    </g>
</svg>