<?xml version="1.0" encoding="UTF-8"?>
<svg width="16px" height="13px" viewBox="0 0 16 13" version="1.1" xmlns="http://www.w3.org/2000/svg" xmlns:xlink="http://www.w3.org/1999/xlink">
    <!-- Generator: Sketch 57.1 (83088) - https://sketch.com -->
    <title>users</title>
    <desc>Created with Sketch.</desc>
    <g id="Page-1" stroke="none" stroke-width="1" fill="none" fill-rule="evenodd">
        <g id="Dashboard" transform="translate(-66.000000, -437.000000)" fill="#3f093d" fill-rule="nonzero">
            <g id="Group-8" transform="translate(27.000000, 80.000000)">
                <g id="Group-18" transform="translate(18.000000, 27.000000)">
                    <g id="Follow---off" transform="translate(0.000000, 310.000000)">
                        <g id="Group-8" transform="translate(14.000000, 11.000000)">
                            <g id="Group-3" transform="translate(0.000000, 0.414848)">
                                <g id="Group-32" transform="translate(7.000000, 8.585152)">
                                    <g id="users">
                                        <path d="M7.35,3.1 C7.35,1.5258973 6.0741027,0.25 4.5,0.25 C2.92622782,0.25 1.65,1.52603238 1.65,3.1 C1.65,4.67363707 2.92636293,5.95 4.5,5.95 C6.07396762,5.95 7.35,4.67377218 7.35,3.1 Z M5.85,3.1 C5.85,3.84539647 5.24548906,4.45 4.5,4.45 C3.75479006,4.45 3.15,3.84520994 3.15,3.1 C3.15,2.35451094 3.75460353,1.75 4.5,1.75 C5.24567557,1.75 5.85,2.35432443 5.85,3.1 Z" id="Stroke-8"></path>
                                        <path d="M1.7297201,11.9732298 C2.21027523,9.94892056 3.10782539,9.05 4.49466423,9.05 C5.88237045,9.05 6.78382996,9.95008732 7.27078259,11.9753339 C7.36761682,12.3780695 7.77259822,12.6260516 8.17533388,12.5292174 C8.57806953,12.4323832 8.82605164,12.0274018 8.72921741,11.6246661 C8.0941113,8.98324601 6.65868029,7.55 4.49466423,7.55 C2.32978081,7.55 0.897554805,8.98441277 0.270279898,11.6267702 C0.174607707,12.0297835 0.423756891,12.4340479 0.826770175,12.5297201 C1.22978346,12.6253923 1.63404791,12.3762431 1.7297201,11.9732298 Z" id="Path-4"></path>
                                        <path d="M14.35,3.1 C14.35,1.5258973 13.0741027,0.25 11.5,0.25 C9.92622782,0.25 8.65,1.52603238 8.65,3.1 C8.65,4.67363707 9.92636293,5.95 11.5,5.95 C13.0739676,5.95 14.35,4.67377218 14.35,3.1 Z M12.85,3.1 C12.85,3.84539647 12.2454891,4.45 11.5,4.45 C10.7547901,4.45 10.15,3.84520994 10.15,3.1 C10.15,2.35451094 10.7546035,1.75 11.5,1.75 C12.2456756,1.75 12.85,2.35432443 12.85,3.1 Z" id="Stroke-8"></path>
                                        <path d="M8.7297201,11.9732298 C9.21027523,9.94892056 10.1078254,9.05 11.4946642,9.05 C12.8823705,9.05 13.78383,9.95008732 14.2707826,11.9753339 C14.3676168,12.3780695 14.7725982,12.6260516 15.1753339,12.5292174 C15.5780695,12.4323832 15.8260516,12.0274018 15.7292174,11.6246661 C15.0941113,8.98324601 13.6586803,7.55 11.4946642,7.55 C9.32978081,7.55 7.89755481,8.98441277 7.2702799,11.6267702 C7.17460771,12.0297835 7.42375689,12.4340479 7.82677018,12.5297201 C8.22978346,12.6253923 8.63404791,12.3762431 8.7297201,11.9732298 Z" id="Path-4"></path>
                                    </g>
                                </g>
                            </g>
                        </g>
                    </g>
                </g>
            </g>
        </g>
    </g>
</svg>