<svg width="26" height="30" viewBox="0 0 26 30" fill="none" xmlns="http://www.w3.org/2000/svg">
<path d="M25.5898 28.0048L24.063 8.12571C24.027 7.65066 23.6257 7.2832 23.1433 7.2832H2.46208C1.9796 7.2832 1.5783 7.65066 1.54232 8.12662L0.00262414 28.1863C-0.0167489 28.4388 0.0718135 28.6887 0.246171 28.8747C0.420528 29.0607 0.66592 29.1665 0.922382 29.1665H24.6839C24.6894 29.1665 24.6959 29.1665 24.7023 29.1665C25.2116 29.1665 25.6248 28.758 25.6248 28.2537C25.6248 28.168 25.6129 28.0841 25.5898 28.0048ZM1.91686 27.3429L3.31726 9.10681H22.2881L23.6885 27.3429H1.91686Z" fill="white"/>
<path d="M12.8031 0C8.73381 0 5.42285 3.27337 5.42285 7.29625V10.9307C5.42285 11.434 5.83615 11.8425 6.34538 11.8425C6.85462 11.8425 7.26791 11.434 7.26791 10.9307V7.29625C7.26791 4.27818 9.75044 1.82361 12.8031 1.82361C15.8557 1.82361 18.3383 4.27818 18.3383 7.29625V10.9307C18.3383 11.434 18.7516 11.8425 19.2608 11.8425C19.77 11.8425 20.1833 11.434 20.1833 10.9307V7.29625C20.1833 3.27337 16.8724 0 12.8031 0Z" fill="white"/>
</svg>