<svg width="23" height="20" viewBox="0 0 23 20" fill="none" xmlns="http://www.w3.org/2000/svg">
<path d="M18.4055 13.2036C19.4371 12.3197 20.379 11.3445 21.1195 10.1928C22.2904 8.37264 22.4546 6.46381 21.5474 4.50024C19.986 1.12371 15.6227 -0.194727 12.5613 2.29538C12.208 2.58229 11.8905 2.91231 11.5331 3.244C11.47 3.17268 11.4095 3.10552 11.349 3.03752C9.10349 0.523367 5.50058 0.299481 3.01213 2.56902C1.37196 4.06491 0.704447 5.94721 1.12071 8.14958C1.36615 9.44646 2.09834 10.5029 2.94911 11.4789C4.14068 12.8462 5.55116 13.9748 6.94506 15.1199C8.36715 16.2874 9.83236 17.406 11.0787 18.7742C11.3763 19.1018 11.7619 19.0595 12.0845 18.7344L13.5605 17.3488" stroke="#848384" stroke-width="1.5" stroke-linecap="round" stroke-linejoin="round"/>
</svg>