<svg xmlns="http://www.w3.org/2000/svg" width="101.092" height="120" viewBox="0 0 101.092 120">
  <path id="Fill_26" data-name="Fill 26" d="M30.41,120A27.805,27.805,0,0,1,2.636,92.226,28.074,28.074,0,0,1,29.108,63.9a52.674,52.674,0,0,1,6.019-.312,68.712,68.712,0,0,1,7.624.43l.012-11.27a58.721,58.721,0,0,0-12.508-1.472,42.454,42.454,0,0,0-17.071,3.5L6.089,57.827,0,43.637l7.094-3.045a58.937,58.937,0,0,1,23.381-4.722,70.74,70.74,0,0,1,12.288,1.116V27.775a27.774,27.774,0,1,1,55.548,0A28.078,28.078,0,0,1,71.841,56.1a53.23,53.23,0,0,1-6.02.311,68.512,68.512,0,0,1-7.618-.43l-.017,11.4a51.261,51.261,0,0,0,12.7,1.823A38.05,38.05,0,0,0,87.5,65.337l6.976-3.307,6.615,13.951-6.385,3.028A71.367,71.367,0,0,1,77.189,84.2a37.307,37.307,0,0,1-4.961.307,82.275,82.275,0,0,1-18.791-2.645l-.912-.25c-.441-.12-.874-.232-1.28-.337l-.064-.018a54.408,54.408,0,0,0-16-2.8c-7.051,0-10.073,2.171-10.1,2.193l.014,0a12.568,12.568,0,0,0-7.017,11.575,12.334,12.334,0,1,0,24.668,0v-6.6a67.338,67.338,0,0,1,8.437,2.088l.064.02.043.011c.4.1.819.211,1.237.325l.912.251c1.049.264,2.725.664,4.748,1.07v2.83A27.806,27.806,0,0,1,30.41,120ZM70.536,15.44A12.348,12.348,0,0,0,58.2,27.775V40.418a53.081,53.081,0,0,0,7.611.555,36.006,36.006,0,0,0,4.239-.21c.216-.028.44-.051.613-.061a12.663,12.663,0,0,0,12.2-12.927A12.348,12.348,0,0,0,70.536,15.44Z" transform="translate(0 0)" fill="#fff"/>
</svg>
