<svg xmlns="http://www.w3.org/2000/svg" width="160" height="160" viewBox="0 0 160 160">
  <g id="Group_1" data-name="Group 1" transform="translate(-100 -80)">
    <rect id="Rectangle_Copy_3" data-name="Rectangle Copy 3" width="160" height="160" rx="39" transform="translate(100 80)" fill="#00676b"/>
    <path id="Fill_26" data-name="Fill 26" d="M20.273,80A18.537,18.537,0,0,1,1.758,61.484,18.717,18.717,0,0,1,19.4,42.6a35.246,35.246,0,0,1,4.015-.208,45.811,45.811,0,0,1,5.08.286l.008-7.512a39.145,39.145,0,0,0-8.338-.981A28.3,28.3,0,0,0,8.789,36.521l-4.73,2.03L0,29.092l4.729-2.03a39.285,39.285,0,0,1,15.587-3.148,47.15,47.15,0,0,1,8.192.744V18.517a18.516,18.516,0,1,1,37.032,0A18.718,18.718,0,0,1,47.894,37.4a35.173,35.173,0,0,1-4.01.208A45.667,45.667,0,0,1,38.8,37.32l-.012,7.6a34.162,34.162,0,0,0,8.468,1.216,25.365,25.365,0,0,0,11.076-2.578l4.651-2.205,4.41,9.3-4.256,2.019a47.643,47.643,0,0,1-11.679,3.46,24.853,24.853,0,0,1-3.308.205,54.9,54.9,0,0,1-12.526-1.763l-.608-.167c-.3-.081-.585-.156-.852-.225l-.043-.012A36.274,36.274,0,0,0,23.455,52.3c-4.7,0-6.716,1.448-6.736,1.462l.009,0a8.377,8.377,0,0,0-4.677,7.716,8.223,8.223,0,1,0,16.446,0v-4.4a44.764,44.764,0,0,1,5.624,1.392l.043.013.046.012c.264.068.535.138.806.212l.608.167c.689.174,1.8.439,3.165.713v1.887A18.538,18.538,0,0,1,20.273,80ZM47.024,10.293A8.232,8.232,0,0,0,38.8,18.517v8.428a35.364,35.364,0,0,0,5.074.37,23.935,23.935,0,0,0,2.826-.14c.144-.019.293-.034.409-.04a8.443,8.443,0,0,0,8.137-8.618A8.233,8.233,0,0,0,47.024,10.293Z" transform="translate(146 120)" fill="#fff"/>
  </g>
</svg>
