<svg id="Group_2" data-name="Group 2" xmlns="http://www.w3.org/2000/svg" width="406.824" height="59" viewBox="0 0 406.824 59">
  <rect id="Rectangle" width="50" height="59" fill="#f6c4c2"/>
  <rect id="Rectangle_Copy" data-name="Rectangle Copy" width="50" height="59" transform="translate(214)" fill="#f6c4c2"/>
  <g id="Group" transform="translate(7 7)">
    <path id="Fill_1" data-name="Fill 1" d="M34.387,7.825H21.376V41.973H13.011V7.825H0V0H34.387Z" transform="translate(0 1.229)" fill="#110f11"/>
    <path id="Fill_2" data-name="Fill 2" d="M15.08,30.58A14.973,14.973,0,0,1,4.2,26.409,15.175,15.175,0,0,1,0,15.38,15.687,15.687,0,0,1,4.085,4.261,13.354,13.354,0,0,1,8.727,1.117,15.721,15.721,0,0,1,14.691,0,13.461,13.461,0,0,1,24.876,4.235,15.958,15.958,0,0,1,28.812,15.26a22.486,22.486,0,0,1-.15,2.637H8.065c.777,3.886,3.428,6.027,7.465,6.027a11.794,11.794,0,0,0,7.345-2.789l4.587,5.037C24.277,29.1,20.111,30.58,15.08,30.58ZM14.63,6.746c-3.546,0-5.806,2.011-6.535,5.817H20.957C20.23,8.812,17.984,6.746,14.63,6.746Z" transform="translate(28.907 13.371)" fill="#110f11"/>
    <path id="Fill_4" data-name="Fill 4" d="M14.061,30.581C6.045,30.581,0,24.007,0,15.29S6.045,0,14.061,0a10.649,10.649,0,0,1,8.694,3.988V.78H30.4V29.831H22.755V26.623A10.627,10.627,0,0,1,14.061,30.581Zm1.44-23.3c-4.344,0-7.5,3.366-7.5,8s3.153,8,7.5,8c4.413,0,7.494-3.292,7.494-8S19.913,7.286,15.5,7.286Z" transform="translate(60.449 13.371)" fill="#110f11"/>
    <path id="Fill_6" data-name="Fill 6" d="M27.1,5.487l-5.637,4.707A8.053,8.053,0,0,0,15.26,7.285c-4.048,0-7.285,3.178-7.285,8.005,0,4.857,3.208,8,7.256,8a8.493,8.493,0,0,0,6.325-2.938l5.576,4.767A14.3,14.3,0,0,1,15.47,30.58C6.206,30.58,0,24.1,0,15.29,0,6.506,6.206,0,15.47,0A14.189,14.189,0,0,1,27.1,5.487" transform="translate(95.408 13.371)" fill="#110f11"/>
    <path id="Fill_8" data-name="Fill 8" d="M7.826,17.269a9.745,9.745,0,0,1,8.334-3.9c6.6,0,11.3,4.588,11.3,11.333V43.2H19.637V27.222c0-4.2-2.1-6.506-5.666-6.506-3.358,0-6.146,2.189-6.146,6.566V43.2H0V0H7.826Z" transform="translate(126.32 0)" fill="#110f11"/>
    <path id="Fill_10" data-name="Fill 10" d="M15.08,30.58A14.972,14.972,0,0,1,4.2,26.409,15.175,15.175,0,0,1,0,15.38,15.687,15.687,0,0,1,4.085,4.261,13.353,13.353,0,0,1,8.727,1.117,15.72,15.72,0,0,1,14.69,0,13.462,13.462,0,0,1,24.876,4.235,15.955,15.955,0,0,1,28.811,15.26a22.486,22.486,0,0,1-.15,2.637H8.064c.777,3.886,3.428,6.027,7.465,6.027a11.794,11.794,0,0,0,7.345-2.789l4.587,5.037C24.275,29.1,20.109,30.58,15.08,30.58ZM14.63,6.746c-3.547,0-5.807,2.011-6.536,5.817H20.956C20.229,8.812,17.983,6.746,14.63,6.746Z" transform="translate(158.101 13.371)" fill="#110f11"/>
    <path id="Fill_12" data-name="Fill 12" d="M19.847.63l-1.17,7.764a12.7,12.7,0,0,0-4.737-.929c-3.627,0-6.116,2.218-6.116,6.535V29.83H0V.78H7.585V3.958C9.413,1.229,12.2,0,15.77,0a11.869,11.869,0,0,1,4.077.63" transform="translate(191.441 13.371)" fill="#110f11"/>
    <path id="Fill_14" data-name="Fill 14" d="M24.145,24.974H8.365v17H0V0H26.87V7.705H8.365v9.563h15.78Z" transform="translate(216.085 1.229)" fill="#110f11"/>
    <path id="Fill_16" data-name="Fill 16" d="M27.492,16.669c0,9.174-6.476,13.131-13.731,13.131C6.475,29.8,0,25.843,0,16.669V0H7.825V15.979c0,4.647,2.548,6.536,5.936,6.536,3.357,0,5.936-1.889,5.936-6.536V0h7.8Z" transform="translate(246.286 14.151)" fill="#110f11"/>
    <path id="Fill_18" data-name="Fill 18" d="M27.463,11.333v18.5H19.638V13.851c0-4.2-2.1-6.506-5.666-6.506-3.358,0-6.146,2.189-6.146,6.566v15.92H0V.78H7.616V4.2A9.735,9.735,0,0,1,16.16,0c6.6,0,11.3,4.588,11.3,11.333" transform="translate(279.896 13.371)" fill="#110f11"/>
    <path id="Fill_20" data-name="Fill 20" d="M14.061,43.922C6.045,43.922,0,37.348,0,28.631s6.045-15.29,14.061-15.29a10.564,10.564,0,0,1,8.545,3.808V0H30.4V43.171H22.755V39.964A10.627,10.627,0,0,1,14.061,43.922Zm1.439-23.3c-4.343,0-7.5,3.366-7.5,8s3.152,8,7.5,8c4.413,0,7.494-3.292,7.494-8S19.912,20.626,15.5,20.626Z" transform="translate(311.678 0.03)" fill="#110f11"/>
    <path id="Fill_22" data-name="Fill 22" d="M15.08,30.58A14.972,14.972,0,0,1,4.2,26.409,15.175,15.175,0,0,1,0,15.38,15.687,15.687,0,0,1,4.085,4.261,13.353,13.353,0,0,1,8.727,1.117,15.722,15.722,0,0,1,14.691,0,13.461,13.461,0,0,1,24.876,4.235,15.958,15.958,0,0,1,28.812,15.26a22.662,22.662,0,0,1-.15,2.637H8.065c.777,3.886,3.427,6.027,7.465,6.027a11.8,11.8,0,0,0,7.346-2.789l4.586,5.037C24.276,29.1,20.11,30.58,15.08,30.58ZM14.63,6.746c-3.546,0-5.806,2.011-6.536,5.817H20.957C20.23,8.812,17.984,6.746,14.63,6.746Z" transform="translate(346.637 13.371)" fill="#110f11"/>
    <path id="Fill_24" data-name="Fill 24" d="M19.847.63,18.678,8.394a12.707,12.707,0,0,0-4.738-.929c-3.627,0-6.116,2.218-6.116,6.535V29.83H0V.78H7.585V3.958C9.413,1.229,12.2,0,15.77,0a11.869,11.869,0,0,1,4.077.63" transform="translate(379.977 13.371)" fill="#110f11"/>
  </g>
</svg>
