<svg xmlns="http://www.w3.org/2000/svg" width="341.135" height="57.421" viewBox="0 0 341.135 57.421">
  <g id="Group_29_Copy" data-name="Group 29 Copy" transform="translate(0 -0.462)">
    <path id="Fill_1" data-name="Fill 1" d="M24.121,5.489H14.994V29.443H9.127V5.489H0V0H24.121Z" transform="translate(60.67 15.355)" fill="#fff"/>
    <g id="Group_28" data-name="Group 28" transform="translate(0 0.163)">
      <path id="Fill_2" data-name="Fill 2" d="M10.579,21.451a10.5,10.5,0,0,1-7.632-2.926A10.646,10.646,0,0,1,0,10.788a11,11,0,0,1,2.866-7.8A10,10,0,0,1,10.3,0,9.443,9.443,0,0,1,17.45,2.971,11.2,11.2,0,0,1,20.21,10.7a15.823,15.823,0,0,1-.105,1.85H5.657a4.91,4.91,0,0,0,5.236,4.227,8.273,8.273,0,0,0,5.153-1.956l3.218,3.533A12.4,12.4,0,0,1,10.579,21.451Zm-.316-16.72c-2.487,0-4.072,1.411-4.584,4.081H14.7C14.191,6.181,12.616,4.731,10.263,4.731Z" transform="translate(80.948 23.71)" fill="#fff"/>
      <path id="Fill_4" data-name="Fill 4" d="M9.863,21.451C4.24,21.451,0,16.841,0,10.726S4.24,0,9.863,0a7.471,7.471,0,0,1,6.1,2.8V.547h5.363V20.926H15.962V18.675A7.452,7.452,0,0,1,9.863,21.451Zm1.01-16.34c-3.047,0-5.258,2.361-5.258,5.615s2.211,5.614,5.258,5.614c3.1,0,5.257-2.309,5.257-5.614S13.968,5.111,10.873,5.111Z" transform="translate(103.073 23.71)" fill="#fff"/>
      <path id="Fill_6" data-name="Fill 6" d="M19.012,3.849l-3.954,3.3A5.649,5.649,0,0,0,10.7,5.11c-2.839,0-5.11,2.229-5.11,5.615,0,3.407,2.25,5.615,5.09,5.615a5.958,5.958,0,0,0,4.437-2.061l3.912,3.344a10.034,10.034,0,0,1-8.181,3.828C4.353,21.451,0,16.908,0,10.726,0,4.564,4.353,0,10.852,0a9.953,9.953,0,0,1,8.16,3.849" transform="translate(127.596 23.71)" fill="#fff"/>
      <path id="Fill_8" data-name="Fill 8" d="M5.489,12.113a6.836,6.836,0,0,1,5.846-2.734,7.59,7.59,0,0,1,7.928,7.95V30.3H13.775V19.1c0-2.944-1.472-4.564-3.974-4.564-2.355,0-4.311,1.536-4.311,4.606V30.3H0V0H5.489Z" transform="translate(149.28 14.331)" fill="#fff"/>
      <path id="Fill_10" data-name="Fill 10" d="M10.578,21.451a10.5,10.5,0,0,1-7.631-2.926A10.646,10.646,0,0,1,0,10.788a11,11,0,0,1,2.866-7.8A10,10,0,0,1,10.305,0,9.442,9.442,0,0,1,17.45,2.971,11.192,11.192,0,0,1,20.21,10.7a15.652,15.652,0,0,1-.105,1.85H5.657a4.912,4.912,0,0,0,5.237,4.227,8.277,8.277,0,0,0,5.153-1.956l3.218,3.533A12.4,12.4,0,0,1,10.578,21.451Zm-.315-16.72c-2.488,0-4.073,1.411-4.585,4.081H14.7C14.19,6.181,12.615,4.731,10.263,4.731Z" transform="translate(171.574 23.71)" fill="#fff"/>
      <path id="Fill_12" data-name="Fill 12" d="M13.922.442,13.1,5.888a8.909,8.909,0,0,0-3.323-.652c-2.544,0-4.29,1.556-4.29,4.584v11.1H0V.547H5.321V2.776A6.431,6.431,0,0,1,11.062,0a8.325,8.325,0,0,1,2.86.442" transform="translate(194.96 23.71)" fill="#fff"/>
      <path id="Fill_14" data-name="Fill 14" d="M16.937,17.518H5.868V29.442H0V0H18.849V5.4H5.868v6.708H16.937Z" transform="translate(212.248 15.193)" fill="#fff"/>
      <path id="Fill_16" data-name="Fill 16" d="M19.285,11.693c0,6.435-4.543,9.211-9.632,9.211C4.542,20.9,0,18.128,0,11.693V0H5.489V11.209c0,3.26,1.787,4.585,4.164,4.585,2.355,0,4.164-1.325,4.164-4.585V0h5.468Z" transform="translate(233.433 24.257)" fill="#fff"/>
      <path id="Fill_18" data-name="Fill 18" d="M19.264,7.95V20.926H13.775V9.716c0-2.944-1.472-4.564-3.975-4.564-2.355,0-4.311,1.536-4.311,4.606V20.926H0V.547H5.342v2.4A6.829,6.829,0,0,1,11.336,0a7.591,7.591,0,0,1,7.928,7.95" transform="translate(257.009 23.71)" fill="#fff"/>
      <path id="Fill_20" data-name="Fill 20" d="M9.863,30.81C4.24,30.81,0,26.2,0,20.083S4.24,9.358,9.863,9.358a7.408,7.408,0,0,1,5.994,2.671V0h5.468V30.283H15.962v-2.25A7.452,7.452,0,0,1,9.863,30.81Zm1.01-16.341c-3.047,0-5.258,2.361-5.258,5.615S7.826,25.7,10.873,25.7c3.1,0,5.257-2.309,5.257-5.615S13.968,14.468,10.873,14.468Z" transform="translate(279.303 14.352)" fill="#fff"/>
      <path id="Fill_22" data-name="Fill 22" d="M10.578,21.451a10.5,10.5,0,0,1-7.631-2.926A10.646,10.646,0,0,1,0,10.788a11,11,0,0,1,2.866-7.8A10,10,0,0,1,10.3,0,9.443,9.443,0,0,1,17.45,2.971,11.194,11.194,0,0,1,20.21,10.7a15.823,15.823,0,0,1-.105,1.85H5.657a4.91,4.91,0,0,0,5.236,4.227,8.277,8.277,0,0,0,5.153-1.956l3.217,3.533A12.4,12.4,0,0,1,10.578,21.451Zm-.315-16.72c-2.487,0-4.072,1.411-4.585,4.081H14.7C14.191,6.181,12.616,4.731,10.263,4.731Z" transform="translate(303.826 23.71)" fill="#fff"/>
      <path id="Fill_24" data-name="Fill 24" d="M13.922.442,13.1,5.888a8.914,8.914,0,0,0-3.323-.652c-2.544,0-4.29,1.556-4.29,4.584v11.1H0V.547H5.321V2.776A6.431,6.431,0,0,1,11.062,0a8.325,8.325,0,0,1,2.86.442" transform="translate(327.213 23.71)" fill="#fff"/>
      <path id="Fill_26" data-name="Fill 26" d="M14.551,57.421A13.3,13.3,0,0,1,1.262,44.131,13.434,13.434,0,0,1,13.928,30.578a25.465,25.465,0,0,1,2.881-.149,32.884,32.884,0,0,1,3.647.205l.006-5.393a28.1,28.1,0,0,0-5.984-.7,20.314,20.314,0,0,0-8.169,1.676l-3.4,1.457L0,20.881l3.395-1.457a28.2,28.2,0,0,1,11.187-2.259,33.872,33.872,0,0,1,5.881.534V13.29a13.29,13.29,0,1,1,26.58,0A13.436,13.436,0,0,1,34.376,26.844a25.474,25.474,0,0,1-2.881.149,32.783,32.783,0,0,1-3.645-.206l-.009,5.455a24.518,24.518,0,0,0,6.078.872,18.209,18.209,0,0,0,7.951-1.851l3.338-1.583,3.165,6.676-3.056,1.449a34.178,34.178,0,0,1-8.382,2.483,17.85,17.85,0,0,1-2.375.147,39.305,39.305,0,0,1-8.991-1.266l-.436-.119c-.206-.057-.412-.109-.61-.161l-.033-.01a26.04,26.04,0,0,0-7.655-1.34c-3.374,0-4.82,1.039-4.835,1.049h.007A6.013,6.013,0,0,0,8.65,44.131a5.9,5.9,0,1,0,11.8,0V40.975a32.093,32.093,0,0,1,4.037,1l.031.009c.2.051.4.1.612.161l.436.12c.5.125,1.291.315,2.272.512v1.354A13.305,13.305,0,0,1,14.551,57.421Zm19.2-50.033a5.908,5.908,0,0,0-5.9,5.9v6.05a25.343,25.343,0,0,0,3.639.266,17.1,17.1,0,0,0,2.031-.1c.109-.014.213-.024.293-.029a6.059,6.059,0,0,0,5.84-6.186A5.909,5.909,0,0,0,33.752,7.388Z" transform="translate(0 0.299)" fill="#fff"/>
    </g>
  </g>
</svg>
