<svg xmlns="http://www.w3.org/2000/svg" width="294.194" height="118.243" viewBox="0 0 294.194 118.243">
  <g id="Group_4" data-name="Group 4" transform="translate(-0.703)">
    <g id="Group_29_Copy_2" data-name="Group 29 Copy 2" transform="translate(0 85.385)">
      <path id="Fill_1" data-name="Fill 1" d="M25.3,5.758H15.728V30.884H9.573V5.758H0V0H25.3Z" transform="translate(0.703 1.422)" fill="#110f11"/>
      <g id="Group_28" data-name="Group 28" transform="translate(20.979 0.171)">
        <path id="Fill_2" data-name="Fill 2" d="M11.1,22.5a11.017,11.017,0,0,1-8-3.069A11.166,11.166,0,0,1,0,11.317,11.542,11.542,0,0,1,3.006,3.135,10.5,10.5,0,0,1,10.81,0,9.9,9.9,0,0,1,18.3,3.116a11.742,11.742,0,0,1,2.9,8.112,16.513,16.513,0,0,1-.111,1.941H5.935A5.151,5.151,0,0,0,11.427,17.6a8.676,8.676,0,0,0,5.4-2.052l3.375,3.706A13,13,0,0,1,11.1,22.5Zm-.33-17.537c-2.61,0-4.273,1.48-4.809,4.28H15.42C14.886,6.484,13.233,4.964,10.766,4.964Z" transform="translate(0.994 10.185)" fill="#110f11"/>
        <path id="Fill_4" data-name="Fill 4" d="M10.346,22.5C4.448,22.5,0,17.665,0,11.251S4.448,0,10.346,0a7.836,7.836,0,0,1,6.4,2.934V.574h5.626V21.95H16.743V19.589A7.817,7.817,0,0,1,10.346,22.5ZM11.406,5.361c-3.2,0-5.516,2.477-5.516,5.89s2.32,5.89,5.516,5.89c3.247,0,5.514-2.422,5.514-5.89S14.652,5.361,11.406,5.361Z" transform="translate(24.203 10.185)" fill="#110f11"/>
        <path id="Fill_6" data-name="Fill 6" d="M19.942,4.037,15.795,7.5a5.925,5.925,0,0,0-4.566-2.14c-2.978,0-5.36,2.339-5.36,5.89,0,3.574,2.36,5.89,5.339,5.89a6.249,6.249,0,0,0,4.654-2.162l4.1,3.507A10.526,10.526,0,0,1,11.383,22.5C4.567,22.5,0,17.736,0,11.251,0,4.787,4.567,0,11.383,0a10.44,10.44,0,0,1,8.559,4.037" transform="translate(49.926 10.185)" fill="#110f11"/>
        <path id="Fill_8" data-name="Fill 8" d="M5.758,12.706A7.171,7.171,0,0,1,11.89,9.838a7.962,7.962,0,0,1,8.317,8.339V31.788H14.449V20.03c0-3.088-1.544-4.787-4.169-4.787-2.471,0-4.522,1.611-4.522,4.831V31.788H0V0H5.758Z" transform="translate(72.671 0.347)" fill="#110f11"/>
        <path id="Fill_10" data-name="Fill 10" d="M11.1,22.5a11.017,11.017,0,0,1-8.005-3.069A11.166,11.166,0,0,1,0,11.317,11.543,11.543,0,0,1,3.006,3.135,10.494,10.494,0,0,1,10.809,0,9.9,9.9,0,0,1,18.3,3.116a11.742,11.742,0,0,1,2.9,8.112,16.513,16.513,0,0,1-.111,1.941H5.934A5.151,5.151,0,0,0,11.426,17.6a8.676,8.676,0,0,0,5.4-2.052l3.375,3.706A13,13,0,0,1,11.1,22.5ZM10.765,4.964c-2.609,0-4.272,1.48-4.809,4.28h9.463C14.885,6.484,13.232,4.964,10.765,4.964Z" transform="translate(96.056 10.185)" fill="#110f11"/>
        <path id="Fill_12" data-name="Fill 12" d="M14.6.464l-.861,5.713a9.345,9.345,0,0,0-3.485-.683c-2.669,0-4.5,1.632-4.5,4.809V21.949H0V.574H5.581V2.912A6.745,6.745,0,0,1,11.6,0a8.733,8.733,0,0,1,3,.464" transform="translate(120.588 10.185)" fill="#110f11"/>
        <path id="Fill_14" data-name="Fill 14" d="M17.766,18.376H6.155V30.884H0V0H19.771V5.669H6.155v7.037H17.766Z" transform="translate(138.721 1.251)" fill="#110f11"/>
        <path id="Fill_16" data-name="Fill 16" d="M20.229,12.265c0,6.75-4.765,9.662-10.1,9.662C4.765,21.927,0,19.015,0,12.265V0H5.758V11.757c0,3.42,1.875,4.809,4.368,4.809,2.47,0,4.368-1.39,4.368-4.809V0h5.736Z" transform="translate(160.944 10.759)" fill="#110f11"/>
        <path id="Fill_18" data-name="Fill 18" d="M20.207,8.339V21.95H14.45V10.192C14.45,7.1,12.905,5.4,10.28,5.4c-2.471,0-4.523,1.611-4.523,4.831V21.95H0V.574H5.6V3.088A7.163,7.163,0,0,1,11.891,0a7.962,7.962,0,0,1,8.317,8.339" transform="translate(185.674 10.185)" fill="#110f11"/>
        <path id="Fill_20" data-name="Fill 20" d="M10.346,32.318C4.448,32.318,0,27.481,0,21.067S4.448,9.816,10.346,9.816a7.772,7.772,0,0,1,6.286,2.8V0h5.736V31.766H16.743V29.406A7.817,7.817,0,0,1,10.346,32.318ZM11.4,15.177c-3.2,0-5.515,2.477-5.515,5.89s2.319,5.89,5.515,5.89c3.247,0,5.514-2.422,5.514-5.89S14.652,15.177,11.4,15.177Z" transform="translate(209.059 0.369)" fill="#110f11"/>
        <path id="Fill_22" data-name="Fill 22" d="M11.1,22.5a11.017,11.017,0,0,1-8.005-3.069A11.166,11.166,0,0,1,0,11.317,11.542,11.542,0,0,1,3.006,3.135,10.5,10.5,0,0,1,10.81,0,9.9,9.9,0,0,1,18.3,3.116a11.742,11.742,0,0,1,2.9,8.112,16.513,16.513,0,0,1-.111,1.941H5.934A5.151,5.151,0,0,0,11.426,17.6a8.681,8.681,0,0,0,5.405-2.052l3.375,3.706A13,13,0,0,1,11.1,22.5ZM10.765,4.964c-2.609,0-4.272,1.48-4.809,4.28H15.42C14.886,6.484,13.233,4.964,10.765,4.964Z" transform="translate(234.782 10.185)" fill="#110f11"/>
        <path id="Fill_24" data-name="Fill 24" d="M14.6.464l-.86,5.713a9.35,9.35,0,0,0-3.486-.683c-2.669,0-4.5,1.632-4.5,4.809V21.949H0V.574H5.581V2.912A6.745,6.745,0,0,1,11.6,0a8.733,8.733,0,0,1,3,.464" transform="translate(259.314 10.185)" fill="#110f11"/>
      </g>
    </g>
    <path id="Fill_26" data-name="Fill 26" d="M16.79,66.254A15.352,15.352,0,0,1,1.455,50.919,15.5,15.5,0,0,1,16.071,35.282a29.317,29.317,0,0,1,3.323-.172,37.893,37.893,0,0,1,4.209.237l.006-6.223a32.416,32.416,0,0,0-6.9-.813,23.437,23.437,0,0,0-9.426,1.934L3.362,31.928,0,24.093l3.917-1.68a32.535,32.535,0,0,1,12.909-2.607,39.041,39.041,0,0,1,6.784.616V15.335a15.335,15.335,0,0,1,30.67,0A15.5,15.5,0,0,1,39.665,30.974a29.314,29.314,0,0,1-3.327.172,37.846,37.846,0,0,1-4.2-.237L32.125,37.2a28.293,28.293,0,0,0,7.014,1.007,21.008,21.008,0,0,0,9.172-2.135l3.852-1.827,3.652,7.7L52.29,43.622a39.389,39.389,0,0,1-9.671,2.866,20.585,20.585,0,0,1-2.741.17A45.445,45.445,0,0,1,29.5,45.2l-.5-.138c-.261-.071-.515-.137-.707-.186l-.036-.01a30.037,30.037,0,0,0-8.832-1.546c-3.894,0-5.562,1.2-5.579,1.211h.007a6.938,6.938,0,0,0-3.875,6.39,6.81,6.81,0,1,0,13.621,0v-3.64a37.085,37.085,0,0,1,4.657,1.153l.036.011.131.034c.187.048.381.1.575.152l.5.139c.571.144,1.49.364,2.622.59v1.562A15.352,15.352,0,0,1,16.79,66.254ZM38.945,8.525a6.818,6.818,0,0,0-6.81,6.81v6.98a29.28,29.28,0,0,0,4.2.307,20.065,20.065,0,0,0,2.341-.116c.1-.014.231-.027.338-.034a6.991,6.991,0,0,0,6.739-7.137A6.818,6.818,0,0,0,38.945,8.525Z" transform="translate(120 0)" fill="#00676b"/>
  </g>
</svg>
