<?xml version="1.0" encoding="UTF-8"?>
<svg width="70px" height="61px" viewBox="0 0 70 61" version="1.1" xmlns="http://www.w3.org/2000/svg" xmlns:xlink="http://www.w3.org/1999/xlink">
    <!-- Generator: Sketch 57.1 (83088) - https://sketch.com -->
    <title>cash-icon</title>
    <desc>Created with Sketch.</desc>
    <defs>
        <polygon id="path-1" points="0.183417722 0.418670886 0.183417722 15.8860127 0.183417722 30.5696203 51.1190506 30.5696203 51.1190506 0.418670886"></polygon>
        <linearGradient x1="-0.00049604676%" y1="50.0001847%" x2="100.000561%" y2="50.0001847%" id="linearGradient-3">
            <stop stop-color="#FFC100" stop-opacity="0" offset="0%"></stop>
            <stop stop-color="#FFC100" stop-opacity="0.497760052" offset="100%"></stop>
        </linearGradient>
        <path d="M0.268037975,0.0243670886 L0.268037975,16.9324684 L10.1668354,16.9324684 C15.9453797,16.9324684 20.9459494,20.3208228 23.2891772,25.2137342 L23.2891772,25.2137342 L32.6620886,25.2137342 L32.6620886,0.0243670886 L0.268037975,0.0243670886 Z" id="path-4"></path>
        <linearGradient x1="-0.00049604676%" y1="50.0001847%" x2="100.000561%" y2="50.0001847%" id="linearGradient-6">
            <stop stop-color="#FFC100" stop-opacity="0" offset="0%"></stop>
            <stop stop-color="#FFC100" stop-opacity="0.497760052" offset="100%"></stop>
        </linearGradient>
        <linearGradient x1="0%" y1="49.9998287%" x2="99.9996906%" y2="49.9998287%" id="linearGradient-7">
            <stop stop-color="#DFBFDD" stop-opacity="0" offset="0%"></stop>
            <stop stop-color="#DFBFDD" offset="100%"></stop>
        </linearGradient>
        <path d="M0.268037975,10.2071519 C0.268037975,15.6498734 4.68025316,20.0620886 10.1234177,20.0620886 L10.1234177,20.0620886 C15.5661392,20.0620886 19.9792405,15.6498734 19.9792405,10.2071519 L19.9792405,10.2071519 C19.9792405,4.76398734 15.5661392,0.351772152 10.1234177,0.351772152 L10.1234177,0.351772152 C4.68025316,0.351772152 0.268037975,4.76398734 0.268037975,10.2071519" id="path-8"></path>
        <linearGradient x1="-0.000566856218%" y1="49.9997811%" x2="99.9977123%" y2="49.9997811%" id="linearGradient-10">
            <stop stop-color="#3A0E3B" offset="0%"></stop>
            <stop stop-color="#7E3669" offset="100%"></stop>
        </linearGradient>
    </defs>
    <g id="Page-1" stroke="none" stroke-width="1" fill="none" fill-rule="evenodd">
        <g id="Inbox---Message" transform="translate(-352.000000, -103.000000)">
            <g id="Group-26" transform="translate(323.000000, 81.000000)">
                <g id="cash-icon" transform="translate(29.000000, 22.000000)">
                    <g id="Group-3" transform="translate(1.329114, 29.659620)">
                        <mask id="mask-2" fill="white">
                            <use xlink:href="#path-1"></use>
                        </mask>
                        <g id="Clip-2"></g>
                        <polygon id="Fill-1" fill="url(#linearGradient-3)" mask="url(#mask-2)" points="0.183417722 0.418670886 0.183417722 15.8860127 0.183417722 30.5696203 51.1190506 30.5696203 51.1190506 0.418670886"></polygon>
                    </g>
                    <g id="Group-6" transform="translate(23.037975, 0.419114)">
                        <mask id="mask-5" fill="white">
                            <use xlink:href="#path-4"></use>
                        </mask>
                        <g id="Clip-5"></g>
                        <path d="M0.268037975,0.0243670886 L0.268037975,16.9324684 L10.1668354,16.9324684 C15.9453797,16.9324684 20.9459494,20.3208228 23.2891772,25.2137342 L23.2891772,25.2137342 L32.6620886,25.2137342 L32.6620886,0.0243670886 L0.268037975,0.0243670886 Z" id="Fill-4" fill="url(#linearGradient-6)" mask="url(#mask-5)"></path>
                    </g>
                    <g id="Group-21" transform="translate(37.658228, 0.419114)">
                        <path d="M30.2544873,44.7346519 C30.2544873,53.0606646 23.5052468,59.8099051 15.1792342,59.8099051 C6.85366456,59.8099051 0.103537975,53.0606646 0.103537975,44.7346519 C0.103537975,36.4090823 6.85366456,29.6593987 15.1792342,29.6593987 C23.5052468,29.6593987 30.2544873,36.4090823 30.2544873,44.7346519" id="Fill-7" fill="#FF943F"></path>
                        <path d="M30.2544873,44.7346519 C30.2544873,53.0606646 23.5052468,59.8099051 15.1792342,59.8099051 C6.85366456,59.8099051 0.103537975,53.0606646 0.103537975,44.7346519 C0.103537975,36.4090823 6.85366456,29.6593987 15.1792342,29.6593987 C23.5052468,29.6593987 30.2544873,36.4090823 30.2544873,44.7346519" id="Fill-9" fill="#FFC200"></path>
                        <path d="M26.9226203,44.7346519 C26.9226203,51.2499684 21.6411646,56.530981 15.1262911,56.530981 C8.61141772,56.530981 3.32996203,51.2499684 3.32996203,44.7346519 C3.32996203,38.2197785 8.61141772,32.9383228 15.1262911,32.9383228 C21.6411646,32.9383228 26.9226203,38.2197785 26.9226203,44.7346519" id="Fill-11" fill="#FF943F"></path>
                        <path d="M15.9119747,45.7606835 L15.8521646,49.3072025 C17.1600127,49.161 18.0934937,48.5589114 18.1302658,47.4747975 C18.1550759,46.5865063 17.3584937,46.0411266 15.9119747,45.7606835 L15.9119747,45.7606835 Z M14.7015949,44.2286582 L14.7684937,40.7065063 C13.4850127,40.8531519 12.6246329,41.4973291 12.5891899,42.5083418 C12.5639367,43.3886582 13.2222911,43.9477722 14.7015949,44.2286582 L14.7015949,44.2286582 Z M16.0626076,37.8520127 L16.0329241,39.4092911 C17.4577342,39.5346709 18.598557,40.0211266 19.5240633,40.6586582 L18.8014684,41.7702405 C18.0452025,41.2421392 17.082481,40.8323291 16.0081139,40.7135949 L15.9376709,44.4072025 L16.1246329,44.4351139 C18.0438734,44.7168861 19.5856456,45.5777089 19.5253924,47.4362532 C19.4558354,49.3763165 17.8449494,50.4382785 15.8277975,50.6119494 L15.7967848,52.2259367 L14.5571646,52.2024557 L14.5881772,50.6044177 C13.1708987,50.479481 11.6565949,49.9287848 10.7253291,49.1521392 L11.4962152,48.0662532 C12.1625443,48.6333418 13.3919747,49.1707468 14.6125443,49.3080886 L14.6754557,45.5737215 L14.4238101,45.5365063 C12.520519,45.2556203 11.1351392,44.3482785 11.1860886,42.5141013 C11.2463418,40.656 12.7921013,39.559481 14.7937468,39.3937848 L14.8234304,37.8285316 L16.0626076,37.8520127 Z" id="Fill-13" fill="#FFC200"></path>
                        <path d="M32.1927785,12.6189177 C32.1927785,19.575057 26.5537911,25.2140443 19.5980949,25.2140443 C12.6419557,25.2140443 7.00341139,19.575057 7.00341139,12.6189177 C7.00341139,5.66277848 12.6419557,0.0242341772 19.5980949,0.0242341772 C26.5537911,0.0242341772 32.1927785,5.66277848 32.1927785,12.6189177" id="Fill-15" fill="#FFC200"></path>
                        <path d="M29.4090823,12.6189177 C29.4090823,18.0620823 24.9968671,22.4742975 19.5537025,22.4742975 C14.110981,22.4742975 9.69832278,18.0620823 9.69832278,12.6189177 C9.69832278,7.17575316 14.110981,2.76353797 19.5537025,2.76353797 C24.9968671,2.76353797 29.4090823,7.17575316 29.4090823,12.6189177" id="Fill-17" fill="#FF943F"></path>
                        <path d="M20.2099747,13.476019 L20.1603544,16.439057 C21.2528861,16.3172215 22.0326329,15.8139304 22.0636456,14.9083608 C22.0844684,14.1658291 21.4185823,13.7103861 20.2099747,13.476019 L20.2099747,13.476019 Z M19.198962,12.1960823 L19.2547848,9.25342405 C18.1830759,9.37614557 17.4640253,9.91443671 17.4338987,10.7588671 C17.413519,11.4943101 17.9633291,11.9617152 19.198962,12.1960823 L19.198962,12.1960823 Z M20.3357975,6.86899367 L20.3114304,8.16975316 C21.5018734,8.27431013 22.4548481,8.68101899 23.2279494,9.21355063 L22.6245316,10.1426013 C21.9923165,9.70089241 21.1882025,9.35886709 20.2906076,9.25962658 L20.2316835,12.3453861 L20.3876329,12.3684241 C21.9914304,12.6036772 23.2793418,13.3236139 23.2288354,14.876019 C23.1712405,16.4966519 21.8252911,17.384057 20.1395316,17.5289304 L20.1138354,18.877538 L19.0784557,18.8580443 L19.1041519,17.5227278 C17.9203544,17.4186139 16.655038,16.9582975 15.8770633,16.3096899 L16.5212405,15.4023481 C17.0776962,15.8759557 18.1046582,16.3251962 19.1245316,16.439943 L19.1772532,13.3200696 L18.9663671,13.289057 C17.3763038,13.0542468 16.2190886,12.2962089 16.2620633,10.7637405 C16.3121266,9.21133544 17.6035823,8.29557595 19.2760506,8.15690506 L19.3004177,6.84905696 L20.3357975,6.86899367 Z" id="Fill-19" fill="#FFC200"></path>
                    </g>
                    <polygon id="Fill-22" fill="url(#linearGradient-7)" points="0 44.4867722 33.2056962 44.4867722 33.2056962 19.296962 0 19.296962"></polygon>
                    <g id="Group-32" transform="translate(20.379747, 19.026709)">
                        <path d="M25.4208544,12.8651139 C25.4208544,19.8212532 19.7814241,25.4602405 12.8257278,25.4602405 C5.87003165,25.4602405 0.231044304,19.8212532 0.231044304,12.8651139 C0.231044304,5.90897468 5.87003165,0.269987342 12.8257278,0.269987342 C19.7814241,0.269987342 25.4208544,5.90897468 25.4208544,12.8651139" id="Fill-24" fill="#FF943F"></path>
                        <path d="M17.3821519,26.127057 C17.3821519,28.0121835 17.7312658,29.8153481 18.363481,31.4785127 C22.5701266,29.4392089 25.4715823,25.1284494 25.4715823,20.1389557 C25.4715823,17.8325 24.8486709,15.6726899 23.7658861,13.8132595 C19.9052532,16.5432595 17.3821519,21.0392089 17.3821519,26.127057" id="Fill-26" fill="#FF943F"></path>
                        <path d="M20.608443,26.127057 C20.608443,27.3498418 20.794519,28.5292089 21.1396456,29.6385759 C23.7921139,27.329462 25.4716709,23.9318038 25.4716709,20.1389557 C25.4716709,19.0216139 25.3223671,17.9397152 25.0481266,16.9087658 C22.3433797,19.0703481 20.608443,22.3953481 20.608443,26.127057" id="Fill-28" fill="#FF791F"></path>
                        <path d="M25.4208544,12.8651139 C25.4208544,19.8212532 19.7814241,25.4602405 12.8257278,25.4602405 C5.87003165,25.4602405 0.231044304,19.8212532 0.231044304,12.8651139 C0.231044304,5.90897468 5.87003165,0.269987342 12.8257278,0.269987342 C19.7814241,0.269987342 25.4208544,5.90897468 25.4208544,12.8651139" id="Fill-30" fill="#99528C"></path>
                    </g>
                    <g id="Group-35" transform="translate(23.037975, 21.684937)">
                        <mask id="mask-9" fill="white">
                            <use xlink:href="#path-8"></use>
                        </mask>
                        <g id="Clip-34"></g>
                        <path d="M0.268037975,10.2071519 C0.268037975,15.6498734 4.68025316,20.0620886 10.1234177,20.0620886 L10.1234177,20.0620886 C15.5661392,20.0620886 19.9792405,15.6498734 19.9792405,10.2071519 L19.9792405,10.2071519 C19.9792405,4.76398734 15.5661392,0.351772152 10.1234177,0.351772152 L10.1234177,0.351772152 C4.68025316,0.351772152 0.268037975,4.76398734 0.268037975,10.2071519" id="Fill-33" fill="url(#linearGradient-10)" mask="url(#mask-9)"></path>
                    </g>
                    <g id="Group-48" transform="translate(5.759494, 4.849494)">
                        <path d="M28.0583038,27.8994304 L28.0086835,30.8624684 C29.1012152,30.7401899 29.880519,30.2373418 29.9115316,29.3313291 C29.9323544,28.5892405 29.2669114,28.1337975 28.0583038,27.8994304 L28.0583038,27.8994304 Z M27.0468481,26.6194937 L27.1031139,23.6768354 C26.030962,23.799557 25.3119114,24.3378481 25.2817848,25.1822785 C25.2614051,25.9177215 25.8112152,26.3846835 27.0468481,26.6194937 L27.0468481,26.6194937 Z M28.1841266,21.291962 L28.1593165,22.5931646 C29.3497595,22.6977215 30.3027342,23.1044304 31.0762785,23.636962 L30.4724177,24.5660127 C29.8402025,24.1243038 29.0360886,23.7822785 28.1384937,23.683038 L28.0795696,26.7687975 L28.235962,26.7918354 C29.8397595,27.0270886 31.1276709,27.7465823 31.0771646,29.2994304 C31.0195696,30.9200633 29.6736203,31.8074684 27.9878608,31.9523418 L27.9617215,33.3009494 L26.9263418,33.2814557 L26.952038,31.9461392 C25.7682405,31.8420253 24.5029241,31.3817089 23.7249494,30.7331013 L24.3691266,29.8257595 C24.9255823,30.2993671 25.9529873,30.7486076 26.9728608,30.8629114 L27.0255823,27.743481 L26.8146962,27.7120253 C25.2246329,27.4776582 24.0669747,26.7191772 24.1103924,25.1871519 C24.1600127,23.6347468 25.4519114,22.7189873 27.1239367,22.5803165 L27.1487468,21.2724684 L28.1841266,21.291962 Z" id="Fill-36" fill="#E0BFDE"></path>
                        <path d="M6.67135443,6.29459494 L4.30464557,6.29459494" id="Stroke-38" stroke="#7E3669" stroke-width="1.5" stroke-linecap="round" stroke-linejoin="round"></path>
                        <path d="M28.1967532,6.29459494 L9.63833544,6.29459494" id="Stroke-40" stroke="#7E3669" stroke-width="1.5" stroke-linecap="round" stroke-linejoin="round"></path>
                        <path d="M30.7879494,0.260373418 L22.6878861,0.260373418" id="Stroke-42" stroke="#7E3669" stroke-width="1.5" stroke-linecap="round" stroke-linejoin="round"></path>
                        <path d="M26.8559873,47.7956899 L2.96339241,47.7956899" id="Stroke-44" stroke="#7E3669" stroke-width="1.5" stroke-linecap="round" stroke-linejoin="round"></path>
                        <path d="M8.35481013,27.0423291 L0.254746835,27.0423291" id="Stroke-46" stroke="#7E3669" stroke-width="1.5" stroke-linecap="round" stroke-linejoin="round"></path>
                    </g>
                </g>
            </g>
        </g>
    </g>
</svg>