<?xml version="1.0" encoding="UTF-8"?>
<svg width="220px" height="407px" viewBox="0 0 220 407" version="1.1" xmlns="http://www.w3.org/2000/svg" xmlns:xlink="http://www.w3.org/1999/xlink">
    <!-- Generator: Sketch 57.1 (83088) - https://sketch.com -->
    <title>decorative-brush</title>
    <desc>Created with Sketch.</desc>
    <g id="Page-1" stroke="none" stroke-width="1" fill="none" fill-rule="evenodd">
        <g id="Landing---Donors" transform="translate(-1245.000000, -3389.000000)" fill="#3F093D">
            <g id="Group-9" transform="translate(40.000000, 3193.000000)">
                <g id="Group-24">
                    <g id="Group-31" transform="translate(880.000000, 65.000000)">
                        <g id="decorative-brush" transform="translate(325.000000, 131.000000)">
                            <path d="M20.3429,132.5814 C20.3289,132.6054 20.3159,132.6204 20.3019,132.6434 C20.0899,132.3974 19.9389,132.2144 19.8999,132.2354 C19.9539,132.2064 20.2239,132.5724 20.3429,132.5814 C19.7889,131.9154 19.4929,131.4064 19.1559,131.3764 C19.4929,131.4064 19.7889,131.9154 20.1049,132.2044 C20.6599,132.3044 21.2199,132.3934 21.7739,132.5044 C21.2389,132.4194 20.7299,132.4194 20.3429,132.5814 M25.4469,170.1084 C25.3119,169.9454 25.1869,169.7954 25.0669,169.6494 C25.0519,169.6634 25.0369,169.6774 25.0229,169.6914 C24.6619,169.3364 24.3609,169.0504 24.0889,168.8174 C24.4169,169.0894 24.7389,169.3754 25.0669,169.6494 C26.0229,170.0154 26.9819,170.3774 27.9339,170.7524 C27.0049,170.4044 26.1209,170.1374 25.4469,170.1084 M44.1279,173.9894 L44.1279,173.9894 C44.0209,173.9034 43.8429,173.8104 43.7649,173.7264 C43.8429,173.8104 44.0209,173.9034 44.1279,173.9894 M39.0319,150.0784 C39.2059,149.8664 39.3799,149.6544 39.5639,149.4314 C39.3799,149.6544 39.2059,149.8664 39.0319,150.0784 M59.6629,205.0364 C60.3199,201.6684 61.9399,198.7934 63.9309,196.1074 C64.5499,195.2734 64.5769,194.7434 64.0329,193.9024 C62.5879,191.6644 61.4369,189.2044 59.7719,187.1534 C58.9909,186.1924 59.4049,185.3434 59.0799,184.5194 C58.4259,182.8594 57.8699,181.0914 56.8609,179.6594 C55.8529,178.2294 56.4999,175.9504 54.4279,175.1244 C54.3159,175.0804 54.4479,174.5424 54.3699,174.2624 C54.0299,173.0314 53.6859,171.7984 53.2789,170.5884 C52.9149,169.5074 52.4699,168.4554 52.0599,167.3904 C52.3919,166.9554 52.7239,166.5204 53.0559,166.0854 C54.4119,165.0324 55.7689,163.9784 57.1239,162.9244 C57.1239,162.9254 57.1249,162.9264 57.1249,162.9274 C59.0439,161.8094 59.3579,160.7234 57.8369,158.9854 C56.3549,157.2904 54.5819,155.8514 54.3159,153.4144 L54.3159,152.9554 C53.2899,150.8194 52.0069,148.7654 51.2979,146.5284 C50.1829,143.0104 47.8129,140.1014 46.7919,136.5664 C46.5169,135.6104 46.0749,134.7004 45.8349,133.7384 C45.4269,132.1154 45.2039,130.4214 43.5819,129.4454 C43.1439,128.5554 42.7049,127.6654 42.2669,126.7754 C41.9479,125.2014 41.3279,123.6134 41.4019,122.0584 C41.4659,120.7234 41.2299,119.7274 40.4169,118.7684 C39.3999,117.5644 38.9289,116.1614 38.5179,114.6324 C38.0989,113.0694 37.2529,111.5544 36.3179,110.2114 C34.9859,108.3004 33.9249,108.0494 32.6999,109.0144 C31.0659,110.3044 29.4379,111.6064 27.8599,112.9654 C26.3139,114.2974 26.0529,115.8244 27.0379,117.2144 C27.5979,118.0054 28.1779,118.7824 28.7489,119.5644 C28.5989,120.3204 28.4499,121.0754 28.2999,121.8304 C28.7329,123.2344 29.2839,124.6144 29.5649,126.0484 C29.8439,127.4774 29.8509,128.9604 29.9769,130.4194 C30.1689,131.1624 30.3629,131.9044 30.5559,132.6474 C30.5249,132.7984 30.4939,132.9504 30.4639,133.1014 C29.5529,133.8944 30.1019,134.6264 30.5569,135.3634 C30.8299,136.0764 31.5139,136.9554 31.3039,137.4704 C30.5469,139.3234 31.3279,140.8754 31.9909,142.4144 C32.5189,143.6354 31.4389,144.2134 31.2289,145.1194 C31.2029,145.2284 30.5719,145.3704 30.4419,145.2524 C29.8109,144.6864 29.3309,144.0174 29.8349,143.1044 L29.6329,143.0094 C29.5519,142.6044 29.4719,142.1994 29.3899,141.7944 C28.1129,142.0954 28.4299,140.7184 27.8269,140.3084 C27.3669,138.5634 26.8149,136.8364 26.4819,135.0684 C26.2959,134.0814 26.4349,133.0784 25.0009,133.0394 C24.8639,133.0364 24.6879,132.4824 24.6249,132.1644 C24.2529,130.2724 23.9369,128.3684 23.5349,126.4814 C23.4229,125.9534 23.0899,125.4714 22.8589,124.9684 C23.0369,123.8194 22.0409,123.3794 21.4769,122.6794 C21.4219,120.3704 21.9299,117.9474 20.1169,115.9974 C19.8629,112.2334 18.2239,108.6484 18.6739,104.7854 C18.7099,104.4814 18.4369,103.9234 18.1879,103.8404 C16.7589,103.3654 14.5039,104.0194 13.7179,105.1894 C13.2959,105.8184 13.1439,106.6284 12.8699,107.3564 C12.7079,107.6614 12.5449,107.9654 12.3829,108.2694 C12.0209,109.1814 11.7419,110.1394 11.2799,110.9984 C9.7309,113.8744 9.7839,116.7684 10.9739,119.7344 C11.2379,120.3924 11.3659,121.1074 11.5189,121.8054 C11.7179,122.7104 11.8799,123.6234 12.0579,124.5334 C12.0599,124.9824 12.0609,125.4314 12.0619,125.8804 C12.3609,126.9334 12.6599,127.9864 12.9599,129.0394 C12.9169,129.7984 12.8739,130.5574 12.8309,131.3154 C12.9839,131.7594 13.0749,132.2384 13.3049,132.6364 C13.5339,133.0364 13.9039,133.3554 14.2099,133.7094 C13.7289,133.9594 13.2399,134.1984 12.7669,134.4624 C11.5209,135.1574 9.6339,134.4814 8.8999,136.2684 C8.4529,136.9144 7.8839,137.5104 7.5939,138.2214 C7.2629,139.0314 7.1789,139.9434 6.9889,140.8114 C6.9829,140.8074 6.9779,140.8024 6.9719,140.7984 C6.5169,141.9374 6.5539,143.0034 7.4369,143.9444 C8.2719,145.9334 8.0049,146.8384 6.5639,148.2854 C5.9309,148.9194 5.6189,149.8734 5.1609,150.6834 C4.6999,151.7934 3.0439,152.2734 3.4869,153.8604 C2.4339,155.0644 1.3809,156.2684 0.3279,157.4724 C0.2959,157.7544 0.2629,158.0384 0.2299,158.3204 C-0.3141,160.0374 0.0909,160.9854 1.6219,161.5784 C2.0739,161.4294 2.5269,161.2804 2.9789,161.1324 C3.1999,161.1024 3.4359,161.1104 3.6399,161.0354 C4.3719,160.7644 5.1419,160.1634 5.8019,160.2714 C6.3309,160.3574 6.7039,161.3074 7.1809,161.8444 C7.6899,162.4194 8.5919,162.9004 8.6969,163.5284 C8.9419,164.9764 9.5989,166.1574 10.5889,167.0774 C13.1669,169.4734 13.6849,171.2204 12.4129,174.1094 C12.1449,174.1934 11.7299,174.1964 11.6299,174.3744 C10.7639,175.9244 12.2699,176.4504 12.9599,177.3304 C12.0559,179.7174 13.7429,181.1274 14.9839,182.7094 C15.3519,183.1784 15.7999,183.6194 16.0359,184.1514 C16.7009,185.6554 17.0989,187.3054 17.9349,188.6984 C18.7689,190.0884 19.9449,191.2954 21.0839,192.4724 C22.0169,193.4354 23.0249,194.7534 24.1689,194.9564 C25.2629,195.1504 26.5769,194.1084 27.7939,193.6094 C27.9409,193.5954 28.1599,193.5114 28.2239,193.5784 C29.6219,195.0354 31.7359,195.8104 32.3379,198.0534 C32.4759,198.5654 33.1909,198.9214 33.6399,199.3494 C36.1439,200.1964 36.4059,200.0804 37.2489,197.6834 C37.4089,197.2244 37.4999,196.7404 37.6239,196.2674 C37.6669,196.1224 37.7099,195.9774 37.7529,195.8324 C38.0109,195.5224 38.2689,195.2124 38.5269,194.9014 C39.0089,193.5704 39.4909,192.2394 39.9739,190.9074 C41.1269,191.8904 42.3589,192.7994 42.2959,194.5874 C42.2859,194.8334 42.8739,195.0994 43.1859,195.3554 C43.4959,197.7034 45.2699,198.9154 47.1029,199.7804 C48.0809,200.2414 48.5069,200.8494 48.9989,201.6324 C49.3349,202.1644 49.8469,202.5834 50.2799,203.0544 C50.5789,203.5044 50.8779,203.9554 51.1789,204.4054 C52.2449,204.8634 53.3119,205.3224 54.3779,205.7804 C54.8309,205.8924 55.2849,206.0054 55.7389,206.1184 C57.5769,206.9534 59.3659,206.5514 59.6629,205.0364" id="Fill-1"></path>
                            <path d="M90.6241,76.471 C90.1031,75.986 89.6311,75.546 89.1591,75.106 C89.1321,75.143 89.0991,75.188 89.0631,75.235 C88.9941,75.328 88.9191,75.429 88.8781,75.486 C88.9191,75.429 88.9941,75.328 89.0631,75.235 C89.0991,75.188 89.1321,75.143 89.1591,75.106 C89.6311,75.546 90.1031,75.986 90.6241,76.471 L90.6241,76.471 Z M79.3391,102.906 C79.3331,102.914 79.3291,102.919 79.3241,102.927 C79.0441,102.913 78.8561,102.875 78.7871,102.945 C78.8681,102.863 79.1031,102.932 79.3391,102.906 C79.3181,102.892 79.3031,102.877 79.2841,102.863 C79.6971,102.783 80.1441,102.6 80.4951,102.713 C80.1211,102.593 79.6381,102.811 79.3391,102.906 L79.3391,102.906 Z M93.0581,54.514 C93.1491,54.651 93.2551,54.782 93.3541,54.915 C93.2491,54.786 93.1501,54.652 93.0581,54.514 L93.0581,54.514 Z M78.4491,96.535 C78.4971,96.62 78.5351,96.744 78.5891,96.812 C78.5351,96.744 78.4971,96.62 78.4491,96.535 Z M77.1371,54.72 C77.1031,54.697 77.0701,54.677 77.0401,54.656 C77.0701,54.676 77.1011,54.695 77.1311,54.714 L77.1371,54.72 C77.2801,54.813 77.4561,54.924 77.6351,55.035 C77.6391,55.037 77.7651,54.871 77.7561,54.863 C77.6851,54.795 77.6121,54.728 77.5421,54.66 C78.3531,54.77 78.7591,54.597 78.7491,54.448 C78.7621,54.63 78.1671,54.854 77.8511,55.059 L78.7531,56.862 C78.4681,56.294 78.1741,55.72 77.1371,54.72 L77.1371,54.72 Z M81.6491,78.907 C81.6281,78.969 81.6061,79.031 81.5851,79.097 C81.5401,79.228 81.4911,79.373 81.4281,79.558 C81.4911,79.373 81.5401,79.228 81.5851,79.097 C81.6061,79.031 81.6281,78.969 81.6491,78.907 L81.6491,78.907 Z M89.6841,52.654 C89.7831,52.511 89.8781,52.376 89.9641,52.252 C89.8411,52.429 89.7551,52.552 89.6841,52.654 L89.6841,52.654 Z M89.9021,52.875 C89.8031,53.618 89.8951,54.075 90.1141,54.45 C89.8421,53.984 89.7571,53.409 89.5991,52.875 C89.6101,52.855 89.6211,52.836 89.6341,52.815 C89.7231,52.834 89.8121,52.854 89.9021,52.875 L89.9021,52.875 Z M99.3661,93.514 L99.3661,93.515 C99.3161,93.389 99.2991,93.209 99.2081,93.156 C99.2991,93.209 99.3161,93.389 99.3661,93.514 L99.3661,93.514 Z M94.9931,55.51 C95.1191,56.113 95.5591,56.943 95.3151,57.279 C95.5591,56.943 95.1191,56.113 94.6381,55.808 C94.7911,55.679 94.8951,55.592 94.9931,55.51 L94.8061,55.331 C94.9261,54.782 94.8801,54.185 95.1201,53.965 C94.8621,54.245 95.1121,55.083 94.9931,55.51 L94.9931,55.51 Z M56.1481,14.473 C56.4131,15.388 54.8851,16.894 57.0441,17.182 C57.3821,19.045 56.7091,20.95 57.8861,22.846 C58.6101,24.014 57.4801,25.986 58.8921,27.253 C58.3961,29.805 60.6451,32.013 59.8201,34.618 C59.7391,34.874 59.8471,35.209 59.9261,35.49 C60.1961,36.451 60.4941,37.404 60.7811,38.36 C61.0821,38.967 61.3831,39.574 61.6841,40.181 C61.6591,40.701 61.5481,41.235 61.6241,41.74 C61.8841,43.449 62.2971,45.138 62.4831,46.853 C62.6291,48.192 62.2221,49.665 62.6471,50.872 C62.8991,51.591 62.1671,53.163 63.8681,53.176 C64.0011,53.346 64.1321,53.516 64.2641,53.686 L64.8411,55.508 C64.8231,56.259 64.8051,57.011 64.7871,57.762 C65.2561,59.715 65.7261,61.668 66.1941,63.621 C66.1941,63.924 66.1941,64.226 66.1931,64.528 C66.9781,66.166 65.9051,68.261 67.4691,69.706 C67.0051,72.233 68.3631,74.386 68.9011,76.708 C68.5461,77.635 68.5171,78.442 68.9871,79.452 C69.6331,80.839 69.8531,82.425 70.2551,83.925 C70.2161,84.285 70.0191,84.735 70.1631,84.993 C71.7421,87.816 72.0031,91.077 73.1911,94.034 C73.5521,94.93 73.2161,96.083 73.3801,97.089 C73.4681,97.629 74.2361,98.14 74.1841,98.606 C73.9641,100.547 75.1701,101.86 76.0071,103.346 C76.1511,103.648 76.2961,103.95 76.4401,104.252 C76.3541,104.659 76.2671,105.068 76.1811,105.475 C77.6591,105.744 77.2391,106.932 77.4431,107.899 C77.7641,109.415 78.1791,110.939 78.7891,112.358 C79.1881,113.288 80.0701,113.998 80.6201,114.878 C81.2881,115.951 81.8351,117.1 82.4361,118.217 C82.8871,119.117 83.3391,120.018 83.7901,120.919 C83.8281,121.189 83.7691,121.548 83.9211,121.715 C85.0601,122.972 86.2741,124.162 87.3961,125.433 C88.2201,126.366 90.3631,127.349 91.2291,126.702 C91.8701,126.223 91.9681,125.018 92.3071,124.137 C92.9181,122.771 93.5291,121.405 94.1421,120.039 C94.3991,119.582 94.6581,119.124 94.9171,118.667 C94.9781,118.541 95.0111,118.408 95.0131,118.267 C95.6751,117.429 96.4541,116.611 95.4971,115.49 C95.4391,115.354 95.4401,115.218 95.4981,115.081 C95.5661,115.051 95.6491,115.034 95.6991,114.985 C95.7371,114.947 95.7671,114.853 95.7471,114.808 C95.4911,114.228 95.1351,113.676 94.9831,113.072 C94.4921,111.124 94.1081,109.149 93.6071,107.204 C93.4951,106.768 93.0701,106.412 92.7901,106.019 C92.4461,104.824 92.1031,103.629 91.7601,102.433 L91.7601,101.518 C92.0031,100.038 90.8941,99.274 90.0831,98.351 C89.6241,96.42 87.8191,95.176 87.8021,92.863 C87.7861,90.966 86.6171,89.082 85.9971,87.181 C85.8541,86.748 85.8641,86.266 85.8041,85.806 C86.3161,85.929 86.8241,86.086 87.3441,86.166 C87.7871,86.234 88.2441,86.214 88.6941,86.233 C89.2101,85.872 89.6411,85.736 89.9971,86.473 C90.4071,87.319 90.9051,88.122 91.3641,88.943 L91.7861,89.818 L91.9091,90.259 C92.1181,91.165 92.2201,92.116 92.5611,92.97 C93.1421,94.425 93.9111,95.803 94.5341,97.242 C95.4151,99.279 96.2691,101.328 97.0711,103.397 C97.6421,104.864 99.4821,105.953 98.4571,107.924 C98.3931,108.048 98.5331,108.334 98.6511,108.489 C99.6201,109.771 101.9591,110.277 103.5631,109.569 C103.8391,108.692 104.1151,107.815 104.3921,106.938 C104.5731,106.354 104.7571,105.771 104.9381,105.187 C105.5501,104.426 106.1611,103.664 106.7721,102.903 C107.0851,101.992 108.2411,101.438 107.8331,100.213 C107.1531,98.179 107.8371,95.986 106.8281,93.892 C106.0511,92.277 106.0771,90.275 105.7461,88.445 C105.8401,87.144 106.0981,85.808 104.9371,84.784 C104.8371,83.921 105.0461,82.801 104.5811,82.238 C102.7211,79.984 103.5221,78.09 105.1941,76.37 C105.6351,75.916 105.9681,75.801 105.4971,75.259 C104.6551,74.29 105.0671,73.242 105.2891,72.203 C104.9901,70.699 104.6901,69.195 104.3921,67.69 C104.5421,66.942 104.6921,66.194 104.8431,65.445 C104.2171,64.557 104.7671,62.942 103.1321,62.677 C103.1341,62.538 103.1031,62.407 103.0391,62.284 C102.7921,61.77 102.4841,61.276 102.3101,60.74 C100.6081,55.532 99.0301,50.281 97.1961,45.121 C96.4641,43.063 95.1791,41.201 94.1451,39.249 C93.9511,38.654 93.7571,38.058 93.5631,37.462 C93.4451,37.063 93.3821,36.638 93.2011,36.27 C92.3121,34.464 91.1911,32.74 90.5581,30.851 C90.1751,29.708 89.8201,29.014 88.6031,28.872 C88.3161,28.839 87.8531,28.593 87.8191,28.388 C87.3351,25.374 84.9581,23.706 83.1121,21.661 C82.8701,21.392 82.5431,21.165 82.3921,20.852 C81.7701,19.569 81.2151,18.254 80.6111,16.963 C80.0541,15.769 78.9791,15.304 77.8471,15.695 C76.4361,16.183 75.1421,17.009 73.7961,17.689 C73.3541,17.952 72.5331,18.213 72.5321,18.479 C72.5221,20.028 71.9441,21.714 73.2841,23.046 L73.1321,23.838 C72.6281,23.647 71.8131,23.587 71.6721,23.246 C70.5411,20.525 68.9151,17.967 68.7431,14.909 C69.3791,13.511 67.6201,13.54 67.3971,12.654 C67.1381,12.348 66.8791,12.043 66.6201,11.737 C66.4291,10.989 66.2371,10.24 66.0461,9.492 C66.5981,7.432 64.4781,6.838 63.7821,5.449 C62.9451,3.779 61.1841,4.8 59.8551,4.509 L58.9181,2.693 L58.0481,0.91 L57.5941,0.002 C56.9601,0 56.3271,0 55.6941,0 C55.4111,0.553 55.0621,1.083 54.8581,1.664 C54.2551,3.379 54.9971,5.222 54.1841,7.029 C53.7901,7.903 54.2491,9.614 54.9361,10.42 C56.0221,11.694 56.0911,13.024 56.1481,14.473 L56.1481,14.473 Z" id="Fill-3"></path>
                            <path d="M167.628,48.743 C167.886,49.037 168.146,49.332 168.404,49.626 C168.146,49.332 167.886,49.037 167.628,48.743 C167.485,48.496 167.363,48.23 167.227,47.978 C167.363,48.23 167.485,48.496 167.628,48.743 L167.628,48.743 Z M170.974,44.405 C170.966,44.423 170.958,44.441 170.95,44.458 C170.914,44.537 170.878,44.625 170.845,44.715 C170.809,44.81 170.933,44.965 170.991,45.095 C170.883,45.836 170.843,46.392 170.85,46.87 C170.819,46.292 170.808,45.712 170.785,45.134 C170.601,44.928 170.32,44.735 170.2,44.52 C170.317,44.684 170.594,44.741 170.974,44.405 L170.974,44.405 Z M156.523,72.654 C156.503,72.685 156.487,72.715 156.494,72.737 C156.486,72.712 156.499,72.681 156.523,72.654 L156.523,72.654 Z M159.333,79.64 L159.333,79.64 C159.47,79.659 159.608,79.667 159.746,79.682 C159.608,79.667 159.47,79.659 159.333,79.64 L159.333,79.64 Z M163.06,63.1 C162.853,62.982 162.642,62.862 162.435,62.744 C162.429,62.757 162.422,62.774 162.416,62.788 C162.357,62.753 162.303,62.722 162.247,62.689 C162.332,62.592 162.43,62.461 162.485,62.439 C162.452,62.481 162.482,62.664 163.06,63.1 L163.06,63.1 Z M171.485,80.045 C171.456,79.966 171.432,79.878 171.408,79.789 C171.432,79.878 171.456,79.966 171.485,80.045 L171.485,80.045 Z M171.671,44.109 C171.677,44.138 171.674,44.169 171.66,44.195 C171.673,44.172 171.671,44.141 171.671,44.109 L171.671,44.109 Z M156.8,73.556 C155.759,73.285 154.827,73.097 154.554,71.667 C154.802,72.966 155.595,73.234 156.585,72.967 C156.702,73.225 156.878,73.492 157.021,73.493 C157.13,73.493 157.24,73.438 157.351,73.367 C158.234,74.065 159.362,73.757 160.194,74.793 C159.21,73.567 157.806,74.24 156.8,73.556 L156.8,73.556 Z M148.302,60.023 C148.454,61.377 148.608,62.731 148.762,64.085 C148.886,64.638 149.007,65.191 149.134,65.743 C149.456,67.142 149.782,68.541 150.107,69.94 C150.185,70.733 150.196,71.54 150.354,72.317 C150.683,73.945 151.087,75.558 151.46,77.178 C151.75,79.08 152.015,80.988 152.36,82.881 C152.405,83.127 152.87,83.296 153.142,83.501 C153.29,83.801 153.44,84.101 153.589,84.401 C153.631,85.298 153.673,86.194 153.716,87.091 C153.868,87.543 154.02,87.995 154.171,88.448 C154.202,88.725 154.168,89.031 154.275,89.275 C155.399,91.825 156.614,94.337 157.638,96.926 C157.883,97.547 158.22,97.656 158.627,98.002 C160.033,99.199 161.591,98.722 163.097,98.807 C163.857,98.849 164.425,98.722 164.544,99.89 C164.656,100.989 165.28,102.075 165.843,103.074 C166.157,103.632 167.478,105.431 167.634,105.903 C168.31,107.96 167.62,110.481 169.761,112.068 C169.995,112.242 169.753,112.96 169.901,113.363 C170.382,114.672 169.762,116.339 171.184,117.337 C171.361,117.864 171.669,118.386 171.69,118.918 C171.737,120.111 172.232,120.808 173.44,120.945 C174.448,121.238 175.625,122.01 176.431,121.727 C178.288,121.076 179.405,121.607 180.719,122.881 C182.16,124.28 183.06,123.838 183.894,121.831 C184.366,120.697 184.773,119.37 185.63,118.596 C187.422,116.975 187.955,115.055 187.855,112.801 L188.394,111.955 C188.687,111.805 189.136,111.728 189.247,111.492 C189.794,110.339 190.035,108.975 190.792,108.003 C191.848,106.645 190.812,106.46 190.021,106.055 C189.653,105.867 189.227,105.792 188.827,105.666 C188.069,105.925 187.313,106.182 186.556,106.441 C185.648,106.536 184.72,106.681 184.245,105.594 L184.245,104.674 C184.055,103.637 183.981,102.56 183.642,101.574 C183.292,100.554 183.535,100.379 184.514,100.506 C184.875,100.554 185.283,100.244 185.671,100.098 C186.424,99.947 187.177,99.796 187.931,99.645 C188.222,99.708 188.512,99.771 188.802,99.833 C189.083,97.554 190.037,95.393 189.569,92.972 C189.122,90.656 188.776,88.248 188.91,85.911 C189.05,83.488 188.21,81.3 187.979,78.987 C187.886,77.617 188.663,76.152 187.532,74.896 C187.515,74.674 187.509,74.449 187.476,74.229 C187.106,71.771 187.41,69.256 186.761,66.811 C186.003,63.965 185.376,61.084 184.692,58.219 C184.435,56.859 184.175,55.499 183.917,54.139 C182.849,54.145 181.78,54.151 180.712,54.156 C181.78,54.151 182.849,54.145 183.917,54.139 L182.892,51.903 L182.892,50.557 C182.273,47.588 181.074,44.876 179.282,42.429 C179.024,41.971 178.767,41.513 178.509,41.055 C178.466,41.065 178.42,41.071 178.374,41.072 C178.42,41.071 178.465,41.065 178.509,41.055 C178.357,40.251 178.362,39.552 177.694,38.752 C176.461,37.277 175.005,37.505 173.507,37.416 C171.204,36.588 170.319,36.709 169.894,39.669 C169.83,40.112 169.871,40.569 169.864,41.02 C167.921,41.489 165.976,41.947 164.038,42.435 C163.638,42.536 162.916,42.828 162.932,42.894 C163.301,44.468 161.826,44.929 161.243,45.917 C160.564,47.071 159.75,47.995 158.679,48.742 C158.534,49.044 158.388,49.346 158.243,49.647 C157.482,51.641 157.458,51.753 156.755,51.603 C154.657,51.159 152.459,51.949 150.399,51.022 C149.92,50.806 149.043,50.568 148.861,50.779 C148.473,51.232 148.403,51.968 148.237,52.597 C148.183,52.807 148.232,53.044 148.233,53.269 C148.107,53.863 147.981,54.456 147.854,55.05 L148.302,60.023 Z" id="Fill-5"></path>
                            <path d="M185.673,361.3846 C185.143,360.7846 184.621,360.1776 184.092,359.5766 C184.621,360.1776 185.143,360.7846 185.673,361.3846 C185.758,361.8916 185.843,362.3986 185.929,362.9056 C185.843,362.3986 185.758,361.8916 185.673,361.3846 M149.28,351.0366 L149.28,351.0366 C149.329,351.1136 149.374,351.1996 149.419,351.2886 C149.374,351.1996 149.329,351.1136 149.28,351.0366 M169.107,346.0486 C169.366,346.1426 169.625,346.2496 169.886,346.3466 C169.625,346.2496 169.366,346.1426 169.107,346.0486 M173.782,387.4566 C173.856,387.4016 173.939,387.3156 174.015,387.2476 C173.939,387.3156 173.856,387.4016 173.782,387.4566 C173.898,387.5386 174.013,387.6216 174.13,387.7066 C174.013,387.6216 173.898,387.5386 173.782,387.4566 M155.65,362.5736 C155.717,362.5206 155.841,362.4836 155.926,362.4346 L155.927,362.4346 C155.841,362.4836 155.717,362.5206 155.65,362.5736 M157.252,357.3226 C157.252,357.4736 157.252,357.6236 157.253,357.7746 C157.101,357.9266 156.95,358.0776 156.798,358.2306 C156.95,358.0776 157.101,357.9266 157.253,357.7746 C157.252,357.6236 157.252,357.4736 157.252,357.3226 M165.161,348.6806 C165.175,348.5556 165.187,348.4346 165.191,348.3316 C165.187,348.4346 165.175,348.5556 165.161,348.6806 M174.868,367.0346 C174.954,367.0756 175.049,367.1396 175.142,367.1966 C174.995,367.4286 174.845,367.5986 174.694,367.7306 C174.758,367.6046 174.811,367.4486 174.846,367.2496 C173.661,367.0796 173.51,366.1596 173.538,365.2556 C173.511,366.1386 173.665,367.0236 175.39,366.4866 C175.204,366.6826 175.035,366.8596 174.868,367.0346 M176.48,366.5156 C176.487,366.5426 176.487,366.5676 176.474,366.5816 C176.485,366.5696 176.481,366.5406 176.48,366.5156 M191.459,357.7786 C191.583,356.8026 191.146,356.3886 190.182,356.5006 C189.749,356.4676 189.316,356.4356 188.882,356.4026 C188.49,356.0066 188.296,354.9776 187.476,355.9646 C187.198,355.7416 186.897,355.5446 186.65,355.2936 C185.747,354.3746 184.935,352.7326 183.96,352.6346 C180.519,352.2866 179.134,350.2236 177.888,347.3676 C177.189,345.7666 175.629,344.3186 173.43,344.4286 C171.669,344.5176 170.261,344.1026 169.882,342.0856 C169.777,341.5246 169.706,340.8966 169.403,340.4446 C168.83,339.5896 167.783,338.0536 167.487,338.1736 C165.384,339.0226 165.47,337.2176 164.786,336.2876 C164.415,335.7826 164.006,334.8906 163.121,335.7446 C162.684,335.7126 162.246,335.6796 161.809,335.6476 C161.581,335.5216 161.252,335.2296 161.144,335.2956 C159.98,336.0146 158.849,336.7886 157.71,337.5486 C155.991,338.4046 154.257,339.2296 152.56,340.1216 C150.503,341.2026 150.091,342.1556 150.682,344.1926 C151.105,345.6456 150.73,346.3276 149.198,346.4616 C148.392,346.5326 148.182,346.7876 148.21,347.5306 C148.226,347.9506 148.159,348.4426 147.948,348.7936 C146.915,350.5166 147.615,351.8976 148.67,353.2796 C148.936,353.6256 149.03,354.1356 149.11,354.5866 C149.298,355.6526 149.319,356.7606 149.616,357.7916 C149.929,358.8806 150.816,359.8816 150.872,360.9516 C151.04,364.0886 152.433,366.8476 153.78,369.4536 C154.964,371.7446 155.528,373.9996 155.966,376.4476 C156.206,377.7966 155.808,379.6216 157.652,380.3516 C157.652,380.8016 157.652,381.2526 157.65,381.7026 C158.034,382.4686 158.419,383.2336 158.802,383.9976 C159.323,385.0376 159.843,386.0766 160.362,387.1156 C159.708,388.0266 160.13,388.7246 160.806,389.3726 C161.224,389.6356 161.644,389.8946 162.259,389.5976 C162.269,389.5516 162.282,389.5056 162.302,389.4666 C162.281,389.5116 162.269,389.5546 162.259,389.5976 C162.257,389.6066 162.252,389.6136 162.251,389.6226 C162.22,389.8126 162.361,390.0296 162.425,390.2336 C162.533,390.1506 162.666,390.0756 162.781,389.9946 C163.534,391.1366 164.578,391.0186 165.425,390.1826 C164.464,391.1316 163.249,391.1596 162.213,390.2576 C161.744,389.9626 161.276,389.6676 160.806,389.3726 C161.105,390.0236 161.254,391.0686 161.73,391.2486 C163.111,391.7716 163.179,392.9766 163.548,394.0116 C164.553,396.8306 165.372,399.7246 166.748,402.3946 C167.851,404.5346 169.976,405.5896 171.873,406.8616 C172.004,406.9486 172.36,406.9066 172.466,406.7916 C173.277,405.9186 174.03,404.9916 174.845,404.1216 C175.675,403.2346 176.618,402.4456 177.4,401.5196 C178.827,399.8266 180.24,398.1446 182.387,397.3136 C182.44,397.2926 182.472,397.1906 182.49,397.1186 C182.941,395.4306 183.71,393.7376 182.441,392.0656 C182.323,391.5966 182.206,391.1276 182.088,390.6586 C181.989,388.6686 181.209,386.9506 180.096,385.3216 C179.48,384.4206 177.679,383.8006 179.161,382.1786 C179.318,382.0076 178.869,381.2846 178.702,380.8176 C178.46,380.1446 178.302,379.4256 177.96,378.8086 C177.191,377.4166 177.743,375.5446 176.257,374.3726 C175.998,374.1676 175.882,372.9506 177.088,373.1586 C177.399,372.8606 177.709,372.5616 178.02,372.2616 C178.212,372.3456 178.474,372.5566 178.587,372.4946 C179.921,371.7716 181.155,370.6966 182.573,370.3456 C183.844,370.0316 184.607,369.8076 184.345,368.3826 C184.25,367.8716 184.069,367.3726 183.888,366.8836 C183.302,365.3036 183.371,365.2566 185.015,364.8886 C185.846,364.7026 186.644,364.3016 187.411,363.9086 C188.696,363.2506 189.924,362.4806 191.215,361.8336 C193.039,360.9216 193.206,360.4626 192.15,358.6396 C191.967,358.3246 191.692,358.0646 191.459,357.7786" id="Fill-7"></path>
                            <path d="M138.755,171.0018 C138.643,170.7708 138.513,170.5438 138.411,170.3098 C138.52,170.4928 138.704,170.5968 138.989,170.5178 C138.919,170.6088 138.849,170.7008 138.778,170.7908 C138.913,170.8588 139.088,171.0168 139.172,170.9778 C139.235,170.9478 139.294,170.9058 139.355,170.8698 C139.888,171.4838 140.431,171.6688 140.776,171.1328 C140.355,171.7988 139.61,171.5268 138.755,171.0018 M162.665,183.6348 C162.401,183.5908 162.14,183.5418 161.876,183.4978 C162.14,183.5418 162.401,183.5908 162.665,183.6348 C163.262,183.6738 163.793,183.7878 164.255,183.9708 C163.793,183.7878 163.262,183.6738 162.665,183.6348 M145.667,183.1798 C145.654,183.1948 145.64,183.2068 145.623,183.2118 C145.639,183.2078 145.652,183.1908 145.667,183.1798 M145.338,182.0288 C145.139,181.8678 144.93,181.7168 144.698,181.6108 C144.97,181.7348 145.208,181.9158 145.332,182.0158 C145.334,182.0208 145.335,182.0238 145.338,182.0288 M144.619,181.3788 C145.7,181.4078 146.602,181.7048 147.267,182.3388 C146.669,181.7858 145.948,181.6428 145.32,181.9898 C143.894,180.9268 142.921,180.2058 142.003,179.6298 C142.892,180.1828 143.746,180.7978 144.619,181.3788 M141.767,169.3348 C141.648,169.4678 141.485,169.5958 141.349,169.7278 C141.485,169.5958 141.648,169.4678 141.767,169.3348 M149.532,198.3958 C149.723,199.2098 150.122,199.4658 150.732,199.9548 C152.115,201.0638 153.552,200.6438 154.995,200.7008 C156.196,200.7018 157.398,200.7018 158.6,200.7028 C159.499,200.5928 160.398,200.4828 161.296,200.3738 C162.05,200.4728 163.183,200.3058 163.476,200.7268 C164.1,201.6168 164.694,201.4508 165.442,201.2338 C166.929,200.7998 168.415,200.3608 169.901,199.9248 C170.503,199.7738 171.106,199.6238 171.708,199.4738 C171.954,199.3198 172.188,199.1408 172.448,199.0178 C175.282,197.6758 175.673,197.8318 176.635,200.6758 C176.98,201.6958 177.294,202.7288 177.688,203.7288 C177.736,203.8538 178.192,203.8178 178.458,203.8578 C179.827,203.5898 181.198,203.3218 182.568,203.0548 C183.345,202.8978 184.125,202.7598 184.898,202.5838 C187.138,202.0738 187.896,200.6668 186.884,198.6778 C186.441,197.8068 185.725,197.0748 185.132,196.2798 L184.3,194.5428 C183.376,192.8628 182.452,191.1818 181.528,189.5018 C181.124,188.5928 180.72,187.6838 180.316,186.7738 C179.804,185.7208 180.218,184.1038 178.496,183.7878 C178.538,182.5818 176.352,182.4788 177.058,180.9098 C177.087,180.8458 176.64,180.6138 176.476,180.4108 C175.29,178.9498 175.489,176.6338 173.536,175.6438 C173.945,174.4288 172.792,173.7778 172.513,172.8108 C172.384,171.9348 172.255,171.0578 172.125,170.1808 C171.683,169.8618 171.045,169.6398 170.831,169.2078 C170.109,167.7438 169.534,166.2058 168.904,164.6958 C168.183,163.9278 167.462,163.1588 166.74,162.3898 C166.944,160.3998 166.411,159.3738 164.926,158.8978 C162.487,159.1838 159.97,158.9208 157.639,159.9818 C157.435,160.0748 157.005,159.9338 156.819,159.7558 C156.401,159.3538 156.028,158.8858 155.707,158.3978 C154.043,155.8678 152.096,153.8368 148.694,154.2588 C148.69,154.5768 148.685,154.8948 148.679,155.2128 C148.685,154.8948 148.69,154.5768 148.694,154.2588 C148.237,154.1518 147.78,154.0438 147.323,153.9368 C147.025,153.9358 146.725,153.9348 146.425,153.9328 C145.679,153.8908 144.934,153.8498 144.188,153.8078 C143.237,153.1018 142.558,153.2318 141.892,154.2948 C140.546,156.4408 140.667,158.7658 140.825,161.1178 C140.874,161.8498 140.962,162.5808 140.978,163.3128 C140.982,163.4558 140.749,163.7068 140.607,163.7218 C140.46,163.7378 140.259,163.5518 140.132,163.4088 C139.189,162.3378 138.259,161.2558 137.324,160.1778 C137.208,159.8888 137.152,159.3978 136.968,159.3438 C135.776,158.9928 134.558,158.7368 133.348,158.4498 C131.563,158.4128 131.249,158.7608 131.547,160.2988 C131.939,162.3218 133.112,164.1568 132.988,166.3068 C132.984,166.3788 133.206,166.4658 133.321,166.5458 L134.318,167.8358 C133.956,169.1588 133.523,170.4668 133.249,171.8068 C132.825,173.8918 132.872,173.8878 134.958,174.1598 C136.167,174.3168 137.295,174.3918 137.75,175.9988 C138.071,177.1338 139.049,178.0828 139.734,179.1148 C140.525,180.7548 141.962,182.1008 141.986,184.0868 C141.357,186.2448 142.962,187.3198 144.175,188.5788 C144.255,188.6618 144.457,188.6278 144.603,188.6488 C144.663,188.9548 144.732,189.2588 144.784,189.5658 C145.073,191.2598 145.376,192.9428 147.31,193.6088 C147.616,194.1688 147.925,194.7288 148.233,195.2878 C148.683,196.3198 149.28,197.3178 149.532,198.3958" id="Fill-10"></path>
                            <path d="M205.0167,271.9959 C204.4837,271.1029 203.7867,270.4969 202.3657,271.1559 C202.3447,271.1109 202.3337,271.0829 202.3157,271.0419 C202.3757,270.9379 202.3957,270.7789 202.3287,270.5029 C202.3017,270.3929 202.2477,270.2929 202.1937,270.2249 C201.9847,269.9219 201.5887,269.6259 201.1767,269.1649 C203.5107,270.0029 204.4277,270.9979 205.0167,271.9959 L205.0167,271.9959 Z M212.2897,281.9819 C212.2837,281.8759 212.2857,281.7849 212.2937,281.7089 C212.2857,281.7849 212.2837,281.8759 212.2897,281.9819 C212.1777,281.9159 212.0607,281.8549 211.9427,281.7949 C212.0607,281.8549 212.1777,281.9159 212.2897,281.9819 L212.2897,281.9819 Z M212.5377,281.3499 C212.6217,281.3319 212.7257,281.3479 212.8367,281.3839 C212.7257,281.3479 212.6217,281.3319 212.5377,281.3499 C212.4527,281.3669 212.3837,281.4179 212.3407,281.5179 C212.3837,281.4179 212.4527,281.3669 212.5377,281.3499 L212.5377,281.3499 Z M212.7337,284.6899 C212.7467,285.2359 212.9607,285.4799 213.2417,285.5099 C212.8837,285.5059 212.5357,285.2669 212.2897,284.6899 C212.1517,284.3869 211.8977,284.0789 211.9077,283.7799 C211.8987,284.0389 212.1027,284.3049 212.5327,284.5679 C212.4527,284.6089 212.3717,284.6509 212.2897,284.6899 L212.7337,284.6899 Z M204.7047,303.9919 L204.7047,303.9919 C204.5207,304.0129 204.3377,304.0329 204.1487,304.0549 C204.3377,304.0329 204.5207,304.0129 204.7047,303.9919 L204.7047,303.9919 Z M205.2707,272.4579 C205.1967,272.3139 205.1207,272.1749 205.0417,272.0399 C205.1227,272.1799 205.1987,272.3189 205.2707,272.4579 L205.2707,272.4579 Z M205.5237,272.9609 C205.4537,272.8209 205.3837,272.6819 205.3147,272.5439 C205.3857,272.6829 205.4537,272.8219 205.5237,272.9609 L205.5237,272.9609 Z M218.5867,281.4729 C218.2627,280.3809 218.0977,279.2999 217.3177,278.2759 C216.0787,276.6489 214.1847,275.2439 214.4537,272.7729 C214.4747,272.5759 214.1237,272.3039 213.9017,272.1209 C212.9407,271.3299 211.9617,270.5599 210.9897,269.7829 C210.9577,269.0909 211.5087,268.3419 210.5417,267.7489 C210.1687,267.5189 210.1357,266.7339 209.9487,266.2019 C209.6087,265.7519 208.9167,265.2379 208.9867,264.8629 C209.3327,262.9789 207.9447,263.0309 206.8307,262.5079 C205.8037,262.0239 204.9967,261.0749 204.0947,260.3309 C203.8017,260.3299 203.5087,260.3139 203.2177,260.3309 C203.5087,260.3139 203.8017,260.3299 204.0937,260.3309 C203.9447,259.8829 203.7937,259.4339 203.6437,258.9859 L203.1927,258.0659 C203.5497,256.8729 202.7337,256.3239 201.9327,255.7669 C201.9337,255.6249 201.9037,255.4899 201.8387,255.3629 C201.5627,254.4139 201.4207,253.3919 200.9737,252.5319 C200.4507,251.5279 200.5947,249.8599 198.7547,249.9119 C198.5947,249.9169 198.3667,249.5569 198.2687,249.3239 C197.6467,247.8469 196.6787,246.7569 195.0727,246.3429 C192.3587,245.1859 190.9817,246.0009 190.2567,248.6819 C189.5187,251.4099 188.3857,254.0319 187.4247,256.7009 C185.6627,257.3119 183.9017,257.9249 182.1397,258.5359 C181.9077,261.3039 183.1207,263.7479 183.9007,266.2829 C184.2307,267.3539 184.7627,268.3639 185.2037,269.4009 C185.6847,270.7389 186.1647,272.0779 186.6477,273.4159 C186.8307,274.1479 187.0067,274.8839 187.1987,275.6149 C187.8457,278.0919 189.5377,280.1929 189.7487,282.8409 C189.7917,283.3789 190.1927,283.9139 190.5067,284.3999 C191.9857,286.6899 193.4747,288.9689 192.9647,291.9059 C193.0347,293.8669 194.2597,295.1699 195.5457,296.4369 C196.0147,297.0839 196.5537,297.6899 196.9367,298.3839 C197.7317,299.8279 198.4427,301.3169 199.1887,302.7879 C199.2197,303.0749 199.2507,303.3619 199.2817,303.6489 C199.1217,305.4599 200.2937,306.5849 201.4427,307.6729 C202.1857,308.3779 203.0777,308.9269 203.8687,309.5849 C203.9387,309.6429 203.7937,310.0129 203.6967,310.2109 C203.1187,311.3829 202.5997,312.5989 203.6807,313.7169 C204.3917,314.4529 205.2197,315.4729 206.0907,315.5779 C208.1487,315.8259 210.1047,317.0989 212.2747,316.3239 C211.9787,315.2539 211.6837,314.1829 211.3877,313.1119 C208.8237,312.7409 207.3477,310.7249 205.5497,309.2059 C207.3037,310.6879 208.7567,312.6379 211.4687,312.3409 C211.4717,312.3349 211.4717,312.3279 211.4757,312.3219 C211.4717,312.3279 211.4717,312.3339 211.4697,312.3409 L211.4687,312.3409 C211.4507,312.3829 211.4327,312.4289 211.4247,312.4769 C211.3947,312.6669 211.5347,312.8839 211.5987,313.0879 C211.6267,313.0659 211.6597,313.0469 211.6887,313.0269 C211.7627,314.4679 212.0187,315.3969 212.2747,316.3239 C212.5967,316.3129 212.9197,316.3019 213.2437,316.2909 C213.6707,315.9759 214.0997,315.6609 214.5277,315.3469 C213.7547,314.3549 214.4557,313.6559 214.9367,312.8499 C215.0697,312.6249 214.7227,312.1159 214.5967,311.7369 C214.5547,311.5909 214.5127,311.4439 214.4717,311.2979 C214.7947,310.8199 215.3207,310.3789 215.4117,309.8609 C215.9717,306.6439 217.6207,303.8609 218.8017,300.8909 C218.9917,300.4149 218.6337,299.7219 218.5307,299.1289 C218.5737,298.3709 218.6167,297.6139 218.6607,296.8569 C218.2367,296.1279 219.4697,294.5889 217.5427,294.5699 C217.4467,294.5689 217.3137,294.2299 217.2677,294.0329 C216.9677,292.7319 216.6877,291.4279 216.4017,290.1239 C217.6067,289.7109 217.6057,289.3329 216.3997,288.2799 C216.2397,287.7029 216.0797,287.1249 215.9197,286.5469 C217.1607,286.8549 218.4447,287.4749 219.4347,286.0419 L219.4347,284.7029 C219.2847,284.3939 219.1327,284.0859 218.9817,283.7769 C218.8567,283.0079 218.8077,282.2149 218.5867,281.4729 L218.5867,281.4729 Z" id="Fill-12"></path>
                            <path d="M127.9269,249.5008 C128.8349,250.2788 129.7429,251.0548 130.8269,251.2678 C130.8349,251.2528 130.8409,251.2368 130.8529,251.2228 C130.8409,251.2398 130.8449,251.2538 130.8369,251.2708 C130.8329,251.2698 130.8299,251.2688 130.8269,251.2678 C130.8079,251.3018 130.7969,251.3358 130.8049,251.3668 C130.8529,251.5638 131.0089,251.7668 131.1939,251.9258 C130.7419,254.0278 132.3999,254.3348 132.9349,255.3028 C132.3529,254.2498 130.4329,253.9848 131.0849,252.2078 L127.9269,249.5008 Z M132.2099,251.4378 C132.2389,251.4988 132.2609,251.5638 132.2729,251.6338 C132.2609,251.5668 132.2359,251.5018 132.2099,251.4378 L132.2099,251.4378 Z M114.3929,246.7948 C113.9729,246.6228 113.5849,246.5038 113.5189,246.8418 C113.5789,246.4858 113.9449,246.4518 114.4079,246.1798 C114.4069,246.1858 114.4059,246.1918 114.4059,246.1968 C114.3989,246.2458 114.3999,246.2968 114.4189,246.3428 C114.4539,246.4278 114.5099,246.5048 114.5719,246.5788 C114.7829,248.1418 115.0069,249.3338 116.5599,247.8138 C114.8579,249.4798 114.7519,247.8888 114.3929,246.7948 L114.3929,246.7948 Z M141.9499,262.1178 C141.6129,261.5198 141.2749,260.9208 140.9359,260.3218 L141.3839,258.5348 C141.2349,257.6258 141.0849,256.7158 140.9359,255.8068 C140.6589,255.6598 140.3839,255.5138 140.2179,255.7258 C140.2179,255.7908 140.2119,255.8368 140.2099,255.8938 C140.1179,255.7488 140.0359,255.6178 139.9639,255.5038 L139.9669,255.5068 C139.9429,255.4698 139.9179,255.4318 139.8939,255.3918 C139.8849,255.4008 139.8759,255.4108 139.8679,255.4198 C139.5079,255.1198 139.1729,254.8988 138.8449,254.7288 C139.2689,254.9338 139.6889,255.1508 140.1069,255.3668 C140.3839,255.5138 140.6589,255.6598 140.9359,255.8068 C140.7549,253.4198 139.5269,251.5728 137.9029,249.9318 C137.7099,249.6378 137.5189,249.3438 137.3249,249.0498 C136.8139,247.9978 136.6169,247.1268 137.9499,246.3948 C139.0399,245.7958 139.9479,244.8668 140.9369,244.0838 C141.7769,243.0388 141.9969,241.9768 141.0309,240.8778 C139.2129,239.9688 137.4059,239.1788 135.2809,239.9778 C134.8859,240.1258 133.4869,240.3608 133.8839,239.3498 C134.4429,237.9308 133.5919,236.7908 133.7179,235.5228 C133.7159,235.3708 133.7159,235.2188 133.7149,235.0668 C133.8009,233.5108 132.8949,233.1078 131.5559,233.2088 C130.8819,233.0558 130.2059,232.9078 129.5339,232.7498 C128.3699,232.4758 127.2089,232.1948 126.0459,231.9168 C125.4719,230.9498 124.8739,229.9958 124.3269,229.0148 C123.5289,227.5798 122.7649,226.1248 121.9879,224.6788 C121.7949,222.5898 120.4659,220.8828 118.8059,220.3558 C117.5219,219.9478 117.2259,219.0578 117.2179,218.4968 C117.2019,217.2318 116.5149,216.6918 115.6669,216.1218 C115.3879,215.6958 115.1089,215.2708 114.8279,214.8448 C113.5679,214.2168 112.3079,213.5838 110.8239,213.8438 C110.2039,213.8318 109.5829,213.8208 108.9619,213.8098 C108.1459,213.8598 107.2709,213.7408 106.5249,213.9978 C105.1689,214.4648 104.6279,214.4328 104.5259,213.1888 C104.4159,211.8578 103.8159,211.6308 102.6769,211.5528 C101.8389,211.4938 101.0359,211.0228 100.1979,210.8088 C98.6399,210.4098 98.0519,211.1998 98.5519,212.9788 C98.0319,213.9978 98.6059,214.2808 99.4829,214.3598 C100.1679,215.9968 100.9139,217.6118 101.5249,219.2758 C102.2879,221.3608 102.9409,223.4868 103.6399,225.5948 L103.6399,227.8388 C103.7039,228.1838 103.8589,228.5388 103.8179,228.8708 C103.3989,232.3138 104.1379,235.0098 108.0859,235.7318 C108.2059,235.7538 108.2789,236.0048 108.4029,236.0358 C109.8369,236.3988 109.5109,238.1588 110.2669,238.6658 C111.7309,239.6498 111.6459,240.9328 111.7599,242.2858 C111.7219,242.7238 111.6849,243.1598 111.6469,243.5968 C110.7049,243.9488 109.4859,243.9528 109.4109,245.3908 C108.6399,245.3958 107.9229,245.3748 108.0549,246.5448 C108.1629,247.4998 107.9939,248.4868 108.1049,249.4408 C108.1849,250.1358 108.3909,250.8828 108.7629,251.4628 C110.0839,253.5248 111.2519,255.6418 111.7609,258.0658 C112.8139,259.5718 113.8659,261.0788 114.9189,262.5848 C115.0699,262.8858 115.2199,263.1858 115.3699,263.4848 C115.9719,264.6888 116.5729,265.8938 117.1749,267.0968 C118.2059,269.3748 119.2769,271.6368 120.2539,273.9378 C120.7759,275.1668 122.0699,276.0658 122.8869,275.7878 C124.8999,275.1008 126.7899,275.6818 128.7259,275.6328 C129.2819,275.6178 130.0069,275.5478 130.3549,275.2008 C131.4249,274.1368 131.3759,271.0538 130.1189,270.1528 C128.8879,269.2708 129.6929,267.2418 127.9519,266.8298 C128.0159,266.6268 128.0319,266.3928 128.1499,266.2288 C128.8999,265.1738 130.8389,265.2598 131.4559,266.3728 C132.0719,267.4838 132.4429,268.9168 134.2409,268.3748 C134.5409,268.3728 134.8409,268.3708 135.1419,268.3678 C135.4599,268.2538 135.7799,268.1388 136.0989,268.0228 C136.2369,268.0198 136.3669,267.9858 136.4909,267.9238 C137.9969,267.7948 139.5209,267.7608 141.0019,267.4938 C141.6709,267.3728 142.7299,266.8528 142.7899,266.4018 C142.9899,264.9428 143.4779,263.2868 141.9499,262.1178 L141.9499,262.1178 Z" id="Fill-14"></path>
                            <path d="M75.1437,338.3768 L75.1437,338.3768 C75.3117,338.5588 75.5227,338.7338 75.7247,338.9108 C75.5227,338.7338 75.3117,338.5588 75.1437,338.3768 M69.0737,325.5948 C69.0157,325.6918 68.9577,325.7728 68.8977,325.7988 C68.8777,325.8078 68.8577,325.8098 68.8367,325.8048 C68.8577,325.8098 68.8777,325.8078 68.8977,325.7988 C68.9577,325.7728 69.0157,325.6918 69.0737,325.5948 C69.1127,325.5298 69.1517,325.4568 69.1907,325.3888 C69.1517,325.4568 69.1127,325.5298 69.0737,325.5948 M84.4387,287.9898 L84.4387,287.9898 C84.4047,287.9108 84.3737,287.8278 84.3457,287.7438 C84.3737,287.8278 84.4047,287.9108 84.4387,287.9898 M102.2647,354.6378 C102.5747,353.3508 102.0347,352.3188 101.1707,351.4758 C99.7957,350.1318 97.8877,349.2298 98.0397,346.7918 C98.0797,346.1448 98.2787,344.9088 96.8857,344.9248 C95.2437,342.0808 92.9147,339.9128 90.4227,337.8008 C89.5657,337.0748 88.3727,335.5648 89.1817,333.8818 C89.7397,333.5708 90.2977,333.2608 90.8557,332.9498 C90.8877,332.6698 90.9207,332.3888 90.9547,332.1078 C92.0997,332.2818 92.5437,331.2958 93.2407,330.7268 C93.5307,330.4348 93.8207,330.1438 94.1107,329.8518 C94.7607,329.4148 95.3647,328.8618 96.0757,328.5768 C96.6787,328.3348 97.4147,328.4468 97.2597,327.4358 C97.1597,326.7788 97.4137,325.9138 97.0757,325.4778 C96.0347,324.1288 94.7867,322.9398 93.6187,321.6898 C93.0367,320.1768 92.4527,318.6638 91.8697,317.1508 C91.8727,317.1488 91.8757,317.1478 91.8777,317.1478 C91.4327,316.5488 90.9857,315.9508 90.5397,315.3528 C90.0277,314.3378 89.4957,313.3328 89.0167,312.3038 C88.8917,312.0338 88.7897,311.5688 88.9277,311.3978 C89.3557,310.8658 89.8387,310.3188 90.4187,309.9848 C92.0987,309.0198 93.8017,308.0778 95.5647,307.2808 C96.6417,306.7938 97.3487,306.1308 97.6237,304.9988 C97.6657,304.2518 97.7077,303.5058 97.7487,302.7588 C97.5247,301.7218 97.3927,300.6528 97.0547,299.6538 C96.3467,297.5598 94.5817,295.9448 94.3907,293.5508 C94.3467,293.0018 94.5087,291.0108 92.5847,291.8438 C92.4677,291.8948 91.9957,291.4098 91.8727,291.1018 C91.6357,290.5078 91.5617,289.8538 91.3677,289.2398 C91.0477,288.2318 90.8097,287.2048 89.2977,287.3558 C88.8297,287.4028 87.8407,286.7448 87.8567,286.4508 C87.9677,284.3488 86.6857,283.2878 85.1657,282.2778 C84.4817,281.8228 83.9277,281.1728 83.3157,280.6098 C82.4767,279.4378 81.6687,278.2388 80.7707,277.1128 C80.6147,276.9178 80.0717,277.0308 79.7057,277.0018 C79.2647,276.5838 78.5787,276.2368 78.4307,275.7328 C78.1307,274.7048 77.7727,274.3058 76.5847,274.0318 C75.3407,273.7458 74.3687,272.4248 73.1697,271.7428 C72.0717,271.1178 70.8317,270.3798 69.6517,270.373789 C68.7607,270.3698 67.8647,271.4448 66.9707,272.0388 C66.5307,272.3298 66.0887,272.6198 65.6487,272.9098 C64.8967,273.3608 64.1447,273.8118 63.3917,274.2628 C62.2197,274.3618 61.5227,275.0528 61.1087,276.0958 C60.6267,278.9208 60.2777,279.3018 57.3327,280.2578 C57.2237,280.2938 57.1597,280.4688 57.0737,280.5778 C56.6557,281.4998 56.2367,282.4218 55.8177,283.3438 C56.1647,284.4728 55.9167,285.6468 56.6167,286.8208 C57.5047,288.3158 59.6257,289.6838 58.0407,291.9648 C57.9237,292.1338 58.1887,292.6458 58.3747,292.9338 C58.8467,293.6638 59.3737,294.3568 59.8797,295.0648 L60.3307,296.8818 C60.5387,297.7868 60.4537,299.1328 61.0137,299.5038 C62.0747,300.2048 62.1147,301.0078 61.8697,301.8978 C61.4977,303.2478 62.0367,304.3248 62.5857,305.4408 L63.0377,307.6998 C63.0167,308.5768 62.9697,309.4548 62.9897,310.3308 C62.9977,310.6778 63.1257,311.0318 63.2477,311.3648 C63.5907,312.2958 64.0197,313.1988 64.3017,314.1478 C64.6877,315.4398 64.9687,316.7618 65.2937,318.0698 C65.8957,319.5738 66.4967,321.0768 67.0967,322.5798 C67.6567,323.6418 68.2157,324.7028 68.7747,325.7648 C69.2687,326.6598 69.7627,327.5558 70.2577,328.4508 L70.2567,328.4508 C70.2587,328.6028 70.2587,328.7538 70.2597,328.9048 C70.4097,329.5098 70.5597,330.1138 70.7077,330.7178 C70.4407,333.8208 71.9027,336.0878 74.1967,337.9518 C74.1427,339.7848 74.7447,341.2548 75.9407,342.7498 C77.0567,344.1438 77.5757,346.0368 78.2257,347.7598 C78.3317,348.0388 77.7527,348.5728 77.5127,349.0018 C77.5037,349.0178 77.7217,349.1608 77.8337,349.2448 L81.4027,355.0838 C81.5827,355.4678 81.6927,355.9118 81.9577,356.2248 C83.2977,357.8108 84.6787,359.3618 86.0457,360.9268 C85.5467,362.0638 85.2337,363.1798 86.3947,364.1358 C86.9877,364.7288 87.5797,365.3208 88.1717,365.9138 C87.9547,370.2948 91.2477,372.1298 94.9877,372.1378 C95.5927,372.8018 96.3177,372.6788 96.8337,372.1658 C97.4897,371.5178 97.9717,370.6938 98.5287,369.9448 C99.0407,367.9118 99.2767,365.7478 100.1527,363.8848 C100.8877,362.3198 101.6277,360.7808 102.1367,359.1298 C102.2007,359.0008 102.2317,358.8638 102.2307,358.7198 C104.3057,357.5198 102.5977,356.2768 102.2707,355.0508 C102.2067,354.9138 102.2047,354.7758 102.2647,354.6378" id="Fill-16"></path>
                            <path d="M140.2179,255.7254 C140.1319,255.6424 140.0509,255.5794 139.9669,255.5064 C140.0659,255.6564 140.1569,255.7744 140.2179,255.7254" id="Fill-18"></path>
                        </g>
                    </g>
                </g>
            </g>
        </g>
    </g>
</svg>