<?xml version="1.0" encoding="UTF-8"?>
<svg width="13px" height="15px" viewBox="0 0 13 15" version="1.1" xmlns="http://www.w3.org/2000/svg" xmlns:xlink="http://www.w3.org/1999/xlink">
    <!-- Generator: Sketch 57.1 (83088) - https://sketch.com -->
    <title>location-pin-green</title>
    <desc>Created with Sketch.</desc>
    <g id="Page-1" stroke="none" stroke-width="1" fill="none" fill-rule="evenodd">
        <g id="location-pin-green" fill="#137B7A" fill-rule="nonzero">
            <path d="M6.65685402,12.6568543 L10.656854,12.6568543 C11.7614235,12.6568543 12.656854,11.7614238 12.656854,10.6568543 L12.656854,6.65685434 C12.656854,3.34314585 9.97056251,0.656854343 6.65685402,0.656854343 C3.34314553,0.656854343 0.656854025,3.34314585 0.656854025,6.65685434 C0.656854025,9.97056282 3.34314554,12.6568543 6.65685402,12.6568543 Z M6.65685402,9.65685434 C4.99999979,9.65685434 3.65685402,8.31370858 3.65685402,6.65685434 C3.65685402,5.0000001 4.99999978,3.65685434 6.65685402,3.65685434 C8.31370826,3.65685434 9.65685402,5.00000011 9.65685402,6.65685434 L9.65685402,9.65685434 L6.65685402,9.65685434 Z" id="Oval" transform="translate(6.656854, 6.656854) rotate(45.000000) translate(-6.656854, -6.656854) "></path>
        </g>
    </g>
</svg>