<?xml version="1.0" encoding="UTF-8"?>
<svg width="194px" height="33px" viewBox="0 0 194 33" version="1.1" xmlns="http://www.w3.org/2000/svg" xmlns:xlink="http://www.w3.org/1999/xlink">
    <!-- Generator: Sketch 56.3 (81716) - https://sketch.com -->
    <title>logo</title>
    <desc>Created with Sketch.</desc>
    <g id="Page-1" stroke="none" stroke-width="1" fill="none" fill-rule="evenodd">
        <g id="Landing---Donors" transform="translate(-39.000000, -23.000000)">
            <g id="Group-5">
                <g id="Group-3">
                    <g id="Group-21" transform="translate(39.000000, 23.000000)">
                        <g id="Group-20">
                            <g id="logo">
                                <g id="Group-29">
                                    <polygon id="Fill-1" fill="#110F11" points="48.0486234 11.8118126 42.8765676 11.8118126 42.8765676 25.3856462 39.5515998 25.3856462 39.5515998 11.8118126 34.3798057 11.8118126 34.3798057 8.70140952 48.0486234 8.70140952"></polygon>
                                    <g id="Group-28" transform="translate(0.000000, 0.092367)">
                                        <path d="M49.0883725,18.4289354 L54.2005072,18.4289354 C53.9145081,16.9513174 53.020663,16.11687 51.6861753,16.11687 C50.2203321,16.11687 49.362335,16.9989403 49.0883725,18.4289354 M57.3229468,19.5014973 C57.3229468,19.8589306 57.2991354,20.2877984 57.2632873,20.549986 L49.0763359,20.549986 C49.4099579,22.2183573 50.5777655,22.9455223 52.0436087,22.9455223 C53.0447361,22.9455223 54.1293345,22.540466 54.9632585,21.8371125 L56.7867967,23.8393674 C55.4758588,25.0427613 53.8072258,25.5912096 51.864892,25.5912096 C48.3256212,25.5912096 45.8704254,23.1838984 45.8704254,19.5491202 C45.8704254,15.9143419 48.2541868,13.4355963 51.7099867,13.4355963 C55.0349545,13.4355963 57.3109102,15.902567 57.3229468,19.5014973" id="Fill-2" fill="#110F11"></path>
                                        <path d="M61.5899844,19.513403 C61.5899844,21.2770201 62.7460171,22.6952404 64.5695554,22.6952404 C66.3449474,22.6952404 67.548603,21.3366796 67.548603,19.513403 C67.548603,17.6901264 66.3449474,16.3315656 64.5695554,16.3315656 C62.7460171,16.3315656 61.5899844,17.7497859 61.5899844,19.513403 L61.5899844,19.513403 Z M70.4920643,25.2933049 L67.4530955,25.2933049 L67.4530955,24.0179532 C66.7023808,24.9476464 65.5821961,25.5913405 63.9972956,25.5913405 C60.8154582,25.5913405 58.408147,22.9812394 58.408147,19.513403 C58.408147,16.0455665 60.8154582,13.4354655 63.9972956,13.4354655 C65.5821961,13.4354655 66.6906059,14.0791596 67.4530955,15.0206276 L67.4530955,13.7455377 L70.4920643,13.7455377 L70.4920643,25.2933049 Z" id="Fill-4" fill="#110F11"></path>
                                        <path d="M83.0776443,15.6165418 L80.8370132,17.4874413 C80.1339213,16.7367265 79.3832065,16.3314086 78.3703042,16.3314086 C76.7613306,16.3314086 75.4744658,17.5947236 75.4744658,19.5135076 C75.4744658,21.4440666 76.7495557,22.6953451 78.3585293,22.6953451 C79.3593951,22.6953451 80.2173922,22.2424042 80.8728612,21.5275375 L83.0894191,23.4222484 C82.0048208,24.8163956 80.384334,25.5911835 78.4537751,25.5911835 C74.7713739,25.5911835 72.3044033,23.0169304 72.3044033,19.5135076 C72.3044033,16.0215981 74.7713739,13.4355702 78.4537751,13.4355702 C80.384334,13.4355702 82.0168573,14.2221329 83.0776443,15.6165418" id="Fill-6" fill="#110F11"></path>
                                        <path d="M87.7025077,14.9848843 C88.5249185,13.8408881 89.7521239,13.4355702 91.0151773,13.4355702 C93.6373149,13.4355702 95.5079527,15.2591084 95.5079527,17.9403821 L95.5079527,25.2934095 L92.3975496,25.2934095 L92.3975496,18.9412479 C92.3975496,17.2728766 91.5636256,16.35522 90.1454053,16.35522 C88.8106559,16.35522 87.7025077,17.2255153 87.7025077,18.9650594 L87.7025077,25.2934095 L84.591843,25.2934095 L84.591843,8.1206457 L87.7025077,8.1206457 L87.7025077,14.9848843 Z" id="Fill-8" fill="#110F11"></path>
                                        <path d="M100.442784,18.4289354 L105.554918,18.4289354 C105.268919,16.9513174 104.375074,16.11687 103.040586,16.11687 C101.574743,16.11687 100.716746,16.9989403 100.442784,18.4289354 M108.677358,19.5014973 C108.677358,19.8589306 108.653547,20.2877984 108.617699,20.549986 L100.430485,20.549986 C100.764369,22.2183573 101.932177,22.9455223 103.39802,22.9455223 C104.399147,22.9455223 105.483746,22.540466 106.31767,21.8371125 L108.140946,23.8393674 C106.830008,25.0427613 105.161637,25.5912096 103.219303,25.5912096 C99.6800323,25.5912096 97.2250982,23.1838984 97.2250982,19.5491202 C97.2250982,15.9143419 99.608598,13.4355963 103.064398,13.4355963 C106.389366,13.4355963 108.665583,15.902567 108.677358,19.5014973" id="Fill-10" fill="#110F11"></path>
                                        <path d="M118.366786,13.686009 L117.901808,16.772339 C117.389731,16.5459994 116.65053,16.4031307 116.018872,16.4031307 C114.577102,16.4031307 113.587749,17.2849393 113.587749,19.0009335 L113.587749,25.293174 L110.477608,25.293174 L110.477608,13.7456685 L113.492765,13.7456685 L113.492765,15.0087219 C114.219407,13.9241235 115.327817,13.4355963 116.746037,13.4355963 C117.413281,13.4355963 117.937656,13.5308421 118.366786,13.686009" id="Fill-12" fill="#110F11"></path>
                                        <polygon id="Fill-14" fill="#110F11" points="129.871326 18.536244 123.59871 18.536244 123.59871 25.2932002 120.273742 25.2932002 120.273742 8.6092252 130.954616 8.6092252 130.954616 11.6720054 123.59871 11.6720054 123.59871 15.4734638 129.871326 15.4734638"></polygon>
                                        <path d="M143.206757,20.3714786 C143.206757,24.0180317 140.632504,25.5911573 137.748702,25.5911573 C134.852602,25.5911573 132.278611,24.0180317 132.278611,20.3714786 L132.278611,13.7456162 L135.389014,13.7456162 L135.389014,20.0972544 C135.389014,21.9446041 136.401916,22.6953189 137.748702,22.6953189 C139.08319,22.6953189 140.108129,21.9446041 140.108129,20.0972544 L140.108129,13.7456162 L143.206757,13.7456162 L143.206757,20.3714786 Z" id="Fill-16" fill="#110F11"></path>
                                        <path d="M156.554958,17.9403559 L156.554958,25.2933834 L153.444554,25.2933834 L153.444554,18.9412217 C153.444554,17.2728504 152.610369,16.3551938 151.192149,16.3551938 C149.857399,16.3551938 148.748989,17.2254892 148.748989,18.9650332 L148.748989,25.2933834 L145.638586,25.2933834 L145.638586,13.7456162 L148.66578,13.7456162 L148.66578,15.1039153 C149.487929,13.87671 150.751244,13.435544 152.062182,13.435544 C154.683796,13.435544 156.554958,15.2590823 156.554958,17.9403559" id="Fill-18" fill="#110F11"></path>
                                        <path d="M161.453496,19.513403 C161.453496,21.2770201 162.609528,22.6952404 164.432805,22.6952404 C166.208459,22.6952404 167.411853,21.3366796 167.411853,19.513403 C167.411853,17.6901264 166.208459,16.3315656 164.432805,16.3315656 C162.609528,16.3315656 161.453496,17.7497859 161.453496,19.513403 M167.257209,14.9491933 L167.257209,8.13257759 L170.355576,8.13257759 L170.355576,25.2933049 L167.316607,25.2933049 L167.316607,24.0179532 C166.565892,24.9476464 165.445707,25.5913405 163.860807,25.5913405 C160.67897,25.5913405 158.271658,22.9812394 158.271658,19.513403 C158.271658,16.0455665 160.67897,13.4354655 163.860807,13.4354655 C165.410121,13.4354655 166.506494,14.0435733 167.257209,14.9491933" id="Fill-20" fill="#110F11"></path>
                                        <path d="M175.385574,18.4289354 L180.49797,18.4289354 C180.211971,16.9513174 179.318126,16.11687 177.983377,16.11687 C176.517533,16.11687 175.659798,16.9989403 175.385574,18.4289354 M183.62041,19.5014973 C183.62041,19.8589306 183.596337,20.2877984 183.56075,20.549986 L175.373537,20.549986 C175.707159,22.2183573 176.874967,22.9455223 178.34081,22.9455223 C179.341937,22.9455223 180.426536,22.540466 181.260722,21.8371125 L183.083998,23.8393674 C181.77306,25.0427613 180.104689,25.5912096 178.162093,25.5912096 C174.622823,25.5912096 172.167888,23.1838984 172.167888,19.5491202 C172.167888,15.9143419 174.551388,13.4355963 178.00745,13.4355963 C181.332156,13.4355963 183.608373,15.902567 183.62041,19.5014973" id="Fill-22" fill="#110F11"></path>
                                        <path d="M193.309837,13.686009 L192.845122,16.772339 C192.332783,16.5459994 191.593582,16.4031307 190.961924,16.4031307 C189.520154,16.4031307 188.530801,17.2849393 188.530801,19.0009335 L188.530801,25.293174 L185.42066,25.293174 L185.42066,13.7456685 L188.435817,13.7456685 L188.435817,15.0087219 C189.162459,13.9241235 190.270869,13.4355963 191.689089,13.4355963 C192.356333,13.4355963 192.880708,13.5308421 193.309837,13.686009" id="Fill-24" fill="#110F11"></path>
                                        <path d="M15.7818874,7.70070072 C15.7818874,5.85649101 17.2820087,4.35610813 19.1262184,4.35610813 C20.9704281,4.35610813 22.470811,5.85649101 22.470811,7.70070072 C22.470811,9.61974642 21.0790188,11.0942245 19.1612814,11.2059552 C19.1089485,11.2090951 19.0471958,11.2156367 18.9951246,11.22244 C18.9783781,11.224795 17.6310688,11.3980167 15.7818874,11.1290259 L15.7818874,7.70070072 Z M25.617847,16.988997 L23.7262761,17.8859821 C20.5627552,19.386365 17.9479442,18.9938686 15.7771775,18.440187 L15.7818874,15.3488854 C17.6805233,15.5621418 19.0948187,15.4265997 19.4799885,15.3810701 C23.5773891,15.104491 26.6574392,11.8156329 26.6574392,7.70070072 C26.6574392,3.54808889 23.2788302,0.169479942 19.1262184,0.169479942 C14.9736065,0.169479942 11.5952593,3.54808889 11.5952593,7.70070072 L11.5952593,10.1988094 C9.11756037,9.75999846 5.62224916,9.58939336 1.92362482,11.1763871 L0.000130832131,12.0019379 L1.65123232,15.8494492 L3.57498797,15.0236367 C6.46140645,13.7849181 9.12331698,13.9364217 11.5952593,14.4730951 L11.5921193,17.5288104 C9.69374507,17.3160773 8.27814141,17.4510961 7.89270996,17.4968873 C3.79504762,17.7726815 0.714997595,21.0618013 0.714997595,25.1767334 C0.714997595,29.3293453 4.09334488,32.7079542 8.24595671,32.7079542 C12.3985685,32.7079542 15.7771775,29.3293453 15.7771775,25.1767334 L15.7771775,24.4092722 C15.2611756,24.3059148 14.8171313,24.2017724 14.4897893,24.1190865 L14.2425166,24.0510538 C14.1250293,24.0191307 14.0101587,23.9895627 13.8955498,23.9599946 C13.8848215,23.9568546 13.8780183,23.9547613 13.8780183,23.9547613 C13.0299644,23.6891721 12.2703531,23.5075771 11.5905493,23.3885199 L11.5905493,25.1767334 C11.5905493,27.0209431 10.0901664,28.521326 8.24595671,28.521326 C6.40174699,28.521326 4.90162578,27.0209431 4.90162578,25.1767334 C4.90162578,23.7705497 5.6505089,22.6058821 6.80418663,22.0383323 L6.80052333,22.0378089 C6.80052333,22.0378089 8.75410871,20.5957772 13.8780183,22.2023958 C13.8780183,22.2023958 13.8848215,22.2044891 13.8955498,22.2073674 C14.0101587,22.2369354 14.1250293,22.2667652 14.2425166,22.2986882 L14.4897893,22.3664593 C15.7347879,22.680718 18.6434478,23.3097589 20.9303935,23.0002101 C22.6683675,22.7647123 24.4322463,22.1265131 25.6803848,21.5929797 L27.4115556,20.7718772 L25.617847,16.988997 Z" id="Fill-26" fill="#00676B"></path>
                                    </g>
                                </g>
                            </g>
                        </g>
                    </g>
                </g>
            </g>
        </g>
    </g>
</svg>