<?xml version="1.0" encoding="UTF-8"?>
<svg width="12px" height="17px" viewBox="0 0 12 17" version="1.1" xmlns="http://www.w3.org/2000/svg" xmlns:xlink="http://www.w3.org/1999/xlink">
    <!-- Generator: Sketch 57.1 (83088) - https://sketch.com -->
    <title>share-icon</title>
    <desc>Created with Sketch.</desc>
    <g id="Page-1" stroke="none" stroke-width="1" fill="none" fill-rule="evenodd">
        <g id="share-icon" transform="translate(1.000000, 1.000000)" fill="#2B0A29" fill-rule="nonzero">
            <path d="M-0.75,8 L-0.75,13 C-0.75,14.5187831 0.481216938,15.75 2,15.75 L8,15.75 C9.51878306,15.75 10.75,14.5187831 10.75,13 L10.75,8 L9.25,8 L9.25,13 C9.25,13.6903559 8.69035594,14.25 8,14.25 L2,14.25 C1.30964406,14.25 0.75,13.6903559 0.75,13 L0.75,8 L-0.75,8 Z" id="Path-2"></path>
            <polygon id="Path-3" points="5.75 10 5.75 2 4.25 2 4.25 10"></polygon>
            <polygon id="Path-3" points="8.92967643 3.86901625 5.53033009 0.469669914 4.46966991 1.53033009 7.86901625 4.92967643"></polygon>
            <polygon id="Path-3" transform="translate(3.300327, 1.699673) scale(-1, 1) translate(-3.300327, -1.699673) " points="5.53033009 2.86901625 2.13098375 -0.530330086 1.07032357 0.530330086 4.46966991 3.92967643"></polygon>
        </g>
    </g>
</svg>