<?xml version="1.0" encoding="UTF-8"?>
<svg width="27px" height="32px" viewBox="0 0 27 32" version="1.1" xmlns="http://www.w3.org/2000/svg" xmlns:xlink="http://www.w3.org/1999/xlink">
    <!-- Generator: Sketch 56.3 (81716) - https://sketch.com -->
    <title>Fill 26</title>
    <desc>Created with Sketch.</desc>
    <g id="Page-1" stroke="none" stroke-width="1" fill="none" fill-rule="evenodd">
        <g id="Landing---Donors" transform="translate(-202.000000, -4768.000000)" fill="#FFFFFF">
            <g id="Group-13" transform="translate(40.000000, 4663.000000)">
                <g id="Group-12" transform="translate(162.000000, 105.000000)">
                    <g id="Group-29">
                        <g id="Group-28" transform="translate(0.000000, 0.089651)">
                            <path d="M15.3175873,7.30971429 C15.3175873,5.51974603 16.7735873,4.06349206 18.5635556,4.06349206 C20.3535238,4.06349206 21.8097778,5.51974603 21.8097778,7.30971429 C21.8097778,9.17231746 20.4589206,10.6034286 18.5975873,10.711873 C18.5467937,10.7149206 18.4868571,10.7212698 18.4363175,10.727873 C18.4200635,10.7301587 17.112381,10.8982857 15.3175873,10.6372063 L15.3175873,7.30971429 Z M24.864254,16.3248254 L23.0283175,17.1954286 C19.9578413,18.6516825 17.4199365,18.2707302 15.3130159,17.7333333 L15.3175873,14.7329524 C17.160381,14.9399365 18.5330794,14.808381 18.9069206,14.7641905 C22.8838095,14.495746 25.8732698,11.303619 25.8732698,7.30971429 C25.8732698,3.2792381 22.5940317,0 18.5635556,0 C14.5330794,0 11.2540952,3.2792381 11.2540952,7.30971429 L11.2540952,9.73434921 C8.84926984,9.30844444 5.4567619,9.14285714 1.86692063,10.6831746 L0,11.4844444 L1.60253968,15.2187937 L3.46971429,14.4172698 C6.2712381,13.2149841 8.85485714,13.3620317 11.2540952,13.8829206 L11.2510476,16.8487619 C9.40850794,16.6422857 8.03453968,16.7733333 7.66044444,16.8177778 C3.68330159,17.0854603 0.69384127,20.2778413 0.69384127,24.271746 C0.69384127,28.3022222 3.9728254,31.5814603 8.00330159,31.5814603 C12.0337778,31.5814603 15.3130159,28.3022222 15.3130159,24.271746 L15.3130159,23.5268571 C14.8121905,23.4265397 14.3812063,23.3254603 14.0634921,23.2452063 L13.8234921,23.1791746 C13.7094603,23.1481905 13.5979683,23.1194921 13.4867302,23.0907937 C13.4763175,23.087746 13.4697143,23.0857143 13.4697143,23.0857143 C12.6466032,22.8279365 11.9093333,22.6516825 11.2495238,22.536127 L11.2495238,24.271746 C11.2495238,26.0617143 9.79326984,27.5179683 8.00330159,27.5179683 C6.21333333,27.5179683 4.75733333,26.0617143 4.75733333,24.271746 C4.75733333,22.9069206 5.48419048,21.7765079 6.60393651,21.2256508 L6.60038095,21.2251429 C6.60038095,21.2251429 8.49650794,19.8255238 13.4697143,21.3848889 C13.4697143,21.3848889 13.4763175,21.3869206 13.4867302,21.3897143 C13.5979683,21.4184127 13.7094603,21.4473651 13.8234921,21.4783492 L14.0634921,21.544127 C15.271873,21.8491429 18.0949841,22.4596825 20.3146667,22.1592381 C22.0015238,21.9306667 23.7135238,21.3112381 24.9249524,20.7933968 L26.6052063,19.9964444 L24.864254,16.3248254 Z" id="Fill-26"></path>
                        </g>
                    </g>
                </g>
            </g>
        </g>
    </g>
</svg>