<?xml version="1.0" encoding="UTF-8"?>
<svg width="165px" height="163px" viewBox="0 0 165 163" version="1.1" xmlns="http://www.w3.org/2000/svg" xmlns:xlink="http://www.w3.org/1999/xlink">
    <!-- Generator: Sketch 57.1 (83088) - https://sketch.com -->
    <title>twitter-watermark</title>
    <desc>Created with Sketch.</desc>
    <g id="Page-1" stroke="none" stroke-width="1" fill="none" fill-rule="evenodd" fill-opacity="0.204463505">
        <g id="Promote" transform="translate(-646.000000, -631.000000)" fill="#FFFFFF" fill-rule="nonzero">
            <g id="Group-26-Copy" transform="translate(646.000000, 238.000000)">
                <g id="Path">
                    <path d="M27.896,555.511752 C103.368,555.511752 144.648,492.983752 144.648,438.759752 C144.648,436.983752 144.648,435.215752 144.528,433.455752 C152.558651,427.647039 159.490844,420.454787 165,412.215752 C157.511032,415.534166 149.566634,417.710381 141.432,418.671752 C149.997952,413.543609 156.408988,405.477928 159.472,395.975752 C151.41726,400.755395 142.605169,404.123848 133.416,405.935752 C120.696662,392.410906 100.485755,389.100653 84.1163942,397.861192 C67.7470335,406.62173 59.2901999,425.274358 63.488,443.359752 C30.4951659,441.705749 -0.244193754,426.122338 -21.08,400.487752 C-31.9710179,419.23691 -26.4080969,443.222628 -8.376,455.263752 C-14.9060704,455.070213 -21.293765,453.308658 -27,450.127752 C-27,450.295752 -27,450.471752 -27,450.647752 C-26.9946549,470.180496 -13.2259881,487.004034 5.92,490.871752 C-0.121043237,492.519273 -6.4593553,492.760107 -12.608,491.575752 C-7.23241657,508.291135 8.17259649,519.742023 25.728,520.071752 C11.1978803,531.491208 -6.75152391,537.690374 -25.232,537.671752 C-28.4967714,537.665485 -31.7583675,537.467812 -35,537.079752 C-16.2349124,549.121965 5.59930721,555.509488 27.896,555.479752" id="twitter-watermark"></path>
                </g>
            </g>
        </g>
    </g>
</svg>