<svg xmlns="http://www.w3.org/2000/svg" width="198.001" height="285" viewBox="0 0 198.001 285">
  <g id="decorative_brush" data-name="decorative brush" transform="translate(0.001 0)">
    <path id="Fill_1" data-name="Fill 1" d="M51.822,92h0a4.043,4.043,0,0,1-1.637-.383l-1.226-.3-1.376-.587-1.5-.642q-.3-.438-.589-.878l-.221-.331c-.122-.131-.252-.26-.378-.385a5.285,5.285,0,0,1-.775-.887,3.78,3.78,0,0,0-1.707-1.656c-1.49-.7-3.237-1.781-3.526-3.958a3.7,3.7,0,0,0-.314-.218c-.243-.157-.494-.318-.487-.469.053-1.493-.931-2.319-1.883-3.117l-.005,0-.2-.17-1.3,3.572L34,82.406l-.009.011-.116.39c-.037.139-.071.281-.1.419a8.731,8.731,0,0,1-.234.848c-.482,1.363-.753,1.918-1.5,1.918a6.212,6.212,0,0,1-1.748-.429,5.158,5.158,0,0,0-.43-.349,1.845,1.845,0,0,1-.743-.81,5.489,5.489,0,0,0-2.367-2.878A11.39,11.39,0,0,1,25.412,80.4a.1.1,0,0,0-.076-.023.934.934,0,0,0-.172.026,1.322,1.322,0,0,1-.139.024c-.335.136-.683.321-1.02.5a4.774,4.774,0,0,1-1.994.727,1.452,1.452,0,0,1-.25-.021,4.936,4.936,0,0,1-2.323-1.74c-.157-.17-.306-.329-.455-.482l-.057-.058a19.2,19.2,0,0,1-2.778-3.317,14.37,14.37,0,0,1-1.1-2.514c-.188-.515-.382-1.047-.607-1.553a4.219,4.219,0,0,0-.674-.961c-.091-.107-.185-.218-.273-.329-.165-.208-.341-.417-.511-.618-.986-1.167-2.005-2.373-1.312-4.193a4.465,4.465,0,0,0-.574-.563c-.592-.516-1.2-1.049-.624-2.08.061-.109.258-.145.449-.18a2.293,2.293,0,0,0,.257-.057c1.122-2.532.708-4.119-1.642-6.289a5.466,5.466,0,0,1-1.7-3.174c-.062-.37-.427-.676-.814-1a5.347,5.347,0,0,1-.551-.506,4.978,4.978,0,0,1-.418-.577c-.263-.4-.511-.779-.824-.83a.914.914,0,0,0-.146-.011,2.845,2.845,0,0,0-1.157.4,6.393,6.393,0,0,1-.644.3,1.554,1.554,0,0,1-.4.068c-.063.005-.129.01-.192.019l-1.221.4C.08,51.25-.283,50.405.207,48.866c.03-.252.059-.506.088-.758L1.712,46.5l1.427-1.621c-.254-.9.268-1.415.773-1.909a3.034,3.034,0,0,0,.735-.932c.129-.226.246-.468.36-.7a5.2,5.2,0,0,1,.9-1.442c1.341-1.337,1.51-2.171.787-3.883a2.436,2.436,0,0,1-.418-2.814l.008.006.008.006c.051-.233.095-.474.137-.706a7.963,7.963,0,0,1,.408-1.61,5.542,5.542,0,0,1,.788-1.227c.13-.169.265-.343.388-.519.425-1.027,1.293-1.147,2.132-1.263a3.873,3.873,0,0,0,1.35-.353c.289-.161.59-.313.881-.461l.418-.213c-.084-.1-.176-.192-.264-.285a3.674,3.674,0,0,1-.551-.675,3.684,3.684,0,0,1-.31-.81c-.036-.123-.074-.249-.116-.372l.116-2.036q-.4-1.412-.808-2.825v-.015q0-.594,0-1.189-.07-.357-.138-.714c-.109-.567-.221-1.154-.348-1.727-.022-.1-.043-.2-.065-.3V15.9a9.373,9.373,0,0,0-.424-1.546,8.7,8.7,0,0,1,.275-7.813,12.566,12.566,0,0,0,.7-1.669c.093-.254.189-.517.291-.772l.139-.26.3-.558c.077-.2.144-.416.209-.622a5.047,5.047,0,0,1,.554-1.315A3.956,3.956,0,0,1,15.422,0a3.047,3.047,0,0,1,.953.14,1,1,0,0,1,.437.845,18.226,18.226,0,0,0,.63,6.054,27.323,27.323,0,0,1,.67,3.975c1.313,1.4,1.273,3.109,1.234,4.759-.009.4-.019.814-.01,1.217a4.624,4.624,0,0,0,.466.472,1.7,1.7,0,0,1,.779,1.576c.066.142.142.285.215.423a3.687,3.687,0,0,1,.393.93c.219,1.02.412,2.063.6,3.071.123.66.249,1.342.382,2.012.052.263.211.78.339.783,1.083.029,1.168.66,1.268,1.39.019.139.038.282.065.424.211,1.111.524,2.222.827,3.3.129.456.261.926.384,1.39a1.205,1.205,0,0,1,.374.634c.127.361.257.733.736.733a1.316,1.316,0,0,0,.3-.038q.077.378.152.755l.067.332.182.085c-.47.845.013,1.446.547,1.921a.271.271,0,0,0,.171.04c.2,0,.519-.083.537-.158a2.52,2.52,0,0,1,.389-.777,1.558,1.558,0,0,0,.3-1.643l-.114-.26c-.562-1.282-1.143-2.608-.5-4.161.129-.315-.122-.791-.366-1.251a6.2,6.2,0,0,1-.306-.634l-.074-.117c-.385-.611-.781-1.24-.01-1.906.027-.135.055-.271.083-.406l-.175-.667q-.174-.663-.346-1.326c-.034-.4-.059-.8-.083-1.191A20.714,20.714,0,0,0,26.618,20a21.052,21.052,0,0,0-.762-2.628c-.126-.374-.257-.762-.376-1.145q.126-.631.252-1.263l.152-.764-.463-.628,0-.006c-.355-.48-.721-.975-1.073-1.468-.9-1.268-.641-2.618.741-3.8,1.433-1.226,2.942-2.423,4.358-3.533a1.948,1.948,0,0,1,1.188-.491c.664,0,1.321.5,2.069,1.562A12.976,12.976,0,0,1,34.68,9.792a8.944,8.944,0,0,0,1.71,3.7,3.826,3.826,0,0,1,.886,2.943,10.021,10.021,0,0,0,.468,2.938c.11.421.224.855.31,1.281l1.184,2.388c1.294.774,1.606,2.08,1.908,3.344.039.163.079.331.121.5a12.786,12.786,0,0,0,.462,1.382c.141.373.287.759.4,1.148a24.029,24.029,0,0,0,2.07,4.6,25.8,25.8,0,0,1,1.987,4.313A25.1,25.1,0,0,0,48,42.307c.3.575.617,1.169.9,1.762v.41c.2,1.791,1.286,2.954,2.439,4.186.242.258.492.526.731.8a2.458,2.458,0,0,1,.85,1.921c-.091.559-.565,1.069-1.491,1.6q-1.544,1.189-3.09,2.382l-.573.442-.627.816-.27.352c.112.289.229.582.342.866.259.65.527,1.322.756,1.995.355,1.049.655,2.109.982,3.286a1.527,1.527,0,0,1,.016.441c-.009.166-.017.31.036.331,1.162.46,1.379,1.444,1.588,2.395a4.479,4.479,0,0,0,.6,1.661,15.5,15.5,0,0,1,1.665,3.483c.109.286.22.579.333.864a2.6,2.6,0,0,1,.141.862,2.257,2.257,0,0,0,.482,1.493,29.067,29.067,0,0,1,2.5,3.821c.427.735.869,1.494,1.338,2.215a1.441,1.441,0,0,1-.092,1.972,19.577,19.577,0,0,0-3.843,7.987A1.742,1.742,0,0,1,51.822,92ZM22.569,59h0l.221.265.12.144a7.861,7.861,0,0,1,2.239.576c-.624-.244-1.259-.485-1.874-.718l-.048-.018L22.569,59Zm-.881-.744c.228.195.48.429.842.782L22.569,59h0c-.139-.115-.28-.235-.416-.352C22,58.518,21.845,58.384,21.688,58.255ZM17.929,25.536h0a1.354,1.354,0,0,1,.294.3l.057.066.017-.026c.007-.009.013-.019.02-.03a1.831,1.831,0,0,1,.7-.119,3.792,3.792,0,0,1,.589.051c-.334-.066-.676-.125-1.007-.182l-.5-.086a3.458,3.458,0,0,1-.266-.284c-.182-.209-.37-.425-.571-.455.222.033.432.3.722.667.1.124.207.262.329.408-.059-.006-.154-.1-.238-.184A.581.581,0,0,0,17.929,25.536Z" transform="translate(0 93)" fill="#3f093d"/>
    <path id="Fill_3" data-name="Fill 3" d="M32.466,114a4.374,4.374,0,0,1-2.749-1.327c-.546-.624-1.127-1.236-1.688-1.828-.466-.492-.948-1-1.408-1.512a.758.758,0,0,1-.1-.469,2.213,2.213,0,0,0-.015-.246l-.723-1.455-.483-.973c-.163-.306-.325-.621-.481-.924-.356-.692-.723-1.406-1.137-2.075a8.14,8.14,0,0,0-.712-.931,5.53,5.53,0,0,1-.919-1.332,21.076,21.076,0,0,1-1.2-4.005,4.3,4.3,0,0,1-.067-.662c-.034-.686-.066-1.333-1.058-1.515.077-.366.155-.734.231-1.1l-.386-.814c-.155-.278-.327-.554-.494-.82a5.217,5.217,0,0,1-1.13-3.438c.024-.221-.153-.451-.341-.694a1.661,1.661,0,0,1-.376-.669,5.953,5.953,0,0,1-.028-1.177,3.878,3.878,0,0,0-.141-1.568,28.283,28.283,0,0,1-1.029-3.381,19.884,19.884,0,0,0-1.668-4.74.993.993,0,0,1,.021-.638,2.951,2.951,0,0,0,.061-.322c-.107-.4-.2-.821-.293-1.225a14.076,14.076,0,0,0-.837-2.794A2.891,2.891,0,0,1,13.24,68.9a18.764,18.764,0,0,0-.587-1.914,8.506,8.506,0,0,1-.688-4.376,3.344,3.344,0,0,1-.835-2.686,4.619,4.619,0,0,0-.3-1.965q0-.406,0-.814-.382-1.606-.765-3.213l-.488-2.05.032-1.35.016-.675L9.11,48.225,8.933,48l-.176-.229a1.081,1.081,0,0,1-.806-.265,1.505,1.505,0,0,1-.234-1.113,2.08,2.08,0,0,0-.049-.693,5.659,5.659,0,0,1-.148-2.132,9.325,9.325,0,0,0,0-1.478c-.1-.921-.273-1.848-.442-2.745-.114-.605-.231-1.23-.324-1.848a3.952,3.952,0,0,1,.018-.957c.014-.146.029-.3.036-.444l-.8-1.636q-.106-.355-.213-.709l0-.015c-.183-.606-.371-1.233-.544-1.853l-.016-.056a1.37,1.37,0,0,1-.079-.727,5.558,5.558,0,0,0-.365-3.51,6.136,6.136,0,0,1-.462-3.106,2.71,2.71,0,0,1-.668-2.354,2.857,2.857,0,0,0-.229-1.605,5.741,5.741,0,0,1-.656-3.3,9.546,9.546,0,0,0-.094-1.785A1.273,1.273,0,0,1,1.733,15a1.356,1.356,0,0,1,.036-1.084,1.793,1.793,0,0,0,.11-.92A5.425,5.425,0,0,0,.8,9.36,3.588,3.588,0,0,1,.13,6.314,6,6,0,0,0,.5,3.7a6.29,6.29,0,0,1,.232-2.2,6.872,6.872,0,0,1,.5-1.037c.083-.15.168-.3.246-.457H3.167l.4.815.775,1.6L5.181,4.05A2.42,2.42,0,0,0,5.7,4.1c.24,0,.485-.024.723-.047s.486-.046.72-.046A1.516,1.516,0,0,1,8.68,4.9a4.263,4.263,0,0,0,.958,1.132c.678.637,1.379,1.3,1.059,2.5l.256,1.008,0,.011.253,1,.492.587.2.238c.077.311.369.5.65.682.439.284.894.578.548,1.343a15.542,15.542,0,0,0,1.788,5.653c.279.6.566,1.218.821,1.836.086.21.459.3.819.393a4.429,4.429,0,0,1,.481.139l.136-.711a3.559,3.559,0,0,1-.728-3.138c.028-.318.057-.647.059-.964,0-.164.349-.328.685-.486.156-.073.316-.149.441-.224.362-.184.725-.384,1.076-.577A17.044,17.044,0,0,1,21.21,14.1a2.1,2.1,0,0,1,.689-.122,1.96,1.96,0,0,1,1.772,1.26c.229.493.453,1,.67,1.486.295.662.6,1.345.916,2.008a1.846,1.846,0,0,0,.414.5c.077.074.157.15.228.229.36.4.749.794,1.125,1.174,1.343,1.354,2.731,2.755,3.068,4.87.03.179.431.4.7.435,1.114.13,1.413.788,1.742,1.778a21.431,21.431,0,0,0,1.542,3.307c.274.509.556,1.035.813,1.56a3.615,3.615,0,0,1,.231.723c.028.115.057.234.091.348l.518,1.606c.288.547.6,1.1.906,1.625a22.712,22.712,0,0,1,1.812,3.649c1.1,3.122,2.114,6.333,3.094,9.439.475,1.506.966,3.062,1.462,4.591a6.294,6.294,0,0,0,.433.958c.073.14.148.285.217.429a.745.745,0,0,1,.083.354c.947.154,1.073.833,1.2,1.489a2.544,2.544,0,0,0,.328,1l-.1.5-.005.027q-.148.744-.3,1.487.274,1.393.549,2.785l.25,1.269c-.026.122-.055.247-.084.367a2.432,2.432,0,0,0,.269,2.378c.349.4.2.542-.084.815-.057.054-.121.114-.186.183-1.793,1.86-1.967,3.535-.546,5.271a2.511,2.511,0,0,1,.287,1.51,7.22,7.22,0,0,0,.03.777c.927.824.837,1.892.75,2.924-.01.124-.021.245-.029.365.091.506.153,1.036.212,1.548a10.692,10.692,0,0,0,.752,3.345,7.642,7.642,0,0,1,.568,3.165,8.853,8.853,0,0,0,.327,2.513,1.641,1.641,0,0,1-.469,1.636,2.854,2.854,0,0,0-.476.78l-.384.482-.007.009q-.621.781-1.244,1.561-.121.394-.243.787t-.243.787l-.433,1.385,0,.016-.3.963a3.608,3.608,0,0,1-1.455.288,3.712,3.712,0,0,1-2.921-1.259c-.108-.143-.228-.4-.173-.508.634-1.229.029-2.089-.556-2.921a5.576,5.576,0,0,1-.679-1.146c-.649-1.689-1.389-3.5-2.26-5.529-.243-.565-.515-1.129-.778-1.674-.339-.7-.689-1.427-.98-2.162a9.236,9.236,0,0,1-.425-1.669c-.048-.253-.1-.514-.155-.766l-.11-.4-.376-.787c-.124-.223-.253-.449-.378-.668-.289-.5-.586-1.023-.84-1.551-.154-.322-.336-.479-.555-.479a1.183,1.183,0,0,0-.606.263c-.124-.005-.25-.007-.373-.009a6.164,6.164,0,0,1-.83-.05,9.489,9.489,0,0,1-.955-.217c-.137-.036-.278-.073-.417-.107.017.129.027.262.038.39a3.672,3.672,0,0,0,.134.846c.179.554.413,1.115.64,1.658a9.545,9.545,0,0,1,.967,3.446,5.53,5.53,0,0,0,1.09,2.955,6.685,6.685,0,0,1,.942,1.974c.131.15.272.3.409.44a2.72,2.72,0,0,1,1.085,2.4v.822l.219.769,0,.014q.347,1.22.7,2.439c.079.113.173.223.264.331a2,2,0,0,1,.464.734c.232.909.439,1.842.64,2.744.185.831.376,1.689.586,2.528a5.2,5.2,0,0,0,.435,1.05c.083.166.17.338.245.509a.184.184,0,0,1-.043.158.333.333,0,0,1-.123.065l-.056.022a.46.46,0,0,0,0,.367c.8.944.231,1.661-.32,2.354l-.111.14a.835.835,0,0,1-.085.359l-.088.157-.008.014q-.3.53-.594,1.062-.691,1.552-1.379,3.1l-.256.576a8.217,8.217,0,0,0-.239.787,2.807,2.807,0,0,1-.722,1.517A1.085,1.085,0,0,1,32.466,114ZM22.19,92.435c.048,0,.1,0,.171.009.05,0,.106.008.165.011l0-.007.008-.012c.045-.014.093-.031.145-.049a2.127,2.127,0,0,1,.668-.155.706.706,0,0,1,.217.032.715.715,0,0,0-.223-.032,2.414,2.414,0,0,0-.567.1c-.1.024-.194.05-.289.068l.021.017.027.021a.99.99,0,0,1-.113.006c-.042,0-.084,0-.123,0s-.077,0-.11,0a.271.271,0,0,0-.121.02A.274.274,0,0,1,22.19,92.435Zm9.1-24.97h0l0,0,1.3,1.221-1.3-1.226h0ZM36.6,48.475a1.23,1.23,0,0,0-.206.72,4.977,4.977,0,0,1-.074.508l.167.16-.013.011-.006.005-.3.252c.411.262.8.978.619,1.3.122-.214-.012-.62-.142-1.013a5.3,5.3,0,0,1-.161-.551,2.114,2.114,0,0,0,.018-.615C36.484,48.939,36.465,48.621,36.6,48.475ZM20.492,49.1h0l.05.033.036.024a6.058,6.058,0,0,1,1.439,1.924l-.8-1.62c.088-.058.2-.118.314-.177.235-.124.478-.252.485-.362-.008.105-.235.212-.649.212a3.157,3.157,0,0,1-.425-.031l.108.1.082.079a.894.894,0,0,1-.107.154c-.176-.109-.329-.207-.444-.283l-.005-.005-.018-.011Zm11.219-1.654-.031.053c.04.136.075.276.109.412a4.134,4.134,0,0,0,.323.954,2.178,2.178,0,0,1-.162-1.366l-.044-.01Z" transform="translate(49)" fill="#3f093d"/>
    <path id="Fill_5" data-name="Fill 5" d="M30.866,78a2.065,2.065,0,0,1-1.323-.731A3.571,3.571,0,0,0,27,75.98a3.949,3.949,0,0,0-1.31.251,1.05,1.05,0,0,1-.348.055,4.241,4.241,0,0,1-1.463-.428A8.658,8.658,0,0,0,23,75.527,1.638,1.638,0,0,1,21.426,73.7a2.957,2.957,0,0,0-.282-.976c-.061-.146-.123-.3-.173-.446a2.618,2.618,0,0,1-.942-2.258,4.746,4.746,0,0,0-.211-1.316,1.606,1.606,0,0,1-.037-.6c.013-.248.026-.481-.089-.567-1.3-.963-1.44-2.328-1.578-3.648A9.175,9.175,0,0,0,17.78,62a12.047,12.047,0,0,0-.99-1.595c-.263-.389-.512-.755-.62-.95l-.036-.063A7.729,7.729,0,0,1,15,56.589c-.094-.934-.508-.947-1.08-.965-.071,0-.145,0-.22-.009-.119-.007-.245-.01-.385-.01-.214,0-.431.008-.641.016s-.435.016-.651.016a3.336,3.336,0,0,1-2.34-.746c-.089-.076-.173-.138-.255-.2a1.561,1.561,0,0,1-.635-.769c-.624-1.577-1.338-3.149-2.028-4.67-.33-.726-.669-1.473-.995-2.212a1.4,1.4,0,0,1-.079-.5c0-.08-.006-.163-.015-.241q-.2-.612-.409-1.22-.057-1.2-.113-2.392v-.027l-.134-.269-.006-.013q-.131-.264-.262-.528a2.756,2.756,0,0,0-.267-.169c-.2-.117-.408-.238-.436-.388-.237-1.3-.435-2.635-.627-3.924q-.09-.6-.181-1.206c-.1-.425-.2-.852-.3-1.266-.24-1.016-.488-2.066-.7-3.106a11.492,11.492,0,0,1-.168-1.465c-.016-.222-.032-.45-.054-.673L1.711,28.3q-.281-1.212-.561-2.423Q1.041,25.4.936,24.92L.93,24.893l-.113-.509Q.608,22.558.4,20.731L0,16.259q.171-.8.341-1.6c0-.064,0-.131-.01-.195a1.3,1.3,0,0,1,.013-.41c.035-.134.066-.277.1-.415a2.79,2.79,0,0,1,.464-1.22.336.336,0,0,1,.256-.074,3.339,3.339,0,0,1,1.127.292,5.738,5.738,0,0,0,2.413.43c.3,0,.606-.01.9-.02s.6-.02.9-.02a7.143,7.143,0,0,1,1.5.134,1.464,1.464,0,0,0,.293.041c.358,0,.48-.321,1-1.674l.048-.127.194-.4.2-.411a7.8,7.8,0,0,0,2.3-2.542,3.664,3.664,0,0,1,.678-.765,1.891,1.891,0,0,0,.839-1.954,3.263,3.263,0,0,1,.995-.413c1.273-.32,2.57-.632,3.824-.933l1.413-.34c0-.126,0-.256,0-.381a5.225,5.225,0,0,1,.03-.834C20.065.657,20.5,0,21.4,0a5.2,5.2,0,0,1,1.658.4c.21.012.421.018.626.024A3.636,3.636,0,0,1,26.823,1.6a3.073,3.073,0,0,1,.669,1.7c.019.121.039.246.063.374a.548.548,0,0,1-.058.011.535.535,0,0,0,.057-.01q.216.381.428.76L28,4.457l.252.449A18.776,18.776,0,0,1,31.5,12.217v1.211l.922,2.011q.173.917.348,1.835t.348,1.835c.187.782.371,1.578.55,2.349.411,1.769.835,3.6,1.309,5.379a17.66,17.66,0,0,1,.437,3.907,24.776,24.776,0,0,0,.205,2.766c.021.14.03.285.039.425,0,.06.007.118.012.175a2.838,2.838,0,0,1,.477,2.506,6.121,6.121,0,0,0-.075,1.174,23.393,23.393,0,0,0,.4,2.352,14.912,14.912,0,0,1,.439,3.876,26.48,26.48,0,0,0,.593,6.35,10.186,10.186,0,0,1-.322,4.218c-.141.637-.287,1.295-.368,1.953l-.765-.165-.018,0-1.016.2-1.016.2a3.6,3.6,0,0,0-.332.153,1.562,1.562,0,0,1-.638.219.526.526,0,0,1-.069,0,3.3,3.3,0,0,0-.414-.032c-.231,0-.373.047-.445.149-.1.142-.079.395.075.844a10.742,10.742,0,0,1,.4,1.926c.042.283.085.577.137.862v.828a1.282,1.282,0,0,0,1.316.82,6.407,6.407,0,0,0,.666-.048l.1-.01,1.528-.522.011,0,.5-.171c.11.035.225.065.336.1a3.755,3.755,0,0,1,.737.254c.1.049.2.1.294.14.366.167.712.325.787.63.061.247-.066.568-.389.983a6.851,6.851,0,0,0-.921,1.945,12.552,12.552,0,0,1-.467,1.193c-.068.146-.283.225-.49.3a2.661,2.661,0,0,0-.277.115l-.484.76a6.154,6.154,0,0,1-2,5.213,6.2,6.2,0,0,0-1.343,2.367c-.072.182-.144.367-.217.542C31.922,77.468,31.435,78,30.866,78ZM6.059,31.368h0c.272,1.093,1.016,1.285,1.877,1.508l.106.027a2.6,2.6,0,0,0,1.269.346,2.353,2.353,0,0,1,1.7.668,2.55,2.55,0,0,0-1.365-.708,2.9,2.9,0,0,1-1.106-.476.579.579,0,0,1-.3.113c-.132,0-.294-.255-.392-.472a2.229,2.229,0,0,1-.572.084,1.216,1.216,0,0,1-1.217-1.09Zm7.048-8.189h0l.143.082.417.238c-.452-.342-.517-.5-.524-.554a.052.052,0,0,1,.007-.04.675.675,0,0,0-.157.158l-.057.067.065.038.087.051,0-.011.012-.027Zm4.845-12.391.19.217.33.375L18.143,11l-.017-.02Zm2.135-4h0a1.6,1.6,0,0,0,.316.346c.073.067.148.136.21.2.008.19.014.381.02.572v.015c.01.321.021.651.038.975A10.036,10.036,0,0,1,20.8,7.3c-.015-.034-.036-.071-.056-.106-.049-.086-.1-.176-.076-.236.029-.08.062-.16.095-.231l.021-.047a.741.741,0,0,1-.457.221A.282.282,0,0,1,20.088,6.788Z" transform="translate(133 33)" fill="#3f093d"/>
    <path id="Fill_10" data-name="Fill 10" d="M42.066,45h0c-.077-.012-.172-.016-.265-.021-.194-.009-.4-.019-.425-.095-.254-.641-.474-1.309-.687-1.955-.083-.252-.169-.511-.255-.766-.528-1.555-.87-2.205-1.624-2.205a5.87,5.87,0,0,0-2.123.727,3.737,3.737,0,0,0-.46.275c-.066.044-.134.089-.2.132l-1.616.4-1.319.386-.011,0c-.874.256-1.774.52-2.661.777a2.9,2.9,0,0,1-.777.154,1.166,1.166,0,0,1-.982-.605c-.181-.258-.727-.268-1.254-.278a6.589,6.589,0,0,1-.7-.036l-2.15.261-.262.032H21.07c-.089,0-.182-.005-.282-.005-.213,0-.429.008-.638.016s-.431.017-.647.017a3.335,3.335,0,0,1-2.247-.693l-.129-.1a2.062,2.062,0,0,1-.945-1.288,9.653,9.653,0,0,0-.779-1.954c-.13-.267-.263-.543-.383-.816-.254-.459-.542-.98-.825-1.5-1.745-.6-2.007-2.125-2.261-3.6-.031-.181-.069-.365-.106-.542-.019-.092-.038-.183-.056-.275a1.152,1.152,0,0,0-.135-.008.373.373,0,0,1-.247-.055c-.16-.166-.331-.33-.5-.49-.955-.921-1.942-1.874-1.463-3.513a5.867,5.867,0,0,0-1.235-3.108,12.779,12.779,0,0,1-.78-1.324c-.189-.284-.406-.565-.617-.837A6.12,6.12,0,0,1,5.639,20.17c-.39-1.371-1.347-1.492-2.36-1.621l-.139-.018-.026,0c-.93-.121-1.4-.181-1.587-.448s-.105-.72.084-1.646c.17-.825.411-1.651.644-2.449.1-.358.212-.726.312-1.09l-.892-1.15c-.033-.023-.077-.047-.119-.07-.089-.049-.181-.1-.179-.142a8.625,8.625,0,0,0-.7-3.371A14.228,14.228,0,0,1,.088,6.178c-.137-.7-.115-1.084.076-1.315s.579-.335,1.323-.335l.213,0q.4.093.791.183c.807.185,1.641.377,2.448.613.113.033.173.252.231.463a2.767,2.767,0,0,0,.088.281l.673.774.017.02c.6.686,1.211,1.394,1.823,2.087.075.084.266.28.409.28H8.2a.5.5,0,0,0,.332-.364c-.009-.425-.046-.857-.082-1.274-.019-.224-.039-.455-.054-.683-.13-1.933-.278-4.123.955-6.081C9.7.263,10.052,0,10.455,0A1.649,1.649,0,0,1,11.4.392l.334.018L13.4.5l.8,0L14.585.6l.848.2a6.427,6.427,0,0,1,.783-.05c2.657,0,4.21,1.8,5.492,3.739a7.068,7.068,0,0,0,1,1.21.982.982,0,0,0,.589.228.351.351,0,0,0,.144-.026,12.354,12.354,0,0,1,4.587-.826c.636-.032,1.293-.066,1.934-.141,1.337.427,1.807,1.329,1.624,3.113l.983,1.043.953,1.011c.154.367.306.742.454,1.1.394.968.8,1.968,1.27,2.917a1.771,1.771,0,0,0,.748.615,4.68,4.68,0,0,1,.411.253l.08.539q.134.9.267,1.805a3.038,3.038,0,0,0,.47.856,1.757,1.757,0,0,1,.445,1.67,3.884,3.884,0,0,1,1.764,2.485,5.87,5.87,0,0,0,.867,1.764,1.791,1.791,0,0,0,.327.27c.111.078.207.146.194.175-.358.793.122,1.171.586,1.536.352.277.716.564.7,1.029,1.075.2,1.222.97,1.365,1.718a3.787,3.787,0,0,0,.264.943l.387.867.022.05.675,1.514,1.053,1.908.046.084,1.381,2.5.744,1.549c.165.22.343.438.515.648a8.66,8.66,0,0,1,1.053,1.488,2.444,2.444,0,0,1,.233,2.175,2.735,2.735,0,0,1-2.009,1.307c-.457.1-.924.194-1.376.281-.237.046-.473.091-.709.139l-2.749.535L42.066,45ZM13.052,25.342a1.639,1.639,0,0,1,1.1.479,3.458,3.458,0,0,0-2.37-.856c-.279-.185-.559-.376-.83-.561-.491-.335-1-.68-1.51-1,.808.505,1.654,1.129,2.968,2.1A1.315,1.315,0,0,1,13.052,25.342Zm-1.194-.17h0a2.713,2.713,0,0,1,.572.371l0-.01A2.723,2.723,0,0,0,11.858,25.173ZM6.231,15.1h0c.057.128.124.257.189.381.041.078.081.156.119.234a2.477,2.477,0,0,0,1.2.467.685.685,0,0,0,.612-.35.531.531,0,0,1-.45.281,1.228,1.228,0,0,1-.822-.516l-.048.029a1.169,1.169,0,0,1-.116.067.063.063,0,0,1-.027.006.5.5,0,0,1-.2-.1,1.332,1.332,0,0,0-.123-.074c.062-.079.124-.16.188-.243a.612.612,0,0,1-.162.024A.393.393,0,0,1,6.231,15.1Z" transform="translate(118 138)" fill="#3f093d"/>
    <path id="Fill_12" data-name="Fill 12" d="M26.151,64a8.946,8.946,0,0,1-2.452-.468,11.836,11.836,0,0,0-1.854-.43,3.875,3.875,0,0,1-1.913-1.387c-.1-.1-.191-.2-.283-.3-.956-.982-.559-2.017.014-3.172.077-.154.223-.512.157-.567-.293-.242-.607-.472-.911-.694a13.5,13.5,0,0,1-1.3-1.036c-1.04-.977-2.115-1.988-1.968-3.64-.026-.236-.052-.473-.077-.71l-.007-.069c-.2-.385-.393-.777-.584-1.157-.469-.934-.953-1.9-1.468-2.827a9.656,9.656,0,0,0-.854-1.221c-.138-.177-.28-.359-.413-.542-1.249-1.222-2.289-2.375-2.351-4.1.461-2.639-.9-4.728-2.211-6.748l-.028-.043-.115-.173a2.844,2.844,0,0,1-.576-1.237A11.367,11.367,0,0,0,5.69,29.606a15.982,15.982,0,0,1-1.055-2.66c-.121-.458-.237-.925-.349-1.376l0-.01q-.075-.3-.151-.6c-.44-1.21-.884-2.441-1.314-3.632-.125-.291-.258-.582-.388-.863a16.417,16.417,0,0,1-.8-1.959c-.163-.526-.35-1.057-.531-1.57a13.035,13.035,0,0,1-1.074-5.44l2.407-.83,2.408-.83c.266-.735.552-1.478.828-2.2A53.484,53.484,0,0,0,7.42,2.579C7.9.82,8.693,0,9.918,0a4.942,4.942,0,0,1,1.89.463,4.235,4.235,0,0,1,2.911,2.7c.092.215.295.532.44.532h.078c1.181,0,1.423.807,1.658,1.588a4.535,4.535,0,0,0,.288.784,7.714,7.714,0,0,1,.58,1.758c.065.266.132.54.209.8a.767.767,0,0,1,.085.365l.027.019c.709.489,1.442,1,1.12,2.061l.411.832c.137.405.274.812.41,1.217.251.2.5.43.735.649a7.367,7.367,0,0,0,1.759,1.321,6.535,6.535,0,0,0,.652.249c.837.286,1.561.534,1.312,1.882-.044.232.242.527.517.813a4.794,4.794,0,0,1,.358.4,4.609,4.609,0,0,1,.133.5c.086.374.174.76.408.9a1.046,1.046,0,0,1,.465,1.311,2.369,2.369,0,0,0-.058.529l.732.58.006.005c.63.5,1.281,1.013,1.915,1.531l.045.037c.2.163.475.387.457.553-.192,1.755.832,2.919,1.823,4.045.267.3.543.617.786.934a6.09,6.09,0,0,1,.993,2.309c.052.192.1.389.163.584a9.234,9.234,0,0,1,.269,1.444c.028.21.056.428.091.64l.163.33,0,.005q.124.251.248.5V36.38a1.684,1.684,0,0,1-1.462.819,5,5,0,0,1-1.291-.243c-.147-.041-.3-.083-.449-.12l.146.523.292,1.046c.629.545.867.868.819,1.114-.04.207-.285.373-.817.554l.157.714c.2.927.414,1.883.631,2.823.04.169.162.485.251.486a1.136,1.136,0,0,1,.879.274,1.185,1.185,0,0,1,.1.941,1.373,1.373,0,0,0,.041.854l-.006.1q-.057.978-.112,1.953a4.908,4.908,0,0,0,.136.531,1.765,1.765,0,0,1,.11,1.064c-.323.808-.691,1.614-1.047,2.393a23.829,23.829,0,0,0-2.041,5.722,2.12,2.12,0,0,1-.538.893c-.111.132-.225.269-.319.407l.021.072c.031.108.062.217.094.326a3.433,3.433,0,0,0,.149.35c.12.255.243.518.16.657-.065.108-.135.216-.2.319-.4.6-.769,1.175-.169,1.94-.355.258-.737.537-1.169.854l-.883.03h0A3.9,3.9,0,0,1,26.151,64Zm-4.638-6.526c.32.277.636.574.941.861a7.87,7.87,0,0,0,4.216,2.535l.394,1.417.01.036,0,.008.327,1.177a11.869,11.869,0,0,1-.459-2.715l-.022.015c-.02.013-.041.027-.059.041-.018-.057-.043-.116-.067-.173A.754.754,0,0,1,26.7,60.3a.536.536,0,0,1,.04-.122h0a4.626,4.626,0,0,1-.494.027c-1.744,0-2.919-1.076-4.056-2.116C21.972,57.882,21.743,57.673,21.513,57.474Zm5.63-23.1a1.3,1.3,0,0,0,.213.535c.047.083.1.168.134.251.261.608.615.739.867.742-.288-.03-.452-.294-.463-.742h-.4c.056-.027.113-.055.167-.083l.054-.028C27.347,34.824,27.156,34.6,27.143,34.371ZM20.89,23.712h0c.072.123.143.25.209.378C21.034,23.968,20.965,23.84,20.89,23.712ZM19.435,22.66a1.71,1.71,0,0,1,1.431,1.012,5.876,5.876,0,0,0-3.5-2.561c.167.186.333.344.48.483a3.382,3.382,0,0,1,.446.476.688.688,0,0,1,.123.251.673.673,0,0,1-.012.488l.017.039c.009.02.017.039.028.064A2.4,2.4,0,0,1,19.435,22.66Z" transform="translate(164 221)" fill="#3f093d"/>
    <path id="Fill_14" data-name="Fill 14" d="M21.679,59a2.7,2.7,0,0,1-2.068-1.722c-.614-1.462-1.28-2.931-1.924-4.351l-.005-.012c-.272-.6-.554-1.222-.828-1.834l-.923-1.868L15.9,49.16l-.667-1.352-.2-.4-.2-.413q-1.093-1.58-2.185-3.162l-.007-.011-.636-.92A18.113,18.113,0,0,0,9.32,36.919a4.442,4.442,0,0,1-.59-1.832,9.212,9.212,0,0,1-.023-1.319,9.324,9.324,0,0,0-.021-1.3,1.008,1.008,0,0,1,.154-.8c.214-.24.6-.243,1.017-.245H9.9c.054-1.048.783-1.258,1.489-1.462.171-.049.348-.1.513-.163q.027-.308.053-.616v-.007q.024-.282.048-.565c-.011-.135-.021-.27-.03-.4a3.2,3.2,0,0,0-1.308-2.875,1.719,1.719,0,0,1-.512-.948C9.973,23.8,9.766,23.141,9,22.944c-.056-.014-.1-.078-.143-.14s-.087-.125-.141-.136a4.377,4.377,0,0,1-3.377-2.183,6.952,6.952,0,0,1-.444-4.032,1.748,1.748,0,0,0-.089-.637c-.026-.1-.053-.2-.071-.3V13.486c-.189-.575-.377-1.161-.558-1.728-.422-1.316-.858-2.676-1.335-4C2.464,6.728,2.025,5.7,1.6,4.7c-.195-.456-.4-.928-.59-1.4C.486,3.261.185,3.136.062,2.915a.93.93,0,0,1,.115-.858A2.033,2.033,0,0,1,.227.329.929.929,0,0,1,1.014,0a2.575,2.575,0,0,1,.636.092,8.01,8.01,0,0,1,.865.3A4.835,4.835,0,0,0,3.871.766c1.067.073,1.559.3,1.655,1.482.057.7.267.984.725.984a3.478,3.478,0,0,0,1.065-.251,4.173,4.173,0,0,1,1.37-.159h.3c.154,0,.336,0,.516-.012l1.667.031a3.543,3.543,0,0,1,.617-.054,6.678,6.678,0,0,1,2.953.953l.015.008q.329.5.654,1.007l.1.151a2.439,2.439,0,0,1,1.389,2.151A1.784,1.784,0,0,0,18.313,8.74a4.459,4.459,0,0,1,2.849,3.916q.289.543.575,1.088l.01.018c.489.928,1,1.887,1.509,2.822.33.6.687,1.2,1.032,1.774.168.282.34.57.507.855l1.13.273c.656.159,1.33.323,1.994.481.4.095.805.187,1.2.276h.006l.606.138c.115-.009.226-.013.33-.013a1.4,1.4,0,0,1,1.6,1.7V22.2c0,.094,0,.185,0,.275a4.306,4.306,0,0,0,.152,1.366,3.409,3.409,0,0,1,0,2.1.527.527,0,0,0,0,.494.667.667,0,0,0,.55.2,2.265,2.265,0,0,0,.706-.122,4.408,4.408,0,0,1,1.593-.3,7.988,7.988,0,0,1,3.555,1.114,2.041,2.041,0,0,1-.084,2.9c-.272.218-.542.452-.8.678a11.44,11.44,0,0,1-1.872,1.415c-1.249.694-.978,1.534-.56,2.4l.311.48.207.32a8.388,8.388,0,0,1,2.716,5.322l-.371-.2-.371-.2c-.368-.192-.749-.391-1.129-.578a5.065,5.065,0,0,1,.915.626l.013-.015.01-.01c.019.031.038.061.057.09l.009.014.078.126.14.225c0-.021,0-.04,0-.059s0-.058,0-.093a.232.232,0,0,1,.195-.1,1.1,1.1,0,0,1,.446.169l.249,1.525.154.947-.4,1.619.262.469.646,1.157c1.208.936,1.012,2.194.822,3.412-.024.155-.049.314-.07.469-.054.408-1.008.881-1.6.989a25.75,25.75,0,0,1-2.864.3c-.386.026-.785.053-1.176.087a.792.792,0,0,1-.351.09q-.369.136-.74.27l-.117.043-.8.006h-.005a2.236,2.236,0,0,1-.645.107c-.889,0-1.26-.749-1.62-1.474-.074-.149-.15-.3-.229-.447a1.705,1.705,0,0,0-1.529-.8,1.725,1.725,0,0,0-1.431.673,1.006,1.006,0,0,0-.132.365c-.014.06-.027.121-.045.179.872.209,1.028.867,1.194,1.563a2.267,2.267,0,0,0,.746,1.447,2.729,2.729,0,0,1,.874,2.01,3.428,3.428,0,0,1-.663,2.563,2.181,2.181,0,0,1-1.459.391l-.213,0c-.512,0-1.018-.043-1.508-.085s-1-.084-1.506-.084a5.971,5.971,0,0,0-2,.306A.883.883,0,0,1,21.679,59Zm4.8-23.858h0l2.828,2.451c-.384,1.058.238,1.532.84,1.991a3.09,3.09,0,0,1,.776.744,3.065,3.065,0,0,0-.611-.642,2.134,2.134,0,0,1-.908-2.349,1.06,1.06,0,0,1-.348-.507.122.122,0,0,1,.019-.088l.009,0a.072.072,0,0,0,.005-.019A.06.06,0,0,1,29.1,36.7a.13.13,0,0,0-.018.03l-.006.012A6.106,6.106,0,0,1,26.481,35.142Zm-12.658-2.6a1.625,1.625,0,0,1,.538.153c.044.134.084.279.122.419.158.57.321,1.158.759,1.158.268,0,.614-.214,1.059-.654-.433.429-.768.637-1.022.637-.486,0-.625-.761-.758-1.756a.831.831,0,0,1-.138-.213.252.252,0,0,1-.012-.132.1.1,0,0,1,0-.015c-.121.072-.235.125-.336.173-.245.115-.421.2-.459.426A.221.221,0,0,1,13.823,32.538Z" transform="translate(89 189)" fill="#3f093d"/>
    <path id="Fill_18" data-name="Fill 18" d="M.251.219C.165.136.084.073,0,0,.1.15.19.268.251.219" transform="translate(126 230)" fill="#3f093d"/>
  </g>
</svg>
