<svg xmlns="http://www.w3.org/2000/svg" width="95.001" height="175" viewBox="0 0 95.001 175">
  <g id="decorative_brush" data-name="decorative brush" transform="translate(0.001 0)">
    <path id="Fill_1" data-name="Fill 1" d="M25.017,44a1.967,1.967,0,0,1-.79-.183l-.591-.145-.464-.2-.927-.392c-.109-.159-.217-.32-.325-.48l-.066-.1c-.057-.061-.119-.121-.178-.179A2.572,2.572,0,0,1,21.3,41.9a1.818,1.818,0,0,0-.824-.793,2.556,2.556,0,0,1-1.7-1.893,1.749,1.749,0,0,0-.153-.105c-.116-.074-.236-.151-.233-.223a1.841,1.841,0,0,0-.91-1.491l-.012-.01-.088-.074-.507,1.376-.122.332-.168.2-.168.2-.057.186c-.018.066-.034.133-.05.2-.033.134-.066.273-.113.406-.233.652-.364.917-.724.917a3.025,3.025,0,0,1-.845-.205,2.49,2.49,0,0,0-.207-.166c-.156-.117-.318-.238-.359-.388a2.628,2.628,0,0,0-1.143-1.377,5.486,5.486,0,0,1-.645-.537.05.05,0,0,0-.037-.011.452.452,0,0,0-.082.012.624.624,0,0,1-.068.012c-.162.065-.33.153-.493.239a2.312,2.312,0,0,1-.961.347.706.706,0,0,1-.122-.01,2.379,2.379,0,0,1-1.121-.831c-.076-.081-.147-.157-.22-.231l-.03-.031A9.153,9.153,0,0,1,7.8,36.365a6.808,6.808,0,0,1-.532-1.2c-.091-.247-.185-.5-.294-.745a2.016,2.016,0,0,0-.326-.459c-.044-.051-.089-.1-.132-.157-.08-.1-.165-.2-.247-.3-.476-.558-.967-1.134-.632-2a2.143,2.143,0,0,0-.277-.269c-.286-.247-.581-.5-.3-1,.03-.052.125-.069.216-.086a1.14,1.14,0,0,0,.124-.027c.541-1.211.342-1.97-.793-3.008A2.605,2.605,0,0,1,3.78,25.6c-.03-.177-.207-.323-.393-.478a2.586,2.586,0,0,1-.266-.242,2.387,2.387,0,0,1-.2-.275c-.127-.192-.247-.374-.4-.4a.446.446,0,0,0-.07-.005,1.386,1.386,0,0,0-.56.191,3.109,3.109,0,0,1-.309.141.747.747,0,0,1-.2.033c-.031,0-.061,0-.091.009l-.116.038-.019.006L.7,24.764c-.667-.254-.842-.657-.6-1.393.014-.121.029-.242.042-.363l.687-.773.687-.773c-.123-.432.129-.676.372-.913a1.451,1.451,0,0,0,.355-.446c.063-.109.12-.226.175-.338a2.48,2.48,0,0,1,.435-.687,1.372,1.372,0,0,0,.38-1.857,1.156,1.156,0,0,1-.2-1.345l.009,0c.023-.111.045-.227.065-.339a3.814,3.814,0,0,1,.2-.769,2.641,2.641,0,0,1,.381-.587c.063-.081.128-.164.187-.248.205-.491.624-.549,1.028-.6a1.879,1.879,0,0,0,.653-.169c.151-.083.307-.161.458-.236l.169-.085c-.042-.047-.087-.094-.13-.139a1.736,1.736,0,0,1-.263-.32A1.73,1.73,0,0,1,5.634,12c-.018-.059-.036-.12-.056-.179q.026-.461.053-.921l0-.053-.162-.562L5.242,9.5c0-.192,0-.383,0-.574l-.067-.346,0-.017c-.051-.265-.1-.538-.164-.806-.011-.048-.021-.1-.031-.144a4.512,4.512,0,0,0-.205-.743A4.121,4.121,0,0,1,4.9,3.128a5.9,5.9,0,0,0,.338-.8c.045-.123.092-.25.141-.372q.106-.194.211-.389c.038-.1.071-.2.1-.3A2.4,2.4,0,0,1,5.962.644,1.918,1.918,0,0,1,7.445,0a1.482,1.482,0,0,1,.46.067.476.476,0,0,1,.211.4,8.639,8.639,0,0,0,.3,2.894,12.941,12.941,0,0,1,.323,1.9,2.913,2.913,0,0,1,.6,2.278c0,.191-.009.388,0,.58a2.232,2.232,0,0,0,.225.225.81.81,0,0,1,.376.754c.032.068.069.137.1.2a1.748,1.748,0,0,1,.189.444c.105.486.2.983.288,1.462.06.318.121.646.186.968.025.126.1.373.163.374.524.014.565.316.612.666.009.066.018.134.031.2.1.532.253,1.063.4,1.577.062.217.126.441.185.664a.575.575,0,0,1,.18.3c.061.172.124.351.356.351a.643.643,0,0,0,.143-.018l.053.26.053.26.088.04c-.227.4.006.691.264.919a.131.131,0,0,0,.082.019c.1,0,.251-.04.26-.076a1.2,1.2,0,0,1,.188-.372.74.74,0,0,0,.144-.785l-.053-.12,0-.006a2.379,2.379,0,0,1-.243-1.989c.063-.151-.059-.378-.177-.6a2.943,2.943,0,0,1-.148-.3l-.038-.06c-.184-.29-.374-.591,0-.908l.04-.194-.122-.463,0-.014-.126-.477c-.017-.19-.029-.385-.04-.572a9.822,9.822,0,0,0-.139-1.3,9.889,9.889,0,0,0-.368-1.256c-.061-.179-.125-.365-.182-.548q.1-.48.193-.96l0-.009L12.278,6.5c-.174-.233-.354-.473-.526-.714a1.249,1.249,0,0,1,.357-1.818c.7-.59,1.422-1.161,2.1-1.69a.947.947,0,0,1,.574-.235c.321,0,.638.237,1,.747a6.115,6.115,0,0,1,.956,1.892,4.347,4.347,0,0,0,.825,1.769A1.817,1.817,0,0,1,18,7.86a4.741,4.741,0,0,0,.226,1.4c.053.2.108.409.15.613q.282.565.566,1.13l.006.012a2.233,2.233,0,0,1,.921,1.6c.019.079.038.159.058.238a6.076,6.076,0,0,0,.224.663c.068.178.138.362.192.547a11.415,11.415,0,0,0,1,2.2,12.247,12.247,0,0,1,.959,2.062,12.032,12.032,0,0,0,.879,1.912c.145.273.3.555.434.838v.2a3.47,3.47,0,0,0,1.177,2c.118.124.238.252.353.381a1.171,1.171,0,0,1,.411.917c-.044.268-.273.512-.72.769l-1.187.906-.582.444-.216.279-.216.279c.054.138.109.276.165.413.126.312.255.633.365.955.176.515.325,1.037.474,1.571a.731.731,0,0,1,.008.21c0,.08-.008.149.018.159.56.22.665.69.766,1.144a2.131,2.131,0,0,0,.291.8,7.4,7.4,0,0,1,.8,1.67c.053.137.105.274.159.409a1.235,1.235,0,0,1,.068.412,1.072,1.072,0,0,0,.233.715,13.928,13.928,0,0,1,1.208,1.832c.205.35.418.712.643,1.056a.684.684,0,0,1-.044.943,9.322,9.322,0,0,0-1.855,3.819A.84.84,0,0,1,25.017,44ZM10.9,28.217h0l.091.109.073.087a3.781,3.781,0,0,1,1.082.275c-.32-.125-.647-.247-.963-.366l-.283-.106c-.067-.055-.133-.111-.2-.167s-.15-.127-.225-.188c.107.09.224.2.406.374l.009-.008.009-.009Zm-2.24-16h0c.019,0,.07.061.14.14l.029.033.009-.014.009-.013a.887.887,0,0,1,.336-.057,1.847,1.847,0,0,1,.286.025c-.155-.031-.313-.058-.465-.084l-.26-.045a1.642,1.642,0,0,1-.129-.136c-.088-.1-.18-.2-.277-.217h0c.108.014.209.141.35.318.047.059.1.126.16.2-.03,0-.075-.048-.115-.088A.279.279,0,0,0,8.656,12.213Z" transform="translate(0 45)" fill="#3f093d"/>
    <path id="Fill_3" data-name="Fill 3" d="M15.557,55a2.093,2.093,0,0,1-1.318-.64c-.262-.3-.539-.6-.808-.882-.224-.238-.455-.483-.675-.73a.369.369,0,0,1-.049-.226A1.087,1.087,0,0,0,12.7,52.4l-.578-1.171c-.078-.148-.156-.3-.23-.445-.171-.334-.347-.678-.544-1a3.911,3.911,0,0,0-.342-.45,2.656,2.656,0,0,1-.44-.642,10.272,10.272,0,0,1-.574-1.932,2.087,2.087,0,0,1-.032-.32c-.016-.331-.031-.643-.507-.731l.055-.265.055-.265-.075-.158-.11-.234c-.074-.133-.156-.266-.236-.394a2.532,2.532,0,0,1-.543-1.66.544.544,0,0,0-.163-.335.8.8,0,0,1-.18-.323,2.884,2.884,0,0,1-.013-.568,1.884,1.884,0,0,0-.068-.756,13.746,13.746,0,0,1-.492-1.63,9.642,9.642,0,0,0-.8-2.288.479.479,0,0,1,.009-.306,1.4,1.4,0,0,0,.029-.157c-.051-.194-.1-.394-.139-.587a6.824,6.824,0,0,0-.4-1.351,1.408,1.408,0,0,1-.037-1.19,9.1,9.1,0,0,0-.281-.923,4.127,4.127,0,0,1-.33-2.111,1.621,1.621,0,0,1-.4-1.3,2.244,2.244,0,0,0-.144-.948v-.393L4.92,26.437,4.911,26.4l-.323-1.367c.007-.325.015-.652.023-.976l-.247-.79-.108-.14-.061-.08a.517.517,0,0,1-.385-.127.728.728,0,0,1-.113-.538,1.013,1.013,0,0,0-.023-.334A2.746,2.746,0,0,1,3.6,21.018a4.533,4.533,0,0,0,0-.713c-.047-.443-.13-.889-.211-1.321-.055-.293-.111-.6-.156-.895a1.933,1.933,0,0,1,.008-.463c.007-.07.014-.142.017-.213l-.255-.521-.131-.268q-.054-.182-.109-.364c-.086-.288-.176-.586-.257-.88L2.5,15.351A.67.67,0,0,1,2.468,15a2.7,2.7,0,0,0-.175-1.694,2.981,2.981,0,0,1-.221-1.5,1.314,1.314,0,0,1-.32-1.136A1.387,1.387,0,0,0,1.643,9.9a2.787,2.787,0,0,1-.314-1.592,4.628,4.628,0,0,0-.046-.862A.611.611,0,0,1,.831,7.24a.656.656,0,0,1,.017-.523A.87.87,0,0,0,.9,6.272,2.6,2.6,0,0,0,.383,4.516a1.744,1.744,0,0,1-.321-1.47A2.912,2.912,0,0,0,.239,1.783,3.057,3.057,0,0,1,.35.721a3.254,3.254,0,0,1,.238-.5C.628.15.669.075.707,0h.811l.194.393.371.773.4.787a1.173,1.173,0,0,0,.251.024c.116,0,.237-.012.345-.022s.234-.022.346-.022a.726.726,0,0,1,.734.428,2.053,2.053,0,0,0,.459.546c.325.307.661.625.507,1.206q.123.486.245.973l.332.4c.037.15.177.241.312.329.21.137.428.279.262.648a7.542,7.542,0,0,0,.857,2.728c.134.289.271.588.394.886.041.1.219.146.391.189a2.112,2.112,0,0,1,.231.067l.065-.344a1.726,1.726,0,0,1-.349-1.513c.013-.154.027-.313.028-.466,0-.079.168-.159.331-.235.074-.035.15-.071.209-.107.172-.088.345-.184.512-.276A8.179,8.179,0,0,1,10.163,6.8a1,1,0,0,1,.331-.059.939.939,0,0,1,.849.608c.11.239.218.484.323.721.141.318.286.647.438.965a.887.887,0,0,0,.2.241c.037.035.075.072.108.109.173.194.359.384.54.567A4.357,4.357,0,0,1,14.42,12.3c.014.086.207.195.335.21.533.063.677.38.834.858a10.344,10.344,0,0,0,.739,1.595c.131.246.267.5.39.753a1.718,1.718,0,0,1,.11.348c.013.056.027.113.044.169l.248.775c.138.264.288.528.434.784a11.008,11.008,0,0,1,.869,1.76c.528,1.51,1.015,3.063,1.485,4.564.227.724.461,1.471.7,2.2a3.083,3.083,0,0,0,.206.459c.036.069.072.14.106.211a.36.36,0,0,1,.04.17c.453.074.514.4.573.718a1.236,1.236,0,0,0,.158.481q-.083.415-.165.83v0l-.027.137q.19.977.382,1.956c-.012.059-.026.119-.04.179a1.177,1.177,0,0,0,.129,1.145c.167.2.1.262-.041.394-.027.026-.057.055-.089.087a1.711,1.711,0,0,0-.262,2.543,1.217,1.217,0,0,1,.138.73,3.528,3.528,0,0,0,.014.374,1.516,1.516,0,0,1,.36,1.409c-.005.061-.01.12-.014.178.044.244.073.5.1.747a5.178,5.178,0,0,0,.36,1.614,3.7,3.7,0,0,1,.272,1.527,4.3,4.3,0,0,0,.157,1.213.8.8,0,0,1-.225.789,1.382,1.382,0,0,0-.228.377l-.782.99-.093.3,0,.006q-.069.225-.138.449-.178.57-.355,1.14a1.715,1.715,0,0,1-.7.139,1.772,1.772,0,0,1-1.4-.607c-.05-.067-.111-.191-.083-.245a1.238,1.238,0,0,0-.267-1.41,2.693,2.693,0,0,1-.325-.552c-.308-.808-.662-1.68-1.083-2.668-.117-.273-.247-.545-.373-.809-.162-.338-.329-.688-.469-1.043a4.44,4.44,0,0,1-.2-.807c-.023-.121-.046-.247-.074-.368l-.052-.191-.181-.379c-.062-.113-.125-.224-.188-.336-.135-.238-.275-.484-.395-.735-.074-.155-.161-.231-.266-.231a.566.566,0,0,0-.291.127c-.059,0-.117,0-.176,0a3,3,0,0,1-.4-.024,4.559,4.559,0,0,1-.453-.1c-.068-.018-.136-.036-.2-.053.008.063.014.129.019.192a1.766,1.766,0,0,0,.064.4c.086.268.2.539.307.8a4.642,4.642,0,0,1,.463,1.661,2.68,2.68,0,0,0,.523,1.426,3.238,3.238,0,0,1,.451.952c.062.072.13.143.2.211A1.315,1.315,0,0,1,16.1,44v.4l.22.777.22.777c.038.054.083.108.126.159a.968.968,0,0,1,.222.355c.112.441.212.893.308,1.329.088.4.179.811.279,1.214a2.517,2.517,0,0,0,.207.5c.04.081.082.165.118.248a.09.09,0,0,1-.02.077.163.163,0,0,1-.057.03l-.029.012a.22.22,0,0,0,0,.177c.383.455.11.8-.153,1.135l0,0-.05.064a.411.411,0,0,1-.041.174q-.166.3-.331.594-.393.888-.783,1.777c-.045.117-.08.25-.114.379a1.361,1.361,0,0,1-.346.733A.516.516,0,0,1,15.557,55ZM10.634,44.6a.1.1,0,0,0-.07.018.092.092,0,0,1,.068-.018c.022,0,.048,0,.079,0l.082.005,0-.006c.024-.01.048-.018.073-.027a1.02,1.02,0,0,1,.32-.075.337.337,0,0,1,.1.014.344.344,0,0,0-.1-.014,1.154,1.154,0,0,0-.273.048c-.045.012-.092.024-.138.033l.01.008.013.01-.014,0h-.041l-.059,0Zm6.848-20.539-.108.091-.044.038c.194.125.381.47.3.624.056-.1-.007-.3-.069-.486a2.539,2.539,0,0,1-.077-.267ZM9.82,23.688h0l.027.017.014.009a2.921,2.921,0,0,1,.683.916l.006.013-.006-.013-.379-.768c.043-.028.1-.057.151-.086.112-.06.228-.121.232-.174,0,.051-.113.1-.311.1a1.505,1.505,0,0,1-.2-.015l.06.058.031.03a.378.378,0,0,1-.051.075c-.084-.052-.157-.1-.213-.137Zm7.717-.3a.593.593,0,0,0-.1.347,2.412,2.412,0,0,1-.036.245l.08.077a1.034,1.034,0,0,0,.008-.3C17.482,23.612,17.473,23.458,17.537,23.387Zm-2.342-.5-.008.013-.008.013c.019.064.035.131.052.2a2.057,2.057,0,0,0,.152.455h0a1.062,1.062,0,0,1-.073-.65l-.022-.005Z" transform="translate(23)" fill="#3f093d"/>
    <path id="Fill_5" data-name="Fill 5" d="M15.037,37a1.016,1.016,0,0,1-.645-.347,1.755,1.755,0,0,0-1.239-.611,1.97,1.97,0,0,0-.638.119.524.524,0,0,1-.17.026,2.11,2.11,0,0,1-.713-.2,4.3,4.3,0,0,0-.427-.157.785.785,0,0,1-.767-.865A1.376,1.376,0,0,0,10.3,34.5c-.029-.069-.06-.141-.084-.212a1.226,1.226,0,0,1-.459-1.071,2.2,2.2,0,0,0-.1-.624.745.745,0,0,1-.018-.284c.006-.117.012-.228-.043-.268a2.153,2.153,0,0,1-.77-1.732,4.255,4.255,0,0,0-.162-.9,5.712,5.712,0,0,0-.486-.763c-.126-.182-.246-.353-.3-.444l-.015-.026a3.632,3.632,0,0,1-.554-1.333c-.046-.443-.248-.449-.526-.458l-.107,0c-.059,0-.121,0-.19,0-.1,0-.21,0-.31.007s-.211.008-.317.008a1.657,1.657,0,0,1-1.141-.354c-.043-.036-.084-.065-.124-.094a.743.743,0,0,1-.309-.365c-.3-.745-.65-1.488-.985-2.206-.162-.347-.329-.7-.489-1.058a.644.644,0,0,1-.038-.238c0-.038,0-.077-.007-.115l-.2-.579c-.019-.383-.037-.765-.055-1.148l-.021-.04-.176-.344a1.344,1.344,0,0,0-.129-.079c-.1-.056-.2-.113-.213-.185-.115-.616-.212-1.247-.305-1.857q-.044-.288-.089-.576-.071-.3-.144-.6c-.117-.483-.238-.982-.341-1.476a5.432,5.432,0,0,1-.081-.694c-.008-.1-.016-.213-.027-.32l0-.017q-.211-.887-.422-1.774C.52,12.1.48,11.927.44,11.753L.4,11.567.379,11.4Q.287,10.618.2,9.834L0,7.712q.071-.322.141-.645l.025-.115c0-.031,0-.063,0-.095a.605.605,0,0,1,.006-.193c.017-.064.033-.133.048-.2A1.3,1.3,0,0,1,.441,5.89a.167.167,0,0,1,.124-.035,1.65,1.65,0,0,1,.549.139,2.867,2.867,0,0,0,1.175.2c.146,0,.3,0,.44-.01s.291-.009.436-.009a3.594,3.594,0,0,1,.733.063.732.732,0,0,0,.143.02c.175,0,.234-.153.486-.8l.023-.058q.1-.193.191-.386A3.732,3.732,0,0,0,5.863,3.815a1.748,1.748,0,0,1,.33-.363c.255-.232.518-.473.409-.927a1.643,1.643,0,0,1,.484-.2c.644-.158,1.3-.312,1.935-.46l.617-.144c0-.06,0-.121,0-.18a2.41,2.41,0,0,1,.014-.4C9.775.312,9.985,0,10.426,0a2.588,2.588,0,0,1,.808.188c.1.006.207.009.307.012a1.8,1.8,0,0,1,1.527.559,1.433,1.433,0,0,1,.326.8c.009.059.019.118.031.178q.17.293.338.586A8.792,8.792,0,0,1,15.344,5.8v.574l.449.954q.089.458.178.915l0,.021q.079.4.157.8.132.54.26,1.081c.2.852.412,1.73.646,2.586a8.151,8.151,0,0,1,.213,1.853,11.421,11.421,0,0,0,.1,1.312c.01.064.014.13.019.194,0,.031,0,.061.007.09a1.318,1.318,0,0,1,.232,1.189,2.833,2.833,0,0,0-.037.557,10.823,10.823,0,0,0,.194,1.116,6.9,6.9,0,0,1,.214,1.838,12.227,12.227,0,0,0,.289,3.013,4.713,4.713,0,0,1-.157,2c-.069.3-.14.614-.179.925l-.381-.08-.451.088-.539.105a1.76,1.76,0,0,0-.163.073.772.772,0,0,1-.31.1l-.034,0a1.648,1.648,0,0,0-.2-.015c-.114,0-.184.023-.219.073-.048.068-.037.187.038.4a5,5,0,0,1,.2.917c.02.133.041.271.066.405v.392a.627.627,0,0,0,.641.389,3.209,3.209,0,0,0,.324-.023l.047,0,.995-.33c.054.016.109.031.162.045a1.883,1.883,0,0,1,.36.121c.047.023.1.045.143.066.179.08.348.155.384.3.029.117-.034.269-.19.464a3.2,3.2,0,0,0-.449.923,5.833,5.833,0,0,1-.228.566c-.033.069-.138.107-.24.144a1.332,1.332,0,0,0-.134.054l-.236.361a2.845,2.845,0,0,1-.975,2.472,2.921,2.921,0,0,0-.653,1.121c-.036.088-.071.175-.107.26C15.551,36.747,15.315,37,15.037,37ZM2.956,14.9h0c.139.505.5.595.913.7l.05.012a1.292,1.292,0,0,0,.618.164,1.226,1.226,0,0,1,.772.263,1.336,1.336,0,0,0-.609-.281,1.433,1.433,0,0,1-.539-.226.294.294,0,0,1-.145.053c-.064,0-.142-.121-.191-.224a1.107,1.107,0,0,1-.279.04.582.582,0,0,1-.587-.5ZM9.786,3.22h0a.811.811,0,0,0,.156.165c.035.031.071.063.1.1,0,.091.007.182.009.273V3.76c0,.152.01.308.018.462a4.639,4.639,0,0,1,.062-.757c-.008-.017-.018-.034-.028-.052-.023-.04-.048-.082-.036-.11s.028-.071.046-.11l.005-.011.005-.011a.366.366,0,0,1-.223.1A.14.14,0,0,1,9.786,3.22Z" transform="translate(64 16)" fill="#3f093d"/>
    <path id="Fill_7" data-name="Fill 7" d="M10.865,31a.178.178,0,0,1-.093-.02c-.145-.1-.3-.19-.441-.281a4.641,4.641,0,0,1-1.819-1.652,19.254,19.254,0,0,1-1.088-2.709c-.1-.3-.212-.615-.322-.919-.031-.085-.057-.173-.083-.259a1.186,1.186,0,0,0-.719-.936c-.144-.054-.221-.287-.3-.513a2.84,2.84,0,0,0-.112-.3c-.267-.251-.5-.563-.2-.976l-.411-.808-.276-.542-.166-.324L4.5,20.091q0-.293,0-.585c-.63-.245-.666-.768-.7-1.273a3.8,3.8,0,0,0-.043-.417,10.153,10.153,0,0,0-.964-3.027,9.055,9.055,0,0,1-1.282-3.68,1.987,1.987,0,0,0-.294-.793,3.144,3.144,0,0,1-.26-.575,5.245,5.245,0,0,1-.15-.86c-.02-.173-.041-.353-.073-.527a1.32,1.32,0,0,0-.194-.566C.036,7.138-.212,6.559.223,5.846A1,1,0,0,0,.339,5.3c-.013-.329.085-.432.436-.463a.812.812,0,0,0,.644-.268.838.838,0,0,0,.011-.715c-.263-.888-.069-1.3.828-1.761.512-.265,1.042-.52,1.554-.767.24-.116.479-.231.717-.347l.312-.2L4.853.766C5.24.511,5.639.248,6.042,0a.033.033,0,0,1,.017,0A.463.463,0,0,1,6.23.09c.036.024.073.049.1.066L6.913.2a.456.456,0,0,1,.3-.154c.164,0,.276.162.375.3.021.03.04.058.06.084a1.757,1.757,0,0,1,.187.358c.122.285.238.554.586.554a1.155,1.155,0,0,0,.418-.1.043.043,0,0,1,.016,0c.155,0,.627.691.829.986a1.553,1.553,0,0,1,.191.6c.007.038.013.075.021.112.134.7.559,1.019,1.378,1.019.059,0,.122,0,.186,0l.1,0a2.061,2.061,0,0,1,1.862,1.274c.592,1.335,1.22,2.135,2.677,2.28.291.029.554.37.809.7a4.8,4.8,0,0,0,.378.451,2.121,2.121,0,0,0,.242.2c.041.03.082.061.123.093.1-.121.19-.18.265-.18.1,0,.173.109.241.215a.924.924,0,0,0,.114.154l.286.022.286.022a1.137,1.137,0,0,1,.128-.008.447.447,0,0,1,.351.126.539.539,0,0,1,.084.435c.033.04.069.08.1.118a1.671,1.671,0,0,1,.2.255c.213.362.333.628.271.837s-.3.357-.683.546c-.3.146-.592.31-.877.468-.26.145-.529.294-.8.43a4.615,4.615,0,0,1-1.057.424c-.375.083-.559.127-.621.242s0,.282.124.622a3.954,3.954,0,0,1,.2.649c.113.6-.19.706-.781.85a4.144,4.144,0,0,0-1.182.585c-.187.119-.381.241-.576.345a.045.045,0,0,1-.022,0,.379.379,0,0,1-.143-.061c-.029-.017-.059-.033-.085-.045l-.186.176-.089.084-.136.129a.687.687,0,0,0-.114-.01.29.29,0,0,0-.307.193.355.355,0,0,0,.055.343,1.6,1.6,0,0,1,.53,1.142,2.3,2.3,0,0,0,.22.778,3.134,3.134,0,0,1,.234.591c.03.092.06.187.093.279.023.065.06.142.1.217.075.158.153.321.106.372a.74.74,0,0,0-.251.517c.011.225.2.4.387.56a1.732,1.732,0,0,1,.276.283,4.351,4.351,0,0,1,.878,2.31l.075.294,0,.011.078.3a1.916,1.916,0,0,1,.107,1.892c-.029.1-.059.2-.086.3-.009.034-.022.075-.045.084a5.656,5.656,0,0,0-2.192,1.812l-.007.008a9.262,9.262,0,0,1-.657.666c-.157.148-.319.3-.47.46-.183.192-.362.394-.534.588s-.339.382-.514.567A.262.262,0,0,1,10.865,31ZM5.93,23.433h0c.129.078.257.157.385.237l.2.123a1.082,1.082,0,0,0,.7.284,1,1,0,0,0,.628-.239.809.809,0,0,1-.5.2.706.706,0,0,1-.578-.362c-.021.015-.044.029-.067.043s-.063.039-.09.06c-.009-.027-.021-.055-.032-.081a.351.351,0,0,1-.045-.182l0-.006h0l0,0a.536.536,0,0,1-.232.056A.711.711,0,0,1,5.93,23.433Zm5.575-10.414c0,.341.056.742.577.815a.722.722,0,0,1-.067.208,1.056,1.056,0,0,0,.2-.231l-.034-.021a.879.879,0,0,0-.087-.049l.129-.133.1-.1a1.4,1.4,0,0,1-.395.071.4.4,0,0,1-.3-.1A.633.633,0,0,1,11.505,13.019Zm4.955-2.168.065.074-.065-.073-.008-.009-.292-.328h0c.1.109.2.22.3.331l0,.006Z" transform="translate(63 144)" fill="#3f093d"/>
    <path id="Fill_10" data-name="Fill 10" d="M20.192,22h0c-.036-.005-.082-.008-.126-.01-.094,0-.191-.009-.2-.046-.122-.312-.227-.636-.328-.95-.041-.127-.082-.254-.124-.38-.253-.76-.418-1.078-.78-1.078a2.778,2.778,0,0,0-1.018.356,1.837,1.837,0,0,0-.225.137l-.093.062-.388.1-.388.1-.723.216-1.193.355a1.37,1.37,0,0,1-.373.075.559.559,0,0,1-.472-.3c-.087-.126-.349-.131-.6-.136a3.093,3.093,0,0,1-.334-.018l-.772.1-.386.048H10.114c-.047,0-.093,0-.14,0-.1,0-.206,0-.3.008s-.2.008-.309.008A1.582,1.582,0,0,1,8.283,20.3l-.065-.052a1,1,0,0,1-.451-.627,4.748,4.748,0,0,0-.373-.954c-.062-.131-.127-.266-.185-.4q-.2-.365-.4-.732c-.838-.292-.964-1.039-1.085-1.761-.015-.093-.034-.186-.053-.276-.009-.043-.017-.083-.025-.123a.562.562,0,0,0-.065,0,.18.18,0,0,1-.119-.027c-.077-.081-.159-.161-.238-.239-.459-.451-.933-.917-.7-1.718a2.9,2.9,0,0,0-.593-1.519,6.274,6.274,0,0,1-.375-.647c-.09-.138-.194-.275-.295-.407a3.022,3.022,0,0,1-.557-.95c-.187-.671-.647-.731-1.134-.793l-.065-.008-.013,0C1.05,9,.827,8.97.734,8.841s-.052-.352.039-.807c.081-.4.2-.807.31-1.2.05-.175.1-.355.15-.533L.8,5.742C.789,5.731.767,5.719.747,5.707.7,5.684.66,5.659.661,5.638A4.279,4.279,0,0,0,.327,3.991a7.041,7.041,0,0,1-.285-.97c-.066-.346-.055-.533.038-.646s.28-.162.638-.162h.1L1.2,2.3c.386.09.784.184,1.17.3.054.016.083.123.111.227a1.384,1.384,0,0,0,.042.137l.3.353c.3.347.6.7.905,1.055.036.041.127.137.2.137h.008a.24.24,0,0,0,.159-.178c0-.2-.022-.412-.039-.613-.009-.112-.019-.229-.027-.344A4.8,4.8,0,0,1,4.486.4c.17-.276.34-.4.533-.4a.783.783,0,0,1,.454.192L5.624.2l.809.046h.385l.294.07.294.07A3.032,3.032,0,0,1,7.783.364a3.183,3.183,0,0,1,2.636,1.828,3.442,3.442,0,0,0,.478.592.467.467,0,0,0,.283.111.166.166,0,0,0,.069-.013,5.848,5.848,0,0,1,2.2-.4c.306-.016.621-.032.929-.069.642.209.867.65.779,1.522l.31.335.619.669c.074.181.147.363.22.544.189.472.384.959.608,1.422a.855.855,0,0,0,.36.3,2.268,2.268,0,0,1,.2.123l.077.528q.045.309.09.617a1.5,1.5,0,0,0,.225.418.871.871,0,0,1,.214.817,1.9,1.9,0,0,1,.847,1.215,2.894,2.894,0,0,0,.416.863.859.859,0,0,0,.157.132c.056.04.1.071.093.085-.172.388.058.573.281.751.169.136.344.276.336.5.516.1.587.474.655.839a1.869,1.869,0,0,0,.127.461l.187.429.333.76,1.191,2.2.357.757c.079.108.165.215.248.318a4.209,4.209,0,0,1,.5.727,1.208,1.208,0,0,1,.109,1.069,1.319,1.319,0,0,1-.962.633c-.222.051-.449.1-.669.139l-.332.066-.882.175L20.192,22ZM6.265,12.389a.778.778,0,0,1,.529.234A1.639,1.639,0,0,0,5.657,12.2c-.134-.09-.266-.182-.4-.274-.236-.164-.48-.333-.726-.488.387.245.793.55,1.425,1.028A.623.623,0,0,1,6.265,12.389ZM2.991,7.383h0c.027.062.059.124.09.184.02.039.04.077.058.116a1.172,1.172,0,0,0,.574.229.328.328,0,0,0,.294-.171.255.255,0,0,1-.216.137A.589.589,0,0,1,3.4,7.627l-.029.018c-.017.011-.033.021-.05.029l-.013,0a.234.234,0,0,1-.1-.048.629.629,0,0,0-.06-.037L3.2,7.522l.038-.049a.294.294,0,0,1-.078.012A.188.188,0,0,1,2.991,7.383Z" transform="translate(57 66)" fill="#3f093d"/>
    <path id="Fill_12" data-name="Fill 12" d="M12.307,30a4.226,4.226,0,0,1-1.154-.22,5.592,5.592,0,0,0-.872-.2,1.816,1.816,0,0,1-.9-.649l-.134-.14c-.45-.46-.263-.945.007-1.487.044-.089.1-.24.074-.266-.138-.113-.286-.221-.428-.325a6.292,6.292,0,0,1-.612-.486,2.076,2.076,0,0,1-.926-1.706l-.04-.365q-.136-.267-.27-.534c-.222-.44-.451-.9-.694-1.334a4.594,4.594,0,0,0-.4-.573c-.064-.082-.131-.167-.193-.252A2.837,2.837,0,0,1,4.653,19.54a4.347,4.347,0,0,0-1.042-3.165L3.6,16.357l-.056-.084a1.334,1.334,0,0,1-.269-.577,5.3,5.3,0,0,0-.6-1.818,7.484,7.484,0,0,1-.5-1.247c-.057-.214-.111-.432-.163-.642l0-.009-.07-.281q-.311-.85-.619-1.7c-.058-.135-.121-.271-.182-.4a7.677,7.677,0,0,1-.376-.919C.691,8.427.6,8.179.518,7.939a6.078,6.078,0,0,1-.505-2.55L1.137,5l.009,0,.018-.006L2.278,4.61c.125-.343.259-.69.388-1.025a25.105,25.105,0,0,0,.826-2.376C3.717.384,4.091,0,4.667,0a2.336,2.336,0,0,1,.889.217,1.991,1.991,0,0,1,1.37,1.264c.043.1.139.249.208.249h.037c.554,0,.669.378.779.744a2.125,2.125,0,0,0,.136.367,3.617,3.617,0,0,1,.272.822c.031.125.062.254.1.378a.359.359,0,0,1,.04.172l.012.008c.335.229.681.467.529.967l.193.391c.066.192.13.381.193.57.118.1.234.2.346.3a3.466,3.466,0,0,0,.827.619,3.077,3.077,0,0,0,.308.117c.394.134.734.25.617.882-.02.109.114.247.244.381a2.248,2.248,0,0,1,.169.187A2.164,2.164,0,0,1,12,8.871c.04.176.082.357.192.424a.488.488,0,0,1,.219.614,1.1,1.1,0,0,0-.027.248l.32.253c.306.241.622.489.928.739l.019.015c.1.077.227.183.218.261a2.414,2.414,0,0,0,.858,1.9c.126.142.255.289.37.437a2.858,2.858,0,0,1,.468,1.084c.024.089.049.182.076.272a4.29,4.29,0,0,1,.125.67c.013.1.027.205.044.307l.1.2.1.2v.568a.793.793,0,0,1-.688.384,2.362,2.362,0,0,1-.606-.113c-.071-.02-.141-.039-.212-.056L14.7,18c.3.256.408.407.385.522-.019.1-.134.175-.385.26l.059.269c.1.456.2.927.312,1.389.019.082.075.228.118.228a.535.535,0,0,1,.414.129.555.555,0,0,1,.046.441.642.642,0,0,0,.02.4q-.014.234-.027.467v.014q-.014.241-.028.482a2.279,2.279,0,0,0,.064.249.822.822,0,0,1,.052.5c-.152.379-.325.757-.493,1.122a11.12,11.12,0,0,0-.96,2.681,1,1,0,0,1-.253.418c-.052.062-.106.127-.151.192.017.061.035.124.053.185a1.61,1.61,0,0,0,.07.164c.057.12.115.244.075.309s-.064.1-.1.15c-.186.283-.362.551-.079.909l-.551.4-.416.014A1.841,1.841,0,0,1,12.307,30Zm-2.259-3.123c.178.149.351.311.519.468a3.7,3.7,0,0,0,1.984,1.188l.167.6.165.592a5.5,5.5,0,0,1-.2-1.227l-.019.013-.02.013c-.008-.027-.02-.054-.031-.081a.345.345,0,0,1-.042-.178.245.245,0,0,1,.017-.056c-.069.006-.152.011-.232.011a2.837,2.837,0,0,1-1.907-.99C10.316,27.111,10.183,26.99,10.048,26.877Zm2.89-10.4c.122.285.289.346.408.347-.136-.014-.213-.138-.218-.347h-.19ZM9.145,10.622a.806.806,0,0,1,.674.474A2.759,2.759,0,0,0,8.173,9.9c.078.086.156.16.224.225a1.634,1.634,0,0,1,.212.225.328.328,0,0,1,.058.118.316.316,0,0,1-.005.229c.007.017.013.029.022.048A1.133,1.133,0,0,1,9.145,10.622Z" transform="translate(79 106)" fill="#3f093d"/>
    <path id="Fill_14" data-name="Fill 14" d="M10.3,28a1.282,1.282,0,0,1-.983-.817c-.289-.688-.6-1.378-.905-2.046q-.2-.447-.4-.895l-.431-.871-.008-.016-.006-.012-.324-.655q-.095-.193-.192-.387l-.389-.563L5.7,20.36a8.6,8.6,0,0,0-1.275-2.839,2.1,2.1,0,0,1-.28-.869,4.372,4.372,0,0,1-.011-.622,4.382,4.382,0,0,0-.011-.623.477.477,0,0,1,.073-.379c.1-.114.286-.115.482-.117H4.7c.026-.5.373-.6.708-.694.081-.023.165-.048.243-.077q.012-.139.024-.278c.008-.1.016-.191.024-.285-.005-.063-.009-.125-.013-.187a1.519,1.519,0,0,0-.621-1.369.814.814,0,0,1-.243-.449c-.087-.276-.185-.588-.55-.681-.026-.007-.048-.037-.068-.067s-.041-.06-.067-.065c-1.468-.271-2.028-1.181-1.815-2.949a.833.833,0,0,0-.042-.3c-.012-.047-.025-.1-.034-.143V6.4Q2.121,6.011,2,5.62l0-.006c-.2-.635-.415-1.292-.646-1.93C1.169,3.19.959,2.7.755,2.222.664,2.009.57,1.789.48,1.571.231,1.548.088,1.488.03,1.384A.442.442,0,0,1,.084.977.965.965,0,0,1,.108.156.442.442,0,0,1,.482,0a1.226,1.226,0,0,1,.3.043,3.859,3.859,0,0,1,.409.14,2.306,2.306,0,0,0,.646.18c.507.035.741.145.787.7.027.332.126.468.344.468a1.65,1.65,0,0,0,.506-.119,1.944,1.944,0,0,1,.636-.076h.145c.082,0,.169,0,.255-.005l.792.014A1.685,1.685,0,0,1,5.6,1.323,3.179,3.179,0,0,1,7,1.776l.005,0,.357.549a1.161,1.161,0,0,1,.66,1.022.848.848,0,0,0,.675.8,2.114,2.114,0,0,1,1.354,1.859l.281.53c.232.438.471.891.715,1.333.157.284.326.567.49.841.082.138.162.271.241.406l.443.107h0q.517.126,1.035.25c.194.046.389.09.584.134l.01,0,.267.061c.055,0,.107-.006.156-.006a.665.665,0,0,1,.762.805c0,.033,0,.065,0,.1s0,.067,0,.1a2.041,2.041,0,0,0,.072.648,1.618,1.618,0,0,1,0,1,.249.249,0,0,0,0,.234.318.318,0,0,0,.262.093,1.08,1.08,0,0,0,.334-.057,2.1,2.1,0,0,1,.758-.142,3.8,3.8,0,0,1,1.688.528.969.969,0,0,1-.04,1.379c-.129.1-.257.214-.38.322a5.427,5.427,0,0,1-.889.672c-.593.329-.465.727-.266,1.141l.151.233.009.014.085.132a3.981,3.981,0,0,1,1.291,2.526q.081.5.164,1.008l.027.165-.191.768.108.192.324.58c.574.445.481,1.042.39,1.62-.012.074-.023.148-.033.221-.025.193-.479.418-.76.47a12.185,12.185,0,0,1-1.367.144c-.181.012-.368.025-.552.041a.386.386,0,0,1-.167.043l-.407.149-.256,0h-.128a1.064,1.064,0,0,1-.306.051c-.422,0-.6-.355-.769-.7-.035-.07-.071-.143-.109-.212a.811.811,0,0,0-.726-.382.821.821,0,0,0-.68.32.47.47,0,0,0-.062.172c-.006.029-.013.058-.022.086.414.1.488.411.567.741a1.075,1.075,0,0,0,.355.687,1.3,1.3,0,0,1,.415.955,1.623,1.623,0,0,1-.315,1.215,1.031,1.031,0,0,1-.693.186h-.095c-.24,0-.483-.02-.718-.04H12.1c-.233-.02-.474-.04-.714-.04a2.826,2.826,0,0,0-.95.145A.42.42,0,0,1,10.3,28Zm7.4-8.741.032.051.073.116c0-.01,0-.018,0-.027s0-.028,0-.045a.11.11,0,0,1,.092-.046.454.454,0,0,1,.19.068l-.152-.082-.016-.009-.161-.087c-.171-.089-.354-.184-.536-.274a2.364,2.364,0,0,1,.435.3l.005-.006.005-.006.031.05Zm-5.119-2.581h0l.041.035,1.3,1.128c-.182.5.114.728.4.945a1.422,1.422,0,0,1,.376.365,1.4,1.4,0,0,0-.3-.317,1.011,1.011,0,0,1-.431-1.114.5.5,0,0,1-.166-.24.058.058,0,0,1,.009-.042c.007,0,.007-.005.008-.008a.025.025,0,0,1,0-.012.076.076,0,0,0-.009.014l0,0a2.722,2.722,0,0,1-1.191-.724ZM6.566,15.442a.774.774,0,0,1,.256.073c.02.063.039.131.057.2.075.272.153.552.362.552a.606.606,0,0,0,.352-.173.581.581,0,0,1-.334.165c-.231,0-.3-.361-.361-.833a.423.423,0,0,1-.065-.1.123.123,0,0,1-.005-.063.022.022,0,0,1,0-.007c-.058.034-.112.06-.16.083-.116.055-.2.094-.218.2A.1.1,0,0,1,6.566,15.442Z" transform="translate(43 91)" fill="#3f093d"/>
    <path id="Fill_16" data-name="Fill 16" d="M16.906,44a.524.524,0,0,1-.387-.2,3.085,3.085,0,0,1-2.267-.823,2.413,2.413,0,0,1-.607-1.856l-.016-.016-.006-.006L12.9,40.36c-.5-.422-.348-.914-.148-1.382l-.491-.572-.006-.007c-.4-.47-.823-.957-1.227-1.445a1.187,1.187,0,0,1-.169-.333c-.02-.053-.041-.107-.065-.158L9.284,33.95l-.053-.039c-.057-.041-.084-.062-.082-.066a1.793,1.793,0,0,1,.139-.2c.1-.131.191-.254.162-.333-.055-.148-.108-.3-.16-.449a5.881,5.881,0,0,0-.8-1.707,3.039,3.039,0,0,1-.735-2.065,3.473,3.473,0,0,1-1.471-3.114q-.093-.39-.189-.78c0-.066,0-.131,0-.2l-.2-.364-.013-.024-.416-.768-.174-.337,0-.008-.529-1.025Q4.379,21.506,4,20.539l0-.008c-.04-.164-.078-.328-.116-.492-.092-.394-.187-.8-.3-1.2-.075-.256-.175-.509-.272-.753-.058-.145-.118-.3-.171-.445a1.435,1.435,0,0,1-.109-.446c-.007-.274,0-.554.011-.824,0-.1.007-.206.009-.308l-.191-.972-.006-.012a2.065,2.065,0,0,1-.3-1.513.824.824,0,0,0-.361-1.031c-.163-.11-.2-.424-.23-.728a3.805,3.805,0,0,0-.058-.4l-.191-.782c-.061-.087-.122-.173-.183-.259-.154-.216-.31-.435-.451-.659C1,9.591.887,9.367.938,9.293c.514-.755.108-1.272-.284-1.771a4.039,4.039,0,0,1-.317-.443A2.132,2.132,0,0,1,.1,6.156,2.989,2.989,0,0,0,0,5.583l.265-.6.265-.6a.517.517,0,0,0,.033-.051c.022-.038.045-.076.076-.087,1.24-.411,1.389-.578,1.592-1.791a1.092,1.092,0,0,1,.963-.789l.476-.291.476-.291L4.341.961l.02-.014L4.7.716A4.306,4.306,0,0,0,5.052.441,1.431,1.431,0,0,1,5.832,0,3.149,3.149,0,0,1,7.255.553L7.318.59a3.952,3.952,0,0,1,.57.434,2.219,2.219,0,0,0,.87.551.864.864,0,0,1,.779.732.891.891,0,0,0,.343.384,2.464,2.464,0,0,1,.195.163l.061,0,.1,0,.1,0c.075,0,.156.006.192.051.281.361.546.744.8,1.115q.135.2.271.391c.08.075.159.155.235.232a3.745,3.745,0,0,0,.545.485,1.966,1.966,0,0,1,1.135,1.8.188.188,0,0,0,.066.119.94.94,0,0,0,.521.272h.021a1.193,1.193,0,0,1,.12-.006c.5,0,.614.364.733.75l.021.067c.035.112.061.228.086.341a3.154,3.154,0,0,0,.128.461c.05.129.234.32.291.32l.008,0a.871.871,0,0,1,.341-.086c.394,0,.409.474.417.729,0,.036,0,.068,0,.093a3.8,3.8,0,0,0,.626,1.617,5.5,5.5,0,0,1,.5,1.01,6.9,6.9,0,0,1,.212.919c.025.137.051.278.08.417q-.013.241-.026.482v.02q-.013.231-.025.462a1.391,1.391,0,0,1-.869.983c-.766.353-1.5.768-2.171,1.164a2.446,2.446,0,0,0-.628.608c-.058.072-.016.273.037.39.148.323.309.645.465.957l.177.355.151.207q.207.283.413.566c.221.594.448,1.2.668,1.778l.067.177c.138.151.281.3.419.448A14.332,14.332,0,0,1,17.4,23.719a.8.8,0,0,1,.072.5,1.849,1.849,0,0,0,.006.343c.051.338-.123.384-.325.437a1.382,1.382,0,0,0-.174.054,2.7,2.7,0,0,0-.583.369c-.08.061-.163.123-.246.18l-.185.19-.181.186a2.268,2.268,0,0,0-.219.22.871.871,0,0,1-.636.383.715.715,0,0,1-.109-.009c-.014.121-.029.241-.042.362l-.329.187-.024.014-.01.005-.343.2a1.475,1.475,0,0,0,.523,1.687A11.964,11.964,0,0,1,17.32,32.09h.012a.481.481,0,0,1,.367.13.818.818,0,0,1,.112.609c0,.023,0,.045,0,.066a1.912,1.912,0,0,0,.928,1.662c.132.113.268.23.393.354a1.381,1.381,0,0,1,.461,1.361.213.213,0,0,0,0,.178,1.939,1.939,0,0,0,.194.424c.212.382.431.776-.211,1.154a.385.385,0,0,1-.04.176,15,15,0,0,1-.778,1.92l-.058.127a8.208,8.208,0,0,0-.511,1.805c-.054.265-.109.539-.174.8-.07.1-.139.2-.2.294a4.564,4.564,0,0,1-.511.661A.56.56,0,0,1,16.906,44Z" transform="translate(24 116)" fill="#3f093d"/>
    <path id="Fill_18" data-name="Fill 18" d="M.108.094C.071.058.036.031,0,0,.043.064.082.115.108.094" transform="translate(60.784 109.785)" fill="#3f093d"/>
  </g>
</svg>
