<svg width="21" height="22" viewBox="0 0 21 22" fill="none" xmlns="http://www.w3.org/2000/svg">
<path d="M10.8227 18.3933V11.6613C10.8227 10.7133 10.0537 9.94434 9.10567 9.94434C8.15767 9.94434 7.38867 10.7133 7.38867 11.6613V14.5113" stroke="#0E020E" stroke-width="2" stroke-linecap="round" stroke-linejoin="round"/>
<path d="M8.7463 9.83035L10.0413 3.60135C10.2103 2.78735 9.7003 1.98535 8.8913 1.79335L8.88331 1.79135C8.18431 1.62635 7.4643 1.96635 7.1483 2.61135L2.1393 12.8464C1.7093 13.7244 1.6323 14.7314 1.9243 15.6644L3.3743 20.3034" stroke="#0E020E" stroke-width="2" stroke-linecap="round" stroke-linejoin="round"/>
<path d="M10.8223 18.3933V11.6613C10.8223 10.7133 11.5913 9.94434 12.5393 9.94434C13.4873 9.94434 14.2573 10.7133 14.2573 11.6613V14.5113" stroke="#0E020E" stroke-width="2" stroke-linecap="round" stroke-linejoin="round"/>
<path d="M12.8999 9.83035L11.6049 3.60135C11.4349 2.78735 11.9459 1.98535 12.7549 1.79335L12.7619 1.79135C13.4619 1.62635 14.1809 1.96635 14.4969 2.61135L19.5069 12.8464C19.9369 13.7244 20.0129 14.7314 19.7219 15.6644L18.2719 20.3034" stroke="#0E020E" stroke-width="2" stroke-linecap="round" stroke-linejoin="round"/>
</svg>
