<svg xmlns="http://www.w3.org/2000/svg" width="20.169" height="20.833" viewBox="0 0 20.169 20.833">
  <g id="Group_9" data-name="Group 9" transform="translate(0.262 0.277)">
    <path id="Stroke_1" data-name="Stroke 1" d="M3.434,8.449V1.717A1.717,1.717,0,1,0,0,1.717v2.85" transform="translate(6.389 8.944)" fill="none" stroke="#0e020e" stroke-linecap="round" stroke-linejoin="round" stroke-miterlimit="10" stroke-width="2"/>
    <path id="Stroke_3" data-name="Stroke 3" d="M7,8.08,8.291,1.851A1.538,1.538,0,0,0,7.141.043l-.008,0A1.538,1.538,0,0,0,5.4.861L.389,11.1a3.813,3.813,0,0,0-.215,2.818l1.45,4.639" transform="translate(0.75 0.75)" fill="none" stroke="#0e020e" stroke-linecap="round" stroke-linejoin="round" stroke-miterlimit="10" stroke-width="2"/>
    <path id="Stroke_5" data-name="Stroke 5" d="M0,8.449V1.717a1.718,1.718,0,0,1,3.435,0v2.85" transform="translate(9.823 8.944)" fill="none" stroke="#0e020e" stroke-linecap="round" stroke-linejoin="round" stroke-miterlimit="10" stroke-width="2"/>
    <path id="Stroke_7" data-name="Stroke 7" d="M1.328,8.08.033,1.851A1.537,1.537,0,0,1,1.183.043l.007,0a1.537,1.537,0,0,1,1.735.82L7.935,11.1a3.818,3.818,0,0,1,.215,2.818L6.7,18.553" transform="translate(10.572 0.75)" fill="none" stroke="#0e020e" stroke-linecap="round" stroke-linejoin="round" stroke-miterlimit="10" stroke-width="2"/>
  </g>
</svg>
