<?xml version="1.0" encoding="UTF-8"?>
<svg width="60px" height="54px" viewBox="0 0 60 54" version="1.1" xmlns="http://www.w3.org/2000/svg" xmlns:xlink="http://www.w3.org/1999/xlink">
    <!-- Generator: Sketch 53.2 (72643) - https://sketchapp.com -->
    <title>icon</title>
    <desc>Created with Sketch.</desc>
    <defs>
        <rect id="path-1" x="0" y="0" width="60" height="54"></rect>
    </defs>
    <g id="PROFILE-PAGE" stroke="none" stroke-width="1" fill="none" fill-rule="evenodd">
        <g transform="translate(-1090.000000, -1025.000000)" id="social-share">
            <g transform="translate(970.000000, 995.000000)">
                <g id="icon" transform="translate(120.000000, 30.000000)">
                    <mask id="mask-2" fill="white">
                        <use xlink:href="#path-1"></use>
                    </mask>
                    <use id="Rectangle-4" fill="#D8D8D8" opacity="0" xlink:href="#path-1"></use>
                    <g id="Group-19" mask="url(#mask-2)">
                        <g transform="translate(30.000000, 33.000000) scale(1, -1) translate(-30.000000, -33.000000) translate(-21.000000, -18.000000)">
                            <g id="Group-18" transform="translate(14.000000, 14.000000)">
                                <circle id="Oval-7" fill="#FFFFFF" opacity="0" cx="37" cy="37" r="37"></circle>
                                <circle id="Oval-7-Copy" stroke="#2678E5" stroke-width="4" fill="#FFFFFF" cx="37" cy="37" r="8"></circle>
                                <circle id="Oval-7-Copy-3" fill="#2678E5" cx="37" cy="62" r="8"></circle>
                                <path d="M37,56 L31.7775879,56 C33.3947754,54.5935872 34.2033691,52.7602539 34.2033691,50.5 C34.2033691,48.2397461 33.1355794,46.4064128 31,45 L37,45 L43,45 C40.8644206,46.4064128 39.7966309,48.2397461 39.7966309,50.5 C39.7966309,52.7602539 40.6052246,54.5935872 42.2224121,56 L37,56 Z" id="Combined-Shape" fill="#2678E5"></path>
                            </g>
                            <g id="Group-18-Copy" transform="translate(51.000000, 51.000000) rotate(120.000000) translate(-51.000000, -51.000000) translate(14.000000, 14.000000)">
                                <circle id="Oval-7" fill="#FFFFFF" opacity="0" cx="37" cy="37" r="37"></circle>
                                <circle id="Oval-7-Copy" stroke="#2678E5" stroke-width="4" fill="#FFFFFF" cx="37" cy="37" r="8"></circle>
                                <circle id="Oval-7-Copy-3" fill="#2678E5" cx="37" cy="62" r="8"></circle>
                                <path d="M37,56 L31.7775879,56 C33.3947754,54.5935872 34.2033691,52.7602539 34.2033691,50.5 C34.2033691,48.2397461 33.1355794,46.4064128 31,45 L37,45 L43,45 C40.8644206,46.4064128 39.7966309,48.2397461 39.7966309,50.5 C39.7966309,52.7602539 40.6052246,54.5935872 42.2224121,56 L37,56 Z" id="Combined-Shape" fill="#2678E5"></path>
                            </g>
                            <g id="Group-18-Copy-2" transform="translate(51.000000, 51.000000) scale(-1, 1) rotate(120.000000) translate(-51.000000, -51.000000) translate(14.000000, 14.000000)">
                                <circle id="Oval-7" fill="#FFFFFF" opacity="0" cx="37" cy="37" r="37"></circle>
                                <circle id="Oval-7-Copy" stroke="#2678E5" stroke-width="4" fill="#FFFFFF" cx="37" cy="37" r="8"></circle>
                                <circle id="Oval-7-Copy-3" fill="#2678E5" cx="37" cy="62" r="8"></circle>
                                <path d="M37,56 L31.7775879,56 C33.3947754,54.5935872 34.2033691,52.7602539 34.2033691,50.5 C34.2033691,48.2397461 33.1355794,46.4064128 31,45 L37,45 L43,45 C40.8644206,46.4064128 39.7966309,48.2397461 39.7966309,50.5 C39.7966309,52.7602539 40.6052246,54.5935872 42.2224121,56 L37,56 Z" id="Combined-Shape" fill="#2678E5"></path>
                            </g>
                        </g>
                    </g>
                </g>
            </g>
        </g>
    </g>
</svg>