<svg xmlns="http://www.w3.org/2000/svg" width="27.411" height="32.539" viewBox="0 0 27.411 32.539">
  <path id="Fill_26" data-name="Fill 26" d="M8.246,32.539A7.54,7.54,0,0,1,.715,25.007a7.624,7.624,0,0,1,7.178-7.68,14.286,14.286,0,0,1,1.634-.085,18.645,18.645,0,0,1,2.065.116l0-3.055A15.926,15.926,0,0,0,8.2,13.9a11.506,11.506,0,0,0-4.628.95l-1.923.825L0,11.832l1.923-.825a15.985,15.985,0,0,1,6.34-1.28,19.162,19.162,0,0,1,3.332.3v-2.5a7.531,7.531,0,1,1,15.062,0,7.627,7.627,0,0,1-7.177,7.681,14.4,14.4,0,0,1-1.633.084,18.576,18.576,0,0,1-2.065-.117l0,3.092a13.9,13.9,0,0,0,3.444.494,10.318,10.318,0,0,0,4.5-1.049l1.892-.9L27.411,20.6l-1.731.821a19.338,19.338,0,0,1-4.75,1.407,10.109,10.109,0,0,1-1.346.083A22.32,22.32,0,0,1,14.49,22.2l-.247-.068-.01,0c-.115-.031-.226-.06-.337-.088l-.017-.005a14.753,14.753,0,0,0-4.338-.759,4.935,4.935,0,0,0-2.74.595,3.411,3.411,0,0,0-1.9,3.139,3.344,3.344,0,1,0,6.689,0V23.219a18.177,18.177,0,0,1,2.288.566h0l.017.005.347.091.247.068c.272.069.717.175,1.287.29v.768A7.54,7.54,0,0,1,8.246,32.539ZM19.126,4.187a3.348,3.348,0,0,0-3.344,3.344v3.428a14.4,14.4,0,0,0,2.065.151A9.657,9.657,0,0,0,19,11.053c.053-.007.114-.014.166-.016A3.433,3.433,0,0,0,22.47,7.531,3.348,3.348,0,0,0,19.126,4.187Z" transform="translate(0 0)" fill="#00676b"/>
</svg>
